<?xml version="1.0" encoding="UTF-8" standalone="no"?>
<svg
   width="310.03125"
   zoomAndPan="magnify"
   viewBox="0 0 232.52344 277.84763"
   height="370.4635"
   preserveAspectRatio="xMidYMid"
   version="1.0"
   id="svg3945"
   sodipodi:docname="Sheba Enterprise.svg"
   xmlns:inkscape="http://www.inkscape.org/namespaces/inkscape"
   xmlns:sodipodi="http://sodipodi.sourceforge.net/DTD/sodipodi-0.dtd"
   xmlns="http://www.w3.org/2000/svg"
   xmlns:svg="http://www.w3.org/2000/svg">
  <sodipodi:namedview
     id="namedview3945"
     pagecolor="#ffffff"
     bordercolor="#000000"
     borderopacity="0.25"
     inkscape:showpageshadow="2"
     inkscape:pageopacity="0.0"
     inkscape:pagecheckerboard="0"
     inkscape:deskcolor="#d1d1d1"
     inkscape:export-bgcolor="#00000000" />
  <defs
     id="defs2384">
    <clipPath
       id="e911b74092">
      <path
         d="M 531.73437,862.82031 H 764.25781 V 1048.2852 H 531.73437 Z m 0,0"
         clip-rule="nonzero"
         id="path1117" />
    </clipPath>
    <clipPath
       id="ba84473f0f">
      <path
         d="m 550.47656,862.82031 h 195.03906 c 4.96875,0 9.73829,1.97656 13.25391,5.48828 3.51172,3.51563 5.48828,8.28516 5.48828,13.25391 v 147.9805 c 0,4.9726 -1.97656,9.7383 -5.48828,13.2539 -3.51562,3.5156 -8.28516,5.4883 -13.25391,5.4883 H 550.47656 c -4.97265,0 -9.73828,-1.9727 -13.2539,-5.4883 -3.51563,-3.5156 -5.48829,-8.2813 -5.48829,-13.2539 V 881.5625 c 0,-4.96875 1.97266,-9.73828 5.48829,-13.25391 3.51562,-3.51172 8.28125,-5.48828 13.2539,-5.48828 z m 0,0"
         clip-rule="nonzero"
         id="path1118" />
    </clipPath>
    <clipPath
       id="7e5e5dd26e">
      <path
         d="m 531.73437,770.4375 h 232.52344 v 232.5234 H 531.73437 Z m 0,0"
         clip-rule="nonzero"
         id="path1119" />
    </clipPath>
    <clipPath
       id="6a3dee51b1">
      <path
         d="m 550.47656,770.4375 h 195.03906 c 4.96875,0 9.73829,1.97656 13.25391,5.48828 3.51172,3.51563 5.48828,8.28516 5.48828,13.25391 v 195.03906 c 0,4.97266 -1.97656,9.73828 -5.48828,13.25391 -3.51562,3.51564 -8.28516,5.48824 -13.25391,5.48824 H 550.47656 c -4.97265,0 -9.73828,-1.9726 -13.2539,-5.48824 -3.51563,-3.51563 -5.48829,-8.28125 -5.48829,-13.25391 V 789.17969 c 0,-4.96875 1.97266,-9.73828 5.48829,-13.25391 3.51562,-3.51172 8.28125,-5.48828 13.2539,-5.48828 z m 0,0"
         clip-rule="nonzero"
         id="path1120" />
    </clipPath>
    <linearGradient
       x1="-1.00523e-05"
       gradientTransform="matrix(0.908298,0,0,0.908298,531.73332,770.43815)"
       y1="-1.00523e-05"
       x2="255.99994"
       gradientUnits="userSpaceOnUse"
       y2="255.99994"
       id="6297332de4">
      <stop
         stop-opacity="1"
         stop-color="rgb(81.599426%, 81.599426%, 81.599426%)"
         offset="0"
         id="stop1120" />
      <stop
         stop-opacity="1"
         stop-color="rgb(81.742859%, 81.742859%, 81.742859%)"
         offset="0.015625"
         id="stop1121" />
      <stop
         stop-opacity="1"
         stop-color="rgb(82.029724%, 82.029724%, 82.029724%)"
         offset="0.03125"
         id="stop1122" />
      <stop
         stop-opacity="1"
         stop-color="rgb(82.318115%, 82.318115%, 82.318115%)"
         offset="0.046875"
         id="stop1123" />
      <stop
         stop-opacity="1"
         stop-color="rgb(82.60498%, 82.60498%, 82.60498%)"
         offset="0.0625"
         id="stop1124" />
      <stop
         stop-opacity="1"
         stop-color="rgb(82.893372%, 82.893372%, 82.893372%)"
         offset="0.078125"
         id="stop1125" />
      <stop
         stop-opacity="1"
         stop-color="rgb(83.180237%, 83.180237%, 83.180237%)"
         offset="0.09375"
         id="stop1126" />
      <stop
         stop-opacity="1"
         stop-color="rgb(83.467102%, 83.467102%, 83.467102%)"
         offset="0.109375"
         id="stop1127" />
      <stop
         stop-opacity="1"
         stop-color="rgb(83.755493%, 83.755493%, 83.755493%)"
         offset="0.125"
         id="stop1128" />
      <stop
         stop-opacity="1"
         stop-color="rgb(84.042358%, 84.042358%, 84.042358%)"
         offset="0.140625"
         id="stop1129" />
      <stop
         stop-opacity="1"
         stop-color="rgb(84.33075%, 84.33075%, 84.33075%)"
         offset="0.15625"
         id="stop1130" />
      <stop
         stop-opacity="1"
         stop-color="rgb(84.617615%, 84.617615%, 84.617615%)"
         offset="0.171875"
         id="stop1131" />
      <stop
         stop-opacity="1"
         stop-color="rgb(84.90448%, 84.90448%, 84.90448%)"
         offset="0.1875"
         id="stop1132" />
      <stop
         stop-opacity="1"
         stop-color="rgb(85.192871%, 85.192871%, 85.192871%)"
         offset="0.203125"
         id="stop1133" />
      <stop
         stop-opacity="1"
         stop-color="rgb(85.479736%, 85.479736%, 85.479736%)"
         offset="0.21875"
         id="stop1134" />
      <stop
         stop-opacity="1"
         stop-color="rgb(85.768127%, 85.768127%, 85.768127%)"
         offset="0.234375"
         id="stop1135" />
      <stop
         stop-opacity="1"
         stop-color="rgb(86.054993%, 86.054993%, 86.054993%)"
         offset="0.25"
         id="stop1136" />
      <stop
         stop-opacity="1"
         stop-color="rgb(86.343384%, 86.343384%, 86.343384%)"
         offset="0.265625"
         id="stop1137" />
      <stop
         stop-opacity="1"
         stop-color="rgb(86.630249%, 86.630249%, 86.630249%)"
         offset="0.28125"
         id="stop1138" />
      <stop
         stop-opacity="1"
         stop-color="rgb(86.917114%, 86.917114%, 86.917114%)"
         offset="0.296875"
         id="stop1139" />
      <stop
         stop-opacity="1"
         stop-color="rgb(87.205505%, 87.205505%, 87.205505%)"
         offset="0.3125"
         id="stop1140" />
      <stop
         stop-opacity="1"
         stop-color="rgb(87.492371%, 87.492371%, 87.492371%)"
         offset="0.328125"
         id="stop1141" />
      <stop
         stop-opacity="1"
         stop-color="rgb(87.780762%, 87.780762%, 87.780762%)"
         offset="0.34375"
         id="stop1142" />
      <stop
         stop-opacity="1"
         stop-color="rgb(88.067627%, 88.067627%, 88.067627%)"
         offset="0.359375"
         id="stop1143" />
      <stop
         stop-opacity="1"
         stop-color="rgb(88.354492%, 88.354492%, 88.354492%)"
         offset="0.375"
         id="stop1144" />
      <stop
         stop-opacity="1"
         stop-color="rgb(88.642883%, 88.642883%, 88.642883%)"
         offset="0.390625"
         id="stop1145" />
      <stop
         stop-opacity="1"
         stop-color="rgb(88.929749%, 88.929749%, 88.929749%)"
         offset="0.40625"
         id="stop1146" />
      <stop
         stop-opacity="1"
         stop-color="rgb(89.21814%, 89.21814%, 89.21814%)"
         offset="0.421875"
         id="stop1147" />
      <stop
         stop-opacity="1"
         stop-color="rgb(89.505005%, 89.505005%, 89.505005%)"
         offset="0.4375"
         id="stop1148" />
      <stop
         stop-opacity="1"
         stop-color="rgb(89.793396%, 89.793396%, 89.793396%)"
         offset="0.453125"
         id="stop1149" />
      <stop
         stop-opacity="1"
         stop-color="rgb(90.080261%, 90.080261%, 90.080261%)"
         offset="0.46875"
         id="stop1150" />
      <stop
         stop-opacity="1"
         stop-color="rgb(90.367126%, 90.367126%, 90.367126%)"
         offset="0.484375"
         id="stop1151" />
      <stop
         stop-opacity="1"
         stop-color="rgb(90.655518%, 90.655518%, 90.655518%)"
         offset="0.5"
         id="stop1152" />
      <stop
         stop-opacity="1"
         stop-color="rgb(90.942383%, 90.942383%, 90.942383%)"
         offset="0.515625"
         id="stop1153" />
      <stop
         stop-opacity="1"
         stop-color="rgb(91.230774%, 91.230774%, 91.230774%)"
         offset="0.53125"
         id="stop1154" />
      <stop
         stop-opacity="1"
         stop-color="rgb(91.517639%, 91.517639%, 91.517639%)"
         offset="0.546875"
         id="stop1155" />
      <stop
         stop-opacity="1"
         stop-color="rgb(91.804504%, 91.804504%, 91.804504%)"
         offset="0.5625"
         id="stop1156" />
      <stop
         stop-opacity="1"
         stop-color="rgb(92.092896%, 92.092896%, 92.092896%)"
         offset="0.578125"
         id="stop1157" />
      <stop
         stop-opacity="1"
         stop-color="rgb(92.379761%, 92.379761%, 92.379761%)"
         offset="0.59375"
         id="stop1158" />
      <stop
         stop-opacity="1"
         stop-color="rgb(92.668152%, 92.668152%, 92.668152%)"
         offset="0.609375"
         id="stop1159" />
      <stop
         stop-opacity="1"
         stop-color="rgb(92.955017%, 92.955017%, 92.955017%)"
         offset="0.625"
         id="stop1160" />
      <stop
         stop-opacity="1"
         stop-color="rgb(93.243408%, 93.243408%, 93.243408%)"
         offset="0.640625"
         id="stop1161" />
      <stop
         stop-opacity="1"
         stop-color="rgb(93.530273%, 93.530273%, 93.530273%)"
         offset="0.65625"
         id="stop1162" />
      <stop
         stop-opacity="1"
         stop-color="rgb(93.817139%, 93.817139%, 93.817139%)"
         offset="0.671875"
         id="stop1163" />
      <stop
         stop-opacity="1"
         stop-color="rgb(94.10553%, 94.10553%, 94.10553%)"
         offset="0.6875"
         id="stop1164" />
      <stop
         stop-opacity="1"
         stop-color="rgb(94.392395%, 94.392395%, 94.392395%)"
         offset="0.703125"
         id="stop1165" />
      <stop
         stop-opacity="1"
         stop-color="rgb(94.680786%, 94.680786%, 94.680786%)"
         offset="0.71875"
         id="stop1166" />
      <stop
         stop-opacity="1"
         stop-color="rgb(94.967651%, 94.967651%, 94.967651%)"
         offset="0.734375"
         id="stop1167" />
      <stop
         stop-opacity="1"
         stop-color="rgb(95.254517%, 95.254517%, 95.254517%)"
         offset="0.75"
         id="stop1168" />
      <stop
         stop-opacity="1"
         stop-color="rgb(95.542908%, 95.542908%, 95.542908%)"
         offset="0.765625"
         id="stop1169" />
      <stop
         stop-opacity="1"
         stop-color="rgb(95.829773%, 95.829773%, 95.829773%)"
         offset="0.78125"
         id="stop1170" />
      <stop
         stop-opacity="1"
         stop-color="rgb(96.118164%, 96.118164%, 96.118164%)"
         offset="0.796875"
         id="stop1171" />
      <stop
         stop-opacity="1"
         stop-color="rgb(96.405029%, 96.405029%, 96.405029%)"
         offset="0.8125"
         id="stop1172" />
      <stop
         stop-opacity="1"
         stop-color="rgb(96.69342%, 96.69342%, 96.69342%)"
         offset="0.828125"
         id="stop1173" />
      <stop
         stop-opacity="1"
         stop-color="rgb(96.980286%, 96.980286%, 96.980286%)"
         offset="0.84375"
         id="stop1174" />
      <stop
         stop-opacity="1"
         stop-color="rgb(97.267151%, 97.267151%, 97.267151%)"
         offset="0.859375"
         id="stop1175" />
      <stop
         stop-opacity="1"
         stop-color="rgb(97.555542%, 97.555542%, 97.555542%)"
         offset="0.875"
         id="stop1176" />
      <stop
         stop-opacity="1"
         stop-color="rgb(97.842407%, 97.842407%, 97.842407%)"
         offset="0.890625"
         id="stop1177" />
      <stop
         stop-opacity="1"
         stop-color="rgb(98.130798%, 98.130798%, 98.130798%)"
         offset="0.90625"
         id="stop1178" />
      <stop
         stop-opacity="1"
         stop-color="rgb(98.417664%, 98.417664%, 98.417664%)"
         offset="0.921875"
         id="stop1179" />
      <stop
         stop-opacity="1"
         stop-color="rgb(98.704529%, 98.704529%, 98.704529%)"
         offset="0.9375"
         id="stop1180" />
      <stop
         stop-opacity="1"
         stop-color="rgb(98.99292%, 98.99292%, 98.99292%)"
         offset="0.953125"
         id="stop1181" />
      <stop
         stop-opacity="1"
         stop-color="rgb(99.279785%, 99.279785%, 99.279785%)"
         offset="0.96875"
         id="stop1182" />
      <stop
         stop-opacity="1"
         stop-color="rgb(99.568176%, 99.568176%, 99.568176%)"
         offset="0.984375"
         id="stop1183" />
      <stop
         stop-opacity="1"
         stop-color="rgb(99.855042%, 99.855042%, 99.855042%)"
         offset="1"
         id="stop1184" />
    </linearGradient>
    <clipPath
       id="de60ff3f12">
      <path
         d="m 531.73437,770.4375 h 232.40235 v 232.4023 H 531.73437 Z m 0,0"
         clip-rule="nonzero"
         id="path1184" />
    </clipPath>
    <clipPath
       id="b387226b74">
      <path
         d="m 550.46484,770.4375 h 194.9375 c 4.96875,0 9.73438,1.97266 13.2461,5.48828 3.51172,3.51172 5.48828,8.27734 5.48828,13.24609 v 194.9375 c 0,4.96485 -1.97656,9.73047 -5.48828,13.2461 -3.51172,3.51173 -8.27735,5.48433 -13.2461,5.48433 h -194.9375 c -4.96875,0 -9.73047,-1.9726 -13.24609,-5.48433 -3.51172,-3.51563 -5.48438,-8.28125 -5.48438,-13.2461 v -194.9375 c 0,-4.96875 1.97266,-9.73437 5.48438,-13.24609 3.51562,-3.51562 8.27734,-5.48828 13.24609,-5.48828 z m 0,0"
         clip-rule="nonzero"
         id="path1185" />
    </clipPath>
    <clipPath
       id="2d7b40343d">
      <path
         d="m 603,818.67187 h 90 v 135.69141 h -90 z m 0,0"
         clip-rule="nonzero"
         id="path1186" />
    </clipPath>
  </defs>
  <g
     clip-path="url(#e911b74092)"
     id="g3072"
     transform="translate(-531.73438,-770.4375)">
    <g
       clip-path="url(#ba84473f0f)"
       id="g3071">
      <path
         fill="#ffffff"
         d="M 531.73437,862.82031 H 764.25781 V 1048.2852 H 531.73437 Z m 0,0"
         fill-opacity="1"
         fill-rule="nonzero"
         id="path3071" />
    </g>
  </g>
  <g
     clip-path="url(#7e5e5dd26e)"
     id="g3074"
     transform="translate(-531.73438,-770.4375)">
    <g
       clip-path="url(#6a3dee51b1)"
       id="g3073">
      <path
         fill="url(#6297332de4)"
         d="m 531.73437,770.4375 v 232.5234 H 764.25781 V 770.4375 Z m 0,0"
         fill-rule="nonzero"
         id="path3072"
         style="fill:url(#6297332de4)" />
    </g>
  </g>
  <g
     clip-path="url(#de60ff3f12)"
     id="g3076"
     transform="translate(-531.73438,-770.4375)">
    <g
       clip-path="url(#b387226b74)"
       id="g3075">
      <path
         stroke-linecap="butt"
         transform="matrix(0.749307,0,0,0.749307,531.73329,770.43816)"
         fill="none"
         stroke-linejoin="miter"
         d="M 24.998506,-8.85971e-4 H 285.15565 c 6.63113,0 12.99118,2.632641971 17.6778,7.324478971 4.68663,4.686624 7.32448,11.046669 7.32448,17.677799 V 285.15854 c 0,6.62591 -2.63785,12.98596 -7.32448,17.6778 -4.68662,4.68662 -11.04667,7.31926 -17.6778,7.31926 H 24.998506 c -6.63113,0 -12.985962,-2.63264 -17.677799,-7.31926 C 2.634083,298.1445 0.00144097,291.78445 0.00144097,285.15854 V 25.001392 c 0,-6.63113 2.63264203,-12.991175 7.31926603,-17.677799 4.691837,-4.691837 11.046669,-7.324478971 17.677799,-7.324478971 z m 0,0"
         stroke="#ffffff"
         stroke-width="30"
         stroke-opacity="1"
         stroke-miterlimit="4"
         id="path3074" />
    </g>
  </g>
  <g
     fill="#4e576e"
     fill-opacity="1"
     id="g3079"
     transform="translate(-531.73438,-770.4375)">
    <g
       transform="translate(556.88852,1032.7384)"
       id="g3078">
      <g
         id="g3077">
        <path
           d="M -0.359375,-16.8125 V -20.5 h 22.34375 v 3.6875 z m 14.515625,5.671875 C 15.195312,-11.703125 15.976562,-13.15625 16.5,-15.5 l 3.578125,0.640625 c 0.351563,1.0625 0.597656,2.058594 0.734375,2.984375 0.425781,3.1875 -0.367188,6.023438 -2.375,8.5 -2.074219,2.53125 -4.953125,3.488281 -8.640625,2.875 -4.3125,-0.6875 -7.449219,-3.59375 -9.40625,-8.71875 l 3.15625,-2.421875 c 1.46875,4.574219 3.796875,7.085937 6.984375,7.53125 1.914062,0.355469 3.582031,-0.164063 5,-1.5625 0.832031,-0.832031 1.351562,-1.921875 1.5625,-3.265625 -1.25,1.230469 -2.890625,1.890625 -4.921875,1.984375 -0.648437,0 -1.261719,-0.082031 -1.84375,-0.25 C 8.953125,-7.554688 7.882812,-8.21875 7.125,-9.1875 c -0.75,-0.988281 -1.023438,-2.191406 -0.8125,-3.609375 0.113281,-1.164063 0.679688,-2.148437 1.703125,-2.953125 1.488281,-0.875 3.5,-0.921875 6.03125,-0.140625 L 13.90625,-12.34375 C 12.0625,-13.007812 10.816406,-13.140625 10.171875,-12.734375 10.054688,-12.617188 9.988281,-12.5 9.96875,-12.375 c -0.09375,0.804688 0.332031,1.335938 1.28125,1.59375 0.96875,0.242188 1.9375,0.121094 2.90625,-0.359375 z m 0,0"
           id="path3076" />
      </g>
    </g>
  </g>
  <g
     fill="#4e576e"
     fill-opacity="1"
     id="g3082"
     transform="translate(-531.73438,-770.4375)">
    <g
       transform="translate(578.30699,1032.7384)"
       id="g3081">
      <g
         id="g3080">
        <path
           d="m 2.875,-25.109375 c 1.269531,-1.914063 3.195312,-3.144531 5.78125,-3.6875 0.945312,-0.1875 1.941406,-0.28125 2.984375,-0.28125 3.945313,0 8.398437,1.417969 13.359375,4.25 L 24.078125,-21.5 c -4.84375,-2.570312 -8.980469,-3.859375 -12.40625,-3.859375 -0.804687,0 -1.558594,0.07422 -2.265625,0.21875 -1.730469,0.324219 -2.929688,1.101563 -3.59375,2.328125 -0.398438,0.742188 -0.59375,1.476562 -0.59375,2.203125 0,0.02344 0,0.03125 0,0.03125 V -20.5 h 2.015625 v 3.6875 H 5.25 V 0.109375 H 1.5625 V -16.8125 H -0.421875 V -20.5 h 1.875 c 0,-1.582031 0.472656,-3.117188 1.421875,-4.609375 z M 16.359375,-21.71875 13.875,-24.796875 c 2.101562,-2.789063 4.664062,-4.875 7.6875,-6.25 l 2.171875,2.59375 c -2.648437,1.324219 -5.105469,3.570313 -7.375,6.734375 z m 0,0"
           id="path3079" />
      </g>
    </g>
  </g>
  <g
     fill="#4e576e"
     fill-opacity="1"
     id="g3085"
     transform="translate(-531.73438,-770.4375)">
    <g
       transform="translate(585.15097,1032.7384)"
       id="g3084">
      <g
         id="g3083">
        <path
           d="m 24.078125,-20.5 v 3.65625 H -0.390625 V -20.5 Z M 12.84375,-9.6875 c 0.84375,-0.070312 1.765625,-0.601562 2.765625,-1.59375 l 1.375,3.578125 c -1.0625,0.949219 -2.351563,1.496094 -3.859375,1.640625 -1.636719,0.117188 -2.960938,-0.414062 -3.96875,-1.59375 -1.09375,-1.257812 -1.382812,-2.703125 -0.859375,-4.328125 0.445313,-1.394531 1.367187,-2.519531 2.765625,-3.375 1.351562,-0.851563 2.820312,-1.21875 4.40625,-1.09375 2.40625,0.136719 4.296875,1.140625 5.671875,3.015625 1.207031,1.679688 1.75,3.589844 1.625,5.734375 C 22.535156,-4.648438 21,-2.378906 18.15625,-0.890625 16.832031,-0.296875 15.390625,0 13.828125,0 12.054688,0.144531 10.296875,-0.171875 8.546875,-0.953125 4.898438,-3.085938 2.21875,-6.660156 0.5,-11.671875 l 3.1875,-2.34375 c 1.46875,5.042969 3.628906,8.296875 6.484375,9.765625 2.4375,0.917969 4.460937,0.929688 6.078125,0.03125 1.675781,-0.925781 2.582031,-2.164062 2.71875,-3.71875 0.07031,-1.28125 -0.210938,-2.382812 -0.84375,-3.3125 -0.6875,-0.96875 -1.65625,-1.5 -2.90625,-1.59375 -0.78125,-0.07031 -1.507812,0.121094 -2.171875,0.578125 -0.585937,0.375 -0.949219,0.824219 -1.09375,1.34375 -0.148437,0.375 -0.101563,0.695313 0.140625,0.953125 0.164062,0.21875 0.414062,0.3125 0.75,0.28125 z m 0,0"
           id="path3082" />
      </g>
    </g>
  </g>
  <g
     fill="#4e576e"
     fill-opacity="1"
     id="g3091"
     transform="translate(-531.73438,-770.4375)">
    <g
       transform="translate(608.83895,1032.7384)"
       id="g3090">
      <g
         id="g3089">
        <path
           d="M 5,-4.46875 C 7.476562,-3.875 9.40625,-2.71875 10.78125,-1 L 8.296875,1.59375 c -1.25,-1.25 -2.667969,-2.097656 -4.25,-2.546875 z m 1.875,-5 c 2.9375,0.804688 5.300781,2.042969 7.09375,3.71875 v -7.015625 c -2.386719,0.636719 -4.75,1.734375 -7.09375,3.296875 z M 19.71875,-20.5 v 3.6875 h -2.0625 V 0.140625 h -3.359375 c -1.042969,-2.40625 -3.386719,-4.332031 -7.03125,-5.78125 -1.917969,-0.613281 -3.714844,-0.863281 -5.390625,-0.75 l -1.40625,-3.4375 c 4.507812,-3.425781 9.007812,-5.695313 13.5,-6.8125 V -16.8125 H -0.46875 V -20.5 Z m 0,0"
           id="path3088" />
      </g>
    </g>
  </g>
  <g
     fill="#4e576e"
     fill-opacity="1"
     id="g3097"
     transform="translate(-531.73438,-770.4375)">
    <g
       transform="translate(635.86027,1032.7384)"
       id="g3096">
      <g
         id="g3095">
        <path
           d="m 33.453125,-16.984375 v 17.09375 h -3.6875 v -17.09375 z m 1.875,0.140625 h -7.90625 V 0.109375 h -3.6875 c -0.21875,-2.863281 -1.0625,-4.59375 -2.53125,-5.1875 -0.65625,1.75 -1.824219,3.136719 -3.5,4.15625 -1.1875,0.761719 -2.703125,1.113281 -4.546875,1.0625 -1.625,0 -3.3125,-0.425781 -5.0625,-1.28125 C 4.75,-2.742188 2.171875,-6.300781 0.359375,-11.8125 l 3.296875,-2.234375 c 1.46875,5.34375 3.476562,8.539063 6.03125,9.578125 2.289062,1.117188 4.203125,1.21875 5.734375,0.3125 1.613281,-0.75 2.488281,-1.914062 2.625,-3.5 0.101563,-1.300781 -0.167969,-2.425781 -0.8125,-3.375 -0.636719,-0.988281 -1.558594,-1.53125 -2.765625,-1.625 -0.710938,-0.05078 -1.382812,0.136719 -2.015625,0.5625 -0.542969,0.40625 -0.898437,0.867188 -1.0625,1.375 -0.125,0.429688 -0.09375,0.773438 0.09375,1.03125 0.164063,0.167969 0.40625,0.242188 0.71875,0.21875 0.820313,-0.050781 1.707031,-0.664062 2.65625,-1.84375 l 1.59375,3.6875 c -1.085937,1.136719 -2.40625,1.761719 -3.96875,1.875 -1.636719,0.074219 -2.960937,-0.457031 -3.96875,-1.59375 -0.96875,-1.132812 -1.195313,-2.613281 -0.671875,-4.4375 0.425781,-1.414062 1.300781,-2.5625 2.625,-3.4375 1.300781,-0.875 2.726562,-1.25 4.28125,-1.125 2.4375,0.28125 4.1875,1.226562 5.25,2.828125 1.164062,1.511719 1.757812,3.132813 1.78125,4.859375 0.726562,0.1875 1.378906,0.578125 1.953125,1.171875 V -16.84375 H -0.21875 v -3.6875 h 35.546875 z m 0,0"
           id="path3094" />
      </g>
    </g>
  </g>
  <g
     fill="#4e576e"
     fill-opacity="1"
     id="g3100"
     transform="translate(-531.73438,-770.4375)">
    <g
       transform="translate(670.86032,1032.7384)"
       id="g3099">
      <g
         id="g3098">
        <path
           d="m -0.28125,-20.5 h 10.390625 v 3.6875 h -1.78125 c -2.03125,2.367188 -3.273437,4.765625 -3.71875,7.203125 -0.09375,0.59375 -0.140625,1.136719 -0.140625,1.625 0,1.679687 0.484375,2.945313 1.453125,3.796875 0.46875,0.449219 1.238281,0.671875 2.3125,0.671875 0.539063,0 1.15625,-0.054687 1.84375,-0.171875 L 9.1875,0.140625 c 0,0 -0.011719,0 -0.03125,0 H 9.015625 c -0.03125,0 -0.046875,0 -0.046875,0 -0.023438,0 -0.03125,0 -0.03125,0 h -0.25 c 0,0 -0.011719,0 -0.03125,0 H 8.578125 c 0,0 -0.011719,0 -0.03125,0 h -0.0625 c 0,0 -0.015625,0 -0.046875,0 H 8.40625 c 0,0 -0.011719,0 -0.03125,0 H 7.765625 c -1.730469,0 -3.183594,-0.519531 -4.359375,-1.5625 -1.75,-1.5625 -2.625,-3.710937 -2.625,-6.453125 0,-0.726562 0.054688,-1.492188 0.171875,-2.296875 C 1.429688,-12.847656 2.320312,-15.0625 3.625,-16.8125 h -3.90625 z m 0,0"
           id="path3097" />
      </g>
    </g>
  </g>
  <g
     fill="#4e576e"
     fill-opacity="1"
     id="g3103"
     transform="translate(-531.73438,-770.4375)">
    <g
       transform="translate(680.54118,1032.7384)"
       id="g3102">
      <g
         id="g3101">
        <path
           d="m 13.96875,-12.765625 c -2.386719,0.636719 -4.75,1.734375 -7.09375,3.296875 2.9375,0.804688 5.300781,2.042969 7.09375,3.71875 z m 5.75,-7.734375 v 3.6875 h -2.0625 V 0.140625 H 14.296875 C 13.253906,-2.265625 10.898438,-4.15625 7.234375,-5.53125 5.335938,-6.21875 3.550781,-6.503906 1.875,-6.390625 l -1.40625,-3.4375 c 4.507812,-3.425781 9.007812,-5.695313 13.5,-6.8125 V -16.8125 H -0.46875 V -20.5 Z m 0,0"
           id="path3100" />
      </g>
    </g>
  </g>
  <g
     fill="#4e576e"
     fill-opacity="1"
     id="g3106"
     transform="translate(-531.73438,-770.4375)">
    <g
       transform="translate(699.76107,1032.7384)"
       id="g3105">
      <g
         id="g3104">
        <path
           d="M 19.546875,-16.8125 H 5.03125 v 6.84375 c 2.507812,-2.269531 6.203125,-4.140625 11.078125,-5.609375 l 2.46875,3.484375 c -0.9375,1.25 -1.609375,2.507812 -2.015625,3.765625 -0.65625,2 -0.609375,3.5 0.140625,4.5 0.59375,0.824219 1.53125,1.261719 2.8125,1.3125 l -1.53125,3.4375 c -2.125,-0.304687 -3.625,-1.1875 -4.5,-2.65625 C 11.992188,-4.148438 11.96875,-7.0625 13.40625,-10.46875 10.757812,-9.539062 7.828125,-7.390625 4.609375,-4.015625 L 1.34375,-5.78125 V -16.8125 h -1.625 V -20.5 h 19.828125 z m 0,0"
           id="path3103" />
      </g>
    </g>
  </g>
  <g
     fill="#4e576e"
     fill-opacity="1"
     id="g3109"
     transform="translate(-531.73438,-770.4375)">
    <g
       transform="translate(718.9455,1032.7384)"
       id="g3108">
      <g
         id="g3107">
        <path
           d="m 15.140625,-11.203125 -0.28125,-1.5 V -16.8125 H -0.46875 V -20.5 H 20.5 v 3.6875 H 18.578125 V 0.140625 h -3.71875 V -3.375 c -0.09375,-1.269531 -0.449219,-2.546875 -1.0625,-3.828125 C 12.617188,-9.515625 10.773438,-10.863281 8.265625,-11.25 6.460938,-11.53125 5.207031,-11.046875 4.5,-9.796875 4.03125,-8.867188 4.066406,-8.0625 4.609375,-7.375 5.242188,-6.644531 7.019531,-6.523438 9.9375,-7.015625 l -0.75,3.71875 c -3.449219,0.636719 -5.90625,0.058594 -7.375,-1.734375 -0.78125,-0.875 -1.183594,-1.953125 -1.203125,-3.234375 -0.074219,-1.175781 0.132813,-2.285156 0.625,-3.328125 1.59375,-2.75 4.125,-3.863281 7.59375,-3.34375 2.269531,0.355469 4.375,1.601562 6.3125,3.734375 z m 0,0"
           id="path3106" />
      </g>
    </g>
  </g>
  <path
     fill="#81d9e3"
     d="m 67.398434,60.531251 v 65.437499 l -14.48437,-61.808589 1.41406,-3.17969 10.24219,-1.41406 z m 0,0"
     fill-opacity="1"
     fill-rule="nonzero"
     id="path3109" />
  <path
     fill="#81d9e3"
     d="m 164.89062,58.683591 v 68.343749 l 13.41797,-63.886719 z m 0,0"
     fill-opacity="1"
     fill-rule="nonzero"
     id="path3110" />
  <path
     fill="#81d9e3"
     d="m 156.41015,120.31641 v 57.21875 c 0,0.28125 -0.0547,0.55078 -0.16406,0.8125 -0.10547,0.25781 -0.25781,0.48437 -0.45703,0.68359 -0.19922,0.19922 -0.42969,0.35156 -0.6875,0.46094 -0.25782,0.10937 -0.53125,0.16015 -0.8086,0.16406 H 77.996094 c -0.28125,-0.004 -0.55078,-0.0547 -0.8125,-0.16406 -0.25781,-0.10938 -0.48828,-0.26172 -0.6836,-0.46094 -0.19921,-0.19922 -0.35546,-0.42578 -0.46093,-0.68359 -0.10938,-0.26172 -0.16407,-0.53125 -0.16407,-0.8125 v -57.21875 z m 0,0"
     fill-opacity="1"
     fill-rule="nonzero"
     id="path3111" />
  <path
     fill="#fc785e"
     d="m 82.234374,156.34375 h 21.191406 v -9.86719 h -8.476566 l -3.04687,3.04688 -3.67578,-3.67578 h -4.40235 l -1.92187,5.25 z m 0,0"
     fill-opacity="1"
     fill-rule="nonzero"
     id="path3112" />
  <path
     fill="#e1ebf4"
     d="M 156.41015,54.625001 V 116.07812 H 75.874994 V 54.625001 c 0,-0.28125 0.0547,-0.55078 0.16407,-0.8125 0.10547,-0.25781 0.26172,-0.48828 0.46093,-0.6875 0.19532,-0.19531 0.42579,-0.35156 0.6836,-0.45703 0.26172,-0.10938 0.53125,-0.16406 0.8125,-0.16406 h 76.296866 c 0.27735,0 0.55078,0.0547 0.8086,0.16406 0.25781,0.10547 0.48828,0.26172 0.6875,0.45703 0.19922,0.19922 0.35156,0.42969 0.45703,0.6875 0.10937,0.26172 0.16406,0.53125 0.16406,0.8125 z m 0,0"
     fill-opacity="1"
     fill-rule="nonzero"
     id="path3113" />
  <path
     fill="#fc785e"
     d="m 129.65624,71.578121 h 6.44532 v -1.76953 l -4.41797,-3.08984 h -6.05078 z m 0,0"
     fill-opacity="1"
     fill-rule="nonzero"
     id="path3114" />
  <path
     fill="#fc785e"
     d="m 106.65234,66.718751 h -8.699216 l -1.45313,4.85937 h 6.132816 z m 0,0"
     fill-opacity="1"
     fill-rule="nonzero"
     id="path3115" />
  <path
     fill="#2d4356"
     d="M 67.398434,139.94922 V 119.61328 L 55.789064,65.136721 c -0.0586,-0.26563 -0.0625,-0.53125 -0.0156,-0.80078 0.0508,-0.26563 0.14844,-0.51563 0.29297,-0.74219 0.14844,-0.23047 0.33203,-0.42188 0.55469,-0.57813 0.22265,-0.15625 0.46875,-0.26562 0.73437,-0.32421 l 10.04297,-2.16016 v -4.33203 l -10.93359,2.35156 c -0.40235,0.0859 -0.79297,0.21484 -1.17188,0.37891 -0.3789,0.16406 -0.73828,0.36328 -1.07812,0.59765 -0.33594,0.23438 -0.65235,0.5 -0.9375,0.79688 -0.28906,0.29687 -0.54297,0.62109 -0.76563,0.96484 -0.22265,0.34766 -0.41015,0.71485 -0.5625,1.09766 -0.15234,0.38281 -0.26562,0.77734 -0.33984,1.18359 -0.0742,0.40625 -0.10938,0.81641 -0.10547,1.22656 0.008,0.41407 0.0508,0.82032 0.13672,1.22657 z m 0,0"
     fill-opacity="1"
     fill-rule="nonzero"
     id="path3116" />
  <path
     fill="#2d4356"
     d="m 175.82031,58.550781 -10.9336,-2.35156 v 4.33203 l 10.04297,2.16016 c 0.26563,0.0586 0.51172,0.16796 0.73438,0.32421 0.22265,0.15625 0.40625,0.34766 0.55468,0.57813 0.14844,0.22656 0.2461,0.47656 0.29297,0.74219 0.0469,0.26953 0.043,0.53515 -0.0156,0.80078 l -11.60938,54.476559 v 20.33594 l 15.75782,-73.929689 c 0.0859,-0.40234 0.13281,-0.80859 0.13671,-1.22266 0.004,-0.41015 -0.0273,-0.82031 -0.10156,-1.22656 -0.0742,-0.40625 -0.1875,-0.80078 -0.33984,-1.18359 -0.15235,-0.38281 -0.33985,-0.75 -0.56641,-1.09766 -0.22265,-0.34375 -0.47656,-0.66797 -0.76562,-0.96484 -0.28516,-0.29688 -0.59766,-0.5625 -0.9375,-0.79688 -0.33985,-0.23437 -0.69922,-0.43359 -1.07813,-0.59765 -0.375,-0.16407 -0.76562,-0.29297 -1.17187,-0.37891 z m 0,0"
     fill-opacity="1"
     fill-rule="nonzero"
     id="path3117" />
  <g
     clip-path="url(#2d7b40343d)"
     id="g3118"
     transform="translate(-531.73438,-770.4375)">
    <path
       fill="#2d4356"
       d="m 686.02734,818.70312 h -76.29687 c -0.41797,0 -0.83203,0.043 -1.24219,0.1211 -0.41016,0.082 -0.80469,0.20312 -1.19141,0.36328 -0.38671,0.16016 -0.75,0.35547 -1.09765,0.58984 -0.34766,0.23047 -0.66797,0.4961 -0.96485,0.78907 -0.29296,0.29687 -0.55859,0.61718 -0.78906,0.96484 -0.23437,0.34375 -0.42969,0.71094 -0.58984,1.09766 -0.16016,0.38671 -0.28125,0.78125 -0.35938,1.1914 -0.082,0.41016 -0.125,0.82422 -0.125,1.24219 v 122.91016 c 0,0.41796 0.043,0.83203 0.125,1.24218 0.0781,0.40625 0.19922,0.80469 0.35938,1.19141 0.16015,0.38281 0.35547,0.75 0.58984,1.09766 0.23047,0.34765 0.4961,0.66796 0.78906,0.96484 0.29688,0.29297 0.61719,0.55859 0.96485,0.78906 0.34765,0.23047 0.71094,0.42969 1.09765,0.58594 0.38672,0.16016 0.78125,0.28125 1.19141,0.36328 0.41016,0.082 0.82422,0.125 1.24219,0.125 h 76.29687 c 0.41407,0 0.82813,-0.043 1.23828,-0.125 0.41016,-0.082 0.80469,-0.20312 1.19141,-0.36328 0.38672,-0.15625 0.75391,-0.35547 1.09766,-0.58594 0.34765,-0.23047 0.67187,-0.49609 0.96484,-0.78906 0.29688,-0.29688 0.55859,-0.61719 0.78906,-0.96484 0.23438,-0.34766 0.42969,-0.71485 0.58985,-1.09766 0.16015,-0.38672 0.28125,-0.78516 0.36328,-1.19141 0.082,-0.41015 0.12109,-0.82422 0.12109,-1.24218 V 825.0625 c 0,-0.41797 -0.0391,-0.83203 -0.12109,-1.24219 -0.082,-0.41015 -0.20313,-0.80469 -0.36328,-1.1914 -0.16016,-0.38672 -0.35547,-0.75391 -0.58985,-1.09766 -0.23047,-0.34766 -0.49218,-0.66797 -0.78906,-0.96484 -0.29297,-0.29297 -0.61719,-0.5586 -0.96484,-0.78907 -0.34375,-0.23437 -0.71094,-0.42968 -1.09766,-0.58984 -0.38672,-0.16016 -0.78125,-0.28125 -1.19141,-0.36328 -0.41015,-0.0781 -0.82421,-0.1211 -1.23828,-0.1211 z m 2.11719,129.26954 c 0,0.28125 -0.0547,0.55078 -0.16406,0.8125 -0.10547,0.25781 -0.25781,0.48437 -0.45703,0.68359 -0.19922,0.19922 -0.42969,0.35156 -0.6875,0.46094 -0.25782,0.10937 -0.53125,0.16015 -0.8086,0.16406 h -76.29687 c -0.28125,-0.004 -0.55078,-0.0547 -0.8125,-0.16406 -0.25781,-0.10938 -0.48828,-0.26172 -0.6836,-0.46094 -0.19921,-0.19922 -0.35546,-0.42578 -0.46093,-0.68359 -0.10938,-0.26172 -0.16407,-0.53125 -0.16407,-0.8125 v -57.21875 h 80.53516 z m 0,-61.45704 H 607.60937 V 825.0625 c 0,-0.28125 0.0547,-0.55078 0.16407,-0.8125 0.10547,-0.25781 0.26172,-0.48828 0.46093,-0.6875 0.19532,-0.19531 0.42579,-0.35156 0.6836,-0.45703 0.26172,-0.10938 0.53125,-0.16406 0.8125,-0.16406 h 76.29687 c 0.27735,0 0.55078,0.0547 0.8086,0.16406 0.25781,0.10547 0.48828,0.26172 0.6875,0.45703 0.19922,0.19922 0.35156,0.42969 0.45703,0.6875 0.10937,0.26172 0.16406,0.53125 0.16406,0.8125 z m 0,0"
       fill-opacity="1"
       fill-rule="nonzero"
       id="path3118" />
  </g>
  <path
     fill="#2d4356"
     d="m 134.21093,69.457031 1.57422,2.12109 h 5.28125 l -4.08984,-5.5039 c -0.42188,-0.57031 -0.98828,-0.85547 -1.69922,-0.85547 h -10.88281 l 3.50781,4.23828 z m 0,0"
     fill-opacity="1"
     fill-rule="nonzero"
     id="path3119" />
  <path
     fill="#2d4356"
     d="m 98.074214,69.457031 h 6.312496 l 3.50391,-4.23828 H 97.007814 c -0.70703,0 -1.27735,0.28516 -1.69922,0.85547 l -4.08985,5.5039 h 5.28125 z m 0,0"
     fill-opacity="1"
     fill-rule="nonzero"
     id="path3120" />
  <path
     fill="#2d4356"
     d="m 146.87499,99.125001 h -5.30078 v -19.07031 h 2.1211 c 0.28125,0 0.55078,-0.0547 0.80859,-0.16407 0.26172,-0.10546 0.49219,-0.25781 0.6875,-0.45703 0.19922,-0.19922 0.35156,-0.42968 0.46094,-0.6875 0.10937,-0.26172 0.16015,-0.53125 0.16015,-0.8125 0,-0.28125 -0.0508,-0.55078 -0.16015,-0.80859 -0.10938,-0.26172 -0.26172,-0.49219 -0.46094,-0.6875 -0.19531,-0.19922 -0.42578,-0.35547 -0.6875,-0.46094 -0.25781,-0.10937 -0.52734,-0.16015 -0.80859,-0.16015 h -16.03516 l -9.88672,-11.94141 c -0.20703,-0.23438 -0.45312,-0.41406 -0.73437,-0.54297 -0.28516,-0.125 -0.58594,-0.19141 -0.89453,-0.19141 -0.3125,0 -0.60938,0.0664 -0.89454,0.19141 -0.28515,0.12891 -0.53125,0.30859 -0.73828,0.54297 l -9.88672,11.94141 H 88.589844 c -0.27735,0 -0.55078,0.0508 -0.8086,0.16015 -0.26171,0.10547 -0.48828,0.26172 -0.6875,0.46094 -0.19921,0.19531 -0.35156,0.42578 -0.46093,0.6875 -0.10547,0.25781 -0.16016,0.52734 -0.16016,0.80859 0,0.28125 0.0547,0.55078 0.16016,0.8125 0.10937,0.25782 0.26172,0.48828 0.46093,0.6875 0.19922,0.19922 0.42579,0.35157 0.6875,0.45703 0.25782,0.10938 0.53125,0.16407 0.8086,0.16407 h 2.12109 v 19.07031 h -5.29687 c -0.28125,0 -0.55469,0.0547 -0.8125,0.16406 -0.25782,0.10547 -0.48828,0.25781 -0.6875,0.45703 -0.19922,0.19922 -0.35157,0.429689 -0.46094,0.687499 -0.10547,0.26172 -0.16016,0.53125 -0.16016,0.8125 0,0.28125 0.0547,0.55078 0.16016,0.8086 0.10937,0.26172 0.26172,0.48828 0.46094,0.6875 0.19922,0.19922 0.42968,0.35156 0.6875,0.46093 0.25781,0.10938 0.53125,0.16016 0.8125,0.16016 h 61.460926 c 0.28125,0 0.55079,-0.0508 0.8086,-0.16016 0.26172,-0.10937 0.48828,-0.26171 0.6875,-0.46093 0.19922,-0.19922 0.35156,-0.42578 0.46094,-0.6875 0.10546,-0.25782 0.16015,-0.52735 0.16015,-0.8086 0,-0.28125 -0.0547,-0.55078 -0.16015,-0.8125 -0.10938,-0.25781 -0.26172,-0.488279 -0.46094,-0.687499 -0.19922,-0.19922 -0.42578,-0.35156 -0.6875,-0.45703 -0.25781,-0.10937 -0.52735,-0.16406 -0.8086,-0.16406 z m -47.687496,0 h -4.23828 v -19.07031 h 4.23828 z m 20.132816,0 h -6.35547 v -5.29688 c 0,-0.42187 0.0781,-0.82812 0.24219,-1.21484 0.16015,-0.39062 0.39062,-0.73437 0.6875,-1.03125 0.29687,-0.30078 0.64062,-0.53125 1.03125,-0.69141 0.39062,-0.16015 0.79687,-0.24218 1.21875,-0.24218 0.42187,0 0.82421,0.082 1.21484,0.24218 0.39062,0.16016 0.73437,0.39063 1.03125,0.69141 0.29687,0.29688 0.52734,0.64063 0.6875,1.03125 0.16406,0.38672 0.24219,0.79297 0.24219,1.21484 z m 9.53906,0 h -5.29688 v -5.29688 c 0,-0.48828 -0.0508,-0.96875 -0.14453,-1.44531 -0.0937,-0.48047 -0.23437,-0.9414 -0.42187,-1.39453 -0.1875,-0.44922 -0.41406,-0.875 -0.6836,-1.28125 -0.27343,-0.40625 -0.57812,-0.78125 -0.92578,-1.125 -0.34375,-0.34375 -0.71875,-0.65234 -1.12109,-0.92187 -0.40625,-0.26954 -0.83594,-0.5 -1.28516,-0.6836 -0.44922,-0.1875 -0.91406,-0.32812 -1.39062,-0.42187 -0.47656,-0.0977 -0.96094,-0.14453 -1.44531,-0.14453 -0.48829,0 -0.97266,0.0469 -1.44922,0.14453 -0.47657,0.0937 -0.94141,0.23437 -1.39063,0.42187 -0.44922,0.1836 -0.8789,0.41406 -1.28125,0.6836 -0.40625,0.26953 -0.78125,0.57812 -1.125,0.92187 -0.34375,0.34375 -0.65234,0.71875 -0.92187,1.125 -0.27344,0.40625 -0.5,0.83203 -0.6875,1.28125 -0.1836,0.45313 -0.32813,0.91406 -0.42188,1.39453 -0.0937,0.47656 -0.14062,0.95703 -0.14062,1.44531 v 5.29688 h -5.30078 v -19.07031 h 2.19531 c 0.66406,-0.004 1.21094,-0.26172 1.63281,-0.77344 l 8.89063,-10.73438 8.89062,10.73438 c 0.42188,0.51172 0.96484,0.76953 1.62891,0.77344 h 2.19531 z m 8.47656,0 h -4.23828 v -19.07031 h 4.23828 z m 0,0"
     fill-opacity="1"
     fill-rule="nonzero"
     id="path3121" />
  <path
     fill="#fc785e"
     d="m 94.949214,80.054691 h 4.23828 v 19.07031 h -4.23828 z m 0,0"
     fill-opacity="1"
     fill-rule="nonzero"
     id="path3122" />
  <path
     fill="#fc785e"
     d="m 133.09765,80.054691 h 4.23828 v 19.07031 h -4.23828 z m 0,0"
     fill-opacity="1"
     fill-rule="nonzero"
     id="path3123" />
  <path
     fill="#e1ebf4"
     d="m 119.32031,93.828121 v 5.29688 h -6.35547 v -5.29688 c 0,-0.42187 0.0781,-0.82812 0.24219,-1.21484 0.16015,-0.39062 0.39062,-0.73437 0.6875,-1.03125 0.29687,-0.30078 0.64062,-0.53125 1.03125,-0.69141 0.39062,-0.16015 0.79687,-0.24218 1.21875,-0.24218 0.42187,0 0.82421,0.082 1.21484,0.24218 0.39062,0.16016 0.73437,0.39063 1.03125,0.69141 0.29687,0.29688 0.52734,0.64063 0.6875,1.03125 0.16406,0.38672 0.24219,0.79297 0.24219,1.21484 z m 0,0"
     fill-opacity="1"
     fill-rule="nonzero"
     id="path3124" />
  <path
     fill="#ffdb80"
     d="m 128.85937,80.054691 v 19.07031 h -5.29688 v -5.29688 c 0,-0.48828 -0.0508,-0.96875 -0.14453,-1.44531 -0.0937,-0.48047 -0.23437,-0.9414 -0.42187,-1.39453 -0.1875,-0.44922 -0.41406,-0.875 -0.6836,-1.28125 -0.27343,-0.40625 -0.57812,-0.78125 -0.92578,-1.125 -0.34375,-0.34375 -0.71875,-0.65234 -1.12109,-0.92187 -0.40625,-0.26954 -0.83594,-0.5 -1.28516,-0.6836 -0.44922,-0.1875 -0.91406,-0.32812 -1.39062,-0.42187 -0.47656,-0.0977 -0.96094,-0.14453 -1.44531,-0.14453 -0.48829,0 -0.97266,0.0469 -1.44922,0.14453 -0.47657,0.0937 -0.94141,0.23437 -1.39063,0.42187 -0.44922,0.1836 -0.8789,0.41406 -1.28125,0.6836 -0.40625,0.26953 -0.78125,0.57812 -1.125,0.92187 -0.34375,0.34375 -0.65234,0.71875 -0.92187,1.125 -0.27344,0.40625 -0.5,0.83203 -0.6875,1.28125 -0.1836,0.45313 -0.32813,0.91406 -0.42188,1.39453 -0.0937,0.47656 -0.14062,0.95703 -0.14062,1.44531 v 5.29688 h -5.30078 v -19.07031 h 2.19531 c 0.66406,-0.004 1.21094,-0.26172 1.63281,-0.77344 l 8.89063,-10.73438 8.89062,10.73438 c 0.42188,0.51172 0.96484,0.76953 1.62891,0.77344 z m 0,0"
     fill-opacity="1"
     fill-rule="nonzero"
     id="path3125" />
  <path
     fill="#2d4356"
     d="M 150.05078,107.60156 H 82.234374 c -0.28125,0 -0.55078,0.0547 -0.8125,0.16406 -0.25781,0.10547 -0.48828,0.25782 -0.6875,0.45704 -0.19922,0.19921 -0.35156,0.42968 -0.45703,0.6875 -0.10938,0.26171 -0.16406,0.53125 -0.16406,0.8125 0,0.28125 0.0547,0.55078 0.16406,0.80859 0.10547,0.26172 0.25781,0.49219 0.45703,0.6875 0.19922,0.19922 0.42969,0.35156 0.6875,0.46094 0.26172,0.10937 0.53125,0.16015 0.8125,0.16015 h 67.816406 c 0.28125,0 0.55468,-0.0508 0.8125,-0.16015 0.26171,-0.10938 0.48828,-0.26172 0.6875,-0.46094 0.19921,-0.19531 0.35156,-0.42578 0.46093,-0.6875 0.10547,-0.25781 0.16016,-0.52734 0.16016,-0.80859 0,-0.28125 -0.0547,-0.55079 -0.16016,-0.8125 -0.10937,-0.25782 -0.26172,-0.48829 -0.46093,-0.6875 -0.19922,-0.19922 -0.42579,-0.35157 -0.6875,-0.45704 -0.25782,-0.10937 -0.53125,-0.16406 -0.8125,-0.16406 z m 0,0"
     fill-opacity="1"
     fill-rule="nonzero"
     id="path3126" />
  <path
     fill="#2d4356"
     d="m 92.999994,127.73437 h -0.33984 c -0.42187,0.0117 -0.83984,0.0664 -1.25391,0.16016 -0.41406,0.0937 -0.8125,0.23047 -1.19921,0.40234 -0.38282,0.17579 -0.75,0.38672 -1.09375,0.63282 -0.34375,0.25 -0.66016,0.52734 -0.94922,0.83593 -0.28516,0.3125 -0.53907,0.64844 -0.76172,1.00782 -0.22266,0.36328 -0.40625,0.74218 -0.55078,1.14062 -0.14453,0.39453 -0.25,0.80469 -0.3125,1.22266 -0.0664,0.41797 -0.0859,0.83984 -0.0664,1.26172 v 1.50781 c -0.0195,0.42187 0,0.84375 0.0664,1.26172 0.0625,0.41797 0.16797,0.82422 0.3125,1.22265 0.14453,0.39844 0.32812,0.77735 0.55078,1.14063 0.22265,0.35937 0.47656,0.69531 0.76172,1.00391 0.28906,0.3125 0.60547,0.58984 0.94922,0.83984 0.34375,0.24609 0.71093,0.45703 1.09375,0.63281 0.38671,0.17188 0.78515,0.3086 1.19921,0.40235 0.41407,0.0937 0.83204,0.14843 1.25391,0.16015 h 0.33984 c 0.42188,-0.0117 0.83985,-0.0664 1.25391,-0.16015 0.41406,-0.0977 0.8125,-0.23047 1.19531,-0.40625 0.38672,-0.17579 0.75391,-0.38672 1.09766,-0.63282 0.33984,-0.24609 0.65625,-0.52734 0.94531,-0.83593 0.28906,-0.3086 0.54297,-0.64454 0.76563,-1.00782 0.21875,-0.35937 0.40234,-0.73828 0.54687,-1.13672 0.14844,-0.39843 0.25391,-0.80468 0.31641,-1.22265 0.0664,-0.42188 0.0859,-0.83985 0.0664,-1.26172 v -1.50781 c 0.0195,-0.42188 0,-0.84375 -0.0664,-1.26172 -0.0625,-0.41797 -0.16797,-0.82422 -0.31641,-1.22266 -0.14453,-0.39844 -0.32812,-0.77734 -0.54687,-1.13672 -0.22266,-0.36328 -0.47657,-0.69922 -0.76563,-1.00781 -0.28906,-0.3125 -0.60547,-0.58984 -0.94531,-0.83594 -0.34375,-0.25 -0.71094,-0.46093 -1.09766,-0.63281 -0.38281,-0.17578 -0.78125,-0.30859 -1.19531,-0.40625 -0.41406,-0.0937 -0.83203,-0.14844 -1.25391,-0.16016 z m 1.94922,8.17188 c 0.0312,0.28906 0.008,0.57422 -0.0742,0.85547 -0.082,0.27734 -0.21484,0.53125 -0.39843,0.75781 -0.1836,0.23047 -0.40235,0.41406 -0.65625,0.55469 -0.25782,0.14062 -0.53125,0.22656 -0.82032,0.25781 h -0.33984 c -0.28906,-0.0312 -0.5625,-0.11719 -0.82031,-0.25781 -0.25391,-0.14063 -0.47266,-0.32422 -0.65625,-0.55469 -0.1836,-0.22656 -0.31641,-0.48047 -0.39844,-0.75781 -0.082,-0.28125 -0.10547,-0.56641 -0.0742,-0.85547 v -1.50781 c -0.0312,-0.28907 -0.008,-0.57422 0.0742,-0.85547 0.082,-0.27735 0.21484,-0.53125 0.39844,-0.76172 0.18359,-0.22656 0.40234,-0.41016 0.65625,-0.55078 0.25781,-0.14063 0.53125,-0.22656 0.82031,-0.25781 h 0.33984 c 0.28907,0.0312 0.5625,0.11718 0.82032,0.25781 0.2539,0.14062 0.47265,0.32422 0.65625,0.55078 0.18359,0.23047 0.3164,0.48437 0.39843,0.76172 0.082,0.28125 0.10547,0.5664 0.0742,0.85547 z m 0,0"
     fill-opacity="1"
     fill-rule="nonzero"
     id="path3127" />
  <path
     fill="#e1ebf4"
     d="m 94.949214,134.39844 v 1.50781 c 0.0312,0.28906 0.008,0.57422 -0.0742,0.85547 -0.082,0.27734 -0.21484,0.53125 -0.39843,0.75781 -0.1836,0.23047 -0.40235,0.41406 -0.65625,0.55469 -0.25782,0.14062 -0.53125,0.22656 -0.82032,0.25781 h -0.33984 c -0.28906,-0.0312 -0.5625,-0.11719 -0.82031,-0.25781 -0.25391,-0.14063 -0.47266,-0.32422 -0.65625,-0.55469 -0.1836,-0.22656 -0.31641,-0.48047 -0.39844,-0.75781 -0.082,-0.28125 -0.10547,-0.56641 -0.0742,-0.85547 v -1.50781 c -0.0312,-0.28907 -0.008,-0.57422 0.0742,-0.85547 0.082,-0.27735 0.21484,-0.53125 0.39844,-0.76172 0.18359,-0.22656 0.40234,-0.41016 0.65625,-0.55078 0.25781,-0.14063 0.53125,-0.22656 0.82031,-0.25781 h 0.33984 c 0.28907,0.0312 0.5625,0.11718 0.82032,0.25781 0.2539,0.14062 0.47265,0.32422 0.65625,0.55078 0.18359,0.23047 0.3164,0.48437 0.39843,0.76172 0.082,0.28125 0.10547,0.5664 0.0742,0.85547 z m 0,0"
     fill-opacity="1"
     fill-rule="nonzero"
     id="path3128" />
  <path
     fill="#2d4356"
     d="m 82.234374,156.34375 c 0.28125,0 0.55078,-0.0547 0.80859,-0.16016 0.26172,-0.10937 0.49219,-0.26172 0.6875,-0.46093 0.19922,-0.19922 0.35157,-0.42579 0.46094,-0.6875 0.10938,-0.25782 0.16016,-0.53125 0.16016,-0.8086 v -4.23828 c 0,-0.28125 0.0547,-0.55469 0.16406,-0.8125 0.10547,-0.25781 0.26172,-0.48828 0.45703,-0.6875 0.19922,-0.19922 0.42969,-0.35156 0.6875,-0.46094 0.26172,-0.10547 0.53125,-0.16015 0.8125,-0.16015 h 1.75781 l 2.04297,2.76172 c 0.14844,0.19921 0.32031,0.3789 0.50781,0.53906 0.19141,0.16015 0.39454,0.29687 0.61719,0.40625 0.22266,0.11328 0.45313,0.19922 0.69531,0.2539 0.24219,0.0586 0.48829,0.0859 0.73438,0.0859 0.25,0 0.49609,-0.0273 0.73828,-0.0859 0.24219,-0.0547 0.47266,-0.14062 0.69531,-0.2539 0.21875,-0.10938 0.42578,-0.2461 0.61719,-0.40625 0.1875,-0.16016 0.35938,-0.33985 0.50391,-0.53906 l 2.04687,-2.76172 h 1.75781 c 0.28125,0 0.55079,0.0547 0.8125,0.16015 0.257816,0.10938 0.488286,0.26172 0.687496,0.46094 0.19922,0.19922 0.35157,0.42969 0.45704,0.6875 0.10937,0.25781 0.16406,0.53125 0.16406,0.8125 v 4.23828 c 0,0.27735 0.0547,0.55078 0.16015,0.8086 0.10938,0.26171 0.26172,0.48828 0.46094,0.6875 0.19922,0.19921 0.42578,0.35156 0.6875,0.46093 0.25781,0.10547 0.52735,0.16016 0.8086,0.16016 0.28125,0 0.55078,-0.0547 0.8125,-0.16016 0.25781,-0.10937 0.48828,-0.26172 0.6875,-0.46093 0.19921,-0.19922 0.35156,-0.42579 0.46093,-0.6875 0.10547,-0.25782 0.16016,-0.53125 0.16016,-0.8086 v -4.23828 c 0,-0.41797 -0.043,-0.83203 -0.125,-1.24219 -0.082,-0.41015 -0.20313,-0.80468 -0.36328,-1.1914 -0.15625,-0.38672 -0.35547,-0.75 -0.58594,-1.09766 -0.23047,-0.34766 -0.49609,-0.66797 -0.78906,-0.96484 -0.29688,-0.29297 -0.61719,-0.5586 -0.96485,-0.78907 -0.34765,-0.23437 -0.71484,-0.42968 -1.09765,-0.58984 -0.38672,-0.16016 -0.78516,-0.28125 -1.19141,-0.35937 -0.41015,-0.082 -0.824216,-0.125 -1.242186,-0.125 h -2.82421 c -0.71094,0 -1.28125,0.28515 -1.70313,0.85937 l -1.82812,2.46875 -1.83204,-2.46875 c -0.42187,-0.57422 -0.99218,-0.85937 -1.70312,-0.85937 h -2.82422 c -0.41797,0 -0.83203,0.043 -1.24219,0.125 -0.40625,0.0781 -0.80468,0.19921 -1.1914,0.35937 -0.38282,0.16016 -0.75,0.35547 -1.09766,0.58984 -0.34766,0.23047 -0.66797,0.4961 -0.96484,0.78907 -0.29297,0.29687 -0.5586,0.61718 -0.78907,0.96484 -0.23046,0.34766 -0.42578,0.71094 -0.58593,1.09766 -0.16016,0.38672 -0.28125,0.78125 -0.36328,1.1914 -0.082,0.41016 -0.125,0.82422 -0.125,1.24219 v 4.23828 c 0,0.27735 0.0547,0.55078 0.16406,0.8086 0.10547,0.26171 0.25781,0.48828 0.45703,0.6875 0.19922,0.19921 0.42969,0.35156 0.6875,0.46093 0.26172,0.10547 0.53125,0.16016 0.8125,0.16016 z m 0,0"
     fill-opacity="1"
     fill-rule="nonzero"
     id="path3129" />
  <path
     fill="#2d4356"
     d="m 115.08203,143.62891 h 29.67187 c 0.28125,0 0.55078,-0.0547 0.8125,-0.16016 0.25781,-0.10938 0.48828,-0.26172 0.6875,-0.46094 0.19922,-0.19922 0.35156,-0.42578 0.45703,-0.6875 0.10938,-0.25781 0.16406,-0.53125 0.16406,-0.8125 0,-0.27734 -0.0547,-0.55078 -0.16406,-0.80859 -0.10547,-0.26172 -0.25781,-0.48828 -0.45703,-0.6875 -0.19922,-0.19922 -0.42969,-0.35156 -0.6875,-0.46094 -0.26172,-0.10547 -0.53125,-0.16016 -0.8125,-0.16016 h -29.67187 c -0.28125,0 -0.55079,0.0547 -0.8086,0.16016 -0.26172,0.10938 -0.48828,0.26172 -0.6875,0.46094 -0.19922,0.19922 -0.35156,0.42578 -0.46094,0.6875 -0.10546,0.25781 -0.16015,0.53125 -0.16015,0.80859 0,0.28125 0.0547,0.55469 0.16015,0.8125 0.10938,0.26172 0.26172,0.48828 0.46094,0.6875 0.19922,0.19922 0.42578,0.35156 0.6875,0.46094 0.25781,0.10547 0.52735,0.16016 0.8086,0.16016 z m 0,0"
     fill-opacity="1"
     fill-rule="nonzero"
     id="path3130" />
  <path
     fill="#2d4356"
     d="m 115.08203,152.10547 h 29.67187 c 0.28125,0 0.55078,-0.0547 0.8125,-0.16016 0.25781,-0.10937 0.48828,-0.26172 0.6875,-0.46094 0.19922,-0.19921 0.35156,-0.42578 0.45703,-0.6875 0.10938,-0.25781 0.16406,-0.53125 0.16406,-0.80859 0,-0.28125 -0.0547,-0.55469 -0.16406,-0.8125 -0.10547,-0.26172 -0.25781,-0.48828 -0.45703,-0.6875 -0.19922,-0.19922 -0.42969,-0.35156 -0.6875,-0.46094 -0.26172,-0.10547 -0.53125,-0.16015 -0.8125,-0.16015 h -29.67187 c -0.28125,0 -0.55079,0.0547 -0.8086,0.16015 -0.26172,0.10938 -0.48828,0.26172 -0.6875,0.46094 -0.19922,0.19922 -0.35156,0.42578 -0.46094,0.6875 -0.10546,0.25781 -0.16015,0.53125 -0.16015,0.8125 0,0.27734 0.0547,0.55078 0.16015,0.80859 0.10938,0.26172 0.26172,0.48829 0.46094,0.6875 0.19922,0.19922 0.42578,0.35157 0.6875,0.46094 0.25781,0.10547 0.52735,0.16016 0.8086,0.16016 z m 0,0"
     fill-opacity="1"
     fill-rule="nonzero"
     id="path3131" />
  <path
     fill="#2d4356"
     d="m 82.234374,164.82031 h 67.816406 c 0.28125,0 0.55468,-0.0547 0.8125,-0.16015 0.26171,-0.10938 0.48828,-0.26172 0.6875,-0.46094 0.19921,-0.19922 0.35156,-0.42578 0.46093,-0.6875 0.10547,-0.25781 0.16016,-0.52735 0.16016,-0.8086 0,-0.28125 -0.0547,-0.55468 -0.16016,-0.8125 -0.10937,-0.26171 -0.26172,-0.48828 -0.46093,-0.6875 -0.19922,-0.19921 -0.42579,-0.35156 -0.6875,-0.46093 -0.25782,-0.10547 -0.53125,-0.16016 -0.8125,-0.16016 H 82.234374 c -0.28125,0 -0.55078,0.0547 -0.8125,0.16016 -0.25781,0.10937 -0.48828,0.26172 -0.6875,0.46093 -0.19922,0.19922 -0.35156,0.42579 -0.45703,0.6875 -0.10938,0.25782 -0.16406,0.53125 -0.16406,0.8125 0,0.28125 0.0547,0.55079 0.16406,0.8086 0.10547,0.26172 0.25781,0.48828 0.45703,0.6875 0.19922,0.19922 0.42969,0.35156 0.6875,0.46094 0.26172,0.10546 0.53125,0.16015 0.8125,0.16015 z m 0,0"
     fill-opacity="1"
     fill-rule="nonzero"
     id="path3132" />
  <path
     fill="#2d4356"
     d="m 82.234374,173.29687 h 67.816406 c 0.28125,0 0.55468,-0.0547 0.8125,-0.16015 0.26171,-0.10938 0.48828,-0.26172 0.6875,-0.46094 0.19921,-0.19922 0.35156,-0.42578 0.46093,-0.6875 0.10547,-0.25781 0.16016,-0.52734 0.16016,-0.80859 0,-0.28125 -0.0547,-0.55469 -0.16016,-0.8125 -0.10937,-0.25782 -0.26172,-0.48828 -0.46093,-0.6875 -0.19922,-0.19922 -0.42579,-0.35157 -0.6875,-0.46094 -0.25782,-0.10547 -0.53125,-0.16016 -0.8125,-0.16016 H 82.234374 c -0.28125,0 -0.55078,0.0547 -0.8125,0.16016 -0.25781,0.10937 -0.48828,0.26172 -0.6875,0.46094 -0.19922,0.19922 -0.35156,0.42968 -0.45703,0.6875 -0.10938,0.25781 -0.16406,0.53125 -0.16406,0.8125 0,0.28125 0.0547,0.55078 0.16406,0.80859 0.10547,0.26172 0.25781,0.48828 0.45703,0.6875 0.19922,0.19922 0.42969,0.35156 0.6875,0.46094 0.26172,0.10547 0.53125,0.16015 0.8125,0.16015 z m 0,0"
     fill-opacity="1"
     fill-rule="nonzero"
     id="path3133" />
  <path
     fill="#2d4356"
     d="m 115.08203,135.15234 h 14.83593 c 0.28125,0 0.55078,-0.0547 0.8125,-0.16015 0.25782,-0.10938 0.48828,-0.26172 0.6875,-0.46094 0.19922,-0.19922 0.35157,-0.42969 0.45703,-0.6875 0.10938,-0.25781 0.16407,-0.53125 0.16407,-0.8125 0,-0.28125 -0.0547,-0.55078 -0.16407,-0.80859 -0.10546,-0.26172 -0.25781,-0.48829 -0.45703,-0.6875 -0.19922,-0.19922 -0.42968,-0.35157 -0.6875,-0.46094 -0.26172,-0.10547 -0.53125,-0.16016 -0.8125,-0.16016 h -14.83593 c -0.28125,0 -0.55079,0.0547 -0.8086,0.16016 -0.26172,0.10937 -0.48828,0.26172 -0.6875,0.46094 -0.19922,0.19921 -0.35156,0.42578 -0.46094,0.6875 -0.10546,0.25781 -0.16015,0.52734 -0.16015,0.80859 0,0.28125 0.0547,0.55469 0.16015,0.8125 0.10938,0.25781 0.26172,0.48828 0.46094,0.6875 0.19922,0.19922 0.42578,0.35156 0.6875,0.46094 0.25781,0.10547 0.52735,0.16015 0.8086,0.16015 z m 0,0"
     fill-opacity="1"
     fill-rule="nonzero"
     id="path3134" />
  <path
     fill="#e8fbfc"
     d="m 67.398434,60.535161 v 2.12109 l -10.04687,2.16016 c -0.65235,0.13671 -1.11719,0.50781 -1.39844,1.11328 l -0.16797,-0.79688 c -0.0586,-0.26562 -0.0625,-0.53125 -0.0156,-0.79687 0.0508,-0.26953 0.14843,-0.51563 0.29296,-0.7461 0.14844,-0.22656 0.33204,-0.41797 0.5586,-0.57422 0.22265,-0.15234 0.46484,-0.26171 0.73047,-0.32031 z m 0,0"
     fill-opacity="0.4"
     fill-rule="nonzero"
     id="path3135" />
  <path
     fill="#e8fbfc"
     d="m 176.49999,65.132811 -0.16796,0.79688 c -0.27735,-0.60547 -0.7461,-0.97657 -1.39844,-1.11328 l -10.04688,-2.16016 v -2.12109 l 10.04688,2.16015 c 0.26562,0.0586 0.50781,0.16797 0.73437,0.32031 0.22266,0.15625 0.40625,0.34766 0.55469,0.57422 0.14453,0.23047 0.24219,0.47657 0.29297,0.7461 0.0469,0.26562 0.043,0.53125 -0.0156,0.79687 z m 0,0"
     fill-opacity="0.4"
     fill-rule="nonzero"
     id="path3136" />
  <path
     fill="#0f423c"
     d="m 156.41015,175.41797 v 2.11719 c 0,0.28125 -0.0547,0.55078 -0.16406,0.8125 -0.10547,0.25781 -0.25781,0.48437 -0.45703,0.68359 -0.19922,0.19922 -0.42969,0.35156 -0.6875,0.46094 -0.25782,0.10937 -0.53125,0.16015 -0.8086,0.16406 H 77.996094 c -0.28125,-0.004 -0.55078,-0.0547 -0.8125,-0.16406 -0.25781,-0.10938 -0.48828,-0.26172 -0.6836,-0.46094 -0.19921,-0.19922 -0.35546,-0.42578 -0.46093,-0.68359 -0.10938,-0.26172 -0.16407,-0.53125 -0.16407,-0.8125 v -2.11719 c 0,0.28125 0.0547,0.55078 0.16407,0.80859 0.10547,0.25781 0.26172,0.48828 0.46093,0.6875 0.19532,0.19922 0.42579,0.35156 0.6836,0.45703 0.26172,0.10938 0.53125,0.16407 0.8125,0.16407 h 76.296866 c 0.27735,0 0.55078,-0.0547 0.8086,-0.16407 0.25781,-0.10547 0.48828,-0.25781 0.6875,-0.45703 0.19922,-0.19922 0.35156,-0.42969 0.45703,-0.6875 0.10937,-0.25781 0.16406,-0.52734 0.16406,-0.80859 z m 0,0"
     fill-opacity="0.3"
     fill-rule="nonzero"
     id="path3137" />
  <path
     fill="#e8fbfc"
     d="m 75.874994,120.31641 h 80.535156 v 2.12109 H 75.874994 Z m 0,0"
     fill-opacity="0.4"
     fill-rule="nonzero"
     id="path3138" />
  <path
     fill="#9fa5aa"
     d="m 75.874994,113.96094 h 80.535156 v 2.11718 H 75.874994 Z m 0,0"
     fill-opacity="0.5"
     fill-rule="nonzero"
     id="path3139" />
  <path
     fill="#ffffff"
     d="m 156.41015,54.625001 v 2.11719 c 0,-0.28125 -0.0547,-0.55078 -0.16406,-0.8086 -0.10547,-0.26172 -0.25781,-0.48828 -0.45703,-0.6875 -0.19922,-0.19922 -0.42969,-0.35156 -0.6875,-0.46093 -0.25782,-0.10547 -0.53125,-0.16016 -0.8086,-0.16016 H 77.996094 c -0.28125,0 -0.55078,0.0547 -0.8125,0.16016 -0.25781,0.10937 -0.48828,0.26171 -0.6836,0.46093 -0.19921,0.19922 -0.35546,0.42578 -0.46093,0.6875 -0.10938,0.25782 -0.16407,0.52735 -0.16407,0.8086 v -2.11719 c 0,-0.28125 0.0547,-0.55078 0.16407,-0.8125 0.10547,-0.25781 0.26172,-0.48828 0.46093,-0.6875 0.19532,-0.19531 0.42579,-0.35156 0.6836,-0.45703 0.26172,-0.10938 0.53125,-0.16406 0.8125,-0.16406 h 76.296866 c 0.27735,0 0.55078,0.0547 0.8086,0.16406 0.25781,0.10547 0.48828,0.26172 0.6875,0.45703 0.19922,0.19922 0.35156,0.42969 0.45703,0.6875 0.10937,0.26172 0.16406,0.53125 0.16406,0.8125 z m 0,0"
     fill-opacity="0.5"
     fill-rule="nonzero"
     id="path3140" />
  <path
     fill="#ffffff"
     d="m 119.32031,93.828121 v 2.11719 c 0,-0.41797 -0.0781,-0.82422 -0.24219,-1.21484 -0.16016,-0.39063 -0.39063,-0.73438 -0.6875,-1.03125 -0.29688,-0.29688 -0.64063,-0.52735 -1.03125,-0.6875 -0.39063,-0.16406 -0.79297,-0.24219 -1.21484,-0.24219 -0.42188,0 -0.82813,0.0781 -1.21875,0.24219 -0.39063,0.16015 -0.73438,0.39062 -1.03125,0.6875 -0.29688,0.29687 -0.52735,0.64062 -0.6875,1.03125 -0.16407,0.39062 -0.24219,0.79687 -0.24219,1.21484 v -2.11719 c 0,-0.42187 0.0781,-0.82812 0.24219,-1.21484 0.16015,-0.39062 0.39062,-0.73437 0.6875,-1.03125 0.29687,-0.30078 0.64062,-0.53125 1.03125,-0.69141 0.39062,-0.16015 0.79687,-0.24218 1.21875,-0.24218 0.42187,0 0.82421,0.082 1.21484,0.24218 0.39062,0.16016 0.73437,0.39063 1.03125,0.69141 0.29687,0.29688 0.52734,0.64063 0.6875,1.03125 0.16406,0.38672 0.24219,0.79297 0.24219,1.21484 z m 0,0"
     fill-opacity="0.5"
     fill-rule="nonzero"
     id="path3141" />
  <path
     fill="#9fa5aa"
     d="m 112.96484,97.007811 h 6.35547 v 2.11719 h -6.35547 z m 0,0"
     fill-opacity="0.5"
     fill-rule="nonzero"
     id="path3142" />
  <path
     fill="#a54b3f"
     d="m 94.949214,97.007811 h 4.23828 v 2.11719 h -4.23828 z m 0,0"
     fill-opacity="0.5"
     fill-rule="nonzero"
     id="path3143" />
  <path
     fill="#ad9359"
     d="m 103.42578,97.007811 h 5.30078 v 2.11719 h -5.30078 z m 0,0"
     fill-opacity="0.45"
     fill-rule="nonzero"
     id="path3144" />
  <path
     fill="#ad9359"
     d="m 123.56249,97.007811 h 5.29688 v 2.11719 h -5.29688 z m 0,0"
     fill-opacity="0.45"
     fill-rule="nonzero"
     id="path3145" />
  <path
     fill="#a54b3f"
     d="m 133.09765,97.007811 h 4.23828 v 2.11719 h -4.23828 z m 0,0"
     fill-opacity="0.5"
     fill-rule="nonzero"
     id="path3146" />
  <path
     fill="#f9dbd7"
     d="m 133.09765,80.054691 h 4.23828 v 2.11718 h -4.23828 z m 0,0"
     fill-opacity="0.3"
     fill-rule="nonzero"
     id="path3147" />
  <path
     fill="#f9dbd7"
     d="m 94.949214,80.054691 h 4.23828 v 2.11718 h -4.23828 z m 0,0"
     fill-opacity="0.3"
     fill-rule="nonzero"
     id="path3148" />
  <path
     fill="#f9edd2"
     d="m 128.85937,80.054691 v 2.11718 h -2.19531 c -0.66407,0 -1.20703,-0.25781 -1.62891,-0.77343 l -8.89062,-10.73438 -8.89063,10.73438 c -0.42187,0.51562 -0.96875,0.77343 -1.63281,0.77343 h -2.19531 v -2.11718 h 2.19531 c 0.66406,-0.004 1.21094,-0.26172 1.63281,-0.77344 l 8.89063,-10.73438 8.89062,10.73438 c 0.42188,0.51172 0.96484,0.76953 1.62891,0.77344 z m 0,0"
     fill-opacity="0.5"
     fill-rule="nonzero"
     id="path3149" />
</svg>
