<?xml version="1.0" encoding="UTF-8" standalone="no"?>
<svg
   width="310.03125"
   zoomAndPan="magnify"
   viewBox="0 0 232.52344 277.85156"
   height="370.46875"
   preserveAspectRatio="xMidYMid"
   version="1.0"
   id="svg3945"
   sodipodi:docname="Sheba Enterprise.svg"
   xmlns:inkscape="http://www.inkscape.org/namespaces/inkscape"
   xmlns:sodipodi="http://sodipodi.sourceforge.net/DTD/sodipodi-0.dtd"
   xmlns="http://www.w3.org/2000/svg"
   xmlns:svg="http://www.w3.org/2000/svg">
  <sodipodi:namedview
     id="namedview3945"
     pagecolor="#ffffff"
     bordercolor="#000000"
     borderopacity="0.25"
     inkscape:showpageshadow="2"
     inkscape:pageopacity="0.0"
     inkscape:pagecheckerboard="0"
     inkscape:deskcolor="#d1d1d1"
     inkscape:export-bgcolor="#00000000" />
  <defs
     id="defs2384">
    <clipPath
       id="f237d2c7ec">
      <path
         d="m 1005.2891,1162.6641 h 232.5234 v 185.4687 h -232.5234 z m 0,0"
         clip-rule="nonzero"
         id="path611" />
    </clipPath>
    <clipPath
       id="223a22a2fd">
      <path
         d="m 1024.0313,1162.6641 h 195.0429 c 4.9688,0 9.7344,1.9765 13.25,5.4922 3.5156,3.5117 5.4883,8.2812 5.4883,13.25 v 147.9843 c 0,4.9688 -1.9727,9.7383 -5.4883,13.25 -3.5156,3.5157 -8.2812,5.4922 -13.25,5.4922 h -195.0429 c -4.9688,0 -9.7383,-1.9765 -13.2501,-5.4922 -3.5156,-3.5117 -5.4921,-8.2812 -5.4921,-13.25 v -147.9843 c 0,-4.9688 1.9765,-9.7383 5.4921,-13.25 3.5118,-3.5157 8.2813,-5.4922 13.2501,-5.4922 z m 0,0"
         clip-rule="nonzero"
         id="path612" />
    </clipPath>
    <clipPath
       id="6b888ce910">
      <path
         d="m 1005.2891,1070.2813 h 232.5234 v 232.5273 h -232.5234 z m 0,0"
         clip-rule="nonzero"
         id="path613" />
    </clipPath>
    <clipPath
       id="0c61de6a83">
      <path
         d="m 1024.0313,1070.2813 h 195.0429 c 4.9688,0 9.7344,1.9765 13.25,5.4921 3.5156,3.5157 5.4883,8.2813 5.4883,13.25 v 195.043 c 0,4.9688 -1.9727,9.7383 -5.4883,13.25 -3.5156,3.5156 -8.2812,5.4922 -13.25,5.4922 h -195.0429 c -4.9688,0 -9.7383,-1.9766 -13.2501,-5.4922 -3.5156,-3.5117 -5.4921,-8.2812 -5.4921,-13.25 v -195.043 c 0,-4.9687 1.9765,-9.7343 5.4921,-13.25 3.5118,-3.5156 8.2813,-5.4921 13.2501,-5.4921 z m 0,0"
         clip-rule="nonzero"
         id="path614" />
    </clipPath>
    <linearGradient
       x1="-4.2098e-05"
       gradientTransform="matrix(0.908298,0,0,0.908298,1005.2901,1070.2831)"
       y1="-4.2098e-05"
       x2="255.99994"
       gradientUnits="userSpaceOnUse"
       y2="255.99994"
       id="bcffcdc7ee">
      <stop
         stop-opacity="1"
         stop-color="rgb(81.599426%, 81.599426%, 81.599426%)"
         offset="0"
         id="stop614" />
      <stop
         stop-opacity="1"
         stop-color="rgb(81.742859%, 81.742859%, 81.742859%)"
         offset="0.015625"
         id="stop615" />
      <stop
         stop-opacity="1"
         stop-color="rgb(82.029724%, 82.029724%, 82.029724%)"
         offset="0.03125"
         id="stop616" />
      <stop
         stop-opacity="1"
         stop-color="rgb(82.318115%, 82.318115%, 82.318115%)"
         offset="0.046875"
         id="stop617" />
      <stop
         stop-opacity="1"
         stop-color="rgb(82.60498%, 82.60498%, 82.60498%)"
         offset="0.0625"
         id="stop618" />
      <stop
         stop-opacity="1"
         stop-color="rgb(82.893372%, 82.893372%, 82.893372%)"
         offset="0.078125"
         id="stop619" />
      <stop
         stop-opacity="1"
         stop-color="rgb(83.180237%, 83.180237%, 83.180237%)"
         offset="0.09375"
         id="stop620" />
      <stop
         stop-opacity="1"
         stop-color="rgb(83.467102%, 83.467102%, 83.467102%)"
         offset="0.109375"
         id="stop621" />
      <stop
         stop-opacity="1"
         stop-color="rgb(83.755493%, 83.755493%, 83.755493%)"
         offset="0.125"
         id="stop622" />
      <stop
         stop-opacity="1"
         stop-color="rgb(84.042358%, 84.042358%, 84.042358%)"
         offset="0.140625"
         id="stop623" />
      <stop
         stop-opacity="1"
         stop-color="rgb(84.33075%, 84.33075%, 84.33075%)"
         offset="0.15625"
         id="stop624" />
      <stop
         stop-opacity="1"
         stop-color="rgb(84.617615%, 84.617615%, 84.617615%)"
         offset="0.171875"
         id="stop625" />
      <stop
         stop-opacity="1"
         stop-color="rgb(84.90448%, 84.90448%, 84.90448%)"
         offset="0.1875"
         id="stop626" />
      <stop
         stop-opacity="1"
         stop-color="rgb(85.192871%, 85.192871%, 85.192871%)"
         offset="0.203125"
         id="stop627" />
      <stop
         stop-opacity="1"
         stop-color="rgb(85.479736%, 85.479736%, 85.479736%)"
         offset="0.21875"
         id="stop628" />
      <stop
         stop-opacity="1"
         stop-color="rgb(85.768127%, 85.768127%, 85.768127%)"
         offset="0.234375"
         id="stop629" />
      <stop
         stop-opacity="1"
         stop-color="rgb(86.054993%, 86.054993%, 86.054993%)"
         offset="0.25"
         id="stop630" />
      <stop
         stop-opacity="1"
         stop-color="rgb(86.343384%, 86.343384%, 86.343384%)"
         offset="0.265625"
         id="stop631" />
      <stop
         stop-opacity="1"
         stop-color="rgb(86.630249%, 86.630249%, 86.630249%)"
         offset="0.28125"
         id="stop632" />
      <stop
         stop-opacity="1"
         stop-color="rgb(86.917114%, 86.917114%, 86.917114%)"
         offset="0.296875"
         id="stop633" />
      <stop
         stop-opacity="1"
         stop-color="rgb(87.205505%, 87.205505%, 87.205505%)"
         offset="0.3125"
         id="stop634" />
      <stop
         stop-opacity="1"
         stop-color="rgb(87.492371%, 87.492371%, 87.492371%)"
         offset="0.328125"
         id="stop635" />
      <stop
         stop-opacity="1"
         stop-color="rgb(87.780762%, 87.780762%, 87.780762%)"
         offset="0.34375"
         id="stop636" />
      <stop
         stop-opacity="1"
         stop-color="rgb(88.067627%, 88.067627%, 88.067627%)"
         offset="0.359375"
         id="stop637" />
      <stop
         stop-opacity="1"
         stop-color="rgb(88.354492%, 88.354492%, 88.354492%)"
         offset="0.375"
         id="stop638" />
      <stop
         stop-opacity="1"
         stop-color="rgb(88.642883%, 88.642883%, 88.642883%)"
         offset="0.390625"
         id="stop639" />
      <stop
         stop-opacity="1"
         stop-color="rgb(88.929749%, 88.929749%, 88.929749%)"
         offset="0.40625"
         id="stop640" />
      <stop
         stop-opacity="1"
         stop-color="rgb(89.21814%, 89.21814%, 89.21814%)"
         offset="0.421875"
         id="stop641" />
      <stop
         stop-opacity="1"
         stop-color="rgb(89.505005%, 89.505005%, 89.505005%)"
         offset="0.4375"
         id="stop642" />
      <stop
         stop-opacity="1"
         stop-color="rgb(89.793396%, 89.793396%, 89.793396%)"
         offset="0.453125"
         id="stop643" />
      <stop
         stop-opacity="1"
         stop-color="rgb(90.080261%, 90.080261%, 90.080261%)"
         offset="0.46875"
         id="stop644" />
      <stop
         stop-opacity="1"
         stop-color="rgb(90.367126%, 90.367126%, 90.367126%)"
         offset="0.484375"
         id="stop645" />
      <stop
         stop-opacity="1"
         stop-color="rgb(90.655518%, 90.655518%, 90.655518%)"
         offset="0.5"
         id="stop646" />
      <stop
         stop-opacity="1"
         stop-color="rgb(90.942383%, 90.942383%, 90.942383%)"
         offset="0.515625"
         id="stop647" />
      <stop
         stop-opacity="1"
         stop-color="rgb(91.230774%, 91.230774%, 91.230774%)"
         offset="0.53125"
         id="stop648" />
      <stop
         stop-opacity="1"
         stop-color="rgb(91.517639%, 91.517639%, 91.517639%)"
         offset="0.546875"
         id="stop649" />
      <stop
         stop-opacity="1"
         stop-color="rgb(91.804504%, 91.804504%, 91.804504%)"
         offset="0.5625"
         id="stop650" />
      <stop
         stop-opacity="1"
         stop-color="rgb(92.092896%, 92.092896%, 92.092896%)"
         offset="0.578125"
         id="stop651" />
      <stop
         stop-opacity="1"
         stop-color="rgb(92.379761%, 92.379761%, 92.379761%)"
         offset="0.59375"
         id="stop652" />
      <stop
         stop-opacity="1"
         stop-color="rgb(92.668152%, 92.668152%, 92.668152%)"
         offset="0.609375"
         id="stop653" />
      <stop
         stop-opacity="1"
         stop-color="rgb(92.955017%, 92.955017%, 92.955017%)"
         offset="0.625"
         id="stop654" />
      <stop
         stop-opacity="1"
         stop-color="rgb(93.243408%, 93.243408%, 93.243408%)"
         offset="0.640625"
         id="stop655" />
      <stop
         stop-opacity="1"
         stop-color="rgb(93.530273%, 93.530273%, 93.530273%)"
         offset="0.65625"
         id="stop656" />
      <stop
         stop-opacity="1"
         stop-color="rgb(93.817139%, 93.817139%, 93.817139%)"
         offset="0.671875"
         id="stop657" />
      <stop
         stop-opacity="1"
         stop-color="rgb(94.10553%, 94.10553%, 94.10553%)"
         offset="0.6875"
         id="stop658" />
      <stop
         stop-opacity="1"
         stop-color="rgb(94.392395%, 94.392395%, 94.392395%)"
         offset="0.703125"
         id="stop659" />
      <stop
         stop-opacity="1"
         stop-color="rgb(94.680786%, 94.680786%, 94.680786%)"
         offset="0.71875"
         id="stop660" />
      <stop
         stop-opacity="1"
         stop-color="rgb(94.967651%, 94.967651%, 94.967651%)"
         offset="0.734375"
         id="stop661" />
      <stop
         stop-opacity="1"
         stop-color="rgb(95.254517%, 95.254517%, 95.254517%)"
         offset="0.75"
         id="stop662" />
      <stop
         stop-opacity="1"
         stop-color="rgb(95.542908%, 95.542908%, 95.542908%)"
         offset="0.765625"
         id="stop663" />
      <stop
         stop-opacity="1"
         stop-color="rgb(95.829773%, 95.829773%, 95.829773%)"
         offset="0.78125"
         id="stop664" />
      <stop
         stop-opacity="1"
         stop-color="rgb(96.118164%, 96.118164%, 96.118164%)"
         offset="0.796875"
         id="stop665" />
      <stop
         stop-opacity="1"
         stop-color="rgb(96.405029%, 96.405029%, 96.405029%)"
         offset="0.8125"
         id="stop666" />
      <stop
         stop-opacity="1"
         stop-color="rgb(96.69342%, 96.69342%, 96.69342%)"
         offset="0.828125"
         id="stop667" />
      <stop
         stop-opacity="1"
         stop-color="rgb(96.980286%, 96.980286%, 96.980286%)"
         offset="0.84375"
         id="stop668" />
      <stop
         stop-opacity="1"
         stop-color="rgb(97.267151%, 97.267151%, 97.267151%)"
         offset="0.859375"
         id="stop669" />
      <stop
         stop-opacity="1"
         stop-color="rgb(97.555542%, 97.555542%, 97.555542%)"
         offset="0.875"
         id="stop670" />
      <stop
         stop-opacity="1"
         stop-color="rgb(97.842407%, 97.842407%, 97.842407%)"
         offset="0.890625"
         id="stop671" />
      <stop
         stop-opacity="1"
         stop-color="rgb(98.130798%, 98.130798%, 98.130798%)"
         offset="0.90625"
         id="stop672" />
      <stop
         stop-opacity="1"
         stop-color="rgb(98.417664%, 98.417664%, 98.417664%)"
         offset="0.921875"
         id="stop673" />
      <stop
         stop-opacity="1"
         stop-color="rgb(98.704529%, 98.704529%, 98.704529%)"
         offset="0.9375"
         id="stop674" />
      <stop
         stop-opacity="1"
         stop-color="rgb(98.99292%, 98.99292%, 98.99292%)"
         offset="0.953125"
         id="stop675" />
      <stop
         stop-opacity="1"
         stop-color="rgb(99.279785%, 99.279785%, 99.279785%)"
         offset="0.96875"
         id="stop676" />
      <stop
         stop-opacity="1"
         stop-color="rgb(99.568176%, 99.568176%, 99.568176%)"
         offset="0.984375"
         id="stop677" />
      <stop
         stop-opacity="1"
         stop-color="rgb(99.855042%, 99.855042%, 99.855042%)"
         offset="1"
         id="stop678" />
    </linearGradient>
    <clipPath
       id="67e060607d">
      <path
         d="m 1005.2891,1070.2813 h 232.4023 v 232.4023 h -232.4023 z m 0,0"
         clip-rule="nonzero"
         id="path678" />
    </clipPath>
    <clipPath
       id="9b5bdb2aaf">
      <path
         d="m 1024.0234,1070.2813 h 194.9375 c 4.9688,0 9.7305,1.9765 13.2461,5.4882 3.5118,3.5118 5.4844,8.2774 5.4844,13.2461 v 194.9375 c 0,4.9688 -1.9726,9.7344 -5.4844,13.2461 -3.5156,3.5117 -8.2773,5.4844 -13.2461,5.4844 h -194.9375 c -4.9687,0 -9.7343,-1.9727 -13.2461,-5.4844 -3.5156,-3.5117 -5.4882,-8.2773 -5.4882,-13.2461 v -194.9375 c 0,-4.9687 1.9726,-9.7343 5.4882,-13.2461 3.5118,-3.5117 8.2774,-5.4882 13.2461,-5.4882 z m 0,0"
         clip-rule="nonzero"
         id="path679" />
    </clipPath>
    <clipPath
       id="c01a7d81b0">
      <path
         d="m 1060,1149 h 123.5195 v 86.5938 H 1060 Z m 0,0"
         clip-rule="nonzero"
         id="path680" />
    </clipPath>
  </defs>
  <g
     clip-path="url(#f237d2c7ec)"
     id="g2771"
     transform="translate(-1005.289,-1070.2812)">
    <g
       clip-path="url(#223a22a2fd)"
       id="g2770">
      <path
         fill="#ffffff"
         d="m 1005.2891,1162.6641 h 232.5234 v 185.4687 h -232.5234 z m 0,0"
         fill-opacity="1"
         fill-rule="nonzero"
         id="path2769" />
    </g>
  </g>
  <g
     clip-path="url(#6b888ce910)"
     id="g2773"
     transform="translate(-1005.289,-1070.2812)">
    <g
       clip-path="url(#0c61de6a83)"
       id="g2772">
      <path
         fill="url(#bcffcdc7ee)"
         d="m 1005.2891,1070.2813 v 232.5273 h 232.5234 v -232.5273 z m 0,0"
         fill-rule="nonzero"
         id="path2771"
         style="fill:url(#bcffcdc7ee)" />
    </g>
  </g>
  <g
     clip-path="url(#67e060607d)"
     id="g2775"
     transform="translate(-1005.289,-1070.2812)">
    <g
       clip-path="url(#9b5bdb2aaf)"
       id="g2774">
      <path
         stroke-linecap="butt"
         transform="matrix(0.749307,0,0,0.749307,1005.2901,1070.2831)"
         fill="none"
         stroke-linejoin="miter"
         d="M 25.000919,-0.00247823 H 285.15807 c 6.63112,0 12.98596,2.63785523 17.67779,7.32447923 4.68663,4.686623 7.31927,11.046669 7.31927,17.677799 v 260.15715 c 0,6.63113 -2.63264,12.99117 -7.31927,17.6778 -4.69183,4.68662 -11.04667,7.31926 -17.67779,7.31926 H 25.000919 c -6.631129,0 -12.991175,-2.63264 -17.677799,-7.31926 -4.691837,-4.68663 -7.32447877,-11.04667 -7.32447877,-17.6778 V 24.9998 c 0,-6.63113 2.63264177,-12.991176 7.32447877,-17.677799 4.686624,-4.686624 11.04667,-7.32447923 17.677799,-7.32447923 z m 0,0"
         stroke="#ffffff"
         stroke-width="30"
         stroke-opacity="1"
         stroke-miterlimit="4"
         id="path2773" />
    </g>
  </g>
  <g
     fill="#74a766"
     fill-opacity="1"
     id="g2778"
     transform="translate(-1005.289,-1070.2812)">
    <g
       transform="translate(1024.6024,1328.1482)"
       id="g2777">
      <g
         id="g2776">
        <path
           d="m 13.4375,-9.9375 -0.25,-1.328125 v -3.65625 H -0.40625 V -18.1875 H 18.1875 v 3.265625 H 16.484375 V 0.125 H 13.1875 V -2.984375 C 13.101562,-4.117188 12.785156,-5.253906 12.234375,-6.390625 11.191406,-8.441406 9.554688,-9.632812 7.328125,-9.96875 5.734375,-10.226562 4.625,-9.800781 4,-8.6875 c -0.429688,0.824219 -0.398438,1.539062 0.09375,2.140625 0.5625,0.65625 2.132812,0.761719 4.71875,0.3125 l -0.65625,3.3125 C 5.09375,-2.359375 2.910156,-2.875 1.609375,-4.46875 0.910156,-5.25 0.550781,-6.203125 0.53125,-7.328125 c -0.0625,-1.050781 0.125,-2.039063 0.5625,-2.96875 C 2.5,-12.722656 4.742188,-13.707031 7.828125,-13.25 c 2.019531,0.3125 3.890625,1.417969 5.609375,3.3125 z m 0,0"
           id="path2775" />
      </g>
    </g>
  </g>
  <g
     fill="#74a766"
     fill-opacity="1"
     id="g2781"
     transform="translate(-1005.289,-1070.2812)">
    <g
       transform="translate(1042.4736,1328.1482)"
       id="g2780">
      <g
         id="g2779">
        <path
           d="m -0.46875,-18.1875 h 7.390625 v 3.265625 H 4.875 V 0.125 H 1.578125 V -14.921875 H -0.46875 Z m 0,0"
           id="path2778" />
      </g>
    </g>
  </g>
  <g
     fill="#74a766"
     fill-opacity="1"
     id="g2784"
     transform="translate(-1005.289,-1070.2812)">
    <g
       transform="translate(1048.9236,1328.1482)"
       id="g2783">
      <g
         id="g2782">
        <path
           d="m 13.40625,-8.6875 v -6.234375 H 7.234375 c 1.320313,1.09375 2.046875,2.3125 2.171875,3.65625 1.675781,0.335937 3.007812,1.195313 4,2.578125 z m -7.84375,3.5 C 6.507812,-5 7.65625,-5.253906 9,-5.953125 l 0.25,3.46875 C 7.757812,-1.878906 6.34375,-1.691406 5,-1.921875 3.21875,-2.234375 2.003906,-3.101562 1.359375,-4.53125 0.703125,-6 0.773438,-7.40625 1.578125,-8.75 c 0.9375,-1.59375 2.445313,-2.492188 4.53125,-2.703125 0,-0.4375 -0.339844,-0.921875 -1.015625,-1.453125 C 4.425781,-13.445312 2.894531,-13.664062 0.5,-13.5625 l 0.28125,-1.359375 H -0.25 V -18.1875 h 18.46875 v 3.265625 H 16.671875 V 0.125 H 13.40625 v -2.109375 c -0.210938,-1.28125 -0.671875,-2.472656 -1.390625,-3.578125 -1.25,-1.957031 -3.011719,-2.832031 -5.28125,-2.625 -1.199219,0.105469 -1.964844,0.464844 -2.296875,1.078125 -0.230469,0.398437 -0.25,0.804687 -0.0625,1.21875 0.144531,0.367187 0.539062,0.601563 1.1875,0.703125 z m 0,0"
           id="path2781" />
      </g>
    </g>
  </g>
  <g
     fill="#74a766"
     fill-opacity="1"
     id="g2787"
     transform="translate(-1005.289,-1070.2812)">
    <g
       transform="translate(1067.0151,1328.1482)"
       id="g2786">
      <g
         id="g2785">
        <path
           d="m 23.640625,-18.1875 v 3.265625 h -8.375 c 0.601563,1.617187 2.722656,2.328125 6.359375,2.140625 l 1.3125,2.234375 c -1.59375,2 -2.351562,3.871094 -2.265625,5.609375 0.01953,0.792969 0.226563,1.359375 0.625,1.703125 0.40625,0.460937 1.097656,0.710937 2.078125,0.75 L 22.375,0.75 C 21.03125,0.5 19.953125,0.0078125 19.140625,-0.71875 18.023438,-1.707031 17.4375,-3.082031 17.375,-4.84375 c -0.0625,-1.675781 0.351562,-3.25 1.25,-4.71875 -3.523438,-0.445312 -5.859375,-1.988281 -7.015625,-4.625 -1.40625,1.511719 -2.007813,2.777344 -1.796875,3.796875 0.125,0.511719 0.429688,0.871094 0.921875,1.078125 0.6875,0.292969 1.722656,0.335938 3.109375,0.125 0.632812,-0.082031 1.234375,-0.226562 1.796875,-0.4375 1.425781,2.492188 1.375,4.902344 -0.15625,7.234375 -1.261719,1.53125 -3.152344,2.296875 -5.671875,2.296875 -2.617188,0 -4.796875,-1.054688 -6.546875,-3.171875 C 2.035156,-4.890625 1.0625,-7.050781 0.34375,-9.75 l 2.828125,-1.921875 c 0.53125,2.40625 1.171875,4.261719 1.921875,5.5625 1.195312,1.855469 2.769531,2.78125 4.71875,2.78125 1.445312,0 2.488281,-0.378906 3.125,-1.140625 0.4375,-0.476562 0.550781,-0.984375 0.34375,-1.515625 -1.53125,0.210937 -2.804688,0.117187 -3.8125,-0.28125 -1.511719,-0.625 -2.453125,-1.742187 -2.828125,-3.359375 -0.375,-1.695312 0.00781,-3.460938 1.15625,-5.296875 H -0.28125 V -18.1875 Z m 0,0"
           id="path2784" />
      </g>
    </g>
  </g>
  <g
     fill="#74a766"
     fill-opacity="1"
     id="g2790"
     transform="translate(-1005.289,-1070.2812)">
    <g
       transform="translate(1090.3923,1328.1482)"
       id="g2789">
      <g
         id="g2788">
        <path
           d="m -0.46875,-18.1875 h 7.390625 v 3.265625 H 4.875 V 0.125 H 1.578125 V -14.921875 H -0.46875 Z m 0,0"
           id="path2787" />
      </g>
    </g>
  </g>
  <g
     fill="#74a766"
     fill-opacity="1"
     id="g2793"
     transform="translate(-1005.289,-1070.2812)">
    <g
       transform="translate(1096.8423,1328.1482)"
       id="g2792">
      <g
         id="g2791">
        <path
           d="m 2.546875,-22.28125 c 1.132813,-1.695312 2.84375,-2.785156 5.125,-3.265625 0.84375,-0.164063 1.726563,-0.25 2.65625,-0.25 3.5,0 7.453125,1.257813 11.859375,3.765625 L 21.375,-19.0625 C 17.070312,-21.351562 13.398438,-22.5 10.359375,-22.5 c -0.71875,0 -1.390625,0.0625 -2.015625,0.1875 -1.53125,0.292969 -2.59375,0.984375 -3.1875,2.078125 -0.355469,0.648437 -0.53125,1.296875 -0.53125,1.953125 0,0.02344 0,0.03125 0,0.03125 v 0.0625 h 1.796875 v 3.265625 H 4.65625 V 0.09375 H 1.390625 V -14.921875 H -0.375 V -18.1875 h 1.671875 c 0,-1.40625 0.414063,-2.769531 1.25,-4.09375 z m 0,0"
           id="path2790" />
      </g>
    </g>
  </g>
  <g
     fill="#74a766"
     fill-opacity="1"
     id="g2796"
     transform="translate(-1005.289,-1070.2812)">
    <g
       transform="translate(1102.9148,1328.1482)"
       id="g2795">
      <g
         id="g2794">
        <path
           d="m 4.4375,-3.96875 c 2.195312,0.53125 3.90625,1.5625 5.125,3.09375 L 7.359375,1.421875 C 6.253906,0.304688 5,-0.445312 3.59375,-0.84375 Z m 1.671875,-4.4375 c 2.59375,0.71875 4.691406,1.824219 6.296875,3.3125 v -6.234375 c -2.125,0.5625 -4.226562,1.539063 -6.296875,2.921875 z M 17.5,-18.1875 v 3.265625 H 15.671875 V 0.125 H 12.6875 C 11.757812,-2.007812 9.679688,-3.71875 6.453125,-5 4.753906,-5.550781 3.160156,-5.773438 1.671875,-5.671875 L 0.40625,-8.71875 c 4.007812,-3.039062 8.007812,-5.054688 12,-6.046875 v -0.15625 H -0.40625 V -18.1875 Z m 0,0"
           id="path2793" />
      </g>
    </g>
  </g>
  <g
     fill="#b2c770"
     fill-opacity="1"
     id="g2802"
     transform="translate(-1005.289,-1070.2812)">
    <g
       transform="translate(1126.8992,1328.1482)"
       id="g2801">
      <g
         id="g2800">
        <path
           d="M 29.671875,-15.078125 V 0.09375 H 26.40625 v -15.171875 z m 1.671875,0.125 H 24.328125 V 0.09375 h -3.28125 C 20.859375,-2.445312 20.113281,-3.976562 18.8125,-4.5 c -0.585938,1.554688 -1.621094,2.78125 -3.109375,3.6875 -1.054687,0.667969 -2.398437,0.976562 -4.03125,0.9375 -1.449219,0 -2.949219,-0.375 -4.5,-1.125 C 4.210938,-2.425781 1.925781,-5.585938 0.3125,-10.484375 l 2.921875,-1.984375 c 1.300781,4.75 3.085937,7.585938 5.359375,8.5 2.03125,0.992188 3.726562,1.085938 5.09375,0.28125 1.425781,-0.664062 2.203125,-1.703125 2.328125,-3.109375 0.08203,-1.15625 -0.15625,-2.148437 -0.71875,-2.984375 -0.574219,-0.882812 -1.390625,-1.367188 -2.453125,-1.453125 -0.636719,-0.03906 -1.234375,0.125 -1.796875,0.5 C 10.566406,-10.378906 10.25,-9.96875 10.09375,-9.5 c -0.105469,0.375 -0.07031,0.679688 0.109375,0.90625 0.144531,0.148438 0.351563,0.210938 0.625,0.1875 0.726563,-0.039062 1.515625,-0.582031 2.359375,-1.625 l 1.40625,3.265625 c -0.960938,1.011719 -2.132812,1.570313 -3.515625,1.671875 -1.449219,0.0625 -2.625,-0.410156 -3.53125,-1.421875 -0.855469,-1.007813 -1.054687,-2.320313 -0.59375,-3.9375 0.375,-1.25 1.148437,-2.265625 2.328125,-3.046875 1.15625,-0.78125 2.425781,-1.113281 3.8125,-1 2.15625,0.25 3.707031,1.089844 4.65625,2.515625 1.03125,1.34375 1.554688,2.78125 1.578125,4.3125 0.644531,0.167969 1.21875,0.511719 1.71875,1.03125 v -8.3125 H -0.1875 v -3.265625 h 31.53125 z m 0,0"
           id="path2799" />
      </g>
    </g>
  </g>
  <g
     fill="#b2c770"
     fill-opacity="1"
     id="g2805"
     transform="translate(-1005.289,-1070.2812)">
    <g
       transform="translate(1157.9536,1328.1482)"
       id="g2804">
      <g
         id="g2803">
        <path
           d="m -0.25,-18.1875 h 9.21875 v 3.265625 H 7.390625 C 5.585938,-12.816406 4.488281,-10.6875 4.09375,-8.53125 4.007812,-8 3.96875,-7.515625 3.96875,-7.078125 c 0,1.492187 0.425781,2.609375 1.28125,3.359375 0.425781,0.40625 1.109375,0.609375 2.046875,0.609375 0.488281,0 1.035156,-0.050781 1.640625,-0.15625 L 8.15625,0.125 c 0,0 -0.011719,0 -0.03125,0 H 8 c -0.023438,0 -0.03125,0 -0.03125,0 -0.023438,0 -0.03125,0 -0.03125,0 H 7.703125 c 0,0 -0.011719,0 -0.03125,0 h -0.0625 c 0,0 -0.011719,0 -0.03125,0 h -0.0625 c 0,0 -0.011719,0 -0.03125,0 h -0.03125 c 0,0 -0.011719,0 -0.03125,0 h -0.53125 c -1.53125,0 -2.824219,-0.460938 -3.875,-1.390625 -1.554687,-1.375 -2.328125,-3.28125 -2.328125,-5.71875 0,-0.65625 0.050781,-1.335937 0.15625,-2.046875 0.425781,-2.375 1.210938,-4.335938 2.359375,-5.890625 H -0.25 Z m 0,0"
           id="path2802" />
      </g>
    </g>
  </g>
  <g
     fill="#b2c770"
     fill-opacity="1"
     id="g2808"
     transform="translate(-1005.289,-1070.2812)">
    <g
       transform="translate(1166.5431,1328.1482)"
       id="g2807">
      <g
         id="g2806">
        <path
           d="m 12.40625,-11.328125 c -2.125,0.5625 -4.226562,1.539063 -6.296875,2.921875 2.59375,0.71875 4.691406,1.824219 6.296875,3.3125 z M 17.5,-18.1875 v 3.265625 H 15.671875 V 0.125 H 12.6875 C 11.757812,-2.007812 9.671875,-3.6875 6.421875,-4.90625 4.742188,-5.519531 3.160156,-5.773438 1.671875,-5.671875 L 0.40625,-8.71875 c 4.007812,-3.039062 8.007812,-5.054688 12,-6.046875 v -0.15625 H -0.40625 V -18.1875 Z m 0,0"
           id="path2805" />
      </g>
    </g>
  </g>
  <g
     fill="#b2c770"
     fill-opacity="1"
     id="g2811"
     transform="translate(-1005.289,-1070.2812)">
    <g
       transform="translate(1183.5962,1328.1482)"
       id="g2810">
      <g
         id="g2809">
        <path
           d="m 17.34375,-14.921875 h -12.875 v 6.078125 c 2.21875,-2.007812 5.488281,-3.664062 9.8125,-4.96875 l 2.203125,3.078125 c -0.835937,1.117187 -1.429687,2.230469 -1.78125,3.34375 -0.59375,1.78125 -0.554687,3.109375 0.125,3.984375 0.519531,0.742188 1.347656,1.132812 2.484375,1.171875 L 15.953125,0.8125 c -1.886719,-0.273438 -3.21875,-1.054688 -4,-2.359375 -1.324219,-2.132813 -1.34375,-4.710937 -0.0625,-7.734375 -2.34375,0.8125 -4.945313,2.71875 -7.796875,5.71875 L 1.203125,-5.125 v -9.796875 H -0.25 V -18.1875 h 17.59375 z m 0,0"
           id="path2808" />
      </g>
    </g>
  </g>
  <g
     fill="#b2c770"
     fill-opacity="1"
     id="g2814"
     transform="translate(-1005.289,-1070.2812)">
    <g
       transform="translate(1200.6179,1328.1482)"
       id="g2813">
      <g
         id="g2812">
        <path
           d="m 13.4375,-9.9375 -0.25,-1.328125 v -3.65625 H -0.40625 V -18.1875 H 18.1875 v 3.265625 H 16.484375 V 0.125 H 13.1875 V -2.984375 C 13.101562,-4.117188 12.785156,-5.253906 12.234375,-6.390625 11.191406,-8.441406 9.554688,-9.632812 7.328125,-9.96875 5.734375,-10.226562 4.625,-9.800781 4,-8.6875 c -0.429688,0.824219 -0.398438,1.539062 0.09375,2.140625 0.5625,0.65625 2.132812,0.761719 4.71875,0.3125 l -0.65625,3.3125 C 5.09375,-2.359375 2.910156,-2.875 1.609375,-4.46875 0.910156,-5.25 0.550781,-6.203125 0.53125,-7.328125 c -0.0625,-1.050781 0.125,-2.039063 0.5625,-2.96875 C 2.5,-12.722656 4.742188,-13.707031 7.828125,-13.25 c 2.019531,0.3125 3.890625,1.417969 5.609375,3.3125 z m 0,0"
           id="path2811" />
      </g>
    </g>
  </g>
  <g
     clip-path="url(#c01a7d81b0)"
     id="g2815"
     transform="translate(-1005.289,-1070.2812)">
    <path
       fill="#b2c770"
       d="m 1182.9844,1201.375 c -0.6836,1.5625 -2.7344,2.8477 -3.9922,3.875 -5.9141,4.8203 -12.2109,9.207 -18.5,13.5234 -2.6016,1.7891 -5.2109,3.5899 -7.8984,5.25 -1.1446,0.711 -1.9571,1.2227 -3.3047,1.2579 -5.7422,0.1445 -12.1289,-2.1016 -17.6602,-3.3868 -6.9648,-1.6172 -13.9062,-3.3515 -20.8359,-5.125 -1.0899,-0.2773 -2.5,-0.9101 -3.7071,-1.0586 0.031,0.051 -0.4531,0.1836 -0.8086,0.4688 -0.7617,0.6055 -1.707,1.0664 -2.5195,1.5781 -6.1562,3.8242 -12.332,7.6094 -18.5859,11.2617 -2.8594,1.6524 -5.7031,3.3243 -8.6485,4.7969 -0.9257,0.4649 -2.8632,1.7813 -4.0117,1.4219 -2.4219,-0.7539 -3.1367,-7.7422 -3.582,-9.6367 -1.7149,-7.2422 -3.1328,-14.5547 -4.5195,-21.8672 -1.2149,-6.4219 -2.3829,-12.8555 -3.4961,-19.2969 -0.5586,-3.2383 -1.0899,-4.8242 1.2734,-7.4141 4.4844,-4.9257 10.3203,-8.8789 15.707,-12.7578 5.6758,-4.082 11.4727,-8.207 17.5938,-11.6015 4.2265,-2.3438 7.707,-0.3868 11.9844,1.3945 3.8593,1.6172 7.664,3.3711 11.4296,5.1992 l 8.0625,3.6563 c 1.4297,0.6484 2.9102,1.1289 4.4454,1.4414 1.539,0.3125 3.0898,0.4492 4.6562,0.414 1.5703,-0.039 3.1133,-0.25 4.6328,-0.6367 1.5196,-0.3828 2.9766,-0.9336 4.3711,-1.6484 l 9.0078,-4.5938 c 2.8399,-1.6211 5.7032,-3.2031 8.6055,-4.707 2.4844,-1.2852 5.2891,-3.0156 8.0703,-3.5742 3.3399,-0.6641 3.7695,3.9062 4.4336,6.3086 3.6602,13.3711 6.5234,27.4765 7.8555,41.2734 0.1211,1.2539 0.4726,2.9531 -0.059,4.1836 z m 0,0"
       fill-opacity="1"
       fill-rule="nonzero"
       id="path2814" />
  </g>
  <path
     fill="#d3e291"
     d="m 171.543,129.53515 c -0.582,1.332 -2.3281,2.4258 -3.4023,3.3008 -5.0352,4.1016 -10.3906,7.8398 -15.7461,11.5117 -2.457,1.6914 -4.9219,3.3945 -7.4766,4.9336 -0.6367,0.3867 -1.3281,0.5859 -2.0703,0.6094 -4.8945,0.1172 -15.4961,-2.9727 -20.1992,-4.0664 -5.9297,-1.375 -11.8398,-2.8477 -17.7383,-4.3594 -0.7344,-0.1914 -1.6328,-0.5586 -2.4804,-0.7734 -0.4961,-0.1329 -0.9493,-0.047 -1.3555,0.2617 -0.6914,0.4883 -1.410203,0.9375 -2.156303,1.3437 -5.2382,3.2578 -10.4961,6.4844 -15.8242,9.5899 -2.418,1.414 -4.8437,2.832 -7.3476,4.0898 -0.7891,0.3985 -2.4414,1.5235 -3.418,1.2188 -2.0625,-0.6446 -2.668,-6.5938 -3.0508,-8.2071 -1.4609,-6.164 -2.6641,-12.3945 -3.8437,-18.6172 -1.043,-5.4687 -2.043,-10.9453 -2.9883,-16.4218 -0.4766,-2.7578 -0.9258,-4.1094 1.082,-6.3125 3.8203,-4.1875 8.7891,-7.5586 13.3711,-10.855498 4.8359,-3.4727 9.7617,-6.9805 14.9805,-9.875 3.5976,-1.9961 6.5625,-0.332 10.203103,1.1953 3.2852,1.375 6.5273,2.8672 9.7305,4.4297 l 6.8632,3.1094 c 4.9258,2.2304 15.7774,3.2773 20.586,0.8164 l 7.6797,-3.9258 1.4492,-0.8633 c 2.418,-1.3789 3.4062,-1.8633 5.8789,-3.1406 2.1172,-1.0977 4.5039,-2.5703 6.875,-3.043 2.8398,-0.5586 3.207,3.3125 3.7695,5.3672 3.1172,11.374998 5.5547,23.390598 6.6914,35.128898 0.09,1.0742 0.3907,2.5196 -0.062,3.5547 z m 0,0"
     fill-opacity="1"
     fill-rule="nonzero"
     id="path2815" />
  <path
     fill="#fefaed"
     d="m 72.683697,157.94925 c -0.1914,0 -0.3789,-0.027 -0.5625,-0.082 -1.9297,-0.6015 -2.6836,-4.0273 -3.2891,-7.4843 -0.09,-0.5078 -0.168,-0.9532 -0.2344,-1.2305 -1.4609,-6.1641 -2.6562,-12.3398 -3.8515,-18.6445 -1.0743,-5.6016 -2.0782,-11.1328 -2.9883,-16.4336 l -0.1133,-0.6328 c -0.4297,-2.3985 -0.7148,-3.9844 1.3672,-6.2657 3.4453,-3.789 7.7695,-6.875 11.9492,-9.859298 l 1.5273,-1.0977 c 4.2813,-3.0703 9.6055,-6.9102 15.043,-9.9258 3.543,-1.9531 6.5586,-0.664 9.753903,0.711 l 1.0586,0.4531 c 3.0274,1.2695 6.211,2.7187 9.7266,4.4258 h 0.023 l 6.8633,3.125 c 5,2.2656 15.5898,3.0703 19.9766,0.8359 l 7.6484,-3.9062 1.4336,-0.836 c 2.1016,-1.1992 3.1172,-1.7226 4.957,-2.6719 l 0.9649,-0.5234 c 0.4062,-0.2109 0.8203,-0.4336 1.2382,-0.6562 1.7813,-0.961 3.8047,-2.0469 5.8204,-2.4532 3.0781,-0.6093 3.875,2.8242 4.3437,4.8789 0.086,0.3594 0.1641,0.6993 0.2422,0.9922 3.3906,12.378898 5.6484,24.242198 6.7148,35.246098 0.02,0.1836 0.039,0.3828 0.066,0.586 0.125,1.0195 0.2774,2.2929 -0.1718,3.3164 -0.5352,1.2226 -1.836,2.2109 -2.8828,3.0078 -0.2539,0.1914 -0.4961,0.375 -0.7149,0.5586 -5.0351,4.1015 -10.3515,7.8125 -15.793,11.5468 l -0.3085,0.211 c -2.3282,1.6015 -4.7383,3.2578 -7.2071,4.7422 -0.7422,0.4492 -1.5429,0.6875 -2.4101,0.7109 -3.918,0.098 -11.2305,-1.7734 -16.5664,-3.1328 -1.4961,-0.3828 -2.7969,-0.7109 -3.8125,-0.9492 -5.2657,-1.2266 -10.9141,-2.6133 -17.7539,-4.3672 -0.3672,-0.094 -0.7579,-0.2266 -1.168,-0.3672 -0.4141,-0.1406 -0.8867,-0.3008 -1.3086,-0.4063 -0.2734,-0.074 -0.5234,-0.031 -0.7539,0.1368 -0.4844,0.3672 -0.9922,0.6953 -1.531303,0.9843 -0.2343,0.1368 -0.4648,0.2774 -0.6875,0.4063 -4.3398,2.6992 -10.0625,6.2266 -15.8437,9.6016 l -0.1055,0.062 c -2.3594,1.375 -4.7969,2.789 -7.2773,4.0468 -0.1407,0.07 -0.3086,0.168 -0.4961,0.2813 -0.8321,0.4531 -1.9258,1.0586 -2.8867,1.0586 z m 22.5898,-71.261698 c -1.0937,0.01 -2.1133,0.2851 -3.0547,0.8359 -5.3711,2.9648 -10.6601,6.7695 -14.9101,9.8242 l -1.5313,1.1016 c -4.1211,2.941398 -8.3945,5.984298 -11.7305,9.660098 -1.6211,1.7813 -1.4296,2.8047 -1.0273,5.0782 0.039,0.207 0.078,0.4218 0.1133,0.6445 0.914,5.3008 1.914,10.8203 2.9765,16.418 1.1954,6.289 2.3868,12.4453 3.8399,18.582 0.074,0.3203 0.1562,0.7773 0.2461,1.3125 0.2812,1.6367 1.0547,5.9922 2.332,6.3867 0.5078,0.1641 1.7461,-0.5352 2.3399,-0.8672 0.207,-0.1172 0.3945,-0.2265 0.5585,-0.3047 2.4493,-1.2304 4.8672,-2.6367 7.2032,-4.0039 l 0.1093,-0.066 c 5.7657,-3.3594 11.4727,-6.8828 15.8047,-9.5781 0.2383,-0.1445 0.4883,-0.2774 0.7383,-0.4297 0.4727,-0.2578 0.921903,-0.5469 1.351603,-0.8672 l 0.023,-0.016 c 0.5899,-0.4414 1.2461,-0.5703 1.961,-0.3867 0.4765,0.1211 0.957,0.2812 1.4179,0.4414 0.3867,0.1289 0.75,0.2539 1.0703,0.3359 6.8125,1.7422 12.4532,3.1367 17.7032,4.3594 1.039,0.2383 2.3359,0.5703 3.8398,0.957 5.2578,1.3399 12.4531,3.1797 16.1836,3.086 0.6172,-0.016 1.1953,-0.1875 1.7227,-0.5079 2.4335,-1.4648 4.8242,-3.1054 7.1367,-4.6992 l 0.3047,-0.207 c 5.4257,-3.7266 10.7109,-7.4102 15.7031,-11.4805 0.2265,-0.1836 0.4844,-0.3789 0.7539,-0.5859 0.918,-0.6953 2.0586,-1.5625 2.4492,-2.4531 0.2969,-0.6797 0.1719,-1.6953 0.062,-2.5938 -0.023,-0.2148 -0.051,-0.418 -0.07,-0.6133 -1.0508,-10.9297 -3.2969,-22.7109 -6.6641,-35.015598 -0.086,-0.3203 -0.1679,-0.6719 -0.2539,-1.0508 -0.6484,-2.8242 -1.2187,-4.1133 -2.707,-3.8164 -1.8125,0.3594 -3.6523,1.3516 -5.4297,2.3086 -0.4297,0.2305 -0.8398,0.457 -1.2617,0.668 l -0.9531,0.4922 c -1.8203,0.9414 -2.8243,1.457 -4.8946,2.6367 l -1.4414,0.8516 -0.035,0.023 -7.668,3.9258 c -5.207,2.6679 -16.4492,1.3554 -21.1992,-0.7969 l -6.8203,-3.0938 -0.062,-0.027 c -3.5078,-1.7031 -6.6758,-3.1484 -9.6953,-4.4141 -0.3633,-0.1484 -0.7188,-0.3046 -1.0704,-0.457 -1.988203,-0.8555 -3.714803,-1.5976 -5.464803,-1.5976 z m 0,0"
     fill-opacity="1"
     fill-rule="nonzero"
     id="path2816" />
  <path
     fill="#fefaed"
     d="m 154.0274,125.39065 c -2.4062,3.0664 -5.0976,5.8554 -8.082,8.3711 -6,4.9961 -13.2774,8.3828 -17.8164,1.9648 -5.3594,-7.5898 -20.1641,-9.3945 -32.144603,-10.1445 -3.7382,-0.2461 -7.2148,-0.3789 -10.0312,-0.5586 -11.8438,-0.7422 -15.5391,-11.8086 -7.7734,-19.918 2.5546,-2.6679 8.3046,-4.1875 14.875,-4.9883 13.210903,-1.648398 29.726503,-0.558598 30.328103,-0.499998 5.6367,9.171898 14.5508,14.785198 14.5508,14.785198 0,0 1.5195,-1.9805 3.4492,-5.1445 1.9062,-3.0899 3.5625,-6.3047 4.9765,-9.648498 0.5079,-0.078 13.2852,-1.8047 16.5508,2.789098 3.3242,4.6797 -3.6992,16.3555 -8.8828,22.9922 z m 0,0"
     fill-opacity="1"
     fill-rule="nonzero"
     id="path2817" />
  <path
     fill="#b2c770"
     d="m 102.3633,144.39455 c -0.1757,0 -0.3281,-0.059 -0.457,-0.1719 -0.1328,-0.1172 -0.2109,-0.2578 -0.2344,-0.4336 L 93.277397,82.746052 c -0.035,-0.1953 0,-0.375 0.1211,-0.5351 0.1172,-0.1602 0.2773,-0.2539 0.4727,-0.2813 0.1992,-0.027 0.375,0.024 0.5312,0.1446 0.1563,0.125 0.2422,0.2851 0.2617,0.4843 l 8.394603,61.042998 c 0.023,0.1914 -0.02,0.3633 -0.1368,0.5156 -0.1171,0.1524 -0.2734,0.2422 -0.4609,0.2696 -0.035,0 -0.066,0.01 -0.098,0.01 z m 42.3399,9.7109 c 0.1875,-0.035 0.3359,-0.1328 0.4453,-0.289 0.1094,-0.1563 0.1484,-0.3282 0.1133,-0.5157 L 135.586,95.898452 c -0.031,-0.1875 -0.125,-0.3399 -0.2852,-0.4531 -0.1562,-0.1094 -0.332,-0.1524 -0.5234,-0.1172 -0.1914,0.031 -0.3398,0.125 -0.4531,0.2812 -0.1133,0.1563 -0.1524,0.3321 -0.1211,0.5235 l 9.6875,57.402298 c 0.027,0.168 0.1055,0.3047 0.2344,0.4141 0.1328,0.1093 0.2812,0.164 0.4531,0.164 z m 0,0"
     fill-opacity="1"
     fill-rule="nonzero"
     id="path2818" />
  <path
     fill="#75a666"
     d="m 149.543,85.785152 c 0.1016,2.6406 -0.164,5.2461 -0.7968,7.8125 -0.586,2.4453 -1.3633,4.8281 -2.3399,7.144498 -1.4062,3.336 -3.0625,6.5469 -4.9609,9.6329 -1,1.6328 -1.8867,2.9531 -2.5196,3.8476 -0.125,0.1758 -0.2773,0.3203 -0.457,0.4336 -0.1836,0.1172 -0.3789,0.1914 -0.5898,0.2266 -0.211,0.035 -0.4219,0.031 -0.6328,-0.02 -0.2071,-0.047 -0.3985,-0.1367 -0.5743,-0.2617 -2.6875,-1.9336 -8.8984,-6.8594 -13.1992,-13.8594 -1.2695,-2.035098 -2.2969,-4.183598 -3.082,-6.449198 -0.9414,-2.6914 -1.418,-5.4648 -1.4258,-8.3125 0,-17.5508 25.8438,-18.8554 29.9102,-4.4219 0.3828,1.3829 0.6054,2.793 0.6679,4.2266 z m -8.957,1.6133 c 0,-0.4063 -0.039,-0.8086 -0.1172,-1.207 -0.082,-0.3946 -0.1992,-0.7813 -0.3555,-1.1563 -0.1562,-0.375 -0.3476,-0.7305 -0.5742,-1.0703 -0.2265,-0.3359 -0.4843,-0.6484 -0.7734,-0.9336 -0.2852,-0.2891 -0.6016,-0.543 -0.9375,-0.7695 -0.3399,-0.2227 -0.6992,-0.4141 -1.0742,-0.5703 -0.375,-0.1524 -0.7617,-0.2696 -1.1641,-0.3477 -0.3984,-0.082 -0.8008,-0.1211 -1.207,-0.1211 -0.4102,0 -0.8125,0.043 -1.211,0.1211 -0.3984,0.082 -0.7851,0.1992 -1.164,0.3555 -0.375,0.1523 -0.7305,0.3437 -1.0703,0.5703 -0.336,0.2265 -0.6485,0.4844 -0.9375,0.7695 -0.2891,0.2891 -0.543,0.6016 -0.7696,0.9375 -0.2265,0.3399 -0.4179,0.6953 -0.5703,1.0703 -0.1562,0.375 -0.2734,0.7617 -0.3515,1.1602 -0.082,0.3984 -0.1211,0.8008 -0.1211,1.2031 0,0.4063 0.043,0.8086 0.1211,1.207 0.082,0.3985 0.1992,0.7852 0.3554,1.1602 0.1563,0.375 0.3477,0.7305 0.5742,1.0664 0.2266,0.3359 0.4844,0.6484 0.7735,0.9375 0.2851,0.2852 0.6015,0.5391 0.9375,0.7656 0.3398,0.2266 0.6992,0.4141 1.0742,0.5703 0.375,0.1563 0.7656,0.2696 1.1641,0.3516 0.3984,0.078 0.8007,0.1172 1.2109,0.1172 0.4063,0 0.8086,-0.039 1.2109,-0.1211 0.3985,-0.078 0.7852,-0.1953 1.1641,-0.3477 0.375,-0.1562 0.7344,-0.3476 1.0703,-0.5742 0.3399,-0.2226 0.6563,-0.4804 0.9414,-0.7695 0.2891,-0.2852 0.5469,-0.5977 0.7735,-0.9375 0.2265,-0.3359 0.4179,-0.6914 0.5742,-1.0703 0.1523,-0.375 0.2695,-0.7617 0.3515,-1.1602 0.078,-0.3984 0.1172,-0.8008 0.1172,-1.207 z m 0,0"
     fill-opacity="1"
     fill-rule="nonzero"
     id="path2819" />
</svg>
