<?xml version="1.0" encoding="UTF-8" standalone="no"?>
<svg
   width="310.03125"
   zoomAndPan="magnify"
   viewBox="0 0 232.52344 277.84763"
   height="370.4635"
   preserveAspectRatio="xMidYMid"
   version="1.0"
   id="svg3945"
   sodipodi:docname="Sheba Enterprise.svg"
   xmlns:inkscape="http://www.inkscape.org/namespaces/inkscape"
   xmlns:sodipodi="http://sodipodi.sourceforge.net/DTD/sodipodi-0.dtd"
   xmlns="http://www.w3.org/2000/svg"
   xmlns:svg="http://www.w3.org/2000/svg">
  <sodipodi:namedview
     id="namedview3945"
     pagecolor="#ffffff"
     bordercolor="#000000"
     borderopacity="0.25"
     inkscape:showpageshadow="2"
     inkscape:pageopacity="0.0"
     inkscape:pagecheckerboard="0"
     inkscape:deskcolor="#d1d1d1"
     inkscape:export-bgcolor="#00000000" />
  <defs
     id="defs2384">
    <clipPath
       id="c45d778b0f">
      <path
         d="M 768.51172,862.82031 H 1001.0352 V 1048.2852 H 768.51172 Z m 0,0"
         clip-rule="nonzero"
         id="path1043" />
    </clipPath>
    <clipPath
       id="d4e1c02892">
      <path
         d="m 787.25391,862.82031 h 195.03906 c 4.97265,0 9.73828,1.97656 13.2539,5.48828 3.51563,3.51563 5.48833,8.28516 5.48833,13.25391 v 147.9805 c 0,4.9726 -1.9727,9.7383 -5.48833,13.2539 -3.51562,3.5156 -8.28125,5.4883 -13.2539,5.4883 H 787.25391 c -4.97266,0 -9.73829,-1.9727 -13.25391,-5.4883 -3.51563,-3.5156 -5.48828,-8.2813 -5.48828,-13.2539 V 881.5625 c 0,-4.96875 1.97265,-9.73828 5.48828,-13.25391 3.51562,-3.51172 8.28125,-5.48828 13.25391,-5.48828 z m 0,0"
         clip-rule="nonzero"
         id="path1044" />
    </clipPath>
    <clipPath
       id="4c252b8344">
      <path
         d="m 768.51172,770.4375 h 232.52348 v 232.5234 H 768.51172 Z m 0,0"
         clip-rule="nonzero"
         id="path1045" />
    </clipPath>
    <clipPath
       id="33342ebadb">
      <path
         d="m 787.25391,770.4375 h 195.03906 c 4.97265,0 9.73828,1.97656 13.2539,5.48828 3.51563,3.51563 5.48833,8.28516 5.48833,13.25391 v 195.03906 c 0,4.97266 -1.9727,9.73828 -5.48833,13.25391 -3.51562,3.51564 -8.28125,5.48824 -13.2539,5.48824 H 787.25391 c -4.97266,0 -9.73829,-1.9726 -13.25391,-5.48824 -3.51563,-3.51563 -5.48828,-8.28125 -5.48828,-13.25391 V 789.17969 c 0,-4.96875 1.97265,-9.73828 5.48828,-13.25391 3.51562,-3.51172 8.28125,-5.48828 13.25391,-5.48828 z m 0,0"
         clip-rule="nonzero"
         id="path1046" />
    </clipPath>
    <linearGradient
       x1="-5.57871e-06"
       gradientTransform="matrix(0.908298,0,0,0.908298,768.51166,770.43815)"
       y1="-5.57871e-06"
       x2="255.99995"
       gradientUnits="userSpaceOnUse"
       y2="255.99995"
       id="b1dfa6e7a4">
      <stop
         stop-opacity="1"
         stop-color="rgb(81.599426%, 81.599426%, 81.599426%)"
         offset="0"
         id="stop1046" />
      <stop
         stop-opacity="1"
         stop-color="rgb(81.742859%, 81.742859%, 81.742859%)"
         offset="0.015625"
         id="stop1047" />
      <stop
         stop-opacity="1"
         stop-color="rgb(82.029724%, 82.029724%, 82.029724%)"
         offset="0.03125"
         id="stop1048" />
      <stop
         stop-opacity="1"
         stop-color="rgb(82.318115%, 82.318115%, 82.318115%)"
         offset="0.046875"
         id="stop1049" />
      <stop
         stop-opacity="1"
         stop-color="rgb(82.60498%, 82.60498%, 82.60498%)"
         offset="0.0625"
         id="stop1050" />
      <stop
         stop-opacity="1"
         stop-color="rgb(82.893372%, 82.893372%, 82.893372%)"
         offset="0.078125"
         id="stop1051" />
      <stop
         stop-opacity="1"
         stop-color="rgb(83.180237%, 83.180237%, 83.180237%)"
         offset="0.09375"
         id="stop1052" />
      <stop
         stop-opacity="1"
         stop-color="rgb(83.467102%, 83.467102%, 83.467102%)"
         offset="0.109375"
         id="stop1053" />
      <stop
         stop-opacity="1"
         stop-color="rgb(83.755493%, 83.755493%, 83.755493%)"
         offset="0.125"
         id="stop1054" />
      <stop
         stop-opacity="1"
         stop-color="rgb(84.042358%, 84.042358%, 84.042358%)"
         offset="0.140625"
         id="stop1055" />
      <stop
         stop-opacity="1"
         stop-color="rgb(84.33075%, 84.33075%, 84.33075%)"
         offset="0.15625"
         id="stop1056" />
      <stop
         stop-opacity="1"
         stop-color="rgb(84.617615%, 84.617615%, 84.617615%)"
         offset="0.171875"
         id="stop1057" />
      <stop
         stop-opacity="1"
         stop-color="rgb(84.90448%, 84.90448%, 84.90448%)"
         offset="0.1875"
         id="stop1058" />
      <stop
         stop-opacity="1"
         stop-color="rgb(85.192871%, 85.192871%, 85.192871%)"
         offset="0.203125"
         id="stop1059" />
      <stop
         stop-opacity="1"
         stop-color="rgb(85.479736%, 85.479736%, 85.479736%)"
         offset="0.21875"
         id="stop1060" />
      <stop
         stop-opacity="1"
         stop-color="rgb(85.768127%, 85.768127%, 85.768127%)"
         offset="0.234375"
         id="stop1061" />
      <stop
         stop-opacity="1"
         stop-color="rgb(86.054993%, 86.054993%, 86.054993%)"
         offset="0.25"
         id="stop1062" />
      <stop
         stop-opacity="1"
         stop-color="rgb(86.343384%, 86.343384%, 86.343384%)"
         offset="0.265625"
         id="stop1063" />
      <stop
         stop-opacity="1"
         stop-color="rgb(86.630249%, 86.630249%, 86.630249%)"
         offset="0.28125"
         id="stop1064" />
      <stop
         stop-opacity="1"
         stop-color="rgb(86.917114%, 86.917114%, 86.917114%)"
         offset="0.296875"
         id="stop1065" />
      <stop
         stop-opacity="1"
         stop-color="rgb(87.205505%, 87.205505%, 87.205505%)"
         offset="0.3125"
         id="stop1066" />
      <stop
         stop-opacity="1"
         stop-color="rgb(87.492371%, 87.492371%, 87.492371%)"
         offset="0.328125"
         id="stop1067" />
      <stop
         stop-opacity="1"
         stop-color="rgb(87.780762%, 87.780762%, 87.780762%)"
         offset="0.34375"
         id="stop1068" />
      <stop
         stop-opacity="1"
         stop-color="rgb(88.067627%, 88.067627%, 88.067627%)"
         offset="0.359375"
         id="stop1069" />
      <stop
         stop-opacity="1"
         stop-color="rgb(88.354492%, 88.354492%, 88.354492%)"
         offset="0.375"
         id="stop1070" />
      <stop
         stop-opacity="1"
         stop-color="rgb(88.642883%, 88.642883%, 88.642883%)"
         offset="0.390625"
         id="stop1071" />
      <stop
         stop-opacity="1"
         stop-color="rgb(88.929749%, 88.929749%, 88.929749%)"
         offset="0.40625"
         id="stop1072" />
      <stop
         stop-opacity="1"
         stop-color="rgb(89.21814%, 89.21814%, 89.21814%)"
         offset="0.421875"
         id="stop1073" />
      <stop
         stop-opacity="1"
         stop-color="rgb(89.505005%, 89.505005%, 89.505005%)"
         offset="0.4375"
         id="stop1074" />
      <stop
         stop-opacity="1"
         stop-color="rgb(89.793396%, 89.793396%, 89.793396%)"
         offset="0.453125"
         id="stop1075" />
      <stop
         stop-opacity="1"
         stop-color="rgb(90.080261%, 90.080261%, 90.080261%)"
         offset="0.46875"
         id="stop1076" />
      <stop
         stop-opacity="1"
         stop-color="rgb(90.367126%, 90.367126%, 90.367126%)"
         offset="0.484375"
         id="stop1077" />
      <stop
         stop-opacity="1"
         stop-color="rgb(90.655518%, 90.655518%, 90.655518%)"
         offset="0.5"
         id="stop1078" />
      <stop
         stop-opacity="1"
         stop-color="rgb(90.79895%, 90.79895%, 90.79895%)"
         offset="0.5"
         id="stop1079" />
      <stop
         stop-opacity="1"
         stop-color="rgb(90.942383%, 90.942383%, 90.942383%)"
         offset="0.5"
         id="stop1080" />
      <stop
         stop-opacity="1"
         stop-color="rgb(91.087341%, 91.087341%, 91.087341%)"
         offset="0.515625"
         id="stop1081" />
      <stop
         stop-opacity="1"
         stop-color="rgb(91.230774%, 91.230774%, 91.230774%)"
         offset="0.53125"
         id="stop1082" />
      <stop
         stop-opacity="1"
         stop-color="rgb(91.517639%, 91.517639%, 91.517639%)"
         offset="0.546875"
         id="stop1083" />
      <stop
         stop-opacity="1"
         stop-color="rgb(91.804504%, 91.804504%, 91.804504%)"
         offset="0.5625"
         id="stop1084" />
      <stop
         stop-opacity="1"
         stop-color="rgb(92.092896%, 92.092896%, 92.092896%)"
         offset="0.578125"
         id="stop1085" />
      <stop
         stop-opacity="1"
         stop-color="rgb(92.379761%, 92.379761%, 92.379761%)"
         offset="0.59375"
         id="stop1086" />
      <stop
         stop-opacity="1"
         stop-color="rgb(92.668152%, 92.668152%, 92.668152%)"
         offset="0.609375"
         id="stop1087" />
      <stop
         stop-opacity="1"
         stop-color="rgb(92.955017%, 92.955017%, 92.955017%)"
         offset="0.625"
         id="stop1088" />
      <stop
         stop-opacity="1"
         stop-color="rgb(93.243408%, 93.243408%, 93.243408%)"
         offset="0.640625"
         id="stop1089" />
      <stop
         stop-opacity="1"
         stop-color="rgb(93.530273%, 93.530273%, 93.530273%)"
         offset="0.65625"
         id="stop1090" />
      <stop
         stop-opacity="1"
         stop-color="rgb(93.817139%, 93.817139%, 93.817139%)"
         offset="0.671875"
         id="stop1091" />
      <stop
         stop-opacity="1"
         stop-color="rgb(94.10553%, 94.10553%, 94.10553%)"
         offset="0.6875"
         id="stop1092" />
      <stop
         stop-opacity="1"
         stop-color="rgb(94.392395%, 94.392395%, 94.392395%)"
         offset="0.703125"
         id="stop1093" />
      <stop
         stop-opacity="1"
         stop-color="rgb(94.680786%, 94.680786%, 94.680786%)"
         offset="0.71875"
         id="stop1094" />
      <stop
         stop-opacity="1"
         stop-color="rgb(94.967651%, 94.967651%, 94.967651%)"
         offset="0.734375"
         id="stop1095" />
      <stop
         stop-opacity="1"
         stop-color="rgb(95.254517%, 95.254517%, 95.254517%)"
         offset="0.75"
         id="stop1096" />
      <stop
         stop-opacity="1"
         stop-color="rgb(95.542908%, 95.542908%, 95.542908%)"
         offset="0.765625"
         id="stop1097" />
      <stop
         stop-opacity="1"
         stop-color="rgb(95.829773%, 95.829773%, 95.829773%)"
         offset="0.78125"
         id="stop1098" />
      <stop
         stop-opacity="1"
         stop-color="rgb(96.118164%, 96.118164%, 96.118164%)"
         offset="0.796875"
         id="stop1099" />
      <stop
         stop-opacity="1"
         stop-color="rgb(96.405029%, 96.405029%, 96.405029%)"
         offset="0.8125"
         id="stop1100" />
      <stop
         stop-opacity="1"
         stop-color="rgb(96.69342%, 96.69342%, 96.69342%)"
         offset="0.828125"
         id="stop1101" />
      <stop
         stop-opacity="1"
         stop-color="rgb(96.980286%, 96.980286%, 96.980286%)"
         offset="0.84375"
         id="stop1102" />
      <stop
         stop-opacity="1"
         stop-color="rgb(97.267151%, 97.267151%, 97.267151%)"
         offset="0.859375"
         id="stop1103" />
      <stop
         stop-opacity="1"
         stop-color="rgb(97.555542%, 97.555542%, 97.555542%)"
         offset="0.875"
         id="stop1104" />
      <stop
         stop-opacity="1"
         stop-color="rgb(97.842407%, 97.842407%, 97.842407%)"
         offset="0.890625"
         id="stop1105" />
      <stop
         stop-opacity="1"
         stop-color="rgb(98.130798%, 98.130798%, 98.130798%)"
         offset="0.90625"
         id="stop1106" />
      <stop
         stop-opacity="1"
         stop-color="rgb(98.417664%, 98.417664%, 98.417664%)"
         offset="0.921875"
         id="stop1107" />
      <stop
         stop-opacity="1"
         stop-color="rgb(98.704529%, 98.704529%, 98.704529%)"
         offset="0.9375"
         id="stop1108" />
      <stop
         stop-opacity="1"
         stop-color="rgb(98.99292%, 98.99292%, 98.99292%)"
         offset="0.953125"
         id="stop1109" />
      <stop
         stop-opacity="1"
         stop-color="rgb(99.279785%, 99.279785%, 99.279785%)"
         offset="0.96875"
         id="stop1110" />
      <stop
         stop-opacity="1"
         stop-color="rgb(99.568176%, 99.568176%, 99.568176%)"
         offset="0.984375"
         id="stop1111" />
      <stop
         stop-opacity="1"
         stop-color="rgb(99.855042%, 99.855042%, 99.855042%)"
         offset="1"
         id="stop1112" />
    </linearGradient>
    <clipPath
       id="aee70aee48">
      <path
         d="m 768.51172,770.4375 h 232.40238 v 232.4023 H 768.51172 Z m 0,0"
         clip-rule="nonzero"
         id="path1112" />
    </clipPath>
    <clipPath
       id="b6028148b3">
      <path
         d="m 787.24219,770.4375 h 194.9375 c 4.96875,0 9.73437,1.97266 13.24609,5.48828 3.51563,3.51172 5.48832,8.27734 5.48832,13.24609 v 194.9375 c 0,4.96485 -1.97269,9.73047 -5.48832,13.2461 -3.51172,3.51173 -8.27734,5.48433 -13.24609,5.48433 h -194.9375 c -4.96485,0 -9.73047,-1.9726 -13.24219,-5.48433 -3.51563,-3.51563 -5.48828,-8.28125 -5.48828,-13.2461 v -194.9375 c 0,-4.96875 1.97265,-9.73437 5.48828,-13.24609 3.51172,-3.51562 8.27734,-5.48828 13.24219,-5.48828 z m 0,0"
         clip-rule="nonzero"
         id="path1113" />
    </clipPath>
    <clipPath
       id="f75a15898d">
      <path
         d="M 835.30469,811.59766 H 939 V 961.53125 H 835.30469 Z m 0,0"
         clip-rule="nonzero"
         id="path1114" />
    </clipPath>
    <clipPath
       id="6d3955cf63">
      <path
         d="M 828.24219,865 H 896 v 88 h -67.75781 z m 0,0"
         clip-rule="nonzero"
         id="path1115" />
    </clipPath>
    <clipPath
       id="38dd1e8d8c">
      <path
         d="M 828.46484,818.41406 H 941.41406 V 958 H 828.46484 Z m 0,0"
         clip-rule="nonzero"
         id="path1116" />
    </clipPath>
  </defs>
  <g
     clip-path="url(#c45d778b0f)"
     id="g3026"
     transform="translate(-768.51172,-770.4375)">
    <g
       clip-path="url(#d4e1c02892)"
       id="g3025">
      <path
         fill="#ffffff"
         d="M 768.51172,862.82031 H 1001.0352 V 1048.2852 H 768.51172 Z m 0,0"
         fill-opacity="1"
         fill-rule="nonzero"
         id="path3024" />
    </g>
  </g>
  <g
     clip-path="url(#4c252b8344)"
     id="g3028"
     transform="translate(-768.51172,-770.4375)">
    <g
       clip-path="url(#33342ebadb)"
       id="g3027">
      <path
         fill="url(#b1dfa6e7a4)"
         d="m 768.51172,770.4375 v 232.5234 H 1001.0352 V 770.4375 Z m 0,0"
         fill-rule="nonzero"
         id="path3026"
         style="fill:url(#b1dfa6e7a4)" />
    </g>
  </g>
  <g
     clip-path="url(#aee70aee48)"
     id="g3030"
     transform="translate(-768.51172,-770.4375)">
    <g
       clip-path="url(#b6028148b3)"
       id="g3029">
      <path
         stroke-linecap="butt"
         transform="matrix(0.749307,0,0,0.749307,768.51164,770.43816)"
         fill="none"
         stroke-linejoin="miter"
         d="m 24.99717,-8.85971e-4 h 260.15715 c 6.63113,0 12.99117,2.632641971 17.6778,7.324478971 4.69183,4.686624 7.32447,11.046669 7.32447,17.677799 V 285.15854 c 0,6.62591 -2.63264,12.98596 -7.32447,17.6778 -4.68663,4.68662 -11.04667,7.31926 -17.6778,7.31926 H 24.99717 c -6.625917,0 -12.985962,-2.63264 -17.672586,-7.31926 C 2.632747,298.1445 1.0513e-4,291.78445 1.0513e-4,285.15854 V 25.001392 C 1.0513e-4,18.370262 2.632747,12.010217 7.324584,7.323593 12.011208,2.631756 18.371253,-8.85971e-4 24.99717,-8.85971e-4 Z m 0,0"
         stroke="#ffffff"
         stroke-width="30"
         stroke-opacity="1"
         stroke-miterlimit="4"
         id="path3028" />
    </g>
  </g>
  <g
     fill="#221f1f"
     fill-opacity="1"
     id="g3033"
     transform="translate(-768.51172,-770.4375)">
    <g
       transform="translate(784.97315,1032.3838)"
       id="g3032">
      <g
         id="g3031">
        <path
           d="m 6.078125,-13.59375 c 1.507813,-0.01953 2.753906,0.605469 3.734375,1.875 l 2.328125,-2.546875 c -0.5625,-0.601563 -1.386719,-0.953125 -2.46875,-1.046875 -1.617187,-0.0625 -2.8125,0.511719 -3.59375,1.71875 z m 10.140625,-5.109375 h 4.984375 v 3.359375 h -1.625 V 0.125 H 16.21875 v -7.5 c -0.398438,-2.050781 -1.039062,-3.488281 -1.921875,-4.3125 l -5.953125,7.09375 -2.8125,-2.359375 1.875,-2.328125 c -0.367188,-0.757812 -0.949219,-1.171875 -1.75,-1.234375 -0.90625,0 -1.726562,0.515625 -2.453125,1.546875 l -2.625,-2.125 c 0.644531,-2.113281 1.597656,-3.820312 2.859375,-5.125 1.800781,-1.875 3.976562,-2.691406 6.53125,-2.453125 2.601562,0.242187 4.820312,1.792969 6.65625,4.65625 l -0.40625,-2.265625 z m 0,0"
           id="path3030" />
      </g>
    </g>
  </g>
  <g
     fill="#221f1f"
     fill-opacity="1"
     id="g3036"
     transform="translate(-768.51172,-770.4375)">
    <g
       transform="translate(805.86997,1032.3838)"
       id="g3035">
      <g
         id="g3034">
        <path
           d="m 2.625,-22.90625 c 1.164062,-1.75 2.921875,-2.875 5.265625,-3.375 0.863281,-0.164062 1.769531,-0.25 2.71875,-0.25 3.601563,0 7.671875,1.292969 12.203125,3.875 l -0.84375,3.046875 c -4.417969,-2.351563 -8.195312,-3.53125 -11.328125,-3.53125 -0.730469,0 -1.417969,0.07031 -2.0625,0.203125 -1.574219,0.304688 -2.664063,1.011719 -3.265625,2.125 -0.375,0.679688 -0.5625,1.351562 -0.5625,2.015625 0,0.02344 0,0.03125 0,0.03125 v 0.0625 h 1.84375 v 3.359375 H 4.796875 v 15.4375 h -3.375 v -15.4375 h -1.8125 v -3.359375 h 1.71875 c 0,-1.445313 0.429687,-2.847656 1.296875,-4.203125 z m 0,0"
           id="path3033" />
      </g>
    </g>
  </g>
  <g
     fill="#221f1f"
     fill-opacity="1"
     id="g3039"
     transform="translate(-768.51172,-770.4375)">
    <g
       transform="translate(812.11315,1032.3838)"
       id="g3038">
      <g
         id="g3037">
        <path
           d="m 4.5625,-4.078125 c 2.257812,0.542969 4.019531,1.601563 5.28125,3.171875 L 7.578125,1.453125 C 6.429688,0.304688 5.132812,-0.46875 3.6875,-0.875 Z m 1.71875,-4.5625 C 8.957031,-7.910156 11.113281,-6.78125 12.75,-5.25 v -6.40625 c -2.179688,0.585938 -4.335938,1.589844 -6.46875,3.015625 z m 11.703125,-10.0625 v 3.359375 h -1.875 V 0.125 h -3.0625 C 12.085938,-2.070312 9.953125,-3.828125 6.640625,-5.140625 4.890625,-5.703125 3.25,-5.929688 1.71875,-5.828125 L 0.421875,-8.96875 c 4.113281,-3.125 8.222656,-5.191406 12.328125,-6.203125 V -15.34375 H -0.421875 v -3.359375 z m 0,0"
           id="path3036" />
      </g>
    </g>
  </g>
  <g
     fill="#221f1f"
     fill-opacity="1"
     id="g3042"
     transform="translate(-768.51172,-770.4375)">
    <g
       transform="translate(829.64578,1032.3838)"
       id="g3041">
      <g
         id="g3040">
        <path
           d="m 12.328125,-9.125 c 1.226563,0.148438 2.347656,0.699219 3.359375,1.65625 v -2.234375 c -2.78125,-0.519531 -4.648438,-2.398437 -5.59375,-5.640625 h -1.9375 c 0.445312,0.4375 0.679688,1.023438 0.703125,1.75 1.582031,0.742188 2.738281,2.230469 3.46875,4.46875 z m 3.359375,-4.140625 v -2.078125 h -2.296875 c 0.28125,1.085938 1.046875,1.777344 2.296875,2.078125 z m -2.609375,11.84375 c -0.804687,0.648437 -1.777344,1.023437 -2.921875,1.125 C 8.34375,-0.160156 7.019531,-0.613281 6.1875,-1.65625 5.164062,-2.882812 4.988281,-4.265625 5.65625,-5.796875 6.238281,-7.128906 7.382812,-8.097656 9.09375,-8.703125 8.988281,-9.410156 8.625,-9.953125 8,-10.328125 7.15625,-10.691406 6.363281,-10.875 5.625,-10.875 c -1.117188,0.04297 -1.71875,0.226562 -1.8125,0.546875 -0.0625,0.460937 0.679688,0.667969 2.234375,0.625 L 5.25,-6.671875 C 3.988281,-6.554688 2.941406,-6.8125 2.109375,-7.4375 c -0.804687,-0.539062 -1.28125,-1.253906 -1.4375,-2.140625 -0.0625,-0.726563 0.035156,-1.394531 0.296875,-2 C 1.65625,-13.109375 3.1875,-13.875 5.5625,-13.875 5.351562,-14.3125 4.738281,-14.519531 3.71875,-14.5 c -1.011719,0.02344 -1.875,0.171875 -2.59375,0.453125 L 0.671875,-15.34375 h -1.125 v -3.359375 h 28.0625 v 3.359375 H 19.09375 v 2.78125 c 2.976562,0.4375 4.992188,1.171875 6.046875,2.203125 1.125,1.0625 1.632813,2.414063 1.53125,4.046875 -0.117187,1.34375 -0.699219,2.359375 -1.75,3.046875 -0.742187,0.492187 -2.058594,0.761719 -3.953125,0.8125 l -1,-3.53125 c 1.65625,0.199219 2.679688,0.167969 3.078125,-0.09375 0.144531,-0.09375 0.21875,-0.242187 0.21875,-0.453125 C 23.304688,-7.050781 23.21875,-7.453125 23,-7.734375 22.507812,-8.335938 21.207031,-8.800781 19.09375,-9.125 V 0.09375 H 15.6875 v -2.8125 c -0.835938,-2.09375 -2.289062,-3.148438 -4.359375,-3.171875 -1.367187,0.21875 -2.1875,0.703125 -2.46875,1.453125 -0.085937,0.324219 -0.058594,0.578125 0.078125,0.765625 0.144531,0.1875 0.4375,0.257813 0.875,0.203125 0.570312,-0.082031 1.3125,-0.457031 2.21875,-1.125 z m 0,0"
           id="path3039" />
      </g>
    </g>
  </g>
  <g
     fill="#221f1f"
     fill-opacity="1"
     id="g3045"
     transform="translate(-768.51172,-770.4375)">
    <g
       transform="translate(856.85048,1032.3838)"
       id="g3044">
      <g
         id="g3043">
        <path
           d="M -0.484375,-18.703125 H 7.125 v 3.359375 H 5.015625 V 0.125 H 1.625 v -15.46875 h -2.109375 z m 0,0"
           id="path3042" />
      </g>
    </g>
  </g>
  <g
     fill="#221f1f"
     fill-opacity="1"
     id="g3048"
     transform="translate(-768.51172,-770.4375)">
    <g
       transform="translate(863.48182,1032.3838)"
       id="g3047">
      <g
         id="g3046">
        <path
           d="m 4.5625,-4.078125 c 2.257812,0.542969 4.019531,1.601563 5.28125,3.171875 L 7.578125,1.453125 C 6.429688,0.304688 5.132812,-0.46875 3.6875,-0.875 Z m 1.71875,-4.5625 C 8.957031,-7.910156 11.113281,-6.78125 12.75,-5.25 v -6.40625 c -2.179688,0.585938 -4.335938,1.589844 -6.46875,3.015625 z m 11.703125,-10.0625 v 3.359375 h -1.875 V 0.125 h -3.0625 C 12.085938,-2.070312 9.953125,-3.828125 6.640625,-5.140625 4.890625,-5.703125 3.25,-5.929688 1.71875,-5.828125 L 0.421875,-8.96875 c 4.113281,-3.125 8.222656,-5.191406 12.328125,-6.203125 V -15.34375 H -0.421875 v -3.359375 z m 0,0"
           id="path3045" />
      </g>
    </g>
  </g>
  <g
     fill="#221f1f"
     fill-opacity="1"
     id="g3054"
     transform="translate(-768.51172,-770.4375)">
    <g
       transform="translate(888.13102,1032.3838)"
       id="g3053">
      <g
         id="g3052">
        <path
           d="m 7.09375,-15.34375 c 1.15625,0.699219 2.242188,1.542969 3.265625,2.53125 l 0.453125,2.90625 c -1.554688,0.324219 -3.085938,1.058594 -4.59375,2.203125 2.34375,0.5 4.328125,1.460937 5.953125,2.875 v -8.640625 c 1.738281,-0.08203 3.460937,0.105469 5.171875,0.5625 2.132812,0.625 3.785156,1.808594 4.953125,3.546875 0.800781,1.210937 1.132813,2.464844 1,3.765625 -0.199219,1.1875 -0.761719,2.117188 -1.6875,2.78125 -1.554687,1.148438 -3.320313,1.039062 -5.296875,-0.328125 l 1.546875,-3.140625 c 0.800781,0.78125 1.382813,1.03125 1.75,0.75 0.21875,-0.132812 0.328125,-0.328125 0.328125,-0.578125 0,-0.4375 -0.164062,-0.898437 -0.484375,-1.390625 C 18.566406,-8.863281 17.269531,-9.632812 15.5625,-9.8125 V 0.125 H 12.515625 C 10.335938,-2.976562 6.929688,-4.550781 2.296875,-4.59375 L 1,-7.640625 c 1.59375,-1.75 3.332031,-3.171875 5.21875,-4.265625 -1.28125,-1.207031 -3.140625,-1.921875 -5.578125,-2.140625 L 1,-15.34375 h -1.328125 v -3.359375 h 24.53125 v 3.359375 z m 0,0"
           id="path3051" />
      </g>
    </g>
  </g>
  <g
     fill="#221f1f"
     fill-opacity="1"
     id="g3057"
     transform="translate(-768.51172,-770.4375)">
    <g
       transform="translate(912.00388,1032.3838)"
       id="g3056">
      <g
         id="g3055">
        <path
           d="m 10.453125,-3.984375 c -0.867187,1.167969 -1.761719,1.902344 -2.6875,2.203125 -0.523437,0.199219 -1.039063,0.296875 -1.546875,0.296875 -0.867188,0 -1.730469,-0.226563 -2.59375,-0.6875 C 2.351562,-2.859375 1.476562,-4 1,-5.59375 0.613281,-6.78125 0.613281,-8.097656 1,-9.546875 c 0.363281,-1.507813 1.066406,-2.71875 2.109375,-3.625 1.03125,-0.882813 2.25,-1.328125 3.65625,-1.328125 2.113281,-0.0625 3.726563,0.734375 4.84375,2.390625 0.695313,-0.789063 1.519531,-1.1875 2.46875,-1.1875 0.96875,0 1.785156,0.304687 2.453125,0.90625 l -0.359375,-1.421875 -0.03125,-1.53125 H -0.1875 v -3.359375 h 21.421875 v 3.359375 h -1.625 V 0.125 H 16.25 V -6.671875 C 16.195312,-7.253906 16.078125,-7.800781 15.890625,-8.3125 15.523438,-9.175781 15.09375,-9.617188 14.59375,-9.640625 14.25,-9.660156 14.007812,-9.585938 13.875,-9.421875 c -0.386719,0.375 -0.578125,1.199219 -0.578125,2.46875 l -3.390625,0.0625 c 0,-0.90625 -0.164062,-1.703125 -0.484375,-2.390625 -0.542969,-1.226562 -1.429687,-1.84375 -2.65625,-1.84375 -1.292969,0 -2.136719,0.796875 -2.53125,2.390625 -0.1875,0.773437 -0.199219,1.4375 -0.03125,2 0.195313,0.804687 0.546875,1.335937 1.046875,1.59375 0.507812,0.28125 0.945312,0.355469 1.3125,0.21875 0.519531,-0.238281 1.03125,-0.8125 1.53125,-1.71875 z m 0,0"
           id="path3054" />
      </g>
    </g>
  </g>
  <g
     fill="#221f1f"
     fill-opacity="1"
     id="g3060"
     transform="translate(-768.51172,-770.4375)">
    <g
       transform="translate(933.0301,1032.3838)"
       id="g3059">
      <g
         id="g3058">
        <path
           d="M -0.484375,-18.703125 H 7.125 v 3.359375 H 5.015625 V 0.125 H 1.625 v -15.46875 h -2.109375 z m 0,0"
           id="path3057" />
      </g>
    </g>
  </g>
  <g
     fill="#221f1f"
     fill-opacity="1"
     id="g3063"
     transform="translate(-768.51172,-770.4375)">
    <g
       transform="translate(939.66145,1032.3838)"
       id="g3062">
      <g
         id="g3061">
        <path
           d="m 7.09375,-15.34375 c 1.15625,0.699219 2.242188,1.542969 3.265625,2.53125 l 0.453125,2.90625 c -1.554688,0.324219 -3.085938,1.058594 -4.59375,2.203125 2.34375,0.5 4.328125,1.460937 5.953125,2.875 v -8.640625 c 1.738281,-0.08203 3.460937,0.105469 5.171875,0.5625 2.132812,0.625 3.785156,1.808594 4.953125,3.546875 0.800781,1.210937 1.132813,2.464844 1,3.765625 -0.199219,1.1875 -0.761719,2.117188 -1.6875,2.78125 -1.554687,1.148438 -3.320313,1.039062 -5.296875,-0.328125 l 1.546875,-3.140625 c 0.800781,0.78125 1.382813,1.03125 1.75,0.75 0.21875,-0.132812 0.328125,-0.328125 0.328125,-0.578125 0,-0.4375 -0.164062,-0.898437 -0.484375,-1.390625 C 18.566406,-8.863281 17.269531,-9.632812 15.5625,-9.8125 V 0.125 H 12.515625 C 10.335938,-2.976562 6.929688,-4.550781 2.296875,-4.59375 L 1,-7.640625 c 1.59375,-1.75 3.332031,-3.171875 5.21875,-4.265625 -1.28125,-1.207031 -3.140625,-1.921875 -5.578125,-2.140625 L 1,-15.34375 h -1.328125 v -3.359375 h 24.53125 v 3.359375 z m 0,0"
           id="path3060" />
      </g>
    </g>
  </g>
  <g
     fill="#221f1f"
     fill-opacity="1"
     id="g3066"
     transform="translate(-768.51172,-770.4375)">
    <g
       transform="translate(963.5343,1032.3838)"
       id="g3065">
      <g
         id="g3064">
        <path
           d="m 10.453125,-3.984375 c -0.867187,1.167969 -1.761719,1.902344 -2.6875,2.203125 -0.523437,0.199219 -1.039063,0.296875 -1.546875,0.296875 -0.867188,0 -1.730469,-0.226563 -2.59375,-0.6875 C 2.351562,-2.859375 1.476562,-4 1,-5.59375 0.613281,-6.78125 0.613281,-8.097656 1,-9.546875 c 0.363281,-1.507813 1.066406,-2.71875 2.109375,-3.625 1.03125,-0.882813 2.25,-1.328125 3.65625,-1.328125 2.113281,-0.0625 3.726563,0.734375 4.84375,2.390625 0.695313,-0.789063 1.519531,-1.1875 2.46875,-1.1875 0.96875,0 1.785156,0.304687 2.453125,0.90625 l -0.359375,-1.421875 -0.03125,-1.53125 H -0.1875 v -3.359375 h 21.421875 v 3.359375 h -1.625 V 0.125 H 16.25 V -6.671875 C 16.195312,-7.253906 16.078125,-7.800781 15.890625,-8.3125 15.523438,-9.175781 15.09375,-9.617188 14.59375,-9.640625 14.25,-9.660156 14.007812,-9.585938 13.875,-9.421875 c -0.386719,0.375 -0.578125,1.199219 -0.578125,2.46875 l -3.390625,0.0625 c 0,-0.90625 -0.164062,-1.703125 -0.484375,-2.390625 -0.542969,-1.226562 -1.429687,-1.84375 -2.65625,-1.84375 -1.292969,0 -2.136719,0.796875 -2.53125,2.390625 -0.1875,0.773437 -0.199219,1.4375 -0.03125,2 0.195313,0.804687 0.546875,1.335937 1.046875,1.59375 0.507812,0.28125 0.945312,0.355469 1.3125,0.21875 0.519531,-0.238281 1.03125,-0.8125 1.53125,-1.71875 z m 0,0"
           id="path3063" />
      </g>
    </g>
  </g>
  <g
     clip-path="url(#f75a15898d)"
     id="g3067"
     transform="translate(-768.51172,-770.4375)">
    <path
       fill="#fce4a5"
       d="m 889.37891,956.48828 c -0.35547,1.29297 -1.03907,2.11328 -2.21094,2.24609 -1.27344,0.14454 -2.60547,0.0937 -3.67969,-0.60156 -2.45703,-1.59375 -5.03516,-1.33594 -7.67578,-0.79297 -0.32031,0.0664 -0.64063,0.1836 -0.96875,0.20703 -2.16406,0.14454 -3.66797,-1.80468 -2.62109,-3.66796 0.6914,-1.23047 0.73437,-2.28125 0.22656,-3.44922 0.6289,-0.5586 1.32422,-0.39453 1.96484,-0.44141 1.19141,-0.0898 2.41797,0.0117 3.57422,-0.23828 1.62109,-0.35547 3.05469,0.1875 4.36328,0.84766 2.06641,1.04687 3.98047,2.38281 5.96485,3.58984 0.86328,0.53125 1.37109,1.1875 1.0625,2.30078 z m -25.52344,-3.44531 c 0.23437,0.97265 0.29687,1.95703 0.3164,3.08203 -0.0156,0.33203 -0.0156,0.79687 -0.0703,1.25391 -0.22265,1.85546 -0.92969,2.44921 -2.76562,2.17187 -1.82422,-0.27344 -3.53907,-0.12109 -5.24219,0.65234 -1.45313,0.65625 -3.02344,0.98829 -4.60156,1.21875 -0.92188,0.13672 -1.85157,0.23047 -2.76172,-0.082 -1.74219,-0.60547 -2.33594,-2.16406 -1.17578,-3.58593 1.73437,-2.1211 3.99609,-3.65625 6.40625,-4.94532 0.32422,-0.17578 0.77343,-0.15234 1.16797,-0.16015 2.45703,-0.0274 4.91015,-0.13672 7.33593,-0.5586 0.85157,-0.14843 1.20703,0.1836 1.39063,0.95313 z m -18.50781,-7.94531 c -1.39844,0.0351 -2.65235,-1.16797 -2.73047,-2.6211 -0.0781,-1.46875 1.10547,-2.92578 2.37109,-2.91406 1.58984,0.0117 3.03516,1.36719 3.03125,2.83984 -0.004,1.39063 -1.25781,2.65625 -2.67187,2.69532 z m -0.15625,-20.33594 c 1.41015,0.0352 2.74218,1.42187 2.75,2.87109 0.004,1.56641 -1.32032,2.92188 -2.87891,2.94141 -1.55469,0.0195 -2.85547,-1.20703 -2.85547,-2.6875 0.004,-1.60938 1.48438,-3.16016 2.98438,-3.125 z m -3.8711,-24.5 c 0.0625,-1.35938 1.23828,-2.82813 2.29688,-2.86328 1.41406,-0.043 2.94922,1.50781 2.91797,2.94922 -0.0312,1.43359 -1.27344,2.67187 -2.67579,2.66015 -1.40625,-0.008 -2.60937,-1.30469 -2.53906,-2.74609 z m 2.67188,-17.84375 c 1.23828,0.0469 2.20312,1.05859 2.20703,2.32031 0.008,1.50781 -1.4961,3.16406 -2.91797,3.21484 -1.32422,0.0469 -2.35547,-0.95703 -2.39063,-2.33203 -0.0469,-1.64062 1.52735,-3.26172 3.10157,-3.20312 z m -3.67969,-10.92188 c -0.0234,-1.65234 1.17578,-2.875 2.83984,-2.88281 1.71094,-0.004 2.80469,1.17969 2.8711,3.10938 0.0547,1.50781 -1.1875,2.83203 -2.6836,2.85546 -1.53125,0.0273 -3,-1.46875 -3.02734,-3.08203 z m -0.51172,-13.27343 c 0.004,-1.60938 1.76172,-3.38672 3.32422,-3.35938 1.49219,0.0273 2.85937,1.48047 2.83203,3.01563 -0.0312,1.63671 -1.55859,3.17187 -3.19531,3.20312 -1.55469,0.0352 -2.96485,-1.32812 -2.96094,-2.85937 z m 6.57813,-14.30469 c -0.0117,1.86719 -1.46485,3.42969 -3.1836,3.42187 -1.73047,-0.008 -3.10937,-1.57812 -3.0664,-3.49218 0.043,-1.875 1.48437,-3.41797 3.19921,-3.42579 1.74219,-0.004 3.0625,1.50391 3.05079,3.4961 z m 1.07812,68.86328 c 0.0352,1.49609 -1.07422,2.75391 -2.47266,2.79687 -1.3789,0.0469 -2.64453,-1.17968 -2.70312,-2.60937 -0.0586,-1.50391 1.15625,-2.83203 2.64453,-2.88281 1.41406,-0.0508 2.49219,1.09375 2.53125,2.69531 z m -4.18359,-88.21094 c 1.98437,-0.082 3.66015,1.44922 3.6914,3.37891 0.0312,2.04297 -1.70703,3.8789 -3.71484,3.91797 -1.83594,0.0351 -3.20313,-1.37891 -3.19922,-3.3086 0.008,-1.93359 1.60938,-3.91797 3.22266,-3.98828 z m 95.53515,-8 c 0.19532,-1.42578 -0.78125,-2.15625 -2.01172,-2.59375 -6.32421,-2.25781 -12.80468,-2.95703 -19.44921,-1.89453 -4.92969,0.78516 -9.78907,1.91797 -14.625,3.14063 -8.73438,2.21093 -17.58985,3.55859 -26.58204,4.07421 -7.01953,0.40625 -13.96875,-0.0195 -20.82031,-1.625 -4.51953,-1.05468 -9.22265,-1.21484 -13.64062,-2.78515 -0.73047,-0.26172 -1.57813,-0.26172 -2.3711,-0.25 -1.35937,0.0234 -2.09375,0.66797 -2.37109,1.96875 -0.48047,2.26172 -0.88281,4.51172 -0.62891,6.85937 0.17188,1.57422 0.0937,3.1836 0.0391,4.77344 -0.1875,5.83203 -0.3711,11.66797 -0.63282,17.49609 -0.51172,11.34375 -0.0898,22.6875 -0.0351,34.02735 0.008,2.12109 0.10547,4.24609 0.23828,6.36328 0.42187,6.6875 1.04297,13.36719 1.28125,20.05859 0.36328,10.07813 0.53125,20.15625 1.60156,30.19532 0.21875,2.03125 0.41797,4.12109 0.004,6.14843 -0.42578,2.07422 0.24218,3.78125 1.80078,4.95313 3.57031,2.6875 7.57422,4.16015 12.125,3.25 1.13672,-0.22656 2.21875,-0.3086 3.35156,-0.1836 3.07813,0.33985 6.10547,0.0664 9.09766,-0.73828 4.64453,-1.25 9.14453,-2.85156 13.26562,-5.375 1.00781,-0.61718 2.04688,-0.87109 3.22266,-0.78125 2.1875,0.16797 4.38281,0.2461 6.57422,0.41407 6.58203,0.5 13.13672,1.30078 19.40234,3.4414 4.96875,1.70313 9.98047,3.28516 14.92188,5.06641 2.21875,0.79687 4.50781,1.14062 6.84375,1.25781 1.41406,0.0469 2.80468,-0.0781 4.04687,-0.82812 1.41406,-0.85547 2.63672,-2.2461 1.99609,-3.73829 -0.85546,-2.0039 -0.42187,-3.77734 -0.14062,-5.67187 0.0312,-0.19141 -0.0117,-0.39453 -0.0273,-0.59375 -0.26954,-3.03906 -0.57032,-6.07422 -0.79688,-9.11719 -0.34766,-4.70312 -1.1875,-9.34375 -1.73047,-14.01953 -1.30469,-11.16406 -1.4414,-22.36719 -0.74219,-33.57812 0.25391,-4.09375 0.34375,-8.22266 1.16407,-12.26954 0.98828,-4.875 1.87109,-9.76953 2.54297,-14.69921 1.27343,-9.33204 2.36718,-18.6836 3.14062,-28.07032 0.40234,-4.90234 -0.73828,-9.77734 -0.0547,-14.67578"
       fill-opacity="1"
       fill-rule="nonzero"
       id="path3066" />
  </g>
  <g
     clip-path="url(#6d3955cf63)"
     id="g3068"
     transform="translate(-768.51172,-770.4375)">
    <path
       fill="#f7986a"
       d="m 861.94141,947.82031 c -1.4336,0.35156 -2.89454,0.1836 -4.33985,0.23438 -0.65625,0.0195 -0.98828,0.3125 -1.08984,0.90625 -0.0781,0.45312 -0.10938,0.91797 -0.13672,1.17187 0.004,1.86719 0.24609,1.95703 1.97656,1.87891 1.00391,-0.043 1.94922,-0.61328 3.06641,-0.14844 0.61328,0.25391 1.39453,-0.28906 1.64453,-1.11328 0.19531,-0.65625 -0.17969,-2.58984 -0.57031,-2.82031 -0.15235,-0.0937 -0.38282,-0.15235 -0.55078,-0.10938 z m 16.96875,-1.0039 c -0.23829,-1.08985 -0.6211,-1.31641 -1.8086,-1.30079 -0.89844,0.008 -1.64844,0.46875 -2.48828,0.64844 -1.46875,0.3125 -1.61719,0.51953 -1.64453,1.89063 -0.0352,1.96875 1.26953,3.46875 2.83203,3.2539 2.70703,-0.375 3.625,-1.63281 3.13672,-4.29687 -0.0117,-0.0664 -0.0117,-0.13281 -0.0273,-0.19531 z m -4.46485,-31.83204 c -0.375,-0.54296 -0.88281,-0.9414 -1.47265,-0.3789 -0.59375,0.57031 -1.23047,0.45703 -1.85547,0.27344 -3.01953,-0.8711 -6.10547,-0.53125 -9.16797,-0.54297 -0.34375,0 -0.60938,0.22265 -0.89063,0.41015 -0.54687,0.36328 -1.09375,0.78516 -1.70703,0.98438 -0.73437,0.24219 -0.85937,0.72265 -0.88281,1.35937 -0.0234,0.71094 0.10156,1.29688 0.88672,1.58203 0.86719,0.3086 1.66797,0.84766 2.66015,0.48829 0.65235,-0.23438 1.31641,-0.10157 1.97266,0.0234 2.01172,0.39063 4.01172,0.94532 6.07422,0.22657 0.35547,-0.125 0.79297,-0.0156 1.19141,-0.0156 0,0.0156 0,0.0352 0,0.0547 0.39843,-0.0195 0.79687,-0.0156 1.1914,-0.0547 2.28906,-0.24609 3.3086,-2.49609 2,-4.41016 z m 20.32031,-47.33203 c -1.47656,-0.91406 -3.17187,-1.32422 -4.77343,-1.96093 -0.4375,-0.17579 -1.01953,-0.1836 -1.27735,0.25781 -0.75,1.26953 -2.11718,1.7539 -3.18359,2.60937 -1.14453,0.91797 -1.26172,1.38282 -0.68359,2.72657 0.21875,0.5039 0.59765,0.85156 0.96093,1.24218 0.57032,0.60938 0.84766,1.36328 0.57813,2.19922 -0.91406,2.82422 -1.82031,5.64063 -3.44141,8.19141 -1.3125,2.0625 -3.1289,3.76172 -4.14844,6.04297 -0.51171,1.15234 -0.5039,2.04297 0.12891,3.125 0.69531,1.20312 1.88281,1.33203 2.91797,1.73047 0.58594,0.0195 0.96094,-0.25391 1.17578,-0.69141 0.30469,-0.61328 0.79297,-1.06641 1.28125,-1.50781 3.10547,-2.81641 5.20313,-6.16407 6.26953,-10.29297 0.91406,-3.53516 1.77344,-7.20313 4.48047,-9.99219 0.22266,-0.22656 0.34375,-0.5625 0.48438,-0.86328 0.66406,-1.39453 0.53515,-2.00781 -0.76954,-2.81641 z m -51.33593,19.32422 c -0.57422,-0.46484 -1.13282,-0.92187 -1.41016,-1.6289 -1.62109,-4.17579 -3.75781,-8.24219 -2.74219,-12.97266 0.043,-0.1875 0.008,-0.39453 0.008,-0.37891 0.14062,-2.69531 -0.1836,-3.11718 -2.6211,-3.1875 -0.94531,-0.0273 -1.82422,-0.0391 -2.63672,-0.59375 -0.41797,-0.28125 -0.91015,-0.15625 -1.33984,0.0625 -1.30859,0.66407 -2.55078,1.4375 -3.51953,2.5586 -0.70313,0.8164 -0.92188,1.71875 -0.39453,2.7539 0.72265,1.42578 1.40234,2.83985 2.91797,3.66407 1.14843,0.62109 1.875,1.57421 2.03125,2.97265 0.12109,1.11328 0.57031,2.17578 1.10156,3.17578 1.66797,3.13672 2.82422,6.54688 5.28515,9.25 1.33985,1.47266 2.51172,3.10157 4.16407,4.2461 1.45312,1.00781 1.875,0.82422 2.28906,-0.83985 0.26953,-1.09375 0.42969,-2.27343 1.14453,-3.14843 0.66016,-0.8086 0.3125,-1.26563 -0.19531,-1.86329 -1.25,-1.47265 -2.57813,-2.85937 -4.08203,-4.07031 z m 13.59375,3.72266 c -1.04688,0.61328 -2.21485,0.39844 -3.16407,-0.38672 -1.03906,-0.85938 -0.95703,-2.03906 -0.51953,-3.10547 0.45703,-1.10547 0.74219,-2.22656 0.98828,-3.38672 0.23438,-1.08594 0.82422,-1.94531 2.11329,-2.22656 0.84375,-0.17969 1.49609,-0.80859 1.55078,-1.80859 0.0156,-0.26172 0.0547,-0.53125 0.12109,-0.78516 0.6875,-2.50781 2.85547,-3.61719 5.23047,-2.57422 0.96875,0.42188 1.66016,0.6875 2.59375,-0.22656 1.09375,-1.07031 2.54297,-1.01172 3.90234,-0.32813 1.39063,0.69922 1.89844,1.77344 1.83594,3.39453 -0.082,2.10157 0.40234,4.21485 0,6.32813 1.30469,2.05859 -0.40234,3.07422 -1.58594,4.08984 -0.90625,0.77735 -1.43359,1.35938 -0.92968,2.61328 0.6875,1.69141 -0.66797,2.71094 -1.64063,3.6836 -1.10156,1.09375 -5.03125,0.8789 -6.18359,-0.14453 -1.16016,-1.03516 -1.24219,-1.79297 -0.32813,-3.05469 1.23047,-1.70703 1.20313,-1.92578 -0.30469,-3.47266 -0.50781,-0.52343 -0.96875,-1.08984 -1.70703,-1.49609 -0.35937,1.07031 0.9336,1.54687 0.57032,2.66797 -0.85938,-0.375 -1.66797,-0.29688 -2.54297,0.21875"
       fill-opacity="1"
       fill-rule="nonzero"
       id="path3067" />
  </g>
  <path
     fill="#f02800"
     d="m 114.33203,125.23828 c -2.28906,2.64063 -3.68359,5.80859 -5.10938,8.94141 -0.61328,1.34765 -0.5039,2.86328 -0.78125,4.28906 -0.19921,1.04297 -0.30859,2.09766 -0.46484,3.14453 -0.45703,3.05469 -1.74609,4.10156 -4.96875,3.94141 -0.28906,-0.0234 -0.69531,-0.0195 -1.08594,-0.0937 -3.08984,-0.58203 -6.01562,-0.26172 -8.9414,1.02343 -2.52735,1.10157 -4.80469,-0.32031 -5.3086,-3.01171 -0.48047,-2.54297 -0.91797,-5.08594 -1.32031,-7.64063 -0.23437,-1.49219 -0.74219,-2.58203 -2.46094,-2.88281 -1.3789,-0.23828 -2.55859,-1.0625 -3.74218,-1.81641 -0.82032,-0.51953 -1.55079,-1.19531 -2.65235,-1.23828 -0.78906,-0.0352 -1.11328,-0.75391 -0.99219,-1.47266 0.46485,-2.77734 1.61329,-5.3125 2.96094,-7.75781 0.30078,-0.54687 0.79688,-0.66015 1.36328,-0.35156 3.05078,1.67187 6.4375,1.96484 9.80469,2.25781 0.85938,0.0781 1.53906,0.28906 2.09375,0.92969 0.58594,0.67187 1.39453,0.96875 2.1875,1.32422 2.0625,0.92969 3.58984,0.60547 5.32031,-1.06641 2.07422,-2.0039 4.72657,-3.36719 7.47657,-4.41015 0.8164,-0.3125 1.55859,-0.10938 2.28515,0.30468 1.63281,0.92969 2.96094,2.24219 4.33203,3.49219 0.69141,0.63281 0.64844,1.34766 0.004,2.09375"
     fill-opacity="1"
     fill-rule="nonzero"
     id="path3068" />
  <path
     fill="#6aacaf"
     d="m 94.26953,62.585941 c -3.30469,-0.95313 -6.62109,-0.21875 -9.89453,-0.52735 -0.56641,-0.0508 -0.78125,0.70703 -0.39063,1.20313 0.4961,0.625 1.21485,0.82422 1.95703,0.78906 2.83594,-0.12891 5.625,-0.57031 8.32813,-1.46484 z m 63.69141,100.878899 c -2.51172,-1.07031 -5.10547,-1.36718 -7.77735,-0.73828 -0.5625,0.13281 -1.01953,0.46094 -1,1.06641 0.0195,0.71094 0.5586,1.0039 1.21094,1.07031 1.32031,0.12891 2.64062,0.24219 3.51953,0.32031 1.50781,0.0703 2.56641,0.15235 3.625,0.16016 0.44922,0.004 0.98438,-0.0352 1.125,-0.60547 0.14844,-0.60547 -0.17187,-1.04297 -0.70312,-1.27344 z M 99.17187,63.730471 c 0.73828,0.35547 1.53516,0.39844 2.32813,0.4414 4.83984,0.25782 9.68359,0.0977 14.52344,0.0586 0.64062,-0.004 1.32031,0.0117 2.15625,-0.48438 -0.96094,-1.02343 -2.08204,-1.10156 -3.17579,-1.24609 -2.96093,-0.39063 -5.94531,-0.52734 -8.92578,-0.63672 -2.1875,-0.082 -4.3789,-0.0625 -6.5664,-0.0937 -0.54688,-0.008 -1.12891,-0.004 -1.28125,0.65234 -0.17578,0.73829 0.38672,1.04297 0.9414,1.3086 z m 31.6875,45.449219 c 0.57813,0.14062 1.17188,0.26172 1.76172,0.29297 3.32031,0.17968 6.64453,0.32421 9.96485,0.48437 0,0.0273 0,0.0547 0.004,0.0781 3.19141,0 6.38672,0.0312 9.57813,-0.0195 0.69922,-0.0117 1.91015,0.36719 1.92578,-0.70703 0.0117,-0.89453 -1.1875,-0.8789 -1.94141,-0.95703 -6.62109,-0.70703 -13.26172,-1.01172 -19.92187,-0.85547 -0.45703,0.0117 -0.92188,0.0977 -1.36328,0.23047 -0.32032,0.0937 -0.56641,0.3711 -0.57813,0.73438 -0.0117,0.3789 0.23828,0.64062 0.57031,0.71875 z M 91.41797,76.183591 c 7.05078,-0.0351 14.09765,-0.0742 21.14453,-0.125 1.03515,-0.008 2.08984,0.0195 3.08984,-0.27734 0.0156,-0.14453 0.0312,-0.28516 0.043,-0.42969 -0.69531,-0.18359 -1.39062,-0.3789 -2.09375,-0.55078 -1.82031,-0.44922 -3.69531,-0.4375 -5.55078,-0.54687 -7.50781,-0.4375 -15.01953,-0.25 -22.52734,0.0117 -0.49219,0.0156 -1.05469,-0.043 -1.34766,0.46875 0.28906,0.79688 0.91797,0.8086 1.49219,0.91797 1.90234,0.36328 3.82031,0.54297 5.75,0.53125 z m 45.69531,84.449219 c -4.60938,-0.63672 -9.23438,-1.10937 -13.89844,-0.92969 -2.45703,0.0937 -4.90625,0.28907 -7.26953,1.05469 -0.69531,0.22266 -1.59766,0.48438 -1.39453,1.37891 0.21875,0.9414 1.17578,0.64844 1.86719,0.55859 4.42968,-0.57812 8.86718,-0.62109 13.32422,-0.46875 5.57812,0.19531 11.125,0.6875 17.16796,1.3086 -1.02734,-1.00391 -1.93359,-1.21875 -2.77734,-1.50782 -2.27734,-0.78125 -4.65234,-1.0664 -7.01953,-1.39453 z m 16.78125,-40.4375 c -6.64063,0 -13.28906,0 -19.92969,0.008 -2.92578,0.008 -5.84765,0.17188 -8.76172,0.41016 -0.73437,0.0586 -1.46093,0.13672 -2.10937,0.51563 -0.15235,0.0859 -0.29688,0.29687 -0.32031,0.46875 -0.0391,0.28515 0.16015,0.49609 0.43359,0.57421 1.03125,0.28907 2.09766,0.35938 3.16016,0.36719 5.25,0.043 10.49609,0.0352 15.74609,0.10547 3.79297,0.0508 7.57422,-0.14062 11.34375,-0.5 1.44531,-0.13672 2.91016,-0.25391 4.56641,-1.01562 -1.49219,-0.9336 -2.81641,-0.92969 -4.12891,-0.9336 z M 95.57031,91.902341 c 3.44922,0.10547 6.91016,0.0937 10.35547,0.27735 4.46094,0.23437 8.90234,0.10156 13.33594,-0.32813 1.95703,-0.1875 3.93359,-0.42187 6.09765,-1.3164 -0.8789,-0.40625 -1.48437,-0.28125 -2.07422,-0.28125 -5.51171,0.004 -11.03125,0.11328 -16.53515,-0.32032 -7.08203,-0.55468 -14.22656,0.16016 -21.26953,-1.09765 -0.32422,-0.0547 -0.70703,-0.11328 -0.875,0.25781 -0.21094,0.46484 0.16797,0.73047 0.48437,0.95703 0.87891,0.63281 1.91016,0.90625 2.95313,1.12109 2.48047,0.50391 5,0.65235 7.52734,0.73047 z m 54.03125,39.507819 c -5.44141,0.23046 -10.88672,0.47265 -16.32422,0.80859 -5.375,0.32812 -10.76562,0.15625 -16.125,0.74609 -0.66015,0.0742 -1.3125,0.19532 -1.96094,0.32813 -0.40625,0.0781 -0.8125,0.27344 -0.82031,0.73047 -0.0156,0.59375 0.50391,0.75781 0.96094,0.80468 0.85547,0.0859 1.72266,0.10157 2.58594,0.125 11.85156,0.28907 23.62109,-0.95703 35.39843,-2.01562 0.96094,-0.0859 1.92188,-0.23438 3.24219,-0.82813 -2.57031,-0.8789 -4.77344,-0.78906 -6.95703,-0.69921 z m 7.62891,17.17578 c -1.50391,-0.15625 -3.00782,-0.35547 -4.51563,-0.45703 -5.17187,-0.34375 -10.34765,-0.625 -15.51953,-0.98438 -7.57422,-0.52734 -15.14453,-0.39844 -22.71875,0.008 -0.46094,0.0274 -0.92578,0.0781 -1.38281,0.16797 -0.41016,0.0781 -0.75,0.29297 -0.79297,0.75781 -0.043,0.47657 0.25781,0.75 0.66406,0.85547 0.57813,0.14844 1.16797,0.29297 1.75781,0.31641 1.52735,0.0703 3.05469,0.11719 4.58204,0.0937 5.71875,-0.082 11.42968,-0.0703 17.14453,0.21875 5.3789,0.26953 10.76172,0.30078 16.14843,0.19141 1.57813,-0.0312 3.14844,-0.13282 4.63282,-1.16797 z m -44.82032,23.9375 c 0.0859,0.69531 0.79688,1.29687 0.39063,2.01953 -0.48438,0.86328 -1.49219,0.77734 -2.28906,1.01953 -2.03907,0.62891 -4.11719,1.09766 -6.28125,0.86328 -1.39063,-0.15234 -1.64844,-0.33984 -1.72657,-1.67187 -0.23437,-4.0625 -1.40625,-7.94922 -2.22656,-11.89844 -0.35156,-1.6875 -0.77734,-3.35547 -1.17578,-5.03125 -0.0586,-0.24219 -0.0547,-0.53906 -0.53516,-0.6211 -0.36718,0.5 -0.41796,1.16797 -0.53906,1.76954 -0.72656,3.57421 -1.50781,7.13281 -1.9375,10.75781 -0.24609,2.05469 -0.14062,4.10547 -0.0664,6.16015 0.0547,1.41407 0.0742,1.37891 -1.33204,1.61329 -1.17968,0.19531 -2.32812,0.53906 -3.50781,0.71875 -1.44531,0.21875 -2.88281,0.32031 -4.35156,-0.0703 -0.86719,-0.23047 -1.26953,-0.55859 -1.19141,-1.46484 0.69532,-8.18359 1.03516,-16.41016 2.76563,-24.47656 0.17969,-0.83985 0.4375,-1.66797 0.73047,-2.47657 0.65234,-1.78515 1.01172,-2.05859 2.9414,-2.0039 3.72266,0.10547 7.44532,0.20703 11.16407,-0.0352 0.92968,-0.0625 1.86328,-0.10156 2.78125,-0.21484 0.89453,-0.11328 1.26562,0.22656 1.54296,1.09375 1.28516,3.99219 1.8711,8.13281 2.69532,12.21875 0.78906,3.89844 1.66406,7.78125 2.14843,11.73047"
     fill-opacity="1"
     fill-rule="nonzero"
     id="path3069" />
  <g
     clip-path="url(#38dd1e8d8c)"
     id="g3070"
     transform="translate(-768.51172,-770.4375)">
    <path
       fill="#722618"
       d="m 886.24609,955.23047 c 0.73047,-0.46875 1.34766,-0.59375 1.3125,-1.54688 -0.74218,0.22266 -1.07031,0.61719 -1.3125,1.54688 z m -19.58593,-35.46875 c -0.48438,0.0703 -0.73829,0.33594 -0.66407,0.79687 0.0547,0.34766 0.3086,0.58594 0.67578,0.58203 0.45704,-0.004 0.73438,-0.30859 0.75,-0.73437 0.0156,-0.48828 -0.33203,-0.65625 -0.76171,-0.64453 z m -11.45704,-35.0586 c 1.02735,-0.24218 1.75391,-0.41796 2.48047,-0.58984 -0.0391,-0.14844 -0.0781,-0.30078 -0.11328,-0.44922 -0.84375,-0.29687 -2.16015,-0.10937 -2.36719,1.03906 z m 29.17969,67.77735 c -0.61719,0.16015 -1.32422,1.22656 -1.22656,1.83203 0.0508,0.3125 0.32031,0.50391 0.54687,0.32812 0.57032,-0.4414 1.02344,-1 1.1836,-1.67968 -0.043,-0.35547 -0.17578,-0.56641 -0.50391,-0.48047 z m -17.70312,-69.13281 c 0.11718,-0.63672 -0.48438,-0.67188 -0.92969,-0.78907 -0.59766,0.0937 -1.25,0.16797 -1.26953,0.96485 -0.0117,0.46875 0.37109,0.69922 0.80859,0.67578 0.60547,-0.0273 1.26563,-0.14063 1.39063,-0.85156 z m 15.60156,67.57421 c -0.79688,0.30469 -1.53125,0.73829 -1.83203,1.60547 -0.1211,0.34375 0.004,0.65235 0.41797,0.70703 0.65234,0.082 1.98828,-1.23046 1.9414,-1.8789 -0.0469,-0.3086 -0.29297,-0.52344 -0.52734,-0.4336 z m -33.26953,6.42188 c 1.91406,0.69922 1.91406,0.69922 3.61328,0.39062 -2.0625,-1.51171 -2.82813,-1.5664 -3.61328,-0.39062 z m 4.69531,-4.82031 c -0.27344,-0.0859 -0.53125,-0.0274 -0.6875,0.22265 -0.17969,0.28907 0.0352,0.5 0.19922,0.69532 0.15625,0.18359 0.32812,0.34765 0.49609,0.51562 0.52735,0.25781 1.05078,0.53125 1.58985,0.76563 0.24609,0.10546 0.52343,0.0898 0.72265,-0.14063 0.26563,-0.30859 0.19532,-0.65625 -0.043,-0.89844 -0.61718,-0.63672 -1.45312,-0.89453 -2.27734,-1.16015 z m 16.31641,-72.21875 c 0.0156,-0.0664 -0.12891,-0.16797 -0.19141,-0.24219 -0.56641,0.14453 -0.64062,0.91406 -1.16797,0.88672 -0.83203,-0.13281 -0.32422,-1.41406 -1.32031,-1.30078 -0.21484,1.60547 0.0156,2.28906 0.83594,2.51953 0.8125,0.22656 1.48437,-0.44141 1.84375,-1.86328 z m -18.94532,73.85547 c -0.0664,0.23828 0.14063,0.47265 0.37891,0.61328 0.28125,0.16797 0.54297,0.37109 0.83984,0.49609 0.5625,0.23828 1.13672,0.94922 1.7461,0.39453 0.64062,-0.58203 -0.27344,-1.07812 -0.33203,-1.66015 -0.6211,-0.0937 -1.24219,-0.19141 -1.86719,-0.28516 -0.37109,-0.0547 -0.67188,0.11328 -0.76563,0.44141 z m 2.625,-0.21094 c 0,0 -0.004,0 -0.004,0 0,0 0.004,0.004 0.004,0.004 0,0.0156 0.008,0.0352 0.008,0.0508 0.0195,0.004 0.0391,0.004 0.0547,0.008 -0.0156,-0.0195 -0.0352,-0.0352 -0.0508,-0.0547 -0.004,0 -0.008,-0.004 -0.0117,-0.008 z m 9.125,-71.89063 c 0.46485,-0.51562 0.8711,-1.125 0.58204,-1.86718 -0.15235,-0.0469 -0.23047,-0.10157 -0.27735,-0.082 -0.64844,0.28907 -1.22656,1.54688 -2.0039,0.0937 -0.12891,-0.24218 -0.51563,0.008 -0.59375,0.25 -0.22266,0.67579 -0.11329,1.33594 0.5039,1.74219 0.58594,0.39063 1.28516,0.42578 1.78906,-0.13672 z m 0.0664,4.51953 c 1.66406,1.46485 3.71094,1.10938 5.10156,-0.97656 -0.74609,0.0195 -1.04687,0.42578 -1.46484,0.60156 -1.71094,0.71875 -2.88672,0.3125 -3.66016,-1.41406 -0.19531,-0.4375 -0.375,-0.51562 -0.67187,-0.32422 -0.35156,0.22657 -0.96485,0.0469 -1.13672,0.79688 0.875,0.082 1.25781,0.8125 1.83203,1.3164 z m 15.83984,63.09375 c -1.65625,0.46094 -3.29296,1.1211 -5.02734,0.28907 -0.20312,-0.10157 -0.40625,0.0703 -0.46875,0.24609 -0.0547,0.17188 -0.0547,0.42188 0.0352,0.57031 0.51172,0.83985 1.39453,0.91407 2.26953,1.03516 1.24219,-0.16016 2.5,-0.3125 3.5664,-1.08984 0.26954,-0.19532 0.5586,-0.4336 0.44532,-0.8086 -0.12891,-0.43359 -0.53125,-0.32422 -0.82032,-0.24219 z m -21.88281,1.80469 c -0.17187,0.008 -0.375,0.1875 -0.28515,0.40235 0.0664,0.16406 0.22265,0.36328 0.37109,0.40234 1.29297,0.31641 2.60156,0.42969 3.92187,0.22266 0.86719,-0.14063 1.875,0.14453 2.52735,-0.74219 -0.0664,-0.0898 -0.0937,-0.17188 -0.14844,-0.19141 -2.11328,-0.8164 -4.25391,-0.19531 -6.38672,-0.0937 z m -0.0508,-25.8789 c 1.53125,-0.38672 3.88672,-3.1836 3.94141,-4.82422 0.0195,-0.13672 -0.082,-0.38672 -0.32813,-0.51953 -0.40234,-0.21094 -0.625,0.0664 -0.76953,0.37109 -0.67578,1.41016 -1.66016,2.53125 -3.05078,3.28125 -0.36328,0.19531 -0.65234,0.48047 -0.63281,0.92969 0.0234,0.51953 0.17968,0.92968 0.83984,0.76172 z m 19.55078,-1.88282 c 0.40625,0.0274 0.97656,-0.0742 1.16797,-0.63672 0.22266,-0.65234 -0.35547,-0.92968 -0.83203,-1.14062 -1.20703,-0.53516 -2.41406,-1.04688 -3.3125,-2.07422 -0.18359,-0.21094 -0.51172,-0.22656 -0.73438,-0.0859 -0.22265,0.14063 -0.2539,0.42969 -0.22265,0.70703 0.16406,1.50782 2.1875,3.24219 3.93359,3.23047 z m -15.93359,-30.21093 c -0.22656,0.3164 -0.0273,0.63281 0.16797,0.89453 0.15625,0.20703 0.35547,0.39062 0.55859,0.55468 2.53516,2.07813 6.64063,1.67188 9.08594,-1.09375 -0.98828,-0.16406 -1.64844,0.16797 -2.3086,0.41797 -1.07812,0.40625 -2.17968,0.47266 -3.3125,0.42578 -1.24218,-0.0547 -2.29687,-0.55468 -3.3125,-1.19921 -0.27343,-0.17188 -0.62109,-0.35938 -0.8789,0 z m 22.76172,2.5 c 0.76562,-1.12891 0.77343,-1.69922 -0.25782,-2.58204 -1.54687,-1.32031 -3.20703,-2.51562 -4.82031,-3.76562 -0.12109,0.12109 -0.24219,0.23828 -0.36719,0.35547 0.79688,1.11328 1.81641,1.99609 2.98829,2.73828 0.5,0.31641 1.00781,0.64062 1.4414,1.03516 0.29297,0.26562 0.48828,0.69921 0.125,1.05078 -0.3125,0.30078 -0.61719,-0.008 -0.85156,-0.20313 -0.86328,-0.72656 -1.70313,-1.48047 -2.55859,-2.21484 -0.35157,-0.30078 -0.71875,-0.58594 -1.09375,-0.84766 -0.0859,-0.0586 -0.26954,-0.043 -0.36719,0.0117 -0.19922,0.10547 -0.25391,0.35547 -0.15235,0.50781 0.2461,0.38672 0.53907,0.75 0.84375,1.09375 0.96094,1.07813 2.21485,1.79688 3.42969,2.46875 -0.75781,1.83203 -2.08594,3.17188 -2.52344,5.44922 1.82032,-1.76172 3.01563,-3.41015 4.16407,-5.09765 z m -29.85938,7.74218 c -1.61719,-1.28125 -3.1914,-2.32031 -4.86328,-3.23047 -1.21484,-0.66015 -1.16797,-0.66015 -0.62109,-2.0039 0.41797,-1.02344 0.88672,-2.08594 0.34375,-3.46094 -1.33203,1.38281 -1,3.24219 -2.19532,4.50391 -0.27734,-0.42188 -0.15625,-0.67188 -0.10156,-0.92578 0.54297,-2.54297 1.67578,-4.86719 2.67188,-7.23829 0.125,-0.29687 0.35937,-0.62109 -0.0899,-0.8125 -0.30468,-0.13281 -0.51172,0.14844 -0.625,0.36329 -1.27343,2.39453 -2.44922,4.83593 -2.96093,7.52734 -0.11719,0.60156 -0.0312,1.16406 0.58203,1.55469 1.89062,1.1914 3.78125,2.3789 5.80078,3.34765 0.5664,0.27344 1.11328,0.69922 2.05859,0.375 z m 21.01953,11.83203 c 0.20313,-0.60156 -0.30468,-0.80859 -0.71093,-1.00781 -0.83204,-0.41406 -1.72657,-0.64844 -2.63672,-0.84375 -4.29297,-0.92187 -8.25782,0.42578 -12.21094,1.76953 -0.51953,0.17578 -1.32422,0.47266 -1.09766,1.1836 0.28125,0.90234 1.07422,0.39453 1.69532,0.30468 4.57421,-0.67578 9.12109,-1.74609 13.79687,-0.96093 0.48047,0.0898 0.97266,0.10547 1.16406,-0.44532 z M 923,833.89453 c -0.69141,0.22656 -1.36328,0.52734 -2.02344,0.83594 -0.57422,0.27344 -1.01562,0.69922 -0.82422,1.40234 0.1875,0.69531 0.76172,0.85156 1.41016,0.83594 0.60937,0 1.1875,-0.13672 1.74609,-0.36328 0.75782,-0.3086 1.26172,-0.19531 1.44141,0.71875 0.14062,0.71484 0.40625,1.41406 0.95312,1.9375 0.70313,0.67578 1.57422,0.44531 1.82813,-0.49219 0.19141,-0.71875 0.14844,-1.47656 -0.0508,-2.16797 -0.3086,-1.05469 -0.19141,-1.80469 0.98047,-2.15234 0.24609,-0.0742 0.47265,-0.2461 0.67968,-0.41016 0.42969,-0.33594 0.83204,-0.72656 0.57422,-1.33203 -0.21484,-0.5 -0.6875,-0.58984 -1.17578,-0.55859 -0.26562,0.0195 -0.54687,0.0234 -0.78515,0.11718 -0.91797,0.36329 -1.19532,-0.16796 -1.33204,-0.90625 -0.14453,-0.78515 -0.33203,-1.55468 -0.72656,-2.25781 -0.28125,-0.50781 -0.71875,-0.78515 -1.32031,-0.66015 -0.61719,0.1289 -0.88672,0.58984 -0.84766,1.17187 0.0625,0.92188 0.16016,1.84766 0.3125,2.75781 0.12891,0.76953 -0.0391,1.26563 -0.83984,1.52344 z m -83.98438,41.74219 c -0.3164,-1.52735 0.62891,-3.07422 0.89063,-4.64063 0.043,-0.25781 0.10547,-0.51953 0.12109,-0.78125 0.0391,-0.97265 -0.36328,-1.61328 -1.32031,-1.97265 -3.51172,-1.31641 -6.11719,-0.71485 -8.79297,1.96484 -1.3125,1.30469 -1.82812,2.78125 -1.14844,4.48828 0.89454,2.25781 2.57813,3.3711 4.74219,3.34766 -0.3164,-0.72266 -0.92578,-1.19531 -1.57422,-1.46094 -1.99218,-0.81641 -1.60547,-2.79297 -1.98047,-4.25781 -0.23437,-0.91016 1.08594,-1.64844 1.95313,-2.2461 0.16406,-0.10937 0.35937,-0.17187 0.52734,-0.27734 1.24219,-0.76953 1.73828,-0.64062 2.48047,0.58203 0.41016,0.67578 0.3711,1.36719 0.22266,2.22656 -0.32422,-0.15625 -0.46875,-0.18359 -0.54297,-0.27343 -0.38281,-0.46485 -0.45703,-1.53907 -1.30469,-1.14063 -0.64453,0.30469 0.13672,1.03516 0.11328,1.58594 -0.008,0.16797 -0.11328,0.23047 -0.25781,0.1875 -0.53125,-0.39453 -0.66016,-1.28906 -1.74609,-1.30469 0.36718,1.23047 0.42968,2.57031 1.75,2.98047 1.33203,0.41406 2.5039,-0.53906 3.38672,-1.29297 1.13281,-0.97656 0.74609,-2.39453 -0.0195,-3.63672 1.84375,0.0586 1.92969,0.0703 1.6875,1.57032 -0.80859,4.96093 0.76954,9.41015 2.85938,13.76171 0.12891,0.26954 0.26172,0.62891 0.78516,0.60157 -0.12891,-1.9336 -0.85547,-3.71094 -1.375,-5.53516 -0.4336,-1.51172 -1.14454,-2.97266 -1.45704,-4.47656 z m 56.26563,-8.85156 c -1.68359,-1.02735 -3.50781,-1.56641 -5.48438,-1.5625 -0.61718,0 -1.27343,0.11718 -1.61328,0.6289 -0.40234,0.59766 -1.03515,0.78906 -1.53906,1.19141 -1.89453,1.51172 -3.4375,3.73828 -1.12891,6.02344 0.63282,0.6289 0.40235,1.32812 0.25391,2.04296 -0.59375,2.87891 -1.69531,5.5625 -3.15234,8.11329 -0.33203,0.57031 -0.64063,1.15625 -0.9336,1.7539 -0.14843,0.30469 -0.21484,0.69141 0.13672,0.8711 0.3125,0.16015 0.65235,-0.008 0.88672,-0.27344 0.17969,-0.19922 0.35156,-0.40235 0.49609,-0.6211 2.07032,-3.22265 3.48829,-6.66406 3.89844,-10.51171 0.1211,-1.14844 0.0781,-2.05469 -0.91015,-2.78516 -0.88282,-0.65234 -0.82422,-1.41406 -0.10938,-2.17969 0.30859,-0.32812 0.48438,-0.80859 1.06641,-0.89453 0.13672,0.50391 0.28515,1.01172 0.41015,1.52344 0.0977,0.40234 0.25782,0.86719 0.65235,0.92187 1.08203,0.16016 1.92187,0.875 2.95312,1.14063 0.5,0.1289 0.89063,0.10547 1.27344,-0.26172 0.50781,-0.48047 0.25781,-1.12891 0.42187,-1.6875 0.16407,-0.5625 0.54688,-1.17969 -0.0508,-1.74609 -0.78125,0.47656 -0.43359,1.59375 -1.27734,1.90625 -0.78516,-0.85938 0.55469,-2.00391 -0.44141,-2.72266 -0.96875,0.35156 -0.35937,1.55078 -1.34765,2.06641 -0.34375,-1.10547 -0.1836,-2.10547 -0.14063,-3.34375 1.48047,0.24609 2.71875,0.44921 3.85547,1.05468 1.20703,0.64844 1.26563,0.76563 0.78906,2.00391 -0.30468,0.80469 -0.65234,1.58984 -0.95312,2.39844 -0.0937,0.25 -0.0508,0.55468 0.17187,0.73047 0.22266,0.17578 0.51953,0.14062 0.71094,-0.0781 1.08984,-1.21484 1.82422,-2.60937 1.98438,-4.24609 0.0625,-0.64063 -0.33204,-1.125 -0.87891,-1.45703 z m 17.48828,-28.07813 c -0.50781,-1.30469 -0.82031,-2.70312 -1.74219,-4.22266 -0.79297,2.94141 -1.39843,5.52735 -1.49609,8.1875 0.71094,0.23047 1.14844,-0.15234 1.61328,-0.33593 2.62109,-1.03125 2.63281,-1.04688 1.625,-3.62891 z m 6.96875,9.02734 c 0.29688,0.875 0.62109,1.76172 0.55859,2.71094 -0.0273,0.46094 -0.0977,0.97266 -0.625,1.125 -0.44531,0.12891 -0.75781,-0.23047 -0.98828,-0.54297 -0.35156,-0.47656 -0.67578,-0.98047 -0.94922,-1.50781 -0.76171,-1.47656 -1.49218,-2.96094 -2.22656,-4.44922 -0.73828,-1.49609 -0.5664,-1.66015 -2.30859,-0.71875 -0.34766,0.1875 -0.71485,0.34766 -1.07422,0.51953 -3.07031,1.48828 -3.07422,1.48828 -3.28125,4.98047 -0.0664,1.125 -0.082,2.25391 -0.37891,3.35547 -0.10156,0.37891 -0.19531,0.77344 -0.36718,1.125 -0.27735,0.56641 -0.69532,1.01953 -1.40235,0.86719 -0.78906,-0.16797 -0.75781,-0.8086 -0.71094,-1.42188 0.10938,-1.38672 0.24219,-2.77734 0.33204,-4.16406 0.043,-0.65234 0.008,-1.3125 0.008,-1.90234 -0.42969,-0.39063 -0.82813,-0.10157 -1.20703,-0.15625 -0.55469,-0.0742 -1.04297,-0.2461 -1.19532,-0.86328 -0.14843,-0.59375 0.0742,-1.20313 0.60547,-1.31641 2.37891,-0.50391 2.25782,-2.38672 2.47657,-4.14063 0.40625,-3.29687 1.14843,-6.52343 2.14062,-9.69531 0.14063,-0.4414 0.26172,-0.90234 0.49219,-1.29687 0.60156,-1.03125 1.60937,-1.17969 2.50781,-0.39453 0.51172,0.44531 0.85938,1.02343 1.09766,1.64453 2.07422,5.44922 4.63281,10.70703 6.49609,16.24218 z M 851.875,890.39844 c 1.60937,1.4375 6.79297,2.14843 8.75,1.17187 0.12109,-0.0586 0.23828,-0.11719 0.35156,-0.1914 1.10156,-0.72657 1.10547,-1.19141 0.0547,-1.98829 -0.41797,-0.32031 -0.89453,-0.6289 -1.17969,-1.05468 -0.71484,-1.0625 -1.6289,-1.36719 -2.89453,-1.27344 -1.59766,0.11328 -2.47656,-0.65234 -2.39844,-1.96484 0.10157,-1.73829 0.73438,-2.91407 2.34766,-2.82032 0.26562,0.0156 0.53516,-0.004 0.79687,0.0391 0.79297,0.14062 1.33204,0.004 1.21094,-0.97657 -0.11719,-0.9414 0.41406,-1.42187 1.1875,-1.84375 0.85156,-0.46875 1.79688,-0.67578 2.89063,-1.05078 -1.14453,-1.08203 -2.26563,-0.0547 -3.27344,-0.27344 0.15234,-0.59765 0.46875,-0.93359 0.98047,-0.98046 1.05078,-0.10547 2.13281,-0.4336 3.16015,-0.0703 1.11719,0.39844 1.9336,0.32813 2.83204,-0.60547 0.95703,-1 1.97265,-0.76171 3.19531,0.44922 -0.81641,0.33985 -1.89063,-0.26953 -2.54297,0.67188 0.5,0.83984 1.32031,0.53906 1.97656,0.52344 1.17578,-0.0274 1.62891,0.53125 1.83594,1.59765 0.44922,2.31641 0.37891,4.59375 -0.26172,6.86719 -0.29297,1.04297 -0.6875,1.99609 -1.64453,2.625 -0.32031,0.21094 -0.72266,0.43359 -0.57031,0.92969 0.16797,0.53906 0.66797,0.59375 1.125,0.67187 1.17968,0.19922 2.23047,-0.30469 3.26172,-0.72656 3.28906,-1.33984 5.46093,-5.07422 4.96484,-8.48828 -0.10938,-0.75391 -0.11719,-1.71094 -1.28906,-1.625 -1.71875,0.1289 -2.32813,-0.94531 -2.6875,-2.34375 -0.36328,-1.41406 -0.8711,-2.77344 -1.48047,-4.10156 -0.73828,-1.59375 -1.96094,-2.56641 -3.55078,-3.28125 -3.33203,-1.50391 -6.52344,-0.83204 -9.62891,0.53906 -3.6875,1.6289 -6.12109,4.36719 -6.78906,8.44922 -0.1836,1.11718 -0.0156,2.25 -0.0156,3.37109 0,1.26953 -0.008,2.56641 -1.67968,2.96094 -0.5625,0.13281 -0.82422,0.68359 -0.70704,1.26953 0.25782,1.30859 0.60938,2.57422 1.67188,3.52344 z m 89.47656,-53.80078 c -0.3125,3.83203 -1.48828,7.41015 -3.39062,10.72656 -5.14844,8.96875 -12.625,15 -22.84375,17.19531 -11.9375,2.56641 -23.11328,-5.03516 -25.31641,-16.99609 -0.46094,-2.50782 -0.49219,-5.0625 0.26172,-7.4961 3.27344,-10.55468 9.91016,-17.83593 20.80859,-20.83984 1.27735,-0.35156 2.60157,-0.56641 3.94141,-0.5625 0.43359,0.004 0.95312,-0.125 1.22656,0.58984 -0.90234,0.19532 -1.78515,0.35938 -2.65625,0.57813 -10.83594,2.71875 -17.75,9.66406 -20.89062,20.14062 -2.48047,8.28516 2.55859,17.42578 10.89843,20.85157 3.88672,1.59375 7.91797,1.95703 11.9336,0.84375 11.60937,-3.21094 19.55469,-10.36719 23.12109,-22.00391 0.70313,-2.29688 0.83985,-4.67578 0.40625,-7.08203 -1.07812,-5.96485 -5.4414,-10.21094 -11.46484,-11.16797 -2.89453,-0.46484 -5.70703,-0.19141 -8.47266,0.66797 -5.45703,1.69531 -10.07422,4.73437 -13.96875,8.88672 -0.63672,0.67968 -1.21094,1.41797 -1.63281,2.25 -0.76563,1.51953 -0.44922,2.30078 1.1875,2.8789 0.67969,0.23828 1.39062,0.39063 2.54297,0.70703 -2.10156,0.67188 -3.6836,0.46875 -5.08203,-0.55078 -1.04688,-0.76172 -1,-1.96093 -0.73047,-3.10156 0.32812,-1.38672 1.10156,-2.55469 1.99609,-3.63281 4.48047,-5.41016 10.19922,-8.85938 17.04688,-10.36328 4.28125,-0.94141 8.47265,-0.45703 12.43359,1.51953 6.82422,3.40625 9.11719,10.13672 8.64453,15.96094"
       fill-opacity="1"
       fill-rule="nonzero"
       id="path3070" />
  </g>
</svg>
