<?xml version="1.0" encoding="UTF-8" standalone="no"?>
<svg
   width="310.03125"
   zoomAndPan="magnify"
   viewBox="0 0 232.52344 277.85156"
   height="370.46875"
   preserveAspectRatio="xMidYMid"
   version="1.0"
   id="svg3945"
   sodipodi:docname="Sheba Enterprise.svg"
   xmlns:inkscape="http://www.inkscape.org/namespaces/inkscape"
   xmlns:sodipodi="http://sodipodi.sourceforge.net/DTD/sodipodi-0.dtd"
   xmlns="http://www.w3.org/2000/svg"
   xmlns:svg="http://www.w3.org/2000/svg">
  <sodipodi:namedview
     id="namedview3945"
     pagecolor="#ffffff"
     bordercolor="#000000"
     borderopacity="0.25"
     inkscape:showpageshadow="2"
     inkscape:pageopacity="0.0"
     inkscape:pagecheckerboard="0"
     inkscape:deskcolor="#d1d1d1"
     inkscape:export-bgcolor="#00000000" />
  <defs
     id="defs2384">
    <clipPath
       id="1de6af86af">
      <path
         d="m 768.51172,1162.6641 h 232.52348 v 185.4687 H 768.51172 Z m 0,0"
         clip-rule="nonzero"
         id="path681" />
    </clipPath>
    <clipPath
       id="46973b4c1a">
      <path
         d="m 787.25391,1162.6641 h 195.03906 c 4.97265,0 9.73828,1.9765 13.2539,5.4922 3.51563,3.5117 5.48833,8.2812 5.48833,13.25 v 147.9843 c 0,4.9688 -1.9727,9.7383 -5.48833,13.25 -3.51562,3.5157 -8.28125,5.4922 -13.2539,5.4922 H 787.25391 c -4.97266,0 -9.73829,-1.9765 -13.25391,-5.4922 -3.51563,-3.5117 -5.48828,-8.2812 -5.48828,-13.25 v -147.9843 c 0,-4.9688 1.97265,-9.7383 5.48828,-13.25 3.51562,-3.5157 8.28125,-5.4922 13.25391,-5.4922 z m 0,0"
         clip-rule="nonzero"
         id="path682" />
    </clipPath>
    <clipPath
       id="c4a5caafbe">
      <path
         d="m 768.51172,1070.2813 h 232.52348 v 232.5273 H 768.51172 Z m 0,0"
         clip-rule="nonzero"
         id="path683" />
    </clipPath>
    <clipPath
       id="1e33f728f1">
      <path
         d="m 787.25391,1070.2813 h 195.03906 c 4.97265,0 9.73828,1.9765 13.2539,5.4921 3.51563,3.5157 5.48833,8.2813 5.48833,13.25 v 195.043 c 0,4.9688 -1.9727,9.7383 -5.48833,13.25 -3.51562,3.5156 -8.28125,5.4922 -13.2539,5.4922 H 787.25391 c -4.97266,0 -9.73829,-1.9766 -13.25391,-5.4922 -3.51563,-3.5117 -5.48828,-8.2812 -5.48828,-13.25 v -195.043 c 0,-4.9687 1.97265,-9.7343 5.48828,-13.25 3.51562,-3.5156 8.28125,-5.4921 13.25391,-5.4921 z m 0,0"
         clip-rule="nonzero"
         id="path684" />
    </clipPath>
    <linearGradient
       x1="-3.3365599e-05"
       gradientTransform="matrix(0.908298,0,0,0.908298,768.51166,1070.2831)"
       y1="-3.3365599e-05"
       x2="255.99994"
       gradientUnits="userSpaceOnUse"
       y2="255.99994"
       id="d55b432927">
      <stop
         stop-opacity="1"
         stop-color="rgb(81.599426%, 81.599426%, 81.599426%)"
         offset="0"
         id="stop684" />
      <stop
         stop-opacity="1"
         stop-color="rgb(81.742859%, 81.742859%, 81.742859%)"
         offset="0.015625"
         id="stop685" />
      <stop
         stop-opacity="1"
         stop-color="rgb(82.029724%, 82.029724%, 82.029724%)"
         offset="0.03125"
         id="stop686" />
      <stop
         stop-opacity="1"
         stop-color="rgb(82.318115%, 82.318115%, 82.318115%)"
         offset="0.046875"
         id="stop687" />
      <stop
         stop-opacity="1"
         stop-color="rgb(82.60498%, 82.60498%, 82.60498%)"
         offset="0.0625"
         id="stop688" />
      <stop
         stop-opacity="1"
         stop-color="rgb(82.893372%, 82.893372%, 82.893372%)"
         offset="0.078125"
         id="stop689" />
      <stop
         stop-opacity="1"
         stop-color="rgb(83.180237%, 83.180237%, 83.180237%)"
         offset="0.09375"
         id="stop690" />
      <stop
         stop-opacity="1"
         stop-color="rgb(83.467102%, 83.467102%, 83.467102%)"
         offset="0.109375"
         id="stop691" />
      <stop
         stop-opacity="1"
         stop-color="rgb(83.755493%, 83.755493%, 83.755493%)"
         offset="0.125"
         id="stop692" />
      <stop
         stop-opacity="1"
         stop-color="rgb(84.042358%, 84.042358%, 84.042358%)"
         offset="0.140625"
         id="stop693" />
      <stop
         stop-opacity="1"
         stop-color="rgb(84.33075%, 84.33075%, 84.33075%)"
         offset="0.15625"
         id="stop694" />
      <stop
         stop-opacity="1"
         stop-color="rgb(84.617615%, 84.617615%, 84.617615%)"
         offset="0.171875"
         id="stop695" />
      <stop
         stop-opacity="1"
         stop-color="rgb(84.90448%, 84.90448%, 84.90448%)"
         offset="0.1875"
         id="stop696" />
      <stop
         stop-opacity="1"
         stop-color="rgb(85.192871%, 85.192871%, 85.192871%)"
         offset="0.203125"
         id="stop697" />
      <stop
         stop-opacity="1"
         stop-color="rgb(85.479736%, 85.479736%, 85.479736%)"
         offset="0.21875"
         id="stop698" />
      <stop
         stop-opacity="1"
         stop-color="rgb(85.768127%, 85.768127%, 85.768127%)"
         offset="0.234375"
         id="stop699" />
      <stop
         stop-opacity="1"
         stop-color="rgb(86.054993%, 86.054993%, 86.054993%)"
         offset="0.25"
         id="stop700" />
      <stop
         stop-opacity="1"
         stop-color="rgb(86.343384%, 86.343384%, 86.343384%)"
         offset="0.265625"
         id="stop701" />
      <stop
         stop-opacity="1"
         stop-color="rgb(86.630249%, 86.630249%, 86.630249%)"
         offset="0.28125"
         id="stop702" />
      <stop
         stop-opacity="1"
         stop-color="rgb(86.917114%, 86.917114%, 86.917114%)"
         offset="0.296875"
         id="stop703" />
      <stop
         stop-opacity="1"
         stop-color="rgb(87.205505%, 87.205505%, 87.205505%)"
         offset="0.3125"
         id="stop704" />
      <stop
         stop-opacity="1"
         stop-color="rgb(87.492371%, 87.492371%, 87.492371%)"
         offset="0.328125"
         id="stop705" />
      <stop
         stop-opacity="1"
         stop-color="rgb(87.780762%, 87.780762%, 87.780762%)"
         offset="0.34375"
         id="stop706" />
      <stop
         stop-opacity="1"
         stop-color="rgb(88.067627%, 88.067627%, 88.067627%)"
         offset="0.359375"
         id="stop707" />
      <stop
         stop-opacity="1"
         stop-color="rgb(88.354492%, 88.354492%, 88.354492%)"
         offset="0.375"
         id="stop708" />
      <stop
         stop-opacity="1"
         stop-color="rgb(88.642883%, 88.642883%, 88.642883%)"
         offset="0.390625"
         id="stop709" />
      <stop
         stop-opacity="1"
         stop-color="rgb(88.929749%, 88.929749%, 88.929749%)"
         offset="0.40625"
         id="stop710" />
      <stop
         stop-opacity="1"
         stop-color="rgb(89.21814%, 89.21814%, 89.21814%)"
         offset="0.421875"
         id="stop711" />
      <stop
         stop-opacity="1"
         stop-color="rgb(89.505005%, 89.505005%, 89.505005%)"
         offset="0.4375"
         id="stop712" />
      <stop
         stop-opacity="1"
         stop-color="rgb(89.793396%, 89.793396%, 89.793396%)"
         offset="0.453125"
         id="stop713" />
      <stop
         stop-opacity="1"
         stop-color="rgb(90.080261%, 90.080261%, 90.080261%)"
         offset="0.46875"
         id="stop714" />
      <stop
         stop-opacity="1"
         stop-color="rgb(90.367126%, 90.367126%, 90.367126%)"
         offset="0.484375"
         id="stop715" />
      <stop
         stop-opacity="1"
         stop-color="rgb(90.655518%, 90.655518%, 90.655518%)"
         offset="0.5"
         id="stop716" />
      <stop
         stop-opacity="1"
         stop-color="rgb(90.79895%, 90.79895%, 90.79895%)"
         offset="0.5"
         id="stop717" />
      <stop
         stop-opacity="1"
         stop-color="rgb(90.942383%, 90.942383%, 90.942383%)"
         offset="0.5"
         id="stop718" />
      <stop
         stop-opacity="1"
         stop-color="rgb(91.087341%, 91.087341%, 91.087341%)"
         offset="0.515625"
         id="stop719" />
      <stop
         stop-opacity="1"
         stop-color="rgb(91.230774%, 91.230774%, 91.230774%)"
         offset="0.53125"
         id="stop720" />
      <stop
         stop-opacity="1"
         stop-color="rgb(91.517639%, 91.517639%, 91.517639%)"
         offset="0.546875"
         id="stop721" />
      <stop
         stop-opacity="1"
         stop-color="rgb(91.804504%, 91.804504%, 91.804504%)"
         offset="0.5625"
         id="stop722" />
      <stop
         stop-opacity="1"
         stop-color="rgb(92.092896%, 92.092896%, 92.092896%)"
         offset="0.578125"
         id="stop723" />
      <stop
         stop-opacity="1"
         stop-color="rgb(92.379761%, 92.379761%, 92.379761%)"
         offset="0.59375"
         id="stop724" />
      <stop
         stop-opacity="1"
         stop-color="rgb(92.668152%, 92.668152%, 92.668152%)"
         offset="0.609375"
         id="stop725" />
      <stop
         stop-opacity="1"
         stop-color="rgb(92.955017%, 92.955017%, 92.955017%)"
         offset="0.625"
         id="stop726" />
      <stop
         stop-opacity="1"
         stop-color="rgb(93.243408%, 93.243408%, 93.243408%)"
         offset="0.640625"
         id="stop727" />
      <stop
         stop-opacity="1"
         stop-color="rgb(93.530273%, 93.530273%, 93.530273%)"
         offset="0.65625"
         id="stop728" />
      <stop
         stop-opacity="1"
         stop-color="rgb(93.817139%, 93.817139%, 93.817139%)"
         offset="0.671875"
         id="stop729" />
      <stop
         stop-opacity="1"
         stop-color="rgb(94.10553%, 94.10553%, 94.10553%)"
         offset="0.6875"
         id="stop730" />
      <stop
         stop-opacity="1"
         stop-color="rgb(94.392395%, 94.392395%, 94.392395%)"
         offset="0.703125"
         id="stop731" />
      <stop
         stop-opacity="1"
         stop-color="rgb(94.680786%, 94.680786%, 94.680786%)"
         offset="0.71875"
         id="stop732" />
      <stop
         stop-opacity="1"
         stop-color="rgb(94.967651%, 94.967651%, 94.967651%)"
         offset="0.734375"
         id="stop733" />
      <stop
         stop-opacity="1"
         stop-color="rgb(95.254517%, 95.254517%, 95.254517%)"
         offset="0.75"
         id="stop734" />
      <stop
         stop-opacity="1"
         stop-color="rgb(95.542908%, 95.542908%, 95.542908%)"
         offset="0.765625"
         id="stop735" />
      <stop
         stop-opacity="1"
         stop-color="rgb(95.829773%, 95.829773%, 95.829773%)"
         offset="0.78125"
         id="stop736" />
      <stop
         stop-opacity="1"
         stop-color="rgb(96.118164%, 96.118164%, 96.118164%)"
         offset="0.796875"
         id="stop737" />
      <stop
         stop-opacity="1"
         stop-color="rgb(96.405029%, 96.405029%, 96.405029%)"
         offset="0.8125"
         id="stop738" />
      <stop
         stop-opacity="1"
         stop-color="rgb(96.69342%, 96.69342%, 96.69342%)"
         offset="0.828125"
         id="stop739" />
      <stop
         stop-opacity="1"
         stop-color="rgb(96.980286%, 96.980286%, 96.980286%)"
         offset="0.84375"
         id="stop740" />
      <stop
         stop-opacity="1"
         stop-color="rgb(97.267151%, 97.267151%, 97.267151%)"
         offset="0.859375"
         id="stop741" />
      <stop
         stop-opacity="1"
         stop-color="rgb(97.555542%, 97.555542%, 97.555542%)"
         offset="0.875"
         id="stop742" />
      <stop
         stop-opacity="1"
         stop-color="rgb(97.842407%, 97.842407%, 97.842407%)"
         offset="0.890625"
         id="stop743" />
      <stop
         stop-opacity="1"
         stop-color="rgb(98.130798%, 98.130798%, 98.130798%)"
         offset="0.90625"
         id="stop744" />
      <stop
         stop-opacity="1"
         stop-color="rgb(98.417664%, 98.417664%, 98.417664%)"
         offset="0.921875"
         id="stop745" />
      <stop
         stop-opacity="1"
         stop-color="rgb(98.704529%, 98.704529%, 98.704529%)"
         offset="0.9375"
         id="stop746" />
      <stop
         stop-opacity="1"
         stop-color="rgb(98.99292%, 98.99292%, 98.99292%)"
         offset="0.953125"
         id="stop747" />
      <stop
         stop-opacity="1"
         stop-color="rgb(99.279785%, 99.279785%, 99.279785%)"
         offset="0.96875"
         id="stop748" />
      <stop
         stop-opacity="1"
         stop-color="rgb(99.568176%, 99.568176%, 99.568176%)"
         offset="0.984375"
         id="stop749" />
      <stop
         stop-opacity="1"
         stop-color="rgb(99.855042%, 99.855042%, 99.855042%)"
         offset="1"
         id="stop750" />
    </linearGradient>
    <clipPath
       id="cba6ae1dd3">
      <path
         d="m 768.51172,1070.2813 h 232.40238 v 232.4023 H 768.51172 Z m 0,0"
         clip-rule="nonzero"
         id="path750" />
    </clipPath>
    <clipPath
       id="68eb0e82bd">
      <path
         d="m 787.24219,1070.2813 h 194.9375 c 4.96875,0 9.73437,1.9765 13.24609,5.4882 3.51563,3.5118 5.48832,8.2774 5.48832,13.2461 v 194.9375 c 0,4.9688 -1.97269,9.7344 -5.48832,13.2461 -3.51172,3.5117 -8.27734,5.4844 -13.24609,5.4844 h -194.9375 c -4.96485,0 -9.73047,-1.9727 -13.24219,-5.4844 -3.51563,-3.5117 -5.48828,-8.2773 -5.48828,-13.2461 v -194.9375 c 0,-4.9687 1.97265,-9.7343 5.48828,-13.2461 3.51172,-3.5117 8.27734,-5.4882 13.24219,-5.4882 z m 0,0"
         clip-rule="nonzero"
         id="path751" />
    </clipPath>
    <clipPath
       id="74a9147721">
      <path
         d="m 840.29687,1136.9531 h 89.21485 v 98.961 h -89.21485 z m 0,0"
         clip-rule="nonzero"
         id="path752" />
    </clipPath>
  </defs>
  <g
     clip-path="url(#1de6af86af)"
     id="g2821"
     transform="translate(-768.51172,-1070.2812)">
    <g
       clip-path="url(#46973b4c1a)"
       id="g2820">
      <path
         fill="#ffffff"
         d="m 768.51172,1162.6641 h 232.52348 v 185.4687 H 768.51172 Z m 0,0"
         fill-opacity="1"
         fill-rule="nonzero"
         id="path2820" />
    </g>
  </g>
  <g
     clip-path="url(#c4a5caafbe)"
     id="g2823"
     transform="translate(-768.51172,-1070.2812)">
    <g
       clip-path="url(#1e33f728f1)"
       id="g2822">
      <path
         fill="url(#d55b432927)"
         d="m 768.51172,1070.2813 v 232.5273 h 232.52348 v -232.5273 z m 0,0"
         fill-rule="nonzero"
         id="path2821"
         style="fill:url(#d55b432927)" />
    </g>
  </g>
  <g
     clip-path="url(#cba6ae1dd3)"
     id="g2825"
     transform="translate(-768.51172,-1070.2812)">
    <g
       clip-path="url(#68eb0e82bd)"
       id="g2824">
      <path
         stroke-linecap="butt"
         transform="matrix(0.749307,0,0,0.749307,768.51164,1070.2831)"
         fill="none"
         stroke-linejoin="miter"
         d="m 24.99717,-0.00247823 h 260.15715 c 6.63113,0 12.99117,2.63785523 17.6778,7.32447923 4.69183,4.686623 7.32447,11.046669 7.32447,17.677799 v 260.15715 c 0,6.63113 -2.63264,12.99117 -7.32447,17.6778 -4.68663,4.68662 -11.04667,7.31926 -17.6778,7.31926 H 24.99717 c -6.625917,0 -12.985962,-2.63264 -17.672586,-7.31926 C 2.632747,298.14812 1.0513e-4,291.78808 1.0513e-4,285.15695 V 24.9998 c 0,-6.63113 2.63264187,-12.991176 7.32447887,-17.677799 4.686624,-4.686624 11.046669,-7.32447923 17.672586,-7.32447923 z m 0,0"
         stroke="#ffffff"
         stroke-width="30"
         stroke-opacity="1"
         stroke-miterlimit="4"
         id="path2823" />
    </g>
  </g>
  <g
     fill="#0070b7"
     fill-opacity="1"
     id="g2828"
     transform="translate(-768.51172,-1070.2812)">
    <g
       transform="translate(781.83259,1332.2465)"
       id="g2827">
      <g
         id="g2826">
        <path
           d="M 12.34375,-10.609375 C 11,-10.253906 9.851562,-10.0625 8.90625,-10.03125 7.226562,-10.007812 6.007812,-10.4375 5.25,-11.3125 v 7.984375 C 5.226562,-3.523438 5.171875,-3.644531 5.078125,-3.6875 c 0.519531,0.28125 1.769531,0.164062 3.75,-0.359375 2.132813,-0.6875 3.625,-1.914063 4.46875,-3.6875 0.425781,-1.226563 0.460937,-2.207031 0.109375,-2.9375 -0.02344,-0.09375 0.0039,-0.128906 0.07813,-0.109375 -0.05469,-0.01953 -0.433594,0.03906 -1.140625,0.171875 z M 18.4375,-16.8125 H 5.25 V -16 c 1.175781,1.542969 2.367188,2.304688 3.578125,2.28125 0.644531,-0.03125 1.507813,-0.175781 2.59375,-0.4375 1.175781,-0.28125 2.050781,-0.375 2.625,-0.28125 1.039063,0.117188 1.90625,0.757812 2.59375,1.921875 0.84375,1.65625 0.875,3.699219 0.09375,6.125 -1.230469,2.699219 -3.53125,4.664063 -6.90625,5.890625 -1.585937,0.40625 -2.90625,0.609375 -3.96875,0.609375 -1.210937,0 -2.203125,-0.269531 -2.984375,-0.8125 C 2.019531,-1.347656 1.582031,-2.15625 1.5625,-3.125 V -16.8125 H -0.421875 V -20.5 H 18.4375 Z m 0,0"
           id="path2825" />
      </g>
    </g>
  </g>
  <g
     fill="#0070b7"
     fill-opacity="1"
     id="g2831"
     transform="translate(-768.51172,-1070.2812)">
    <g
       transform="translate(799.73871,1332.2465)"
       id="g2830">
      <g
         id="g2829">
        <path
           d="m -0.53125,-20.5 h 8.328125 v 3.6875 H 5.5 V 0.140625 H 1.78125 V -16.8125 h -2.3125 z m 0,0"
           id="path2828" />
      </g>
    </g>
  </g>
  <g
     fill="#0070b7"
     fill-opacity="1"
     id="g2834"
     transform="translate(-768.51172,-1070.2812)">
    <g
       transform="translate(807.00753,1332.2465)"
       id="g2833">
      <g
         id="g2832">
        <path
           d="m 12.515625,-6.203125 v -6.25 c -2.011719,0.449219 -3.984375,1.40625 -5.921875,2.875 2.507812,0.730469 4.484375,1.855469 5.921875,3.375 z M 19.125,-7.09375 c 0.507812,0.6875 1.015625,0.890625 1.515625,0.609375 0.257813,-0.257813 0.414063,-0.617187 0.46875,-1.078125 0.207031,-0.726562 -0.04297,-1.660156 -0.75,-2.796875 -0.710937,-1.132813 -2.09375,-1.898437 -4.15625,-2.296875 V 0.140625 H 12.5625 C 12.414062,-0.753906 11.8125,-1.78125 10.75,-2.9375 8.625,-5.019531 5.726562,-6.265625 2.0625,-6.671875 l -1.359375,-3.21875 c 1.164063,-1.1875 2.726563,-2.375 4.6875,-3.5625 1.957031,-1.195313 4.332031,-2.1875 7.125,-2.96875 V -16.8125 H -0.3125 V -20.5 h 25.984375 v 3.6875 h -9.46875 v 0.359375 c 2.363281,0.261719 4.28125,0.996094 5.75,2.203125 1.46875,1.199219 2.398437,2.589844 2.796875,4.171875 0.363281,1.324219 0.34375,2.664063 -0.0625,4.015625 -0.523438,1.324219 -1.3125,2.292969 -2.375,2.90625 -0.96875,0.542969 -1.976562,0.671875 -3.015625,0.390625 -0.761719,-0.207031 -1.617187,-0.679687 -2.5625,-1.421875 z m 0,0"
           id="path2831" />
      </g>
    </g>
  </g>
  <g
     fill="#0070b7"
     fill-opacity="1"
     id="g2837"
     transform="translate(-768.51172,-1070.2812)">
    <g
       transform="translate(830.48705,1332.7785)"
       id="g2836">
      <g
         id="g2835">
        <path
           d="m -11.484375,5.359375 c 0.773437,-0.261719 1.21875,-0.875 1.34375,-1.84375 0.02344,-0.261719 0.03125,-0.382813 0.03125,-0.359375 0.117187,0.019531 0.04297,0.03125 -0.21875,0.03125 -0.351563,0 -0.679687,0.035156 -0.984375,0.109375 -1.1875,0.257813 -1.863281,0.648437 -2.03125,1.171875 -0.0625,0.332031 0.05859,0.628906 0.359375,0.890625 0.3125,0.226563 0.8125,0.226563 1.5,0 z M -6.875,0.5 c 0.75,0.164062 1.527344,0.492188 2.328125,0.984375 C -2.628906,2.742188 -1.125,4.601562 -0.03125,7.0625 l -2.875,1.8125 c -1.0625,-2.0625 -2.269531,-3.449219 -3.625,-4.15625 -0.488281,1.894531 -1.691406,3.148438 -3.609375,3.765625 -1.9375,0.582031 -3.695313,0.390625 -5.28125,-0.578125 -1.445313,-1.179688 -1.9375,-2.59375 -1.46875,-4.25 0.480469,-1.84375 2.070313,-3.054688 4.765625,-3.625 0.730469,-0.1132812 1.234375,-0.171875 1.515625,-0.171875 0,0 -0.01953,-0.414063 -0.0625,-1.25 l 2.046875,-0.875 c 0.90625,1.011719 1.492188,1.933594 1.75,2.765625 z m 0,0"
           id="path2834" />
      </g>
    </g>
  </g>
  <g
     fill="#0070b7"
     fill-opacity="1"
     id="g2840"
     transform="translate(-768.51172,-1070.2812)">
    <g
       transform="translate(832.32428,1332.2465)"
       id="g2839">
      <g
         id="g2838">
        <path
           d="M 5,-4.46875 C 7.476562,-3.875 9.40625,-2.71875 10.78125,-1 L 8.296875,1.59375 c -1.25,-1.25 -2.667969,-2.097656 -4.25,-2.546875 z m 1.875,-5 c 2.9375,0.804688 5.300781,2.042969 7.09375,3.71875 v -7.015625 c -2.386719,0.636719 -4.75,1.734375 -7.09375,3.296875 z M 19.71875,-20.5 v 3.6875 h -2.0625 V 0.140625 h -3.359375 c -1.042969,-2.40625 -3.386719,-4.332031 -7.03125,-5.78125 -1.917969,-0.613281 -3.714844,-0.863281 -5.390625,-0.75 l -1.40625,-3.4375 c 4.507812,-3.425781 9.007812,-5.695313 13.5,-6.8125 V -16.8125 H -0.46875 V -20.5 Z m 0,0"
           id="path2837" />
      </g>
    </g>
  </g>
  <g
     fill="#0070b7"
     fill-opacity="1"
     id="g2843"
     transform="translate(-768.51172,-1070.2812)">
    <g
       transform="translate(851.54232,1332.2465)"
       id="g2842">
      <g
         id="g2841">
        <path
           d="M 5.078125,-20.5 H 7.3125 v 3.6875 H 5.25 V 0.140625 H 1.5625 V -16.8125 H -0.46875 V -20.5 h 2.0625 c 0,-0.707031 -0.1875,-1.476562 -0.5625,-2.3125 -0.667969,-1.25 -1.929688,-2.097656 -3.796875,-2.546875 -0.800781,-0.144531 -1.6875,-0.21875 -2.65625,-0.21875 -1.019531,0 -2.132813,0.08594 -3.34375,0.25 -1.5625,0.386719 -2.457031,0.757813 -2.6875,1.109375 v 0.0625 c 0.09375,0.21875 0.757813,0.328125 1.984375,0.328125 0.242188,0 0.492188,0 0.75,0 C -7,-23.898438 -4.835938,-24.1875 -2.234375,-24.6875 l -0.3125,3.328125 c -2.394531,0.335937 -4.300781,0.5 -5.71875,0.5 -3.351563,0 -5.484375,-0.613281 -6.390625,-1.84375 -0.351562,-0.5625 -0.53125,-1.128906 -0.53125,-1.703125 0,-0.726562 0.296875,-1.460938 0.890625,-2.203125 1.15625,-1.0625 2.765625,-1.804687 4.828125,-2.234375 1.023438,-0.207031 2.074219,-0.3125 3.15625,-0.3125 1.511719,0 3.085938,0.214844 4.71875,0.640625 2.550781,0.730469 4.488281,2.210937 5.8125,4.4375 0.570312,1.324219 0.859375,2.480469 0.859375,3.46875 0,0.02344 0,0.05859 0,0.109375 z m 0,0"
           id="path2840" />
      </g>
    </g>
  </g>
  <g
     fill="#0070b7"
     fill-opacity="1"
     id="g2846"
     transform="translate(-768.51172,-1070.2812)">
    <g
       transform="translate(858.38565,1332.2465)"
       id="g2845">
      <g
         id="g2844">
        <path
           d="M 5,-4.46875 C 7.476562,-3.875 9.40625,-2.71875 10.78125,-1 L 8.296875,1.59375 c -1.25,-1.25 -2.667969,-2.097656 -4.25,-2.546875 z m 1.875,-5 c 2.9375,0.804688 5.300781,2.042969 7.09375,3.71875 v -7.015625 c -2.386719,0.636719 -4.75,1.734375 -7.09375,3.296875 z M 19.71875,-20.5 v 3.6875 h -2.0625 V 0.140625 h -3.359375 c -1.042969,-2.40625 -3.386719,-4.332031 -7.03125,-5.78125 -1.917969,-0.613281 -3.714844,-0.863281 -5.390625,-0.75 l -1.40625,-3.4375 c 4.507812,-3.425781 9.007812,-5.695313 13.5,-6.8125 V -16.8125 H -0.46875 V -20.5 Z m 0,0"
           id="path2843" />
      </g>
    </g>
  </g>
  <g
     fill="#303c47"
     fill-opacity="1"
     id="g2852"
     transform="translate(-768.51172,-1070.2812)">
    <g
       transform="translate(885.40619,1332.2465)"
       id="g2851">
      <g
         id="g2850">
        <path
           d="m 33.453125,-16.984375 v 17.09375 h -3.6875 v -17.09375 z m 1.875,0.140625 h -7.90625 V 0.109375 h -3.6875 c -0.21875,-2.863281 -1.0625,-4.59375 -2.53125,-5.1875 -0.65625,1.75 -1.824219,3.136719 -3.5,4.15625 -1.1875,0.761719 -2.703125,1.113281 -4.546875,1.0625 -1.625,0 -3.3125,-0.425781 -5.0625,-1.28125 C 4.75,-2.742188 2.171875,-6.300781 0.359375,-11.8125 l 3.296875,-2.234375 c 1.46875,5.34375 3.476562,8.539063 6.03125,9.578125 2.289062,1.117188 4.203125,1.21875 5.734375,0.3125 1.613281,-0.75 2.488281,-1.914062 2.625,-3.5 0.101563,-1.300781 -0.167969,-2.425781 -0.8125,-3.375 -0.636719,-0.988281 -1.558594,-1.53125 -2.765625,-1.625 -0.710938,-0.05078 -1.382812,0.136719 -2.015625,0.5625 -0.542969,0.40625 -0.898437,0.867188 -1.0625,1.375 -0.125,0.429688 -0.09375,0.773438 0.09375,1.03125 0.164063,0.167969 0.40625,0.242188 0.71875,0.21875 0.820313,-0.050781 1.707031,-0.664062 2.65625,-1.84375 l 1.59375,3.6875 c -1.085937,1.136719 -2.40625,1.761719 -3.96875,1.875 -1.636719,0.074219 -2.960937,-0.457031 -3.96875,-1.59375 -0.96875,-1.132812 -1.195313,-2.613281 -0.671875,-4.4375 0.425781,-1.414062 1.300781,-2.5625 2.625,-3.4375 1.300781,-0.875 2.726562,-1.25 4.28125,-1.125 2.4375,0.28125 4.1875,1.226562 5.25,2.828125 1.164062,1.511719 1.757812,3.132813 1.78125,4.859375 0.726562,0.1875 1.378906,0.578125 1.953125,1.171875 V -16.84375 H -0.21875 v -3.6875 h 35.546875 z m 0,0"
           id="path2849" />
      </g>
    </g>
  </g>
  <g
     fill="#303c47"
     fill-opacity="1"
     id="g2855"
     transform="translate(-768.51172,-1070.2812)">
    <g
       transform="translate(920.40288,1332.2465)"
       id="g2854">
      <g
         id="g2853">
        <path
           d="m -0.28125,-20.5 h 10.390625 v 3.6875 h -1.78125 c -2.03125,2.367188 -3.273437,4.765625 -3.71875,7.203125 -0.09375,0.59375 -0.140625,1.136719 -0.140625,1.625 0,1.679687 0.484375,2.945313 1.453125,3.796875 0.46875,0.449219 1.238281,0.671875 2.3125,0.671875 0.539063,0 1.15625,-0.054687 1.84375,-0.171875 L 9.1875,0.140625 c 0,0 -0.011719,0 -0.03125,0 H 9.015625 c -0.03125,0 -0.046875,0 -0.046875,0 -0.023438,0 -0.03125,0 -0.03125,0 h -0.25 c 0,0 -0.011719,0 -0.03125,0 H 8.578125 c 0,0 -0.011719,0 -0.03125,0 h -0.0625 c 0,0 -0.015625,0 -0.046875,0 H 8.40625 c 0,0 -0.011719,0 -0.03125,0 H 7.765625 c -1.730469,0 -3.183594,-0.519531 -4.359375,-1.5625 -1.75,-1.5625 -2.625,-3.710937 -2.625,-6.453125 0,-0.726562 0.054688,-1.492188 0.171875,-2.296875 C 1.429688,-12.847656 2.320312,-15.0625 3.625,-16.8125 h -3.90625 z m 0,0"
           id="path2852" />
      </g>
    </g>
  </g>
  <g
     fill="#303c47"
     fill-opacity="1"
     id="g2858"
     transform="translate(-768.51172,-1070.2812)">
    <g
       transform="translate(930.08282,1332.2465)"
       id="g2857">
      <g
         id="g2856">
        <path
           d="m 13.96875,-12.765625 c -2.386719,0.636719 -4.75,1.734375 -7.09375,3.296875 2.9375,0.804688 5.300781,2.042969 7.09375,3.71875 z m 5.75,-7.734375 v 3.6875 h -2.0625 V 0.140625 H 14.296875 C 13.253906,-2.265625 10.898438,-4.15625 7.234375,-5.53125 5.335938,-6.21875 3.550781,-6.503906 1.875,-6.390625 l -1.40625,-3.4375 c 4.507812,-3.425781 9.007812,-5.695313 13.5,-6.8125 V -16.8125 H -0.46875 V -20.5 Z m 0,0"
           id="path2855" />
      </g>
    </g>
  </g>
  <g
     fill="#303c47"
     fill-opacity="1"
     id="g2861"
     transform="translate(-768.51172,-1070.2812)">
    <g
       transform="translate(949.30086,1332.2465)"
       id="g2860">
      <g
         id="g2859">
        <path
           d="M 19.546875,-16.8125 H 5.03125 v 6.84375 c 2.507812,-2.269531 6.203125,-4.140625 11.078125,-5.609375 l 2.46875,3.484375 c -0.9375,1.25 -1.609375,2.507812 -2.015625,3.765625 -0.65625,2 -0.609375,3.5 0.140625,4.5 0.59375,0.824219 1.53125,1.261719 2.8125,1.3125 l -1.53125,3.4375 c -2.125,-0.304687 -3.625,-1.1875 -4.5,-2.65625 C 11.992188,-4.148438 11.96875,-7.0625 13.40625,-10.46875 10.757812,-9.539062 7.828125,-7.390625 4.609375,-4.015625 L 1.34375,-5.78125 V -16.8125 h -1.625 V -20.5 h 19.828125 z m 0,0"
           id="path2858" />
      </g>
    </g>
  </g>
  <g
     fill="#303c47"
     fill-opacity="1"
     id="g2864"
     transform="translate(-768.51172,-1070.2812)">
    <g
       transform="translate(968.48345,1332.2465)"
       id="g2863">
      <g
         id="g2862">
        <path
           d="m 15.140625,-11.203125 -0.28125,-1.5 V -16.8125 H -0.46875 V -20.5 H 20.5 v 3.6875 H 18.578125 V 0.140625 h -3.71875 V -3.375 c -0.09375,-1.269531 -0.449219,-2.546875 -1.0625,-3.828125 C 12.617188,-9.515625 10.773438,-10.863281 8.265625,-11.25 6.460938,-11.53125 5.207031,-11.046875 4.5,-9.796875 4.03125,-8.867188 4.066406,-8.0625 4.609375,-7.375 5.242188,-6.644531 7.019531,-6.523438 9.9375,-7.015625 l -0.75,3.71875 c -3.449219,0.636719 -5.90625,0.058594 -7.375,-1.734375 -0.78125,-0.875 -1.183594,-1.953125 -1.203125,-3.234375 -0.074219,-1.175781 0.132813,-2.285156 0.625,-3.328125 1.59375,-2.75 4.125,-3.863281 7.59375,-3.34375 2.269531,0.355469 4.375,1.601562 6.3125,3.734375 z m 0,0"
           id="path2861" />
      </g>
    </g>
  </g>
  <g
     clip-path="url(#74a9147721)"
     id="g2865"
     transform="translate(-768.51172,-1070.2812)">
    <path
       fill="#303c47"
       d="m 854.17969,1182.9609 h -6.58594 c -4.02344,0 -7.29688,-3.3007 -7.29688,-7.2578 v -29.5117 c 0,-4.9687 4.11329,-7.4766 8.08985,-7.5195 3.71484,0 7.33984,2.1992 7.33984,6.6836 v 36.0195 c 0,0.8828 -0.66406,1.5859 -1.54687,1.5859 z m 12.59765,-38.8789 h 55.52735 c 0.70703,0 1.23828,0.5274 1.23828,1.2305 v 83.9141 c 0,0.7031 -0.53125,1.2343 -1.23828,1.2343 h -55.52735 c -0.66015,0 -1.23828,-0.5312 -1.23828,-1.2343 v -83.9141 c 0,-0.7031 0.57813,-1.2305 1.23828,-1.2305 z m -10.47656,-7.125 h 65.5625 c 4.19922,0 7.64844,3.4297 7.64844,7.6055 v 87.7422 c 0,1.9805 -1.63672,3.6094 -3.625,3.6094 h -62.64453 c -1.98828,0 -3.625,-1.6289 -3.625,-3.6094 v -87.7422 c 0,-2.7266 -1.46094,-5.1016 -3.625,-6.4648 -0.26563,-0.1289 -0.35547,-0.4375 -0.26563,-0.7032 0.043,-0.2617 0.3086,-0.4375 0.57422,-0.4375 z m 0,0"
       fill-opacity="1"
       fill-rule="evenodd"
       id="path2864" />
  </g>
  <path
     fill="#0070b7"
     d="m 137.43359,113.25005 h 7.42969 c 1.37109,0 2.42969,0.4414 3.18359,1.2304 0.70703,0.793 1.10547,1.8047 1.10547,2.9922 0,1.0117 -0.26562,1.8906 -0.79687,2.5938 -0.22266,0.3086 -0.53125,0.5742 -0.88672,0.7929 -0.12891,0.086 -0.17578,0.1758 -0.17578,0.3086 0,0.1289 0.0898,0.2188 0.22265,0.3047 0.66407,0.2656 1.19141,0.707 1.54688,1.2344 0.48437,0.7031 0.75,1.625 0.75,2.6836 0,0.8789 -0.17578,1.6679 -0.53125,2.375 -0.35156,0.7031 -0.83985,1.2734 -1.41406,1.6679 -0.35157,0.2657 -0.92579,0.4415 -1.67969,0.5743 -1.01563,0.1328 -1.63281,0.2187 -1.98828,0.2187 h -6.76563 c -0.48437,0 -0.83984,-0.3945 -0.83984,-0.8359 v -15.3047 c 0,-0.4414 0.35547,-0.8359 0.83984,-0.8359 z m -26.39062,0 h 2.78515 c 0.44141,0 0.79688,0.3945 0.79688,0.8359 v 8.3984 c 0,1.9375 -0.13281,3.3867 -0.39844,4.3985 -0.30859,1.0117 -0.88672,1.8945 -1.76953,2.5507 -0.88281,0.7071 -1.98828,1.0586 -3.35938,1.0586 -1.41406,0 -2.5625,-0.2226 -3.35937,-0.6601 -0.75391,-0.4844 -1.37109,-1.1445 -1.8125,-2.0664 -0.39844,-0.836 -0.66406,-1.8477 -0.75391,-3.0821 0,-0.2187 0.0469,-0.4375 0.22266,-0.6132 0.17578,-0.1758 0.35547,-0.2657 0.62109,-0.2657 h 2.5625 c 0.44141,0 0.79688,0.3516 0.79688,0.75 0.043,0.3946 0.0859,0.7032 0.17578,0.9219 0.0898,0.3516 0.26562,0.6172 0.53125,0.8789 0.13281,0.1328 0.39844,0.1758 0.70703,0.1758 0.48438,0 0.83984,-0.1758 1.05859,-0.6133 0.26563,-0.4414 0.35547,-1.1875 0.35547,-2.1992 v -9.6328 c 0,-0.4414 0.39844,-0.8359 0.83985,-0.8359 z m 7.16015,8.4882 c 0,-2.7265 0.66407,-4.8828 1.94532,-6.4218 1.32812,-1.5821 3.14062,-2.3321 5.4375,-2.3321 2.39062,0 4.20312,0.75 5.48437,2.2891 1.32422,1.4961 1.94531,3.6055 1.94531,6.332 0,1.9805 -0.26562,3.6094 -0.83984,4.8828 -0.57422,1.2774 -1.37109,2.2422 -2.43359,2.9453 -1.0586,0.7071 -2.38672,1.0586 -3.97657,1.0586 -1.59375,0 -2.91797,-0.3086 -3.98047,-0.8828 -1.0625,-0.6133 -1.94531,-1.582 -2.5625,-2.9023 -0.66406,-1.3164 -1.01953,-2.9883 -1.01953,-4.9688 z m 4.42188,0.043 c 0,1.7148 0.26562,2.9492 0.79687,3.6523 0.53125,0.7461 1.28125,1.1446 2.21094,1.1446 0.92578,0 1.67969,-0.3555 2.21094,-1.1016 0.52734,-0.7461 0.75,-2.0234 0.75,-3.957 0,-1.586 -0.26563,-2.7266 -0.79688,-3.4766 -0.53125,-0.7461 -1.28125,-1.0976 -2.21093,-1.0976 -0.88282,0 -1.58985,0.3515 -2.16407,1.0976 -0.53125,0.75 -0.79687,1.9805 -0.79687,3.7383 z m 18.74609,4.7969 h 1.89844 c 0.79687,0 1.32812,-0.1758 1.63672,-0.4844 0.30859,-0.3086 0.4414,-0.75 0.4414,-1.2773 0,-0.5274 -0.13281,-0.9219 -0.4414,-1.2305 -0.3086,-0.3086 -0.83985,-0.4414 -1.63672,-0.4414 h -1.89844 c -0.17969,0 -0.35547,0.1328 -0.35547,0.3086 v 2.7695 c 0,0.2227 0.17578,0.3555 0.35547,0.3555 z m 0,-6.6446 h 1.58985 c 0.70703,0 1.19531,-0.1757 1.46093,-0.4375 0.26172,-0.2656 0.39453,-0.7031 0.39453,-1.2304 0,-0.4844 -0.13281,-0.8828 -0.39453,-1.1446 -0.3125,-0.2656 -0.7539,-0.4414 -1.41797,-0.4414 h -1.63281 c -0.17969,0 -0.35547,0.1758 -0.35547,0.3516 v 2.5508 c 0,0.1758 0.17578,0.3515 0.35547,0.3515 z m 0,0"
     fill-opacity="1"
     fill-rule="evenodd"
     id="path2865" />
  <path
     fill="#0070b7"
     d="m 122.75781,88.753952 c -0.17578,-0.047 -0.35156,-0.1329 -0.44141,-0.2227 -0.13281,-0.086 -0.22265,-0.2187 -0.30859,-0.4375 -0.0469,-0.2656 -0.17969,-0.6172 -0.22266,-0.9687 -0.0898,-0.3086 -0.13281,-0.5704 -0.13281,-0.836 -0.043,-0.2617 -0.043,-0.4844 0.043,-0.6133 0.0469,-0.1797 0.22266,-0.3086 0.3125,-0.3554 0.13281,-0.043 0.17578,0 0.21875,-0.043 0.0469,0 0,-0.043 0,-0.043 l -0.13281,-1.8906 c -0.0859,-0.8359 0.0898,-2.1133 0.70703,-2.6836 0.13281,-0.1328 0.66406,-0.2187 0.75391,-0.1328 -0.0899,-0.1758 -0.13282,-0.4375 0.043,-0.7031 0.22266,-0.2617 0.66407,-0.793 1.0625,-0.9688 0.70704,-0.3047 1.45704,-0.5273 2.21094,-0.4375 0.83985,0.043 1.63281,0.3946 2.33985,0.8789 0.57812,0.3516 1.0625,0.8789 1.37109,1.4961 0.30859,0.6133 0.39844,1.3203 0.48828,2.0664 0.043,0.7461 0,1.6719 -0.0898,2.418 0.0898,0 0.13281,0.043 0.22265,0.043 0.17578,0.09 0.3086,0.1757 0.35157,0.3984 0.0898,0.1758 0.0898,0.4844 0.0469,0.7461 0,0.3086 -0.0469,0.5742 -0.13281,0.8789 -0.0898,0.2656 -0.17969,0.5742 -0.26563,0.793 -0.0898,0.1758 -0.13281,0.3086 -0.26562,0.3945 -0.13281,0.09 -0.26563,0.1758 -0.44141,0.2227 -0.0469,0 -0.0898,0.043 -0.13281,0.043 l -0.0469,0.8789 c -0.043,0.4844 -0.21875,0.9258 -0.57421,1.3203 v 1.5391 c 0,0.2656 -0.13282,0.5274 -0.35157,0.7461 l -2.25781,1.7148 0.79688,0.4844 c 0.17578,0.09 0.0898,0.3086 0,0.4844 l -0.3086,0.75 c -0.0898,0.1758 -0.17578,0.3516 -0.13281,0.5273 l 0.0898,0.1758 0.52735,1.8906 0.22265,6.640698 1.67969,-7.785198 c 0.44141,-0.8359 0.57422,-1.3633 0.62109,-2.2851 0.043,-0.8829 -0.0469,-2.1133 -0.13281,-3.3868 0,-0.047 0.043,-0.09 0.0859,-0.09 0.0469,-0.043 0.13281,-0.043 0.17969,0 0.35156,0.3516 0.79297,0.6602 1.67968,1.0117 1.01563,0.3945 2.69532,0.836 3.75782,1.1016 1.05859,0.2617 1.54687,0.3515 1.85547,0.6133 0.35156,0.2226 0.53125,0.6171 0.83984,1.7148 0.21875,0.707 0.44141,6.511698 0.70703,7.566398 0.13281,0.5274 0.043,1.0117 -0.22266,1.4492 -0.30859,0.3985 -0.75,0.6602 -1.28125,0.75 -7.60156,0.9688 -15.20703,0.9219 -22.85546,0 -0.53125,-0.09 -0.92969,-0.3515 -1.23829,-0.7929 -0.30859,-0.3946 -0.39843,-0.9219 -0.26562,-1.4063 0.26562,-1.0547 0.53125,-6.859398 0.70703,-7.566398 0.3125,-1.0977 0.53125,-1.4922 0.83984,-1.7148 0.35547,-0.2618 0.83985,-0.3516 1.90235,-0.6133 1.0625,-0.2656 2.69531,-0.7071 3.75781,-1.1016 0.83984,-0.3515 1.28125,-0.6601 1.67969,-1.0117 0.043,-0.043 0.0898,-0.043 0.13281,0 0.043,0 0.0898,0.043 0.0898,0.1328 -0.0898,1.2305 -0.13281,2.4609 -0.13281,3.3438 0.043,0.9218 0.21875,1.4492 0.66406,2.2851 l 1.67969,7.785198 0.21875,-6.640698 0.48828,-1.8906 0.043,-0.09 c 0.0899,-0.1758 0,-0.3516 -0.0898,-0.5274 l -0.39844,-0.8359 c -0.0859,-0.1758 -0.17578,-0.3945 0,-0.4844 l 0.88672,-0.5273 -2.21094,-1.6719 c -0.26562,-0.2187 -0.39844,-0.4805 -0.39844,-0.7461 v -1.3203 l -0.17578,-0.1758 c -0.35547,-0.3945 -0.57422,-0.8359 -0.57422,-1.3633 z m 0,0"
     fill-opacity="1"
     fill-rule="evenodd"
     id="path2866" />
  <path
     fill="#0070b7"
     d="m 103.92578,137.57035 h 35.1875 c 0.44531,0 0.79687,0.3515 0.79687,0.75 v 3.5156 c 0,0.4414 -0.35156,0.793 -0.79687,0.793 h -35.1875 c -0.39844,0 -0.75391,-0.3516 -0.75391,-0.793 v -3.5156 c 0,-0.3985 0.35547,-0.75 0.75391,-0.75 z m 0,0"
     fill-opacity="1"
     fill-rule="evenodd"
     id="path2867" />
  <path
     fill="#0070b7"
     d="m 103.92578,147.29295 h 23.78516 c 0.4414,0 0.79296,0.3516 0.79296,0.7891 v 3.5195 c 0,0.4414 -0.35156,0.7461 -0.79296,0.7461 h -23.78516 c -0.39844,0 -0.75391,-0.3047 -0.75391,-0.7461 v -3.5195 c 0,-0.4375 0.35547,-0.7891 0.75391,-0.7891 z m 0,0"
     fill-opacity="1"
     fill-rule="evenodd"
     id="path2868" />
</svg>
