<?xml version="1.0" encoding="UTF-8" standalone="no"?>
<svg
   width="310.03125"
   zoomAndPan="magnify"
   viewBox="0 0 232.52344 277.85165"
   height="370.46887"
   preserveAspectRatio="xMidYMid"
   version="1.0"
   id="svg3945"
   sodipodi:docname="Sheba Enterprise.svg"
   xmlns:inkscape="http://www.inkscape.org/namespaces/inkscape"
   xmlns:sodipodi="http://sodipodi.sourceforge.net/DTD/sodipodi-0.dtd"
   xmlns="http://www.w3.org/2000/svg"
   xmlns:svg="http://www.w3.org/2000/svg">
  <sodipodi:namedview
     id="namedview3945"
     pagecolor="#ffffff"
     bordercolor="#000000"
     borderopacity="0.25"
     inkscape:showpageshadow="2"
     inkscape:pageopacity="0.0"
     inkscape:pagecheckerboard="0"
     inkscape:deskcolor="#d1d1d1"
     inkscape:export-bgcolor="#00000000" />
  <defs
     id="defs2384">
    <clipPath
       id="56cd9cca8b">
      <path
         d="M 58.175781,1612.6523 H 290.69922 v 185.4688 H 58.175781 Z m 0,0"
         clip-rule="nonzero"
         id="path538" />
    </clipPath>
    <clipPath
       id="16f5e3e736">
      <path
         d="M 76.917969,1612.6523 H 271.95703 c 4.97266,0 9.73828,1.9766 13.25391,5.4922 3.51562,3.5118 5.48828,8.2813 5.48828,13.25 v 147.9844 c 0,4.9688 -1.97266,9.7383 -5.48828,13.25 -3.51563,3.5156 -8.28125,5.4922 -13.25391,5.4922 H 76.917969 c -4.96875,0 -9.738281,-1.9766 -13.253907,-5.4922 -3.511718,-3.5117 -5.488281,-8.2812 -5.488281,-13.25 v -147.9844 c 0,-4.9687 1.976563,-9.7382 5.488281,-13.25 3.515626,-3.5156 8.285157,-5.4922 13.253907,-5.4922 z m 0,0"
         clip-rule="nonzero"
         id="path539" />
    </clipPath>
    <clipPath
       id="28b7e64360">
      <path
         d="M 58.175781,1520.2695 H 290.69922 v 232.5274 H 58.175781 Z m 0,0"
         clip-rule="nonzero"
         id="path540" />
    </clipPath>
    <clipPath
       id="f39cc5fdcd">
      <path
         d="M 76.917969,1520.2695 H 271.95703 c 4.97266,0 9.73828,1.9766 13.25391,5.4922 3.51562,3.5156 5.48828,8.2813 5.48828,13.25 v 195.043 c 0,4.9687 -1.97266,9.7383 -5.48828,13.25 -3.51563,3.5156 -8.28125,5.4922 -13.25391,5.4922 H 76.917969 c -4.96875,0 -9.738281,-1.9766 -13.253907,-5.4922 -3.511718,-3.5117 -5.488281,-8.2813 -5.488281,-13.25 v -195.043 c 0,-4.9687 1.976563,-9.7344 5.488281,-13.25 3.515626,-3.5156 8.285157,-5.4922 13.253907,-5.4922 z m 0,0"
         clip-rule="nonzero"
         id="path541" />
    </clipPath>
    <linearGradient
       x1="3.3841999e-07"
       gradientTransform="matrix(0.908298,0,0,0.908298,58.176562,1520.2711)"
       y1="3.3841999e-07"
       x2="255.99997"
       gradientUnits="userSpaceOnUse"
       y2="255.99997"
       id="7f246f55e3">
      <stop
         stop-opacity="1"
         stop-color="rgb(81.599426%, 81.599426%, 81.599426%)"
         offset="0"
         id="stop541" />
      <stop
         stop-opacity="1"
         stop-color="rgb(81.742859%, 81.742859%, 81.742859%)"
         offset="0.015625"
         id="stop542" />
      <stop
         stop-opacity="1"
         stop-color="rgb(82.029724%, 82.029724%, 82.029724%)"
         offset="0.03125"
         id="stop543" />
      <stop
         stop-opacity="1"
         stop-color="rgb(82.318115%, 82.318115%, 82.318115%)"
         offset="0.046875"
         id="stop544" />
      <stop
         stop-opacity="1"
         stop-color="rgb(82.60498%, 82.60498%, 82.60498%)"
         offset="0.0625"
         id="stop545" />
      <stop
         stop-opacity="1"
         stop-color="rgb(82.893372%, 82.893372%, 82.893372%)"
         offset="0.078125"
         id="stop546" />
      <stop
         stop-opacity="1"
         stop-color="rgb(83.180237%, 83.180237%, 83.180237%)"
         offset="0.09375"
         id="stop547" />
      <stop
         stop-opacity="1"
         stop-color="rgb(83.467102%, 83.467102%, 83.467102%)"
         offset="0.109375"
         id="stop548" />
      <stop
         stop-opacity="1"
         stop-color="rgb(83.755493%, 83.755493%, 83.755493%)"
         offset="0.125"
         id="stop549" />
      <stop
         stop-opacity="1"
         stop-color="rgb(84.042358%, 84.042358%, 84.042358%)"
         offset="0.140625"
         id="stop550" />
      <stop
         stop-opacity="1"
         stop-color="rgb(84.33075%, 84.33075%, 84.33075%)"
         offset="0.15625"
         id="stop551" />
      <stop
         stop-opacity="1"
         stop-color="rgb(84.617615%, 84.617615%, 84.617615%)"
         offset="0.171875"
         id="stop552" />
      <stop
         stop-opacity="1"
         stop-color="rgb(84.90448%, 84.90448%, 84.90448%)"
         offset="0.1875"
         id="stop553" />
      <stop
         stop-opacity="1"
         stop-color="rgb(85.192871%, 85.192871%, 85.192871%)"
         offset="0.203125"
         id="stop554" />
      <stop
         stop-opacity="1"
         stop-color="rgb(85.479736%, 85.479736%, 85.479736%)"
         offset="0.21875"
         id="stop555" />
      <stop
         stop-opacity="1"
         stop-color="rgb(85.768127%, 85.768127%, 85.768127%)"
         offset="0.234375"
         id="stop556" />
      <stop
         stop-opacity="1"
         stop-color="rgb(86.054993%, 86.054993%, 86.054993%)"
         offset="0.25"
         id="stop557" />
      <stop
         stop-opacity="1"
         stop-color="rgb(86.343384%, 86.343384%, 86.343384%)"
         offset="0.265625"
         id="stop558" />
      <stop
         stop-opacity="1"
         stop-color="rgb(86.630249%, 86.630249%, 86.630249%)"
         offset="0.28125"
         id="stop559" />
      <stop
         stop-opacity="1"
         stop-color="rgb(86.917114%, 86.917114%, 86.917114%)"
         offset="0.296875"
         id="stop560" />
      <stop
         stop-opacity="1"
         stop-color="rgb(87.205505%, 87.205505%, 87.205505%)"
         offset="0.3125"
         id="stop561" />
      <stop
         stop-opacity="1"
         stop-color="rgb(87.492371%, 87.492371%, 87.492371%)"
         offset="0.328125"
         id="stop562" />
      <stop
         stop-opacity="1"
         stop-color="rgb(87.780762%, 87.780762%, 87.780762%)"
         offset="0.34375"
         id="stop563" />
      <stop
         stop-opacity="1"
         stop-color="rgb(88.067627%, 88.067627%, 88.067627%)"
         offset="0.359375"
         id="stop564" />
      <stop
         stop-opacity="1"
         stop-color="rgb(88.354492%, 88.354492%, 88.354492%)"
         offset="0.375"
         id="stop565" />
      <stop
         stop-opacity="1"
         stop-color="rgb(88.642883%, 88.642883%, 88.642883%)"
         offset="0.390625"
         id="stop566" />
      <stop
         stop-opacity="1"
         stop-color="rgb(88.929749%, 88.929749%, 88.929749%)"
         offset="0.40625"
         id="stop567" />
      <stop
         stop-opacity="1"
         stop-color="rgb(89.21814%, 89.21814%, 89.21814%)"
         offset="0.421875"
         id="stop568" />
      <stop
         stop-opacity="1"
         stop-color="rgb(89.505005%, 89.505005%, 89.505005%)"
         offset="0.4375"
         id="stop569" />
      <stop
         stop-opacity="1"
         stop-color="rgb(89.793396%, 89.793396%, 89.793396%)"
         offset="0.453125"
         id="stop570" />
      <stop
         stop-opacity="1"
         stop-color="rgb(90.080261%, 90.080261%, 90.080261%)"
         offset="0.46875"
         id="stop571" />
      <stop
         stop-opacity="1"
         stop-color="rgb(90.367126%, 90.367126%, 90.367126%)"
         offset="0.484375"
         id="stop572" />
      <stop
         stop-opacity="1"
         stop-color="rgb(90.655518%, 90.655518%, 90.655518%)"
         offset="0.5"
         id="stop573" />
      <stop
         stop-opacity="1"
         stop-color="rgb(90.79895%, 90.79895%, 90.79895%)"
         offset="0.5"
         id="stop574" />
      <stop
         stop-opacity="1"
         stop-color="rgb(90.942383%, 90.942383%, 90.942383%)"
         offset="0.5"
         id="stop575" />
      <stop
         stop-opacity="1"
         stop-color="rgb(91.087341%, 91.087341%, 91.087341%)"
         offset="0.515625"
         id="stop576" />
      <stop
         stop-opacity="1"
         stop-color="rgb(91.230774%, 91.230774%, 91.230774%)"
         offset="0.53125"
         id="stop577" />
      <stop
         stop-opacity="1"
         stop-color="rgb(91.517639%, 91.517639%, 91.517639%)"
         offset="0.546875"
         id="stop578" />
      <stop
         stop-opacity="1"
         stop-color="rgb(91.804504%, 91.804504%, 91.804504%)"
         offset="0.5625"
         id="stop579" />
      <stop
         stop-opacity="1"
         stop-color="rgb(92.092896%, 92.092896%, 92.092896%)"
         offset="0.578125"
         id="stop580" />
      <stop
         stop-opacity="1"
         stop-color="rgb(92.379761%, 92.379761%, 92.379761%)"
         offset="0.59375"
         id="stop581" />
      <stop
         stop-opacity="1"
         stop-color="rgb(92.668152%, 92.668152%, 92.668152%)"
         offset="0.609375"
         id="stop582" />
      <stop
         stop-opacity="1"
         stop-color="rgb(92.955017%, 92.955017%, 92.955017%)"
         offset="0.625"
         id="stop583" />
      <stop
         stop-opacity="1"
         stop-color="rgb(93.243408%, 93.243408%, 93.243408%)"
         offset="0.640625"
         id="stop584" />
      <stop
         stop-opacity="1"
         stop-color="rgb(93.530273%, 93.530273%, 93.530273%)"
         offset="0.65625"
         id="stop585" />
      <stop
         stop-opacity="1"
         stop-color="rgb(93.817139%, 93.817139%, 93.817139%)"
         offset="0.671875"
         id="stop586" />
      <stop
         stop-opacity="1"
         stop-color="rgb(94.10553%, 94.10553%, 94.10553%)"
         offset="0.6875"
         id="stop587" />
      <stop
         stop-opacity="1"
         stop-color="rgb(94.392395%, 94.392395%, 94.392395%)"
         offset="0.703125"
         id="stop588" />
      <stop
         stop-opacity="1"
         stop-color="rgb(94.680786%, 94.680786%, 94.680786%)"
         offset="0.71875"
         id="stop589" />
      <stop
         stop-opacity="1"
         stop-color="rgb(94.967651%, 94.967651%, 94.967651%)"
         offset="0.734375"
         id="stop590" />
      <stop
         stop-opacity="1"
         stop-color="rgb(95.254517%, 95.254517%, 95.254517%)"
         offset="0.75"
         id="stop591" />
      <stop
         stop-opacity="1"
         stop-color="rgb(95.542908%, 95.542908%, 95.542908%)"
         offset="0.765625"
         id="stop592" />
      <stop
         stop-opacity="1"
         stop-color="rgb(95.829773%, 95.829773%, 95.829773%)"
         offset="0.78125"
         id="stop593" />
      <stop
         stop-opacity="1"
         stop-color="rgb(96.118164%, 96.118164%, 96.118164%)"
         offset="0.796875"
         id="stop594" />
      <stop
         stop-opacity="1"
         stop-color="rgb(96.405029%, 96.405029%, 96.405029%)"
         offset="0.8125"
         id="stop595" />
      <stop
         stop-opacity="1"
         stop-color="rgb(96.69342%, 96.69342%, 96.69342%)"
         offset="0.828125"
         id="stop596" />
      <stop
         stop-opacity="1"
         stop-color="rgb(96.980286%, 96.980286%, 96.980286%)"
         offset="0.84375"
         id="stop597" />
      <stop
         stop-opacity="1"
         stop-color="rgb(97.267151%, 97.267151%, 97.267151%)"
         offset="0.859375"
         id="stop598" />
      <stop
         stop-opacity="1"
         stop-color="rgb(97.555542%, 97.555542%, 97.555542%)"
         offset="0.875"
         id="stop599" />
      <stop
         stop-opacity="1"
         stop-color="rgb(97.842407%, 97.842407%, 97.842407%)"
         offset="0.890625"
         id="stop600" />
      <stop
         stop-opacity="1"
         stop-color="rgb(98.130798%, 98.130798%, 98.130798%)"
         offset="0.90625"
         id="stop601" />
      <stop
         stop-opacity="1"
         stop-color="rgb(98.417664%, 98.417664%, 98.417664%)"
         offset="0.921875"
         id="stop602" />
      <stop
         stop-opacity="1"
         stop-color="rgb(98.704529%, 98.704529%, 98.704529%)"
         offset="0.9375"
         id="stop603" />
      <stop
         stop-opacity="1"
         stop-color="rgb(98.99292%, 98.99292%, 98.99292%)"
         offset="0.953125"
         id="stop604" />
      <stop
         stop-opacity="1"
         stop-color="rgb(99.279785%, 99.279785%, 99.279785%)"
         offset="0.96875"
         id="stop605" />
      <stop
         stop-opacity="1"
         stop-color="rgb(99.568176%, 99.568176%, 99.568176%)"
         offset="0.984375"
         id="stop606" />
      <stop
         stop-opacity="1"
         stop-color="rgb(99.855042%, 99.855042%, 99.855042%)"
         offset="1"
         id="stop607" />
    </linearGradient>
    <clipPath
       id="afeabd42e3">
      <path
         d="M 58.175781,1520.2695 H 290.57812 v 232.4024 H 58.175781 Z m 0,0"
         clip-rule="nonzero"
         id="path607" />
    </clipPath>
    <clipPath
       id="2cc25d9fbd">
      <path
         d="M 76.910156,1520.2695 H 271.84766 c 4.96875,0 9.73046,1.9766 13.24609,5.4883 3.51172,3.5117 5.48437,8.2774 5.48437,13.2461 v 194.9375 c 0,4.9688 -1.97265,9.7305 -5.48437,13.2461 -3.51563,3.5117 -8.27734,5.4844 -13.24609,5.4844 H 76.910156 c -4.96875,0 -9.734375,-1.9727 -13.246094,-5.4844 -3.515624,-3.5156 -5.488281,-8.2773 -5.488281,-13.2461 v -194.9375 c 0,-4.9687 1.972657,-9.7344 5.488281,-13.2461 3.511719,-3.5117 8.277344,-5.4883 13.246094,-5.4883 z m 0,0"
         clip-rule="nonzero"
         id="path608" />
    </clipPath>
    <clipPath
       id="a3c053fd1c">
      <path
         d="M 132.55078,1582.1523 H 218 v 108.7071 h -85.44922 z m 0,0"
         clip-rule="nonzero"
         id="path609" />
    </clipPath>
    <clipPath
       id="7a27a576ba">
      <path
         d="m 204,1593 h 36.50391 v 69 H 204 Z m 0,0"
         clip-rule="nonzero"
         id="path610" />
    </clipPath>
  </defs>
  <g
     clip-path="url(#56cd9cca8b)"
     id="g2721"
     transform="translate(-58.175781,-1520.2695)">
    <g
       clip-path="url(#16f5e3e736)"
       id="g2720">
      <path
         fill="#ffffff"
         d="M 58.175781,1612.6523 H 290.69922 v 185.4688 H 58.175781 Z m 0,0"
         fill-opacity="1"
         fill-rule="nonzero"
         id="path2719" />
    </g>
  </g>
  <g
     clip-path="url(#28b7e64360)"
     id="g2723"
     transform="translate(-58.175781,-1520.2695)">
    <g
       clip-path="url(#f39cc5fdcd)"
       id="g2722">
      <path
         fill="url(#7f246f55e3)"
         d="m 58.175781,1520.2695 v 232.5274 H 290.69922 v -232.5274 z m 0,0"
         fill-rule="nonzero"
         id="path2721"
         style="fill:url(#7f246f55e3)" />
    </g>
  </g>
  <g
     clip-path="url(#afeabd42e3)"
     id="g2725"
     transform="translate(-58.175781,-1520.2695)">
    <g
       clip-path="url(#2cc25d9fbd)"
       id="g2724">
      <path
         stroke-linecap="butt"
         transform="matrix(0.749307,0,0,0.749307,58.17656,1520.2711)"
         fill="none"
         stroke-linejoin="miter"
         d="M 25.001238,-0.0021373 H 285.15838 c 6.63113,0 12.98597,2.6378553 17.6778,7.3244793 4.68663,4.686623 7.31927,11.046669 7.31927,17.677799 V 285.15729 c 0,6.63113 -2.63264,12.98596 -7.31927,17.6778 -4.69183,4.68662 -11.04667,7.31926 -17.6778,7.31926 H 25.001238 c -6.631129,0 -12.991175,-2.63264 -17.677799,-7.31926 -4.691837,-4.69184 -7.32447868,-11.04667 -7.32447868,-17.6778 V 25.000141 c 0,-6.63113 2.63264168,-12.991176 7.32447868,-17.677799 4.686624,-4.686624 11.04667,-7.3244793 17.677799,-7.3244793 z m 0,0"
         stroke="#ffffff"
         stroke-width="30"
         stroke-opacity="1"
         stroke-miterlimit="4"
         id="path2723" />
    </g>
  </g>
  <path
     fill="#22a1e2"
     d="m 88.175779,157.00777 h 3.36719 v -17.6679 h -3.36719 z m 4.58203,2.4258 h -5.79687 c -0.67188,0 -1.21485,-0.5429 -1.21485,-1.2148 v -20.0938 c 0,-0.6718 0.54297,-1.2109 1.21485,-1.2109 h 5.79687 c 0.67188,0 1.21485,0.5391 1.21485,1.2109 v 20.0938 c 0,0.6719 -0.54297,1.2148 -1.21485,1.2148"
     fill-opacity="1"
     fill-rule="nonzero"
     id="path2725" />
  <path
     fill="#22a1e2"
     d="m 97.796879,157.00777 h 3.371091 v -12.3476 h -3.371091 z m 4.585931,2.4258 h -5.800781 c -0.66797,0 -1.21094,-0.5429 -1.21094,-1.2148 v -14.7735 c 0,-0.6679 0.54297,-1.2109 1.21094,-1.2109 h 5.800781 c 0.66797,0 1.21485,0.543 1.21485,1.2109 v 14.7735 c 0,0.6719 -0.54688,1.2148 -1.21485,1.2148"
     fill-opacity="1"
     fill-rule="nonzero"
     id="path2726" />
  <path
     fill="#22a1e2"
     d="m 107.42188,157.00777 h 3.37109 v -7.3125 h -3.37109 z m 4.58203,2.4258 h -5.79688 c -0.66797,0 -1.21484,-0.5429 -1.21484,-1.2148 v -9.7383 c 0,-0.668 0.54687,-1.2109 1.21484,-1.2109 h 5.79688 c 0.67187,0 1.21484,0.5429 1.21484,1.2109 v 9.7383 c 0,0.6719 -0.54297,1.2148 -1.21484,1.2148"
     fill-opacity="1"
     fill-rule="nonzero"
     id="path2727" />
  <path
     fill="#22a1e2"
     d="m 98.867189,99.878871 v -8.3281 h 8.203121 c -0.48047,4.3281 -3.89453,7.7774 -8.203121,8.3281 z m -10.62891,-8.3281 h 8.20313 v 8.3281 c -4.3086,-0.5507 -7.71875,-4 -8.20313,-8.3281 z m 8.20313,-10.4492 v 8.0234 h -8.15625 c 0.60937,-4.1836 3.94922,-7.4843 8.15625,-8.0234 z m 10.582031,8.0234 h -8.156251 v -8.0234 c 4.207031,0.5391 7.546871,3.8398 8.156251,8.0234 z m -9.363281,-10.5351 c 0,0 -0.004,0 -0.008,0 0,0 -0.004,0 -0.004,0 -6.5625,0 -11.90235,5.3398 -11.90235,11.8984 0,6.5664 5.34375,11.906299 11.90625,11.906299 6.566411,0 11.910161,-5.339899 11.910161,-11.906299 0,-6.5586 -5.33984,-11.8945 -11.902341,-11.8984"
     fill-opacity="1"
     fill-rule="nonzero"
     id="path2728" />
  <path
     fill="#22a1e2"
     d="m 86.960939,131.47267 c -0.22266,0 -0.44922,-0.059 -0.64844,-0.1875 -0.56641,-0.3594 -0.73437,-1.1055 -0.37891,-1.6719 l 5.21875,-8.25 c 0.22266,-0.3555 0.61329,-0.5664 1.02735,-0.5664 h 4.83203 l 3.792971,-7.5781 c 0.20312,-0.4102 0.625,-0.6719 1.08203,-0.6719 h 5.94531 c 0.67188,0 1.21485,0.543 1.21485,1.2149 0,0.6679 -0.54297,1.2109 -1.21485,1.2109 h -5.19531 l -3.789061,7.5781 c -0.20703,0.4141 -0.62891,0.6719 -1.08594,0.6719 h -4.91406 l -4.85938,7.6836 c -0.23437,0.3672 -0.6289,0.5664 -1.02734,0.5664"
     fill-opacity="1"
     fill-rule="nonzero"
     id="path2729" />
  <path
     fill="#22a1e2"
     d="m 104.35547,119.27737 c -0.34766,0 -0.69141,-0.1485 -0.93359,-0.4336 -0.42969,-0.5117 -0.36329,-1.2774 0.15234,-1.707 l 4.19922,-3.5235 -4.30078,-3.3984 c -0.52735,-0.418 -0.61719,-1.1797 -0.19922,-1.7031 0.41406,-0.5274 1.17578,-0.6172 1.70312,-0.1993 l 5.46875,4.3203 c 0.28907,0.2227 0.45703,0.5665 0.46094,0.9336 0.008,0.3633 -0.15234,0.711 -0.43359,0.9454 l -5.33985,4.4804 c -0.22656,0.1914 -0.5039,0.2852 -0.77734,0.2852"
     fill-opacity="1"
     fill-rule="nonzero"
     id="path2730" />
  <path
     fill="#1c3d86"
     d="m 145.51563,84.605471 h -25.23829 c -0.67187,0 -1.21484,-0.543 -1.21484,-1.2109 0,-0.6719 0.54297,-1.2149 1.21484,-1.2149 h 25.23829 c 0.67187,0 1.21484,0.543 1.21484,1.2149 0,0.6679 -0.54297,1.2109 -1.21484,1.2109"
     fill-opacity="1"
     fill-rule="nonzero"
     id="path2731" />
  <path
     fill="#1c3d86"
     d="m 145.51563,91.703171 h -25.23829 c -0.67187,0 -1.21484,-0.543 -1.21484,-1.2149 0,-0.668 0.54297,-1.2109 1.21484,-1.2109 h 25.23829 c 0.67187,0 1.21484,0.5429 1.21484,1.2109 0,0.6719 -0.54297,1.2149 -1.21484,1.2149"
     fill-opacity="1"
     fill-rule="nonzero"
     id="path2732" />
  <path
     fill="#1c3d86"
     d="m 145.51563,98.800771 h -25.23829 c -0.67187,0 -1.21484,-0.543 -1.21484,-1.2148 0,-0.668 0.54297,-1.211 1.21484,-1.211 h 25.23829 c 0.67187,0 1.21484,0.543 1.21484,1.211 0,0.6718 -0.54297,1.2148 -1.21484,1.2148"
     fill-opacity="1"
     fill-rule="nonzero"
     id="path2733" />
  <path
     fill="#1c3d86"
     d="m 145.51563,113.87497 h -25.23829 c -0.67187,0 -1.21484,-0.539 -1.21484,-1.2109 0,-0.668 0.54297,-1.2148 1.21484,-1.2148 h 25.23829 c 0.67187,0 1.21484,0.5468 1.21484,1.2148 0,0.6719 -0.54297,1.2109 -1.21484,1.2109"
     fill-opacity="1"
     fill-rule="nonzero"
     id="path2734" />
  <path
     fill="#1c3d86"
     d="m 145.51563,120.97267 h -25.23829 c -0.67187,0 -1.21484,-0.543 -1.21484,-1.2109 0,-0.6719 0.54297,-1.2149 1.21484,-1.2149 h 25.23829 c 0.67187,0 1.21484,0.543 1.21484,1.2149 0,0.6679 -0.54297,1.2109 -1.21484,1.2109"
     fill-opacity="1"
     fill-rule="nonzero"
     id="path2735" />
  <path
     fill="#1c3d86"
     d="m 145.51563,128.07027 h -25.23829 c -0.67187,0 -1.21484,-0.5429 -1.21484,-1.2148 0,-0.668 0.54297,-1.2109 1.21484,-1.2109 h 25.23829 c 0.67187,0 1.21484,0.5429 1.21484,1.2109 0,0.6719 -0.54297,1.2148 -1.21484,1.2148"
     fill-opacity="1"
     fill-rule="nonzero"
     id="path2736" />
  <path
     fill="#1c3d86"
     d="m 145.51563,145.23827 h -25.23829 c -0.67187,0 -1.21484,-0.543 -1.21484,-1.2109 0,-0.6719 0.54297,-1.2149 1.21484,-1.2149 h 25.23829 c 0.67187,0 1.21484,0.543 1.21484,1.2149 0,0.6679 -0.54297,1.2109 -1.21484,1.2109"
     fill-opacity="1"
     fill-rule="nonzero"
     id="path2737" />
  <path
     fill="#1c3d86"
     d="m 145.51563,152.33597 h -25.23829 c -0.67187,0 -1.21484,-0.543 -1.21484,-1.211 0,-0.6718 0.54297,-1.2148 1.21484,-1.2148 h 25.23829 c 0.67187,0 1.21484,0.543 1.21484,1.2148 0,0.668 -0.54297,1.211 -1.21484,1.211"
     fill-opacity="1"
     fill-rule="nonzero"
     id="path2738" />
  <path
     fill="#1c3d86"
     d="m 145.51563,159.43357 h -25.23829 c -0.67187,0 -1.21484,-0.5429 -1.21484,-1.2148 0,-0.668 0.54297,-1.211 1.21484,-1.211 h 25.23829 c 0.67187,0 1.21484,0.543 1.21484,1.211 0,0.6719 -0.54297,1.2148 -1.21484,1.2148"
     fill-opacity="1"
     fill-rule="nonzero"
     id="path2739" />
  <g
     clip-path="url(#a3c053fd1c)"
     id="g2740"
     transform="translate(-58.175781,-1520.2695)">
    <path
       fill="#1c3d86"
       d="m 213.3125,1690.8594 h -76.80078 c -2.1836,0 -3.96485,-1.7813 -3.96485,-3.9649 V 1586.168 c 0,-2.1875 1.78125,-3.9649 3.96485,-3.9649 h 62.65625 c 1.83594,0 4.26172,1.0391 5.53125,2.3594 l 10.33984,10.7852 c 1.25781,1.3125 2.24219,3.7617 2.24219,5.5781 v 27.7148 c 0,0.6719 -0.54297,1.2149 -1.21484,1.2149 -0.67188,0 -1.21094,-0.543 -1.21094,-1.2149 v -27.7148 c 0,-1.207 -0.73438,-3.0274 -1.56641,-3.8985 l -10.33984,-10.7851 c -0.82422,-0.8594 -2.58985,-1.6133 -3.78125,-1.6133 h -62.65625 c -0.84766,0 -1.53516,0.6914 -1.53516,1.5391 v 100.7265 c 0,0.8477 0.6875,1.5391 1.53516,1.5391 h 76.80078 c 0.85156,0 1.54297,-0.6914 1.54297,-1.5391 v -36.9023 c 0,-0.6719 0.53906,-1.2109 1.21094,-1.2109 0.67187,0 1.21484,0.539 1.21484,1.2109 v 36.9023 c 0,2.1836 -1.78125,3.9649 -3.96875,3.9649"
       fill-opacity="1"
       fill-rule="nonzero"
       id="path2740" />
  </g>
  <path
     fill="#1c3d86"
     d="m 145.57031,66.898471 v 8.6054 c 0,0.8438 0.69141,1.5352 1.53907,1.5352 h 7.98046 z m 9.56641,12.5664 h -8.02734 c -2.1875,0 -3.96485,-1.7774 -3.96485,-3.961 v -8.9179 c 0,-1.9258 1.07422,-2.6094 1.99219,-2.6094 0.67578,0 1.34375,0.3477 1.99219,1.0352 l 9.76172,10.4062 c 1.15234,1.2227 0.96484,2.2344 0.7539,2.7266 -0.21484,0.4922 -0.82422,1.3203 -2.50781,1.3203"
     fill-opacity="1"
     fill-rule="nonzero"
     id="path2741" />
  <g
     clip-path="url(#7a27a576ba)"
     id="g2742"
     transform="translate(-58.175781,-1520.2695)">
    <path
       fill="#22a1e2"
       d="m 212.60156,1653.8516 -5.58594,-2.5782 24.00782,-51.9648 5.58593,2.5742 z m -5.36719,4.2617 -0.35546,-4.1797 3.7539,1.7344 z m 27.15625,-62.2578 c 0.44922,0 0.94141,0.125 1.46485,0.3672 0.82812,0.3828 1.34765,0.8945 1.58594,1.5664 0.21875,0.6211 0.17187,1.289 0.0586,1.8359 l -2.23828,-1.0352 -3.11328,-1.4375 c 0.46875,-0.6171 1.21875,-1.2968 2.24218,-1.2968 z m 5.34766,1.1484 c -0.45703,-1.3125 -1.42187,-2.3164 -2.86719,-2.9844 -0.84375,-0.3906 -1.67968,-0.5898 -2.48047,-0.5898 -3.39843,0 -4.90234,3.3789 -5.07031,3.7773 l -25.01562,54.1485 c -0.13282,0.2929 -0.14844,0.625 -0.0391,0.9258 0.0117,0.035 0.0312,0.058 0.043,0.09 l 0.6836,8.0781 c 0.0391,0.4375 0.30859,0.8203 0.70312,1 0.16406,0.074 0.33594,0.1133 0.50781,0.1133 0.25,0 0.5,-0.078 0.71094,-0.2305 l 6.52344,-4.6953 c 0.36719,-0.074 0.69141,-0.3047 0.85937,-0.6679 l 25.01563,-54.1485 c 0.10937,-0.2226 1.21484,-2.5508 0.42578,-4.8164"
       fill-opacity="1"
       fill-rule="nonzero"
       id="path2742" />
  </g>
  <g
     fill="#1d3d87"
     fill-opacity="1"
     id="g2745"
     transform="translate(-58.175781,-1520.2695)">
    <g
       transform="translate(111.31203,1782.2345)"
       id="g2744">
      <g
         id="g2743">
        <path
           d="M 22.515625,-16.8125 H 12.84375 v 5.75 c 2.101562,-0.332031 4.65625,-1.382812 7.65625,-3.15625 0.1875,0.65625 0.304688,1.226562 0.359375,1.703125 0.707031,4.179687 -0.01563,7.449219 -2.171875,9.8125 -1.605469,1.898437 -3.859375,2.851563 -6.765625,2.875 h -0.07813 c -3.3125,0 -6.007812,-1.320313 -8.078125,-3.96875 -1.5625,-1.769531 -2.617187,-4.429687 -3.15625,-7.984375 l 3.46875,-1.5625 c 0.257813,2.585938 0.828125,4.679688 1.703125,6.28125 1.394531,2.367188 3.414062,3.546875 6.0625,3.546875 H 11.875 c 1.78125,0 3.109375,-0.519531 3.984375,-1.5625 1.007813,-0.988281 1.515625,-2.125 1.515625,-3.40625 -1.71875,0.835937 -3.835938,1.289063 -6.34375,1.359375 l -1.875,0.0625 v -9.75 H -0.421875 V -20.5 h 22.9375 z m 0,0"
           id="path2743" />
      </g>
    </g>
  </g>
  <g
     fill="#1d3d87"
     fill-opacity="1"
     id="g2748"
     transform="translate(-58.175781,-1520.2695)">
    <g
       transform="translate(133.1894,1782.2345)"
       id="g2747">
      <g
         id="g2746">
        <path
           d="m -0.53125,-20.5 h 8.328125 v 3.6875 H 5.5 V 0.140625 H 1.78125 V -16.8125 h -2.3125 z m 0,0"
           id="path2745" />
      </g>
    </g>
  </g>
  <g
     fill="#1d3d87"
     fill-opacity="1"
     id="g2751"
     transform="translate(-58.175781,-1520.2695)">
    <g
       transform="translate(140.45821,1782.2345)"
       id="g2750">
      <g
         id="g2749">
        <path
           d="m 20.46875,-16.8125 h -15.25 V -3.625 c 5.007812,0.167969 8.304688,-1.285156 9.890625,-4.359375 0.613281,-1.25 0.566406,-2.097656 -0.140625,-2.546875 -0.636719,-0.382812 -1.5,-0.46875 -2.59375,-0.25 -1.210938,0.261719 -2.234375,1.027344 -3.078125,2.296875 l -2.3125,-3.078125 c 1.488281,-1.632812 3.203125,-2.601562 5.140625,-2.90625 1.84375,-0.28125 3.453125,-0.0078 4.828125,0.8125 1.082031,0.667969 1.789063,1.601562 2.125,2.796875 C 19.460938,-9.429688 19.226562,-7.914062 18.375,-6.3125 16.175781,-2.03125 11.773438,0.109375 5.171875,0.109375 4.398438,0.109375 3.726562,0.0703125 3.15625,0 l -1.625,-0.21875 V -16.8125 H -0.671875 V -20.5 H 14.9375 c 0,-0.07031 -0.121094,-0.367188 -0.359375,-0.890625 -0.40625,-0.726563 -1.292969,-1.304687 -2.65625,-1.734375 -3.011719,-0.46875 -6.84375,0.171875 -11.5,1.921875 V -24.6875 c 4.757813,-2.144531 8.921875,-2.804688 12.484375,-1.984375 2.488281,0.710937 4.15625,1.9375 5,3.6875 0.445312,0.992187 0.695312,1.820313 0.75,2.484375 h 1.8125 z m 0,0"
           id="path2748" />
      </g>
    </g>
  </g>
  <g
     fill="#1d3d87"
     fill-opacity="1"
     id="g2754"
     transform="translate(-58.175781,-1520.2695)">
    <g
       transform="translate(160.34995,1782.2345)"
       id="g2753">
      <g
         id="g2752">
        <path
           d="m -0.53125,-20.5 h 8.328125 v 3.6875 H 5.5 V 0.140625 H 1.78125 V -16.8125 h -2.3125 z m 0,0"
           id="path2751" />
      </g>
    </g>
  </g>
  <g
     fill="#22a1e3"
     fill-opacity="1"
     id="g2760"
     transform="translate(-58.175781,-1520.2695)">
    <g
       transform="translate(175.42177,1782.2345)"
       id="g2759">
      <g
         id="g2758">
        <path
           d="m 10.71875,-17.734375 c 2.550781,-2.457031 5.503906,-3.359375 8.859375,-2.703125 0.757813,0.148438 1.445313,0.554688 2.0625,1.21875 0.726563,0.84375 1.09375,1.945312 1.09375,3.296875 v 16.0625 H 19.40625 c -0.929688,-1.46875 -2.433594,-2.007813 -4.515625,-1.625 -0.398437,0.117187 -1.117187,0.351563 -2.15625,0.703125 -3.355469,1.1875 -5.90625,1.316406 -7.65625,0.390625 C 3.109375,-1.410156 1.628906,-3.90625 0.640625,-7.875 L 3.9375,-9.859375 c 0.144531,0.992187 0.265625,1.59375 0.359375,1.8125 0.632813,2.386719 1.460937,3.839844 2.484375,4.359375 0.800781,0.429688 2.382812,0.226562 4.75,-0.609375 1.15625,-0.394531 2.015625,-0.65625 2.578125,-0.78125 2.226563,-0.445313 3.875,-0.28125 4.9375,0.5 v -11.34375 c 0,-0.519531 -0.05859,-0.804687 -0.171875,-0.859375 -2.105469,-0.445312 -3.984375,0.136719 -5.640625,1.75 -1,0.96875 -1.390625,2.164062 -1.171875,3.578125 0.113281,0.730469 0.46875,1.085937 1.0625,1.0625 0.894531,-0.09375 1.6875,-0.613281 2.375,-1.5625 L 17.65625,-8.875 c -0.992188,1.335938 -2.25,2.085938 -3.78125,2.25 -1.355469,0.09375 -2.515625,-0.191406 -3.484375,-0.859375 -1.042969,-0.726563 -1.730469,-1.835937 -2.0625,-3.328125 -0.398437,-2.71875 0.398437,-5.023438 2.390625,-6.921875 z m 0,0"
           id="path2757" />
      </g>
    </g>
  </g>
  <g
     fill="#22a1e3"
     fill-opacity="1"
     id="g2763"
     transform="translate(-58.175781,-1520.2695)">
    <g
       transform="translate(199.71026,1782.2345)"
       id="g2762">
      <g
         id="g2761">
        <path
           d="m 2.875,-25.109375 c 1.269531,-1.914063 3.195312,-3.144531 5.78125,-3.6875 0.945312,-0.1875 1.941406,-0.28125 2.984375,-0.28125 3.945313,0 8.398437,1.417969 13.359375,4.25 L 24.078125,-21.5 c -4.84375,-2.570312 -8.980469,-3.859375 -12.40625,-3.859375 -0.804687,0 -1.558594,0.07422 -2.265625,0.21875 -1.730469,0.324219 -2.929688,1.101563 -3.59375,2.328125 -0.398438,0.742188 -0.59375,1.476562 -0.59375,2.203125 0,0.02344 0,0.03125 0,0.03125 V -20.5 h 2.015625 v 3.6875 H 5.25 V 0.109375 H 1.5625 V -16.8125 H -0.421875 V -20.5 h 1.875 c 0,-1.582031 0.472656,-3.117188 1.421875,-4.609375 z m 0,0"
           id="path2760" />
      </g>
    </g>
  </g>
  <g
     fill="#22a1e3"
     fill-opacity="1"
     id="g2766"
     transform="translate(-58.175781,-1520.2695)">
    <g
       transform="translate(206.55359,1782.2345)"
       id="g2765">
      <g
         id="g2764">
        <path
           d="M -0.21875,-16.8125 V -20.5 h 13.0625 v 3.6875 z m 6.390625,2.234375 c 2.53125,0.148437 4.789063,0.949219 6.78125,2.40625 V -7.3125 c -1.917969,-2.363281 -4.4375,-3.578125 -7.5625,-3.640625 -0.949219,0.04297 -1.480469,0.15625 -1.59375,0.34375 0,0 0,0.01563 0,0.04687 v 0.03125 c 0,0.04297 0.00781,0.08984 0.03125,0.140625 0.6875,0.5625 2.046875,0.945313 4.078125,1.140625 L 6.25,-5.609375 C 3.425781,-6.148438 1.566406,-7.09375 0.671875,-8.4375 0.242188,-9.175781 0.03125,-9.898438 0.03125,-10.609375 c 0,-0.632813 0.191406,-1.257813 0.578125,-1.875 0.820313,-1.394531 2.628906,-2.09375 5.421875,-2.09375 0,0 0.00781,0 0.03125,0 0,0 0.00781,0 0.03125,0 h 0.046875 c 0.019531,0 0.03125,0 0.03125,0 z m 0,0"
           id="path2763" />
      </g>
    </g>
  </g>
  <g
     fill="#22a1e3"
     fill-opacity="1"
     id="g2769"
     transform="translate(-58.175781,-1520.2695)">
    <g
       transform="translate(217.65184,1782.2345)"
       id="g2768">
      <g
         id="g2767">
        <path
           d="m 18.40625,-6.390625 v 12.3125 H 15.109375 C 14.585938,5.160156 13.722656,4.664062 12.515625,4.4375 11.640625,4.269531 10.410156,4.660156 8.828125,5.609375 6.253906,7.003906 4,7.097656 2.0625,5.890625 0.664062,5.035156 -0.46875,3.851562 -1.34375,2.34375 L 0.890625,-0.078125 C 1.597656,1.316406 2.554688,2.300781 3.765625,2.875 4.703125,3.320312 5.894531,3.144531 7.34375,2.34375 10.0625,0.707031 12.507812,0.566406 14.6875,1.921875 v -4.125 c -2.367188,1.542969 -5.539062,2.3125 -9.515625,2.3125 C 4.398438,0.109375 3.726562,0.0703125 3.15625,0 l -1.625,-0.21875 V -16.8125 H -0.671875 V -20.5 H 14.9375 c 0,-0.07031 -0.121094,-0.367188 -0.359375,-0.890625 -0.40625,-0.726563 -1.292969,-1.304687 -2.65625,-1.734375 -3.011719,-0.46875 -6.84375,0.171875 -11.5,1.921875 V -24.6875 c 4.757813,-2.144531 8.921875,-2.804688 12.484375,-1.984375 2.488281,0.710937 4.15625,1.9375 5,3.6875 0.445312,0.992187 0.695312,1.820313 0.75,2.484375 h 1.8125 v 3.6875 h -15.25 V -3.625 c 5.007812,0.167969 8.304688,-1.285156 9.890625,-4.359375 0.613281,-1.25 0.566406,-2.097656 -0.140625,-2.546875 -0.636719,-0.382812 -1.5,-0.46875 -2.59375,-0.25 -1.210938,0.261719 -2.234375,1.027344 -3.078125,2.296875 l -2.3125,-3.078125 c 1.488281,-1.632812 3.203125,-2.601562 5.140625,-2.90625 1.84375,-0.28125 3.453125,-0.0078 4.828125,0.8125 1.082031,0.667969 1.789063,1.601562 2.125,2.796875 0.382813,1.398437 0.160156,2.886719 -0.671875,4.46875 z m 0,0"
           id="path2766" />
      </g>
    </g>
  </g>
</svg>
