<?xml version="1.0" encoding="UTF-8" standalone="no"?>
<svg
   width="310.03125"
   zoomAndPan="magnify"
   viewBox="0 0 232.52344 277.85165"
   height="370.46887"
   preserveAspectRatio="xMidYMid"
   version="1.0"
   id="svg3945"
   sodipodi:docname="Sheba Enterprise.svg"
   xmlns:inkscape="http://www.inkscape.org/namespaces/inkscape"
   xmlns:sodipodi="http://sodipodi.sourceforge.net/DTD/sodipodi-0.dtd"
   xmlns="http://www.w3.org/2000/svg"
   xmlns:svg="http://www.w3.org/2000/svg">
  <sodipodi:namedview
     id="namedview3945"
     pagecolor="#ffffff"
     bordercolor="#000000"
     borderopacity="0.25"
     inkscape:showpageshadow="2"
     inkscape:pageopacity="0.0"
     inkscape:pagecheckerboard="0"
     inkscape:deskcolor="#d1d1d1"
     inkscape:export-bgcolor="#00000000" />
  <defs
     id="defs2384">
    <clipPath
       id="c21d9f931a">
      <path
         d="m 768.51172,1612.6523 h 232.52348 v 185.4688 H 768.51172 Z m 0,0"
         clip-rule="nonzero"
         id="path354" />
    </clipPath>
    <clipPath
       id="e1f147e3a9">
      <path
         d="m 787.25391,1612.6523 h 195.03906 c 4.97265,0 9.73828,1.9766 13.2539,5.4922 3.51563,3.5118 5.48833,8.2813 5.48833,13.25 v 147.9844 c 0,4.9688 -1.9727,9.7383 -5.48833,13.25 -3.51562,3.5156 -8.28125,5.4922 -13.2539,5.4922 H 787.25391 c -4.97266,0 -9.73829,-1.9766 -13.25391,-5.4922 -3.51563,-3.5117 -5.48828,-8.2812 -5.48828,-13.25 v -147.9844 c 0,-4.9687 1.97265,-9.7382 5.48828,-13.25 3.51562,-3.5156 8.28125,-5.4922 13.25391,-5.4922 z m 0,0"
         clip-rule="nonzero"
         id="path355" />
    </clipPath>
    <clipPath
       id="cb08017156">
      <path
         d="m 768.51172,1520.2695 h 232.52348 v 232.5274 H 768.51172 Z m 0,0"
         clip-rule="nonzero"
         id="path356" />
    </clipPath>
    <clipPath
       id="e21b47e9a1">
      <path
         d="m 787.25391,1520.2695 h 195.03906 c 4.97265,0 9.73828,1.9766 13.2539,5.4922 3.51563,3.5156 5.48833,8.2813 5.48833,13.25 v 195.043 c 0,4.9687 -1.9727,9.7383 -5.48833,13.25 -3.51562,3.5156 -8.28125,5.4922 -13.2539,5.4922 H 787.25391 c -4.97266,0 -9.73829,-1.9766 -13.25391,-5.4922 -3.51563,-3.5117 -5.48828,-8.2813 -5.48828,-13.25 v -195.043 c 0,-4.9687 1.97265,-9.7344 5.48828,-13.25 3.51562,-3.5156 8.28125,-5.4922 13.25391,-5.4922 z m 0,0"
         clip-rule="nonzero"
         id="path357" />
    </clipPath>
    <linearGradient
       x1="-9.5714204e-06"
       gradientTransform="matrix(0.908298,0,0,0.908298,768.51166,1520.2711)"
       y1="-9.5714204e-06"
       x2="255.99995"
       gradientUnits="userSpaceOnUse"
       y2="255.99995"
       id="23ac4c33f7">
      <stop
         stop-opacity="1"
         stop-color="rgb(81.599426%, 81.599426%, 81.599426%)"
         offset="0"
         id="stop357" />
      <stop
         stop-opacity="1"
         stop-color="rgb(81.742859%, 81.742859%, 81.742859%)"
         offset="0.015625"
         id="stop358" />
      <stop
         stop-opacity="1"
         stop-color="rgb(82.029724%, 82.029724%, 82.029724%)"
         offset="0.03125"
         id="stop359" />
      <stop
         stop-opacity="1"
         stop-color="rgb(82.318115%, 82.318115%, 82.318115%)"
         offset="0.046875"
         id="stop360" />
      <stop
         stop-opacity="1"
         stop-color="rgb(82.60498%, 82.60498%, 82.60498%)"
         offset="0.0625"
         id="stop361" />
      <stop
         stop-opacity="1"
         stop-color="rgb(82.893372%, 82.893372%, 82.893372%)"
         offset="0.078125"
         id="stop362" />
      <stop
         stop-opacity="1"
         stop-color="rgb(83.180237%, 83.180237%, 83.180237%)"
         offset="0.09375"
         id="stop363" />
      <stop
         stop-opacity="1"
         stop-color="rgb(83.467102%, 83.467102%, 83.467102%)"
         offset="0.109375"
         id="stop364" />
      <stop
         stop-opacity="1"
         stop-color="rgb(83.755493%, 83.755493%, 83.755493%)"
         offset="0.125"
         id="stop365" />
      <stop
         stop-opacity="1"
         stop-color="rgb(84.042358%, 84.042358%, 84.042358%)"
         offset="0.140625"
         id="stop366" />
      <stop
         stop-opacity="1"
         stop-color="rgb(84.33075%, 84.33075%, 84.33075%)"
         offset="0.15625"
         id="stop367" />
      <stop
         stop-opacity="1"
         stop-color="rgb(84.617615%, 84.617615%, 84.617615%)"
         offset="0.171875"
         id="stop368" />
      <stop
         stop-opacity="1"
         stop-color="rgb(84.90448%, 84.90448%, 84.90448%)"
         offset="0.1875"
         id="stop369" />
      <stop
         stop-opacity="1"
         stop-color="rgb(85.192871%, 85.192871%, 85.192871%)"
         offset="0.203125"
         id="stop370" />
      <stop
         stop-opacity="1"
         stop-color="rgb(85.479736%, 85.479736%, 85.479736%)"
         offset="0.21875"
         id="stop371" />
      <stop
         stop-opacity="1"
         stop-color="rgb(85.768127%, 85.768127%, 85.768127%)"
         offset="0.234375"
         id="stop372" />
      <stop
         stop-opacity="1"
         stop-color="rgb(86.054993%, 86.054993%, 86.054993%)"
         offset="0.25"
         id="stop373" />
      <stop
         stop-opacity="1"
         stop-color="rgb(86.343384%, 86.343384%, 86.343384%)"
         offset="0.265625"
         id="stop374" />
      <stop
         stop-opacity="1"
         stop-color="rgb(86.630249%, 86.630249%, 86.630249%)"
         offset="0.28125"
         id="stop375" />
      <stop
         stop-opacity="1"
         stop-color="rgb(86.917114%, 86.917114%, 86.917114%)"
         offset="0.296875"
         id="stop376" />
      <stop
         stop-opacity="1"
         stop-color="rgb(87.205505%, 87.205505%, 87.205505%)"
         offset="0.3125"
         id="stop377" />
      <stop
         stop-opacity="1"
         stop-color="rgb(87.492371%, 87.492371%, 87.492371%)"
         offset="0.328125"
         id="stop378" />
      <stop
         stop-opacity="1"
         stop-color="rgb(87.780762%, 87.780762%, 87.780762%)"
         offset="0.34375"
         id="stop379" />
      <stop
         stop-opacity="1"
         stop-color="rgb(88.067627%, 88.067627%, 88.067627%)"
         offset="0.359375"
         id="stop380" />
      <stop
         stop-opacity="1"
         stop-color="rgb(88.354492%, 88.354492%, 88.354492%)"
         offset="0.375"
         id="stop381" />
      <stop
         stop-opacity="1"
         stop-color="rgb(88.642883%, 88.642883%, 88.642883%)"
         offset="0.390625"
         id="stop382" />
      <stop
         stop-opacity="1"
         stop-color="rgb(88.929749%, 88.929749%, 88.929749%)"
         offset="0.40625"
         id="stop383" />
      <stop
         stop-opacity="1"
         stop-color="rgb(89.21814%, 89.21814%, 89.21814%)"
         offset="0.421875"
         id="stop384" />
      <stop
         stop-opacity="1"
         stop-color="rgb(89.505005%, 89.505005%, 89.505005%)"
         offset="0.4375"
         id="stop385" />
      <stop
         stop-opacity="1"
         stop-color="rgb(89.793396%, 89.793396%, 89.793396%)"
         offset="0.453125"
         id="stop386" />
      <stop
         stop-opacity="1"
         stop-color="rgb(90.080261%, 90.080261%, 90.080261%)"
         offset="0.46875"
         id="stop387" />
      <stop
         stop-opacity="1"
         stop-color="rgb(90.367126%, 90.367126%, 90.367126%)"
         offset="0.484375"
         id="stop388" />
      <stop
         stop-opacity="1"
         stop-color="rgb(90.655518%, 90.655518%, 90.655518%)"
         offset="0.5"
         id="stop389" />
      <stop
         stop-opacity="1"
         stop-color="rgb(90.79895%, 90.79895%, 90.79895%)"
         offset="0.5"
         id="stop390" />
      <stop
         stop-opacity="1"
         stop-color="rgb(90.942383%, 90.942383%, 90.942383%)"
         offset="0.5"
         id="stop391" />
      <stop
         stop-opacity="1"
         stop-color="rgb(91.087341%, 91.087341%, 91.087341%)"
         offset="0.515625"
         id="stop392" />
      <stop
         stop-opacity="1"
         stop-color="rgb(91.230774%, 91.230774%, 91.230774%)"
         offset="0.53125"
         id="stop393" />
      <stop
         stop-opacity="1"
         stop-color="rgb(91.517639%, 91.517639%, 91.517639%)"
         offset="0.546875"
         id="stop394" />
      <stop
         stop-opacity="1"
         stop-color="rgb(91.804504%, 91.804504%, 91.804504%)"
         offset="0.5625"
         id="stop395" />
      <stop
         stop-opacity="1"
         stop-color="rgb(92.092896%, 92.092896%, 92.092896%)"
         offset="0.578125"
         id="stop396" />
      <stop
         stop-opacity="1"
         stop-color="rgb(92.379761%, 92.379761%, 92.379761%)"
         offset="0.59375"
         id="stop397" />
      <stop
         stop-opacity="1"
         stop-color="rgb(92.668152%, 92.668152%, 92.668152%)"
         offset="0.609375"
         id="stop398" />
      <stop
         stop-opacity="1"
         stop-color="rgb(92.955017%, 92.955017%, 92.955017%)"
         offset="0.625"
         id="stop399" />
      <stop
         stop-opacity="1"
         stop-color="rgb(93.243408%, 93.243408%, 93.243408%)"
         offset="0.640625"
         id="stop400" />
      <stop
         stop-opacity="1"
         stop-color="rgb(93.530273%, 93.530273%, 93.530273%)"
         offset="0.65625"
         id="stop401" />
      <stop
         stop-opacity="1"
         stop-color="rgb(93.817139%, 93.817139%, 93.817139%)"
         offset="0.671875"
         id="stop402" />
      <stop
         stop-opacity="1"
         stop-color="rgb(94.10553%, 94.10553%, 94.10553%)"
         offset="0.6875"
         id="stop403" />
      <stop
         stop-opacity="1"
         stop-color="rgb(94.392395%, 94.392395%, 94.392395%)"
         offset="0.703125"
         id="stop404" />
      <stop
         stop-opacity="1"
         stop-color="rgb(94.680786%, 94.680786%, 94.680786%)"
         offset="0.71875"
         id="stop405" />
      <stop
         stop-opacity="1"
         stop-color="rgb(94.967651%, 94.967651%, 94.967651%)"
         offset="0.734375"
         id="stop406" />
      <stop
         stop-opacity="1"
         stop-color="rgb(95.254517%, 95.254517%, 95.254517%)"
         offset="0.75"
         id="stop407" />
      <stop
         stop-opacity="1"
         stop-color="rgb(95.542908%, 95.542908%, 95.542908%)"
         offset="0.765625"
         id="stop408" />
      <stop
         stop-opacity="1"
         stop-color="rgb(95.829773%, 95.829773%, 95.829773%)"
         offset="0.78125"
         id="stop409" />
      <stop
         stop-opacity="1"
         stop-color="rgb(96.118164%, 96.118164%, 96.118164%)"
         offset="0.796875"
         id="stop410" />
      <stop
         stop-opacity="1"
         stop-color="rgb(96.405029%, 96.405029%, 96.405029%)"
         offset="0.8125"
         id="stop411" />
      <stop
         stop-opacity="1"
         stop-color="rgb(96.69342%, 96.69342%, 96.69342%)"
         offset="0.828125"
         id="stop412" />
      <stop
         stop-opacity="1"
         stop-color="rgb(96.980286%, 96.980286%, 96.980286%)"
         offset="0.84375"
         id="stop413" />
      <stop
         stop-opacity="1"
         stop-color="rgb(97.267151%, 97.267151%, 97.267151%)"
         offset="0.859375"
         id="stop414" />
      <stop
         stop-opacity="1"
         stop-color="rgb(97.555542%, 97.555542%, 97.555542%)"
         offset="0.875"
         id="stop415" />
      <stop
         stop-opacity="1"
         stop-color="rgb(97.842407%, 97.842407%, 97.842407%)"
         offset="0.890625"
         id="stop416" />
      <stop
         stop-opacity="1"
         stop-color="rgb(98.130798%, 98.130798%, 98.130798%)"
         offset="0.90625"
         id="stop417" />
      <stop
         stop-opacity="1"
         stop-color="rgb(98.417664%, 98.417664%, 98.417664%)"
         offset="0.921875"
         id="stop418" />
      <stop
         stop-opacity="1"
         stop-color="rgb(98.704529%, 98.704529%, 98.704529%)"
         offset="0.9375"
         id="stop419" />
      <stop
         stop-opacity="1"
         stop-color="rgb(98.99292%, 98.99292%, 98.99292%)"
         offset="0.953125"
         id="stop420" />
      <stop
         stop-opacity="1"
         stop-color="rgb(99.279785%, 99.279785%, 99.279785%)"
         offset="0.96875"
         id="stop421" />
      <stop
         stop-opacity="1"
         stop-color="rgb(99.568176%, 99.568176%, 99.568176%)"
         offset="0.984375"
         id="stop422" />
      <stop
         stop-opacity="1"
         stop-color="rgb(99.855042%, 99.855042%, 99.855042%)"
         offset="1"
         id="stop423" />
    </linearGradient>
    <clipPath
       id="b5fb574185">
      <path
         d="m 768.51172,1520.2695 h 232.40238 v 232.4024 H 768.51172 Z m 0,0"
         clip-rule="nonzero"
         id="path423" />
    </clipPath>
    <clipPath
       id="8a7cc694db">
      <path
         d="m 787.24219,1520.2695 h 194.9375 c 4.96875,0 9.73437,1.9766 13.24609,5.4883 3.51563,3.5117 5.48832,8.2774 5.48832,13.2461 v 194.9375 c 0,4.9688 -1.97269,9.7305 -5.48832,13.2461 -3.51172,3.5117 -8.27734,5.4844 -13.24609,5.4844 h -194.9375 c -4.96485,0 -9.73047,-1.9727 -13.24219,-5.4844 -3.51563,-3.5156 -5.48828,-8.2773 -5.48828,-13.2461 v -194.9375 c 0,-4.9687 1.97265,-9.7344 5.48828,-13.2461 3.51172,-3.5117 8.27734,-5.4883 13.24219,-5.4883 z m 0,0"
         clip-rule="nonzero"
         id="path424" />
    </clipPath>
    <clipPath
       id="a09a4c8904">
      <path
         d="m 814.41406,1565.7539 h 141.69141 v 141.6875 H 814.41406 Z m 0,0"
         clip-rule="nonzero"
         id="path425" />
    </clipPath>
  </defs>
  <g
     clip-path="url(#c21d9f931a)"
     id="g2588"
     transform="translate(-768.51172,-1520.2695)">
    <g
       clip-path="url(#e1f147e3a9)"
       id="g2587">
      <path
         fill="#ffffff"
         d="m 768.51172,1612.6523 h 232.52348 v 185.4688 H 768.51172 Z m 0,0"
         fill-opacity="1"
         fill-rule="nonzero"
         id="path2586" />
    </g>
  </g>
  <g
     clip-path="url(#cb08017156)"
     id="g2590"
     transform="translate(-768.51172,-1520.2695)">
    <g
       clip-path="url(#e21b47e9a1)"
       id="g2589">
      <path
         fill="url(#23ac4c33f7)"
         d="m 768.51172,1520.2695 v 232.5274 h 232.52348 v -232.5274 z m 0,0"
         fill-rule="nonzero"
         id="path2588"
         style="fill:url(#23ac4c33f7)" />
    </g>
  </g>
  <g
     clip-path="url(#b5fb574185)"
     id="g2592"
     transform="translate(-768.51172,-1520.2695)">
    <g
       clip-path="url(#8a7cc694db)"
       id="g2591">
      <path
         stroke-linecap="butt"
         transform="matrix(0.749307,0,0,0.749307,768.51164,1520.2711)"
         fill="none"
         stroke-linejoin="miter"
         d="m 24.99717,-0.0021373 h 260.15715 c 6.63113,0 12.99117,2.6378553 17.6778,7.3244793 4.69183,4.686623 7.32447,11.046669 7.32447,17.677799 V 285.15729 c 0,6.63113 -2.63264,12.98596 -7.32447,17.6778 -4.68663,4.68662 -11.04667,7.31926 -17.6778,7.31926 H 24.99717 c -6.625917,0 -12.985962,-2.63264 -17.672586,-7.31926 C 2.632747,298.14325 1.0513e-4,291.78842 1.0513e-4,285.15729 V 25.000141 c 0,-6.63113 2.63264187,-12.991176 7.32447887,-17.677799 4.686624,-4.686624 11.046669,-7.3244793 17.672586,-7.3244793 z m 0,0"
         stroke="#ffffff"
         stroke-width="30"
         stroke-opacity="1"
         stroke-miterlimit="4"
         id="path2590" />
    </g>
  </g>
  <g
     clip-path="url(#a09a4c8904)"
     id="g2593"
     transform="translate(-768.51172,-1520.2695)">
    <path
       fill="#e1e3e8"
       d="m 956.10547,1636.5977 c 0,1.1601 -0.0273,2.3164 -0.0859,3.4765 -0.0586,1.1563 -0.14062,2.3125 -0.25391,3.4688 -0.11718,1.1523 -0.25781,2.3047 -0.42578,3.4492 -0.17187,1.1484 -0.37109,2.2891 -0.59765,3.4258 -0.22657,1.1367 -0.48047,2.2695 -0.76172,3.3945 -0.28125,1.125 -0.58985,2.2422 -0.92578,3.3516 -0.33594,1.1093 -0.69922,2.207 -1.08985,3.3007 -0.39062,1.0899 -0.80859,2.1719 -1.2539,3.2422 -0.44141,1.0743 -0.91407,2.1328 -1.40625,3.1797 -0.4961,1.0508 -1.01953,2.086 -1.56641,3.1055 -0.54687,1.0234 -1.11719,2.0312 -1.71094,3.0273 -0.59765,0.9922 -1.21875,1.9727 -1.86328,2.9375 -0.64453,0.9649 -1.30859,1.9102 -2,2.8438 -0.6914,0.9297 -1.40625,1.8437 -2.14062,2.7422 -0.73438,0.8945 -1.49219,1.7734 -2.26953,2.6328 -0.78125,0.8594 -1.57813,1.6953 -2.39844,2.5156 -0.82031,0.8203 -1.66016,1.6211 -2.51953,2.3984 -0.85938,0.7774 -1.73828,1.5352 -2.63282,2.2735 -0.89453,0.7344 -1.80859,1.4453 -2.74218,2.1367 -0.92969,0.6914 -1.87891,1.3594 -2.84375,2.0039 -0.96094,0.6445 -1.94141,1.2617 -2.9375,1.8594 -0.99219,0.5976 -2,1.168 -3.02344,1.7148 -1.02344,0.5469 -2.05859,1.0664 -3.10547,1.5625 -1.05078,0.4961 -2.10937,0.9649 -3.17969,1.4102 -1.07031,0.4414 -2.15234,0.8594 -3.24609,1.25 -1.08984,0.3906 -2.19141,0.7539 -3.30078,1.0898 -1.10938,0.3399 -2.22656,0.6485 -3.35156,0.9297 -1.125,0.2813 -2.25391,0.5352 -3.39063,0.7617 -1.13672,0.2266 -2.28125,0.4219 -3.42578,0.5938 -1.14844,0.1719 -2.29688,0.3125 -3.45313,0.4258 -1.15234,0.1132 -2.30859,0.1992 -3.46875,0.2539 -1.15625,0.059 -2.3164,0.086 -3.47656,0.086 -1.15625,0 -2.3164,-0.027 -3.47265,-0.086 -1.16016,-0.055 -2.31641,-0.1407 -3.46875,-0.2539 -1.15625,-0.1133 -2.30469,-0.2539 -3.45313,-0.4258 -1.14453,-0.1719 -2.28906,-0.3672 -3.42578,-0.5938 -1.13672,-0.2265 -2.26563,-0.4804 -3.39063,-0.7617 -1.125,-0.2812 -2.24218,-0.5898 -3.35156,-0.9297 -1.10937,-0.3359 -2.21094,-0.6992 -3.30078,-1.0898 -1.09375,-0.3906 -2.17578,-0.8086 -3.24609,-1.25 -1.07032,-0.4453 -2.13282,-0.9141 -3.17969,-1.4102 -1.04688,-0.4961 -2.08203,-1.0156 -3.10547,-1.5625 -1.02344,-0.5468 -2.03125,-1.1172 -3.02344,-1.7148 -0.99609,-0.5977 -1.97656,-1.2149 -2.9414,-1.8594 -0.96094,-0.6445 -1.91016,-1.3125 -2.83985,-2.0039 -0.93359,-0.6914 -1.84765,-1.4023 -2.74218,-2.1367 -0.89844,-0.7383 -1.77344,-1.4961 -2.63282,-2.2735 -0.85937,-0.7773 -1.69922,-1.5781 -2.51953,-2.3984 -0.82031,-0.8203 -1.61719,-1.6562 -2.39844,-2.5156 -0.77734,-0.8594 -1.53515,-1.7383 -2.26953,-2.6328 -0.73437,-0.8985 -1.44922,-1.8125 -2.14062,-2.7422 -0.69141,-0.9336 -1.35547,-1.8789 -2,-2.8438 -0.64453,-0.9648 -1.26563,-1.9453 -1.86328,-2.9375 -0.59375,-0.9961 -1.16407,-2.0039 -1.71094,-3.0273 -0.54688,-1.0195 -1.07031,-2.0547 -1.56641,-3.1055 -0.49609,-1.0469 -0.96484,-2.1054 -1.40625,-3.1797 -0.44531,-1.0703 -0.86328,-2.1523 -1.2539,-3.2422 -0.39063,-1.0937 -0.75391,-2.1914 -1.08985,-3.3007 -0.33593,-1.1094 -0.64453,-2.2266 -0.92578,-3.3516 -0.28125,-1.125 -0.53906,-2.2578 -0.76172,-3.3945 -0.22656,-1.1367 -0.42578,-2.2774 -0.59765,-3.4258 -0.16797,-1.1445 -0.3086,-2.2969 -0.42578,-3.4492 -0.11329,-1.1563 -0.19532,-2.3125 -0.25391,-3.4688 -0.0586,-1.1601 -0.0859,-2.3164 -0.0859,-3.4765 0,-1.1602 0.0274,-2.3204 0.0859,-3.4766 0.0586,-1.1563 0.14062,-2.3125 0.25391,-3.4688 0.11718,-1.1523 0.25781,-2.3046 0.42578,-3.4492 0.17187,-1.1484 0.37109,-2.289 0.59765,-3.4258 0.22266,-1.1367 0.48047,-2.2695 0.76172,-3.3945 0.28125,-1.125 0.58985,-2.2422 0.92578,-3.3515 0.33594,-1.1094 0.69922,-2.211 1.08985,-3.3008 0.39062,-1.0899 0.80859,-2.1719 1.2539,-3.2461 0.44141,-1.0703 0.91016,-2.1289 1.40625,-3.1758 0.4961,-1.0508 1.01953,-2.0859 1.56641,-3.1055 0.54687,-1.0234 1.11719,-2.0312 1.71094,-3.0273 0.59765,-0.9961 1.21875,-1.9727 1.86328,-2.9375 0.64453,-0.9649 1.30859,-1.9102 2,-2.8438 0.6914,-0.9297 1.40625,-1.8437 2.14062,-2.7422 0.73438,-0.8945 1.49219,-1.7734 2.26953,-2.6328 0.78125,-0.8593 1.57813,-1.6992 2.39844,-2.5156 0.82031,-0.8203 1.66016,-1.6211 2.51953,-2.3984 0.85938,-0.7813 1.73438,-1.5352 2.63282,-2.2735 0.89453,-0.7343 1.80859,-1.4492 2.74218,-2.1367 0.92969,-0.6914 1.87891,-1.3594 2.83985,-2.0039 0.96484,-0.6445 1.94531,-1.2656 2.9414,-1.8594 0.99219,-0.5976 2,-1.1679 3.02344,-1.7148 1.02344,-0.5469 2.05859,-1.0664 3.10547,-1.5625 1.04687,-0.4961 2.10937,-0.9649 3.17969,-1.4102 1.07031,-0.4414 2.15234,-0.8593 3.24609,-1.25 1.08984,-0.3906 2.19141,-0.7539 3.30078,-1.0898 1.10938,-0.3399 2.22656,-0.6484 3.35156,-0.9297 1.125,-0.2812 2.25391,-0.5352 3.39063,-0.7617 1.13672,-0.2266 2.28125,-0.4258 3.42578,-0.5938 1.14844,-0.1718 2.29688,-0.3125 3.45313,-0.4257 1.15234,-0.1133 2.30859,-0.1993 3.46875,-0.2579 1.15625,-0.055 2.3164,-0.082 3.47265,-0.082 1.16016,0 2.32031,0.027 3.47656,0.082 1.16016,0.059 2.31641,0.1446 3.46875,0.2579 1.15625,0.1132 2.30469,0.2539 3.45313,0.4257 1.14453,0.168 2.28906,0.3672 3.42578,0.5938 1.13672,0.2265 2.26563,0.4805 3.39063,0.7617 1.125,0.2813 2.24218,0.5898 3.35156,0.9297 1.10937,0.3359 2.21094,0.6992 3.30078,1.0898 1.09375,0.3907 2.17578,0.8086 3.24609,1.25 1.07032,0.4453 2.12891,0.9141 3.17969,1.4102 1.04688,0.4961 2.08203,1.0156 3.10547,1.5625 1.02344,0.5469 2.03125,1.1172 3.02344,1.7148 0.99609,0.5938 1.97656,1.2149 2.9375,1.8594 0.96484,0.6445 1.91406,1.3125 2.84375,2.0039 0.93359,0.6875 1.84765,1.4024 2.74218,2.1367 0.89454,0.7383 1.77344,1.4922 2.63282,2.2735 0.85937,0.7773 1.69922,1.5781 2.51953,2.3984 0.82031,0.8164 1.61719,1.6563 2.39844,2.5156 0.77734,0.8594 1.53515,1.7383 2.26953,2.6328 0.73437,0.8985 1.44922,1.8125 2.14062,2.7422 0.69141,0.9336 1.35547,1.8789 2,2.8438 0.64453,0.9648 1.26563,1.9414 1.86328,2.9375 0.59375,0.9961 1.16407,2.0039 1.71094,3.0273 0.54688,1.0196 1.07031,2.0547 1.56641,3.1055 0.49218,1.0469 0.96484,2.1055 1.40625,3.1758 0.44531,1.0742 0.86328,2.1562 1.2539,3.2461 0.39063,1.0898 0.75391,2.1914 1.08985,3.3008 0.33593,1.1093 0.64453,2.2265 0.92578,3.3515 0.28125,1.125 0.53515,2.2578 0.76172,3.3945 0.22656,1.1368 0.42578,2.2774 0.59765,3.4258 0.16797,1.1446 0.3086,2.2969 0.42578,3.4492 0.11329,1.1563 0.19532,2.3125 0.25391,3.4688 0.0586,1.1562 0.0859,2.3164 0.0859,3.4766 z m 0,0"
       fill-opacity="1"
       fill-rule="nonzero"
       id="path2592" />
  </g>
  <path
     fill="#ba3f4d"
     d="m 55.5,97.988271 102.49219,-40.0351 c 1.8125,-0.7071 3.86718,0.1953 4.57421,2.0039 l 22.16407,56.753899 c 0.70703,1.8125 -0.19532,3.8672 -2.00391,4.5742 l -102.49609,40.0312 c -1.80469,0.7071 -3.86328,-0.1953 -4.56641,-2.0039 L 53.49219,102.55467 C 52.78515,100.74997 53.6875,98.691371 55.5,97.988271 Z m 0,0"
     fill-opacity="1"
     fill-rule="evenodd"
     id="path2593" />
  <path
     fill="#ff576b"
     d="m 55.03125,96.792971 102.49219,-40.0312 c 1.8125,-0.7071 3.86718,0.1953 4.57421,2.0039 l 22.16407,56.753899 c 0.70703,1.8047 -0.19532,3.8672 -2,4.5742 l -102.49219,40.0312 c -1.8125,0.7071 -3.86719,-0.1953 -4.57422,-2.0078 l -22.16797,-56.7539 c -0.70312,-1.804699 0.19922,-3.863299 2.00391,-4.570299 z m 0,0"
     fill-opacity="1"
     fill-rule="evenodd"
     id="path2594" />
  <path
     fill="#ffffff"
     d="m 67.07031,104.94927 29.51172,-11.523499 1.71484,4.3945 -29.50781,11.527399 z m 0,0"
     fill-opacity="1"
     fill-rule="evenodd"
     id="path2595" />
  <path
     fill="#ffffff"
     d="m 105.36719,89.992171 14.75781,-5.7617 1.71484,4.3945 -14.7539,5.7657 z m 0,0"
     fill-opacity="1"
     fill-rule="evenodd"
     id="path2596" />
  <path
     fill="#ffffff"
     d="m 72.09765,117.82027 45.22657,-17.664 1.71484,4.3984 -45.22266,17.6641 z m 0,0"
     fill-opacity="1"
     fill-rule="evenodd"
     id="path2597" />
  <path
     fill="#ffffff"
     d="m 130.79297,94.894571 22.60937,-8.8321 1.71875,4.3985 -22.61328,8.832 z m 0,0"
     fill-opacity="1"
     fill-rule="evenodd"
     id="path2598" />
  <path
     fill="#4288c7"
     d="m 68.73047,96.953171 h 110.03515 c 1.94532,0 3.53125,1.5859 3.53125,3.531199 v 60.9297 c 0,1.9414 -1.58593,3.5273 -3.53125,3.5273 H 68.73047 c -1.9375,0 -3.52344,-1.5859 -3.52344,-3.5273 v -60.9297 c 0,-1.945299 1.58594,-3.531199 3.52344,-3.531199 z m 0,0"
     fill-opacity="1"
     fill-rule="evenodd"
     id="path2599" />
  <path
     fill="#53b4ed"
     d="m 68.73047,95.671871 h 110.03515 c 1.94532,0 3.53125,1.5859 3.53125,3.5313 v 60.933599 c 0,1.9375 -1.58593,3.5234 -3.53125,3.5234 H 68.73047 c -1.9375,0 -3.52344,-1.5859 -3.52344,-3.5234 V 99.203171 c 0,-1.9454 1.58594,-3.5313 3.52344,-3.5313 z m 0,0"
     fill-opacity="1"
     fill-rule="evenodd"
     id="path2600" />
  <path
     fill="#0e4275"
     d="m 65.20703,103.14067 h 117.08984 v 14.8398 H 65.20703 Z m 0,0"
     fill-opacity="1"
     fill-rule="evenodd"
     id="path2601" />
  <path
     fill="#18528c"
     d="m 105.14844,103.14067 h 37.88671 l -15.3164,14.8398 H 89.83203 Z m 47.64843,0 h 11.48438 l -15.32031,14.8398 h -11.48438 z m 0,0"
     fill-opacity="1"
     fill-rule="evenodd"
     id="path2602" />
  <path
     fill="#18528c"
     d="m 70.50781,140.19927 h 52.87109 v 2.1132 H 70.50781 Z m 0,0"
     fill-opacity="1"
     fill-rule="evenodd"
     id="path2603" />
  <path
     fill="#18528c"
     d="m 70.50781,146.46097 h 35.59375 v 2.1172 H 70.50781 Z m 0,0"
     fill-opacity="1"
     fill-rule="evenodd"
     id="path2604" />
  <path
     fill="#18528c"
     d="m 70.50781,152.72657 h 43.57813 v 2.1172 H 70.50781 Z m 0,0"
     fill-opacity="1"
     fill-rule="evenodd"
     id="path2605" />
  <path
     fill="#18528c"
     d="m 112.89453,146.46097 h 19.78125 v 2.1172 h -19.78125 z m 0,0"
     fill-opacity="1"
     fill-rule="evenodd"
     id="path2606" />
  <path
     fill="#ecf0f1"
     d="m 70.50781,121.78517 h 106.48828 v 9.0625 H 70.50781 Z m 0,0"
     fill-opacity="1"
     fill-rule="evenodd"
     id="path2607" />
  <path
     fill="#bac1cf"
     d="m 119.34765,124.24217 h 52.04297 v 4.2696 h -52.04297 z m 0,0"
     fill-opacity="1"
     fill-rule="evenodd"
     id="path2608" />
  <path
     fill="#ecf0f1"
     d="m 150.08984,136.90627 c 5.86328,0 10.61719,4.75 10.61719,10.6133 0,5.8672 -4.75391,10.6211 -10.61719,10.6211 -5.86328,0 -10.62109,-4.7539 -10.62109,-10.6211 0,-5.8633 4.75781,-10.6133 10.62109,-10.6133 z m 0,0"
     fill-opacity="1"
     fill-rule="evenodd"
     id="path2609" />
  <path
     fill="#ecf0f1"
     d="m 163.23828,136.90627 c 5.86719,0 10.61719,4.75 10.61719,10.6133 0,5.8672 -4.75,10.6211 -10.61719,10.6211 -5.86328,0 -10.62109,-4.7539 -10.62109,-10.6211 0,-5.8633 4.75781,-10.6133 10.62109,-10.6133 z m 0,0"
     fill-opacity="1"
     fill-rule="evenodd"
     id="path2610" />
  <path
     fill="#ffc42e"
     d="m 163.23828,138.30857 c 5.08984,0 9.21094,4.1211 9.21094,9.211 0,5.0898 -4.1211,9.2187 -9.21094,9.2187 -5.08984,0 -9.21484,-4.1289 -9.21484,-9.2187 0,-5.0899 4.125,-9.211 9.21484,-9.211 z m 0,0"
     fill-opacity="1"
     fill-rule="evenodd"
     id="path2611" />
  <path
     fill="#fab812"
     d="m 158.23828,155.26177 c -2.53906,-1.6446 -4.21484,-4.4961 -4.21484,-7.7422 0,-3.2383 1.67578,-6.0977 4.21093,-7.7344 1.91407,2.0117 3.08985,4.7383 3.08985,7.7344 0,3.0039 -1.17578,5.7265 -3.08594,7.7422 z m 0,0"
     fill-opacity="1"
     fill-rule="evenodd"
     id="path2612" />
  <path
     fill="#ff8527"
     d="m 150.08984,138.30857 c 5.08594,0 9.21094,4.1211 9.21094,9.211 0,5.0898 -4.125,9.2187 -9.21094,9.2187 -5.08984,0 -9.21484,-4.1289 -9.21484,-9.2187 0,-5.0899 4.125,-9.211 9.21484,-9.211 z m 0,0"
     fill-opacity="1"
     fill-rule="evenodd"
     id="path2613" />
  <path
     fill="#eaa43a"
     d="m 96.79297,160.55077 c 0,0.7969 -0.0391,1.5899 -0.11719,2.3828 -0.0781,0.7891 -0.19531,1.5742 -0.34766,2.3555 -0.15625,0.7773 -0.34765,1.5508 -0.57812,2.3086 -0.23438,0.7617 -0.5,1.5117 -0.80469,2.2461 -0.30469,0.7344 -0.64453,1.4531 -1.01953,2.1523 -0.375,0.7032 -0.78125,1.3828 -1.22266,2.043 -0.4414,0.6602 -0.91406,1.3008 -1.41797,1.9141 -0.50781,0.6132 -1.03906,1.2031 -1.60156,1.7656 -0.5625,0.5625 -1.15234,1.0937 -1.76562,1.5976 -0.61328,0.5079 -1.25391,0.9805 -1.91407,1.4219 -0.66015,0.4414 -1.33984,0.8477 -2.04296,1.2227 -0.69922,0.375 -1.41797,0.7148 -2.15235,1.0195 -0.73437,0.3047 -1.48437,0.5703 -2.24219,0.8008 -0.76171,0.2344 -1.53125,0.4258 -2.3125,0.582 -0.78125,0.1524 -1.5664,0.2695 -2.35546,0.3477 -0.79297,0.078 -1.58594,0.1172 -2.37891,0.1172 -0.79688,0 -1.58984,-0.039 -2.38281,-0.1172 -0.78907,-0.078 -1.57422,-0.1953 -2.35547,-0.3477 -0.78125,-0.1562 -1.55078,-0.3476 -2.3086,-0.582 -0.76171,-0.2305 -1.51171,-0.4961 -2.24609,-0.8008 -0.73437,-0.3047 -1.45312,-0.6445 -2.15234,-1.0195 -0.70313,-0.375 -1.38282,-0.7813 -2.04297,-1.2227 -0.66016,-0.4414 -1.30078,-0.914 -1.91406,-1.4219 -0.61329,-0.5039 -1.20313,-1.0351 -1.76563,-1.5976 -0.5625,-0.5625 -1.09375,-1.1524 -1.59766,-1.7656 -0.50781,-0.6133 -0.98046,-1.2539 -1.42187,-1.9141 -0.44141,-0.6602 -0.84766,-1.3398 -1.22266,-2.043 -0.375,-0.6992 -0.71484,-1.4179 -1.01953,-2.1523 -0.30469,-0.7344 -0.57031,-1.4844 -0.80469,-2.2461 -0.23046,-0.7578 -0.42187,-1.5313 -0.57812,-2.3086 -0.15234,-0.7813 -0.26953,-1.5664 -0.34766,-2.3555 -0.0781,-0.7929 -0.11718,-1.5859 -0.11718,-2.3828 0,-0.793 0.0391,-1.5859 0.11718,-2.3789 0.0781,-0.7891 0.19532,-1.5742 0.34766,-2.3555 0.15625,-0.7812 0.34766,-1.5507 0.57812,-2.3125 0.23438,-0.7578 0.5,-1.5078 0.80469,-2.2421 0.30469,-0.7344 0.64453,-1.4532 1.01953,-2.1524 0.375,-0.7031 0.78125,-1.3828 1.22266,-2.043 0.44141,-0.6601 0.91406,-1.3007 1.42187,-1.914 0.50391,-0.6133 1.03516,-1.2031 1.59766,-1.7656 0.5625,-0.5625 1.15234,-1.0938 1.76563,-1.6016 0.61328,-0.5039 1.2539,-0.9766 1.91406,-1.418 0.66015,-0.4414 1.33984,-0.8476 2.04297,-1.2226 0.69922,-0.375 1.41797,-0.7149 2.15234,-1.0196 0.73438,-0.3047 1.48438,-0.5703 2.24609,-0.8047 0.75782,-0.2304 1.52735,-0.4218 2.3086,-0.5781 0.78125,-0.1523 1.5664,-0.2695 2.35547,-0.3476 0.79297,-0.078 1.58593,-0.1172 2.38281,-0.1172 0.79297,0 1.58594,0.039 2.37891,0.1172 0.78906,0.078 1.57421,0.1953 2.35546,0.3476 0.78125,0.1563 1.55079,0.3477 2.3125,0.5781 0.75782,0.2305 1.50782,0.5 2.24219,0.8047 0.73438,0.3047 1.45313,0.6446 2.15235,1.0196 0.70312,0.375 1.38281,0.7812 2.04296,1.2226 0.66016,0.4414 1.30079,0.9141 1.91407,1.418 0.61328,0.5078 1.20312,1.0391 1.76562,1.6016 0.5625,0.5625 1.09375,1.1523 1.60156,1.7656 0.50391,0.6133 0.97657,1.2539 1.41797,1.914 0.44141,0.6602 0.84766,1.3399 1.22266,2.043 0.375,0.6992 0.71484,1.418 1.01953,2.1524 0.30469,0.7343 0.57031,1.4843 0.80469,2.2421 0.23047,0.7618 0.42187,1.5313 0.57812,2.3125 0.15235,0.7813 0.26953,1.5664 0.34766,2.3555 0.0781,0.793 0.11719,1.5859 0.11719,2.3789 z m 0,0"
     fill-opacity="1"
     fill-rule="nonzero"
     id="path2614" />
  <path
     fill="#ffc42e"
     d="m 92.36719,160.55077 c 0,0.6524 -0.0312,1.3008 -0.0977,1.9492 -0.0625,0.6446 -0.15625,1.2891 -0.28516,1.9258 -0.125,0.6367 -0.28515,1.2656 -0.47265,1.8867 -0.1875,0.625 -0.40625,1.2344 -0.65625,1.836 -0.25,0.6015 -0.52735,1.1875 -0.83203,1.7617 -0.3086,0.5703 -0.64063,1.1289 -1.00391,1.668 -0.35938,0.5429 -0.74609,1.0625 -1.16016,1.5664 -0.41015,0.5039 -0.84765,0.9843 -1.30859,1.4414 -0.45703,0.4609 -0.9375,0.8984 -1.44141,1.3086 -0.5039,0.414 -1.02343,0.8007 -1.5664,1.1601 -0.53907,0.3633 -1.09375,0.6953 -1.66797,1.0039 -0.57422,0.3047 -1.16016,0.5821 -1.76172,0.8321 -0.60156,0.25 -1.21094,0.4687 -1.83203,0.6562 -0.625,0.1875 -1.25391,0.3477 -1.89063,0.4727 -0.63672,0.125 -1.28125,0.2226 -1.92578,0.2851 -0.64844,0.066 -1.29687,0.098 -1.94531,0.098 -0.65234,0 -1.30078,-0.031 -1.94922,-0.098 -0.64453,-0.062 -1.28906,-0.1601 -1.92578,-0.2851 -0.63672,-0.125 -1.26563,-0.2852 -1.88672,-0.4727 -0.625,-0.1875 -1.23437,-0.4062 -1.83594,-0.6562 -0.60156,-0.25 -1.1875,-0.5274 -1.76172,-0.8321 -0.57031,-0.3086 -1.1289,-0.6406 -1.66796,-1.0039 -0.54297,-0.3594 -1.0625,-0.7461 -1.56641,-1.1601 -0.50391,-0.4102 -0.98438,-0.8477 -1.44141,-1.3086 -0.46093,-0.4571 -0.89843,-0.9375 -1.30859,-1.4414 -0.41406,-0.5039 -0.80078,-1.0235 -1.16016,-1.5664 -0.36328,-0.5391 -0.69531,-1.0977 -1.0039,-1.668 -0.30469,-0.5742 -0.58203,-1.1602 -0.83203,-1.7617 -0.25,-0.6016 -0.46875,-1.211 -0.65625,-1.836 -0.1875,-0.6211 -0.34766,-1.25 -0.47266,-1.8867 -0.12891,-0.6367 -0.22266,-1.2812 -0.28516,-1.9258 -0.0664,-0.6484 -0.0976,-1.2968 -0.0976,-1.9492 0,-0.6484 0.0312,-1.2969 0.0976,-1.9453 0.0625,-0.6445 0.15625,-1.2891 0.28516,-1.9258 0.125,-0.6367 0.28516,-1.2656 0.47266,-1.8906 0.1875,-0.6211 0.40625,-1.2305 0.65625,-1.832 0.25,-0.6016 0.52734,-1.1875 0.83203,-1.7618 0.30859,-0.5742 0.64062,-1.1289 1.0039,-1.6718 0.35938,-0.5391 0.7461,-1.0586 1.16016,-1.5625 0.41016,-0.5039 0.84766,-0.9844 1.30859,-1.4453 0.45703,-0.4571 0.9375,-0.8946 1.44141,-1.3047 0.50391,-0.4141 1.02344,-0.8008 1.56641,-1.1602 0.53906,-0.3633 1.09765,-0.6953 1.66796,-1.0039 0.57422,-0.3047 1.16016,-0.582 1.76172,-0.832 0.60157,-0.25 1.21094,-0.4688 1.83594,-0.6563 0.62109,-0.1875 1.25,-0.3476 1.88672,-0.4726 0.63672,-0.1289 1.28125,-0.2227 1.92578,-0.2852 0.64844,-0.066 1.29688,-0.098 1.94922,-0.098 0.64844,0 1.29687,0.031 1.94531,0.098 0.64453,0.062 1.28906,0.1563 1.92578,0.2852 0.63672,0.125 1.26563,0.2851 1.89063,0.4726 0.62109,0.1875 1.23047,0.4063 1.83203,0.6563 0.60156,0.25 1.1875,0.5273 1.76172,0.832 0.57422,0.3086 1.1289,0.6406 1.66797,1.0039 0.54297,0.3594 1.0625,0.7461 1.5664,1.1602 0.50391,0.4101 0.98438,0.8476 1.44141,1.3047 0.46094,0.4609 0.89844,0.9414 1.30859,1.4453 0.41407,0.5039 0.80078,1.0234 1.16016,1.5625 0.36328,0.5429 0.69531,1.0976 1.00391,1.6718 0.30468,0.5743 0.58203,1.1602 0.83203,1.7618 0.25,0.6015 0.46875,1.2109 0.65625,1.832 0.1875,0.625 0.34765,1.2539 0.47265,1.8906 0.12891,0.6367 0.22266,1.2813 0.28516,1.9258 0.0664,0.6484 0.0977,1.2969 0.0977,1.9453 z m 0,0"
     fill-opacity="1"
     fill-rule="nonzero"
     id="path2615" />
  <path
     fill="#eaa43a"
     d="m 72.40625,176.41407 v -2.9922 c -1.49219,-0.1836 -2.70703,-0.5156 -3.64063,-1 -0.92968,-0.4805 -1.73828,-1.2656 -2.41797,-2.3359 -0.67968,-1.0742 -1.07031,-2.3828 -1.1875,-3.9375 l 2.9961,-0.5782 c 0.23047,1.6133 0.64062,2.8008 1.22656,3.5547 0.83984,1.0625 1.84766,1.6563 3.02344,1.7813 v -9.3828 c -1.23047,-0.3203 -2.48438,-0.8438 -3.76563,-1.5625 -0.95312,-0.5274 -1.67968,-1.2617 -2.19922,-2.2032 -0.51171,-0.9492 -0.76953,-2.0117 -0.76953,-3.207 0,-2.125 0.75391,-3.8515 2.25782,-5.1719 1,-0.8789 2.49218,-1.4218 4.47656,-1.625 v -1.4257 h 1.76562 v 1.4257 c 1.72657,0.168 3.10157,0.6797 4.11719,1.5391 1.29688,1.0859 2.07422,2.582 2.34375,4.4805 l -3.0625,0.4765 c -0.17578,-1.1836 -0.54297,-2.0976 -1.10547,-2.7265 -0.55469,-0.6328 -1.32031,-1.0469 -2.29297,-1.25 v 8.6133 c 1.50391,0.3867 2.4961,0.6875 2.98047,0.8906 0.92969,0.4062 1.67969,0.9101 2.26563,1.5 0.58984,0.582 1.03515,1.2812 1.35156,2.0859 0.3125,0.8086 0.47656,1.6836 0.47656,2.625 0,2.0703 -0.66015,3.793 -1.97265,5.1797 -1.31641,1.3867 -3.01954,2.1211 -5.10157,2.2227 v 3.0234 z m 0,-26.1758 c -1.16016,0.1797 -2.07813,0.6406 -2.73828,1.3985 -0.67188,0.7578 -1.00391,1.6406 -1.00391,2.6718 0,1.0274 0.28516,1.8789 0.85156,2.5625 0.57032,0.6836 1.52735,1.2071 2.89063,1.5586 z m 1.76562,20.668 c 1.16407,-0.1406 2.1211,-0.6485 2.87891,-1.5117 0.75391,-0.8633 1.12891,-1.9297 1.12891,-3.1993 0,-1.0859 -0.26172,-1.957 -0.80079,-2.6171 -0.53906,-0.6602 -1.60937,-1.1914 -3.20703,-1.6055 z m 0,0"
     fill-opacity="1"
     fill-rule="evenodd"
     id="path2616" />
  <path
     fill="#ed7d27"
     d="m 71.71484,175.59377 v -2.9883 c -1.48437,-0.1836 -2.69922,-0.5195 -3.63672,-1.0039 -0.93359,-0.4805 -1.73828,-1.2656 -2.41797,-2.332 -0.67578,-1.0743 -1.0664,-2.3868 -1.18359,-3.9375 l 2.98828,-0.5821 c 0.23438,1.6172 0.64063,2.8047 1.23438,3.5547 0.83984,1.0625 1.84765,1.6602 3.01562,1.7813 v -9.3828 c -1.22265,-0.3164 -2.47656,-0.8399 -3.75781,-1.5586 -0.95313,-0.5313 -1.68359,-1.2657 -2.19922,-2.2071 -0.51172,-0.9453 -0.76953,-2.0117 -0.76953,-3.207 0,-2.1211 0.75,-3.8477 2.25391,-5.168 1.0039,-0.8789 2.49609,-1.4257 4.47265,-1.625 v -1.4257 h 1.77344 v 1.4257 c 1.72656,0.1641 3.09375,0.6797 4.10937,1.5352 1.30079,1.0859 2.08204,2.5859 2.34766,4.4844 l -3.0625,0.4726 c -0.17187,-1.1797 -0.53906,-2.0937 -1.10156,-2.7226 -0.5586,-0.6368 -1.32031,-1.0469 -2.29297,-1.2539 v 8.6171 c 1.50391,0.3829 2.49219,0.6836 2.97656,0.8907 0.92969,0.4062 1.6836,0.9062 2.26953,1.4961 0.58985,0.5859 1.03516,1.2812 1.35157,2.0898 0.3125,0.8086 0.47265,1.6797 0.47265,2.6211 0,2.0742 -0.65625,3.793 -1.96875,5.1797 -1.32031,1.3828 -3.01953,2.1211 -5.10156,2.2226 v 3.0235 z m 0,-26.1758 c -1.15234,0.1758 -2.07031,0.6406 -2.73437,1.3984 -0.66797,0.7579 -1,1.6446 -1,2.6758 0,1.0235 0.28125,1.875 0.85156,2.5586 0.5625,0.6875 1.52344,1.211 2.88281,1.5625 z m 1.77344,20.668 c 1.15625,-0.1367 2.11328,-0.6446 2.87891,-1.5078 0.75,-0.8633 1.1289,-1.9336 1.1289,-3.2032 0,-1.0859 -0.26562,-1.9531 -0.80078,-2.6172 -0.53906,-0.6562 -1.60937,-1.1914 -3.20703,-1.6054 z m 0,0"
     fill-opacity="1"
     fill-rule="evenodd"
     id="path2617" />
  <g
     fill="#ff576b"
     fill-opacity="1"
     id="g2620"
     transform="translate(-768.51172,-1520.2695)">
    <g
       transform="translate(829.60728,1782.2345)"
       id="g2619">
      <g
         id="g2618">
        <path
           d="m 2.875,-25.109375 c 1.269531,-1.914063 3.195312,-3.144531 5.78125,-3.6875 0.945312,-0.1875 1.941406,-0.28125 2.984375,-0.28125 3.945313,0 8.398437,1.417969 13.359375,4.25 L 24.078125,-21.5 c -4.84375,-2.570312 -8.980469,-3.859375 -12.40625,-3.859375 -0.804687,0 -1.558594,0.07422 -2.265625,0.21875 -1.730469,0.324219 -2.929688,1.101563 -3.59375,2.328125 -0.398438,0.742188 -0.59375,1.476562 -0.59375,2.203125 0,0.02344 0,0.03125 0,0.03125 V -20.5 h 2.015625 v 3.6875 H 5.25 V 0.109375 H 1.5625 V -16.8125 H -0.421875 V -20.5 h 1.875 c 0,-1.582031 0.472656,-3.117188 1.421875,-4.609375 z m 0,0"
           id="path2618" />
      </g>
    </g>
  </g>
  <g
     fill="#ff576b"
     fill-opacity="1"
     id="g2623"
     transform="translate(-768.51172,-1520.2695)">
    <g
       transform="translate(836.45061,1782.2345)"
       id="g2622">
      <g
         id="g2621">
        <path
           d="m 7.765625,-16.8125 c 1.28125,0.761719 2.472656,1.683594 3.578125,2.765625 l 0.5,3.1875 c -1.699219,0.355469 -3.375,1.164063 -5.03125,2.421875 2.570312,0.542969 4.75,1.59375 6.53125,3.15625 V -14.75 c 1.90625,-0.09375 3.796875,0.105469 5.671875,0.59375 2.332031,0.6875 4.140625,1.992188 5.421875,3.90625 0.875,1.324219 1.238281,2.695312 1.09375,4.109375 -0.210938,1.304687 -0.824219,2.324219 -1.84375,3.0625 -1.699219,1.25 -3.636719,1.132813 -5.8125,-0.359375 l 1.703125,-3.4375 c 0.875,0.84375 1.515625,1.117188 1.921875,0.8125 0.226562,-0.144531 0.34375,-0.359375 0.34375,-0.640625 0,-0.46875 -0.179688,-0.976563 -0.53125,-1.53125 C 20.34375,-9.722656 18.925781,-10.5625 17.0625,-10.75 V 0.140625 H 13.71875 C 11.332031,-3.265625 7.597656,-4.988281 2.515625,-5.03125 L 1.09375,-8.375 c 1.75,-1.914062 3.65625,-3.472656 5.71875,-4.671875 -1.398438,-1.320313 -3.433594,-2.101563 -6.109375,-2.34375 L 1.09375,-16.8125 H -0.359375 V -20.5 H 26.53125 v 3.6875 z m 0,0"
           id="path2620" />
      </g>
    </g>
  </g>
  <g
     fill="#0e4275"
     fill-opacity="1"
     id="g2629"
     transform="translate(-768.51172,-1520.2695)">
    <g
       transform="translate(870.42994,1782.2345)"
       id="g2628">
      <g
         id="g2627">
        <path
           d="m 6.671875,-14.890625 c 1.65625,-0.03125 3.015625,0.652344 4.078125,2.046875 l 2.546875,-2.796875 c -0.617187,-0.664063 -1.511719,-1.046875 -2.6875,-1.140625 -1.78125,-0.07031 -3.09375,0.558594 -3.9375,1.890625 z M 17.765625,-20.5 h 5.46875 v 3.6875 h -1.78125 V 0.140625 h -3.6875 V -8.09375 c -0.429687,-2.238281 -1.125,-3.804688 -2.09375,-4.703125 L 9.15625,-5.03125 6.0625,-7.625 8.125,-10.171875 c -0.40625,-0.832031 -1.046875,-1.285156 -1.921875,-1.359375 -0.992187,0 -1.886719,0.570312 -2.6875,1.703125 l -2.875,-2.34375 c 0.707031,-2.3125 1.75,-4.175781 3.125,-5.59375 1.976563,-2.0625 4.363281,-2.960937 7.15625,-2.703125 2.863281,0.261719 5.300781,1.964844 7.3125,5.109375 l -0.46875,-2.484375 z m 0,13.828125 3.734375,2.03125 v 5.78125 h -3.296875 c -0.523437,-0.761719 -1.386719,-1.257813 -2.59375,-1.5 -0.875,-0.164063 -2.105469,0.226563 -3.6875,1.171875 C 9.335938,2.207031 7.078125,2.300781 5.140625,1.09375 3.742188,0.25 2.609375,-0.929688 1.734375,-2.453125 l 2.234375,-2.40625 c 0.707031,1.398437 1.664062,2.375 2.875,2.9375 0.945312,0.460937 2.140625,0.28125 3.578125,-0.53125 2.71875,-1.625 5.164063,-1.765625 7.34375,-0.421875 z m 0,0"
           id="path2626" />
      </g>
    </g>
  </g>
  <g
     fill="#0e4275"
     fill-opacity="1"
     id="g2632"
     transform="translate(-768.51172,-1520.2695)">
    <g
       transform="translate(893.33558,1782.2345)"
       id="g2631">
      <g
         id="g2630">
        <path
           d="M 19.546875,-16.8125 H 5.03125 v 6.84375 c 2.507812,-2.269531 6.203125,-4.140625 11.078125,-5.609375 l 2.46875,3.484375 c -0.9375,1.25 -1.609375,2.507812 -2.015625,3.765625 -0.65625,2 -0.609375,3.5 0.140625,4.5 0.59375,0.824219 1.53125,1.261719 2.8125,1.3125 l -1.53125,3.4375 c -2.125,-0.304687 -3.625,-1.1875 -4.5,-2.65625 C 11.992188,-4.148438 11.96875,-7.0625 13.40625,-10.46875 10.757812,-9.539062 7.828125,-7.390625 4.609375,-4.015625 L 1.34375,-5.78125 V -16.8125 h -1.625 V -20.5 h 19.828125 z m 0,0"
           id="path2629" />
      </g>
    </g>
  </g>
  <g
     fill="#0e4275"
     fill-opacity="1"
     id="g2635"
     transform="translate(-768.51172,-1520.2695)">
    <g
       transform="translate(912.51818,1782.2345)"
       id="g2634">
      <g
         id="g2633">
        <path
           d="m -0.53125,-20.5 h 8.328125 v 3.6875 H 5.5 V 0.140625 H 1.78125 V -16.8125 h -2.3125 z m 0,0"
           id="path2632" />
      </g>
    </g>
  </g>
  <g
     fill="#0e4275"
     fill-opacity="1"
     id="g2638"
     transform="translate(-768.51172,-1520.2695)">
    <g
       transform="translate(919.78699,1782.2345)"
       id="g2637">
      <g
         id="g2636">
        <path
           d="m 15.140625,-11.203125 -0.28125,-1.5 V -16.8125 H -0.46875 V -20.5 H 20.5 v 3.6875 H 18.578125 V 0.140625 h -3.71875 V -3.375 c -0.09375,-1.269531 -0.449219,-2.546875 -1.0625,-3.828125 C 12.617188,-9.515625 10.773438,-10.863281 8.265625,-11.25 6.460938,-11.53125 5.207031,-11.046875 4.5,-9.796875 4.03125,-8.867188 4.066406,-8.0625 4.609375,-7.375 5.242188,-6.644531 7.019531,-6.523438 9.9375,-7.015625 l -0.75,3.71875 c -3.449219,0.636719 -5.90625,0.058594 -7.375,-1.734375 -0.78125,-0.875 -1.183594,-1.953125 -1.203125,-3.234375 -0.074219,-1.175781 0.132813,-2.285156 0.625,-3.328125 1.59375,-2.75 4.125,-3.863281 7.59375,-3.34375 2.269531,0.355469 4.375,1.601562 6.3125,3.734375 z m 0,0"
           id="path2635" />
      </g>
    </g>
  </g>
</svg>
