<?xml version="1.0" encoding="UTF-8" standalone="no"?>
<svg
   width="310.03125"
   zoomAndPan="magnify"
   viewBox="0 0 232.52344 277.84765"
   height="370.46353"
   preserveAspectRatio="xMidYMid"
   version="1.0"
   id="svg3945"
   sodipodi:docname="Sheba Enterprise.svg"
   xmlns:inkscape="http://www.inkscape.org/namespaces/inkscape"
   xmlns:sodipodi="http://sodipodi.sourceforge.net/DTD/sodipodi-0.dtd"
   xmlns="http://www.w3.org/2000/svg"
   xmlns:svg="http://www.w3.org/2000/svg">
  <sodipodi:namedview
     id="namedview3945"
     pagecolor="#ffffff"
     bordercolor="#000000"
     borderopacity="0.25"
     inkscape:showpageshadow="2"
     inkscape:pageopacity="0.0"
     inkscape:pagecheckerboard="0"
     inkscape:deskcolor="#d1d1d1"
     inkscape:export-bgcolor="#00000000" />
  <defs
     id="defs2384">
    <clipPath
       id="1001315178">
      <path
         d="M 768.51172,409.52734 H 1001.0352 V 594.99219 H 768.51172 Z m 0,0"
         clip-rule="nonzero"
         id="path1373" />
    </clipPath>
    <clipPath
       id="e385c2e719">
      <path
         d="m 787.25391,409.52734 h 195.03906 c 4.97265,0 9.73828,1.97657 13.2539,5.48828 3.51563,3.51563 5.48833,8.28516 5.48833,13.25391 V 576.25 c 0,4.97266 -1.9727,9.73828 -5.48833,13.25391 -3.51562,3.51562 -8.28125,5.48828 -13.2539,5.48828 H 787.25391 c -4.97266,0 -9.73829,-1.97266 -13.25391,-5.48828 -3.51563,-3.51563 -5.48828,-8.28125 -5.48828,-13.25391 V 428.26953 c 0,-4.96875 1.97265,-9.73828 5.48828,-13.25391 3.51562,-3.51171 8.28125,-5.48828 13.25391,-5.48828 z m 0,0"
         clip-rule="nonzero"
         id="path1374" />
    </clipPath>
    <clipPath
       id="3bc77c3334">
      <path
         d="M 768.51172,317.14453 H 1001.0352 V 549.66797 H 768.51172 Z m 0,0"
         clip-rule="nonzero"
         id="path1375" />
    </clipPath>
    <clipPath
       id="2c73298708">
      <path
         d="m 787.25391,317.14453 h 195.03906 c 4.97265,0 9.73828,1.97656 13.2539,5.48828 3.51563,3.51563 5.48833,8.28516 5.48833,13.25391 v 195.03906 c 0,4.97266 -1.9727,9.73828 -5.48833,13.25391 -3.51562,3.51562 -8.28125,5.48828 -13.2539,5.48828 H 787.25391 c -4.97266,0 -9.73829,-1.97266 -13.25391,-5.48828 -3.51563,-3.51563 -5.48828,-8.28125 -5.48828,-13.25391 V 335.88672 c 0,-4.96875 1.97265,-9.73828 5.48828,-13.25391 3.51562,-3.51172 8.28125,-5.48828 13.25391,-5.48828 z m 0,0"
         clip-rule="nonzero"
         id="path1376" />
    </clipPath>
    <linearGradient
       x1="4.6857302e-05"
       gradientTransform="matrix(0.908298,0,0,0.908298,768.51166,317.14492)"
       y1="4.6857302e-05"
       x2="256"
       gradientUnits="userSpaceOnUse"
       y2="256"
       id="d038e749aa">
      <stop
         stop-opacity="1"
         stop-color="rgb(81.599426%, 81.599426%, 81.599426%)"
         offset="0"
         id="stop1376" />
      <stop
         stop-opacity="1"
         stop-color="rgb(81.742859%, 81.742859%, 81.742859%)"
         offset="0.015625"
         id="stop1377" />
      <stop
         stop-opacity="1"
         stop-color="rgb(82.029724%, 82.029724%, 82.029724%)"
         offset="0.03125"
         id="stop1378" />
      <stop
         stop-opacity="1"
         stop-color="rgb(82.318115%, 82.318115%, 82.318115%)"
         offset="0.046875"
         id="stop1379" />
      <stop
         stop-opacity="1"
         stop-color="rgb(82.60498%, 82.60498%, 82.60498%)"
         offset="0.0625"
         id="stop1380" />
      <stop
         stop-opacity="1"
         stop-color="rgb(82.893372%, 82.893372%, 82.893372%)"
         offset="0.078125"
         id="stop1381" />
      <stop
         stop-opacity="1"
         stop-color="rgb(83.180237%, 83.180237%, 83.180237%)"
         offset="0.09375"
         id="stop1382" />
      <stop
         stop-opacity="1"
         stop-color="rgb(83.467102%, 83.467102%, 83.467102%)"
         offset="0.109375"
         id="stop1383" />
      <stop
         stop-opacity="1"
         stop-color="rgb(83.755493%, 83.755493%, 83.755493%)"
         offset="0.125"
         id="stop1384" />
      <stop
         stop-opacity="1"
         stop-color="rgb(84.042358%, 84.042358%, 84.042358%)"
         offset="0.140625"
         id="stop1385" />
      <stop
         stop-opacity="1"
         stop-color="rgb(84.33075%, 84.33075%, 84.33075%)"
         offset="0.15625"
         id="stop1386" />
      <stop
         stop-opacity="1"
         stop-color="rgb(84.617615%, 84.617615%, 84.617615%)"
         offset="0.171875"
         id="stop1387" />
      <stop
         stop-opacity="1"
         stop-color="rgb(84.90448%, 84.90448%, 84.90448%)"
         offset="0.1875"
         id="stop1388" />
      <stop
         stop-opacity="1"
         stop-color="rgb(85.192871%, 85.192871%, 85.192871%)"
         offset="0.203125"
         id="stop1389" />
      <stop
         stop-opacity="1"
         stop-color="rgb(85.479736%, 85.479736%, 85.479736%)"
         offset="0.21875"
         id="stop1390" />
      <stop
         stop-opacity="1"
         stop-color="rgb(85.768127%, 85.768127%, 85.768127%)"
         offset="0.234375"
         id="stop1391" />
      <stop
         stop-opacity="1"
         stop-color="rgb(86.054993%, 86.054993%, 86.054993%)"
         offset="0.25"
         id="stop1392" />
      <stop
         stop-opacity="1"
         stop-color="rgb(86.343384%, 86.343384%, 86.343384%)"
         offset="0.265625"
         id="stop1393" />
      <stop
         stop-opacity="1"
         stop-color="rgb(86.630249%, 86.630249%, 86.630249%)"
         offset="0.28125"
         id="stop1394" />
      <stop
         stop-opacity="1"
         stop-color="rgb(86.917114%, 86.917114%, 86.917114%)"
         offset="0.296875"
         id="stop1395" />
      <stop
         stop-opacity="1"
         stop-color="rgb(87.205505%, 87.205505%, 87.205505%)"
         offset="0.3125"
         id="stop1396" />
      <stop
         stop-opacity="1"
         stop-color="rgb(87.492371%, 87.492371%, 87.492371%)"
         offset="0.328125"
         id="stop1397" />
      <stop
         stop-opacity="1"
         stop-color="rgb(87.780762%, 87.780762%, 87.780762%)"
         offset="0.34375"
         id="stop1398" />
      <stop
         stop-opacity="1"
         stop-color="rgb(88.067627%, 88.067627%, 88.067627%)"
         offset="0.359375"
         id="stop1399" />
      <stop
         stop-opacity="1"
         stop-color="rgb(88.354492%, 88.354492%, 88.354492%)"
         offset="0.375"
         id="stop1400" />
      <stop
         stop-opacity="1"
         stop-color="rgb(88.642883%, 88.642883%, 88.642883%)"
         offset="0.390625"
         id="stop1401" />
      <stop
         stop-opacity="1"
         stop-color="rgb(88.929749%, 88.929749%, 88.929749%)"
         offset="0.40625"
         id="stop1402" />
      <stop
         stop-opacity="1"
         stop-color="rgb(89.21814%, 89.21814%, 89.21814%)"
         offset="0.421875"
         id="stop1403" />
      <stop
         stop-opacity="1"
         stop-color="rgb(89.505005%, 89.505005%, 89.505005%)"
         offset="0.4375"
         id="stop1404" />
      <stop
         stop-opacity="1"
         stop-color="rgb(89.793396%, 89.793396%, 89.793396%)"
         offset="0.453125"
         id="stop1405" />
      <stop
         stop-opacity="1"
         stop-color="rgb(90.080261%, 90.080261%, 90.080261%)"
         offset="0.46875"
         id="stop1406" />
      <stop
         stop-opacity="1"
         stop-color="rgb(90.367126%, 90.367126%, 90.367126%)"
         offset="0.484375"
         id="stop1407" />
      <stop
         stop-opacity="1"
         stop-color="rgb(90.655518%, 90.655518%, 90.655518%)"
         offset="0.5"
         id="stop1408" />
      <stop
         stop-opacity="1"
         stop-color="rgb(90.79895%, 90.79895%, 90.79895%)"
         offset="0.5"
         id="stop1409" />
      <stop
         stop-opacity="1"
         stop-color="rgb(90.942383%, 90.942383%, 90.942383%)"
         offset="0.5"
         id="stop1410" />
      <stop
         stop-opacity="1"
         stop-color="rgb(91.087341%, 91.087341%, 91.087341%)"
         offset="0.515625"
         id="stop1411" />
      <stop
         stop-opacity="1"
         stop-color="rgb(91.230774%, 91.230774%, 91.230774%)"
         offset="0.53125"
         id="stop1412" />
      <stop
         stop-opacity="1"
         stop-color="rgb(91.517639%, 91.517639%, 91.517639%)"
         offset="0.546875"
         id="stop1413" />
      <stop
         stop-opacity="1"
         stop-color="rgb(91.804504%, 91.804504%, 91.804504%)"
         offset="0.5625"
         id="stop1414" />
      <stop
         stop-opacity="1"
         stop-color="rgb(92.092896%, 92.092896%, 92.092896%)"
         offset="0.578125"
         id="stop1415" />
      <stop
         stop-opacity="1"
         stop-color="rgb(92.379761%, 92.379761%, 92.379761%)"
         offset="0.59375"
         id="stop1416" />
      <stop
         stop-opacity="1"
         stop-color="rgb(92.668152%, 92.668152%, 92.668152%)"
         offset="0.609375"
         id="stop1417" />
      <stop
         stop-opacity="1"
         stop-color="rgb(92.955017%, 92.955017%, 92.955017%)"
         offset="0.625"
         id="stop1418" />
      <stop
         stop-opacity="1"
         stop-color="rgb(93.243408%, 93.243408%, 93.243408%)"
         offset="0.640625"
         id="stop1419" />
      <stop
         stop-opacity="1"
         stop-color="rgb(93.530273%, 93.530273%, 93.530273%)"
         offset="0.65625"
         id="stop1420" />
      <stop
         stop-opacity="1"
         stop-color="rgb(93.817139%, 93.817139%, 93.817139%)"
         offset="0.671875"
         id="stop1421" />
      <stop
         stop-opacity="1"
         stop-color="rgb(94.10553%, 94.10553%, 94.10553%)"
         offset="0.6875"
         id="stop1422" />
      <stop
         stop-opacity="1"
         stop-color="rgb(94.392395%, 94.392395%, 94.392395%)"
         offset="0.703125"
         id="stop1423" />
      <stop
         stop-opacity="1"
         stop-color="rgb(94.680786%, 94.680786%, 94.680786%)"
         offset="0.71875"
         id="stop1424" />
      <stop
         stop-opacity="1"
         stop-color="rgb(94.967651%, 94.967651%, 94.967651%)"
         offset="0.734375"
         id="stop1425" />
      <stop
         stop-opacity="1"
         stop-color="rgb(95.254517%, 95.254517%, 95.254517%)"
         offset="0.75"
         id="stop1426" />
      <stop
         stop-opacity="1"
         stop-color="rgb(95.542908%, 95.542908%, 95.542908%)"
         offset="0.765625"
         id="stop1427" />
      <stop
         stop-opacity="1"
         stop-color="rgb(95.829773%, 95.829773%, 95.829773%)"
         offset="0.78125"
         id="stop1428" />
      <stop
         stop-opacity="1"
         stop-color="rgb(96.118164%, 96.118164%, 96.118164%)"
         offset="0.796875"
         id="stop1429" />
      <stop
         stop-opacity="1"
         stop-color="rgb(96.405029%, 96.405029%, 96.405029%)"
         offset="0.8125"
         id="stop1430" />
      <stop
         stop-opacity="1"
         stop-color="rgb(96.69342%, 96.69342%, 96.69342%)"
         offset="0.828125"
         id="stop1431" />
      <stop
         stop-opacity="1"
         stop-color="rgb(96.980286%, 96.980286%, 96.980286%)"
         offset="0.84375"
         id="stop1432" />
      <stop
         stop-opacity="1"
         stop-color="rgb(97.267151%, 97.267151%, 97.267151%)"
         offset="0.859375"
         id="stop1433" />
      <stop
         stop-opacity="1"
         stop-color="rgb(97.555542%, 97.555542%, 97.555542%)"
         offset="0.875"
         id="stop1434" />
      <stop
         stop-opacity="1"
         stop-color="rgb(97.842407%, 97.842407%, 97.842407%)"
         offset="0.890625"
         id="stop1435" />
      <stop
         stop-opacity="1"
         stop-color="rgb(98.130798%, 98.130798%, 98.130798%)"
         offset="0.90625"
         id="stop1436" />
      <stop
         stop-opacity="1"
         stop-color="rgb(98.417664%, 98.417664%, 98.417664%)"
         offset="0.921875"
         id="stop1437" />
      <stop
         stop-opacity="1"
         stop-color="rgb(98.704529%, 98.704529%, 98.704529%)"
         offset="0.9375"
         id="stop1438" />
      <stop
         stop-opacity="1"
         stop-color="rgb(98.99292%, 98.99292%, 98.99292%)"
         offset="0.953125"
         id="stop1439" />
      <stop
         stop-opacity="1"
         stop-color="rgb(99.279785%, 99.279785%, 99.279785%)"
         offset="0.96875"
         id="stop1440" />
      <stop
         stop-opacity="1"
         stop-color="rgb(99.568176%, 99.568176%, 99.568176%)"
         offset="0.984375"
         id="stop1441" />
      <stop
         stop-opacity="1"
         stop-color="rgb(99.855042%, 99.855042%, 99.855042%)"
         offset="1"
         id="stop1442" />
    </linearGradient>
    <clipPath
       id="1c0446b94a">
      <path
         d="M 768.51172,317.14453 H 1000.9141 V 549.54687 H 768.51172 Z m 0,0"
         clip-rule="nonzero"
         id="path1442" />
    </clipPath>
    <clipPath
       id="be396aa633">
      <path
         d="m 787.24219,317.14453 h 194.9375 c 4.96875,0 9.73437,1.97266 13.24609,5.48828 3.51563,3.51172 5.48832,8.27735 5.48832,13.2461 v 194.9375 c 0,4.96484 -1.97269,9.73046 -5.48832,13.24609 -3.51172,3.51172 -8.27734,5.48437 -13.24609,5.48437 h -194.9375 c -4.96485,0 -9.73047,-1.97265 -13.24219,-5.48437 -3.51563,-3.51563 -5.48828,-8.28125 -5.48828,-13.24609 v -194.9375 c 0,-4.96875 1.97265,-9.73438 5.48828,-13.2461 3.51172,-3.51562 8.27734,-5.48828 13.24219,-5.48828 z m 0,0"
         clip-rule="nonzero"
         id="path1443" />
    </clipPath>
    <clipPath
       id="ff4b959943">
      <path
         d="m 879,365.82031 h 69 V 386 h -69 z m 0,0"
         clip-rule="nonzero"
         id="path1444" />
    </clipPath>
    <clipPath
       id="d0da0897de">
      <path
         d="m 858,367 h 90.19141 V 475 H 858 Z m 0,0"
         clip-rule="nonzero"
         id="path1445" />
    </clipPath>
    <clipPath
       id="2ee62a6202">
      <path
         d="M 821.49609,377 H 889 v 93 h -67.50391 z m 0,0"
         clip-rule="nonzero"
         id="path1446" />
    </clipPath>
    <clipPath
       id="5a2868ba13">
      <path
         d="m 847,464 h 72 v 36.76562 h -72 z m 0,0"
         clip-rule="nonzero"
         id="path1447" />
    </clipPath>
    <clipPath
       id="85a79afaa9">
      <path
         d="m 837,398 h 83 v 102.76562 h -83 z m 0,0"
         clip-rule="nonzero"
         id="path1448" />
    </clipPath>
  </defs>
  <g
     clip-path="url(#1001315178)"
     id="g3277"
     transform="translate(-768.51172,-317.14453)">
    <g
       clip-path="url(#e385c2e719)"
       id="g3276">
      <path
         fill="#ffffff"
         d="M 768.51172,409.52734 H 1001.0352 V 594.99219 H 768.51172 Z m 0,0"
         fill-opacity="1"
         fill-rule="nonzero"
         id="path3276" />
    </g>
  </g>
  <g
     clip-path="url(#3bc77c3334)"
     id="g3279"
     transform="translate(-768.51172,-317.14453)">
    <g
       clip-path="url(#2c73298708)"
       id="g3278">
      <path
         fill="url(#d038e749aa)"
         d="M 768.51172,317.14453 V 549.66797 H 1001.0352 V 317.14453 Z m 0,0"
         fill-rule="nonzero"
         id="path3277"
         style="fill:url(#d038e749aa)" />
    </g>
  </g>
  <g
     clip-path="url(#1c0446b94a)"
     id="g3281"
     transform="translate(-768.51172,-317.14453)">
    <g
       clip-path="url(#be396aa633)"
       id="g3280">
      <path
         stroke-linecap="butt"
         transform="matrix(0.749307,0,0,0.749307,768.51164,317.14503)"
         fill="none"
         stroke-linejoin="miter"
         d="m 24.99717,-6.62476e-4 h 260.15715 c 6.63113,0 12.99117,2.632641476 17.6778,7.324478476 4.69183,4.686624 7.32447,11.04667 7.32447,17.677799 V 285.15876 c 0,6.62592 -2.63264,12.98596 -7.32447,17.6778 -4.68663,4.68662 -11.04667,7.31927 -17.6778,7.31927 H 24.99717 c -6.625917,0 -12.985962,-2.63265 -17.672586,-7.31927 C 2.632747,298.14472 1.0513e-4,291.78468 1.0513e-4,285.15876 V 25.001615 C 1.0513e-4,18.370486 2.632747,12.01044 7.324584,7.323816 12.011208,2.631979 18.371253,-6.62476e-4 24.99717,-6.62476e-4 Z m 0,0"
         stroke="#ffffff"
         stroke-width="30"
         stroke-opacity="1"
         stroke-miterlimit="4"
         id="path3279" />
    </g>
  </g>
  <g
     fill="#b52026"
     fill-opacity="1"
     id="g3284"
     transform="translate(-768.51172,-317.14453)">
    <g
       transform="translate(809.90736,579.44524)"
       id="g3283">
      <g
         id="g3282">
        <path
           d="m 2.875,-25.109375 c 1.269531,-1.914063 3.195312,-3.144531 5.78125,-3.6875 0.945312,-0.1875 1.941406,-0.28125 2.984375,-0.28125 3.945313,0 8.398437,1.417969 13.359375,4.25 L 24.078125,-21.5 c -4.84375,-2.570312 -8.980469,-3.859375 -12.40625,-3.859375 -0.804687,0 -1.558594,0.07422 -2.265625,0.21875 -1.730469,0.324219 -2.929688,1.101563 -3.59375,2.328125 -0.398438,0.742188 -0.59375,1.476562 -0.59375,2.203125 0,0.02344 0,0.03125 0,0.03125 V -20.5 h 2.015625 v 3.6875 H 5.25 V 0.109375 H 1.5625 V -16.8125 H -0.421875 V -20.5 h 1.875 c 0,-1.582031 0.472656,-3.117188 1.421875,-4.609375 z m 0,0"
           id="path3281" />
      </g>
    </g>
  </g>
  <g
     fill="#b52026"
     fill-opacity="1"
     id="g3287"
     transform="translate(-768.51172,-317.14453)">
    <g
       transform="translate(816.75134,579.44524)"
       id="g3286">
      <g
         id="g3285">
        <path
           d="m 14.65625,-14.9375 v -1.875 l -5.890625,0.03125 c 0.894531,0.761719 1.492187,1.671875 1.796875,2.734375 0.519531,-0.539063 1.1875,-0.773437 2,-0.703125 0.988281,0.117188 1.800781,0.609375 2.4375,1.484375 z M 20.390625,-20.5 v 3.6875 H 18.375 V 0.140625 H 14.65625 V -7.375 c -0.105469,-0.875 -0.355469,-1.628906 -0.75,-2.265625 -0.429688,-0.59375 -0.9375,-0.867187 -1.53125,-0.828125 -0.5625,0 -1.152344,0.640625 -1.765625,1.921875 -1,2.03125 -2.117187,3.464844 -3.34375,4.296875 -1.367187,0.96875 -2.761719,0.96875 -4.1875,0 C 2.210938,-4.988281 1.363281,-6.101562 0.53125,-7.59375 l 2.796875,-2.515625 c 0.851563,1.992187 1.550781,2.890625 2.09375,2.703125 0.425781,-0.164062 0.984375,-1.066406 1.671875,-2.703125 0.207031,-0.539063 0.234375,-1.238281 0.078125,-2.09375 -0.148437,-0.820313 -0.46875,-1.507813 -0.96875,-2.0625 -1.0625,-1.132813 -2.917969,-1.59375 -5.5625,-1.375 l 0.3125,-1.171875 H -0.46875 V -20.5 Z m 0,0"
           id="path3284" />
      </g>
    </g>
  </g>
  <g
     fill="#b52026"
     fill-opacity="1"
     id="g3290"
     transform="translate(-768.51172,-317.14453)">
    <g
       transform="translate(836.64499,579.44524)"
       id="g3289">
      <g
         id="g3288">
        <path
           d="m 2.875,-25.109375 c 1.269531,-1.914063 3.195312,-3.144531 5.78125,-3.6875 0.945312,-0.1875 1.941406,-0.28125 2.984375,-0.28125 3.945313,0 8.398437,1.417969 13.359375,4.25 L 24.078125,-21.5 c -4.84375,-2.570312 -8.980469,-3.859375 -12.40625,-3.859375 -0.804687,0 -1.558594,0.07422 -2.265625,0.21875 -1.730469,0.324219 -2.929688,1.101563 -3.59375,2.328125 -0.398438,0.742188 -0.59375,1.476562 -0.59375,2.203125 0,0.02344 0,0.03125 0,0.03125 V -20.5 h 2.015625 v 3.6875 H 5.25 V 0.109375 H 1.5625 V -16.8125 H -0.421875 V -20.5 h 1.875 c 0,-1.582031 0.472656,-3.117188 1.421875,-4.609375 z m 0,0"
           id="path3287" />
      </g>
    </g>
  </g>
  <g
     fill="#b52026"
     fill-opacity="1"
     id="g3293"
     transform="translate(-768.51172,-317.14453)">
    <g
       transform="translate(843.48898,579.44524)"
       id="g3292">
      <g
         id="g3291">
        <path
           d="M -0.359375,-16.8125 V -20.5 h 22.34375 v 3.6875 z m 14.515625,5.671875 C 15.195312,-11.703125 15.976562,-13.15625 16.5,-15.5 l 3.578125,0.640625 c 0.351563,1.0625 0.597656,2.058594 0.734375,2.984375 0.425781,3.1875 -0.367188,6.023438 -2.375,8.5 -2.074219,2.53125 -4.953125,3.488281 -8.640625,2.875 -4.3125,-0.6875 -7.449219,-3.59375 -9.40625,-8.71875 l 3.15625,-2.421875 c 1.46875,4.574219 3.796875,7.085937 6.984375,7.53125 1.914062,0.355469 3.582031,-0.164063 5,-1.5625 0.832031,-0.832031 1.351562,-1.921875 1.5625,-3.265625 -1.25,1.230469 -2.890625,1.890625 -4.921875,1.984375 -0.648437,0 -1.261719,-0.082031 -1.84375,-0.25 C 8.953125,-7.554688 7.882812,-8.21875 7.125,-9.1875 c -0.75,-0.988281 -1.023438,-2.191406 -0.8125,-3.609375 0.113281,-1.164063 0.679688,-2.148437 1.703125,-2.953125 1.488281,-0.875 3.5,-0.921875 6.03125,-0.140625 L 13.90625,-12.34375 C 12.0625,-13.007812 10.816406,-13.140625 10.171875,-12.734375 10.054688,-12.617188 9.988281,-12.5 9.96875,-12.375 c -0.09375,0.804688 0.332031,1.335938 1.28125,1.59375 0.96875,0.242188 1.9375,0.121094 2.90625,-0.359375 z m 0,0"
           id="path3290" />
      </g>
    </g>
  </g>
  <g
     fill="#b52026"
     fill-opacity="1"
     id="g3299"
     transform="translate(-768.51172,-317.14453)">
    <g
       transform="translate(872.70888,579.44524)"
       id="g3298">
      <g
         id="g3297">
        <path
           d="M 5,-4.46875 C 7.476562,-3.875 9.40625,-2.71875 10.78125,-1 L 8.296875,1.59375 c -1.25,-1.25 -2.667969,-2.097656 -4.25,-2.546875 z m 1.875,-5 c 2.9375,0.804688 5.300781,2.042969 7.09375,3.71875 v -7.015625 c -2.386719,0.636719 -4.75,1.734375 -7.09375,3.296875 z M 19.71875,-20.5 v 3.6875 h -2.0625 V 0.140625 h -3.359375 c -1.042969,-2.40625 -3.386719,-4.332031 -7.03125,-5.78125 -1.917969,-0.613281 -3.714844,-0.863281 -5.390625,-0.75 l -1.40625,-3.4375 c 4.507812,-3.425781 9.007812,-5.695313 13.5,-6.8125 V -16.8125 H -0.46875 V -20.5 Z m 0,0"
           id="path3296" />
      </g>
    </g>
  </g>
  <g
     fill="#b52026"
     fill-opacity="1"
     id="g3302"
     transform="translate(-768.51172,-317.14453)">
    <g
       transform="translate(891.92877,579.44524)"
       id="g3301">
      <g
         id="g3300">
        <path
           d="m -0.53125,-20.5 h 8.328125 v 3.6875 H 5.5 V 0.140625 H 1.78125 V -16.8125 h -2.3125 z m 0,0"
           id="path3299" />
      </g>
    </g>
  </g>
  <g
     fill="#b52026"
     fill-opacity="1"
     id="g3305"
     transform="translate(-768.51172,-317.14453)">
    <g
       transform="translate(899.19828,579.44524)"
       id="g3304">
      <g
         id="g3303">
        <path
           d="m 15.921875,-5.421875 c -0.75,0.75 -1.695313,1.375 -2.828125,1.875 1.957031,0.59375 4.320312,1.90625 7.09375,3.9375 l -1.0625,2.90625 c -4.335938,-2.929687 -9.917969,-4.59375 -16.75,-5 l -0.671875,-3.625 c 0.707031,0.054687 1.320313,0.105469 1.84375,0.15625 4.445313,0.117187 7.640625,-0.820313 9.578125,-2.8125 1.0625,-1.101563 1.390625,-2.070313 0.984375,-2.90625 -0.261719,-0.613281 -0.824219,-1.125 -1.6875,-1.53125 -0.949219,-0.414063 -1.992187,-0.625 -3.125,-0.625 H 9.21875 c -2.148438,0.09375 -3.636719,0.554687 -4.46875,1.375 -0.449219,0.542969 -0.570312,0.945313 -0.359375,1.203125 0.78125,0.480469 2.425781,0.414062 4.9375,-0.203125 L 8.796875,-7.125 c -2.625,0.6875 -4.625,0.6875 -6,0 -1.011719,-0.519531 -1.648437,-1.347656 -1.90625,-2.484375 -0.3125,-1.507813 0.03125,-2.878906 1.03125,-4.109375 1.769531,-1.800781 4.191406,-2.75 7.265625,-2.84375 1.863281,-0.01953 3.566406,0.359375 5.109375,1.140625 1.53125,0.773437 2.601563,1.808594 3.21875,3.109375 1.039063,2.25 0.507813,4.546875 -1.59375,6.890625 z M 19.296875,-20.5 v 3.6875 H -0.3125 V -20.5 h 13.828125 c 0,-0.851562 -0.296875,-1.410156 -0.890625,-1.671875 -1.042969,-0.46875 -2.605469,-0.617187 -4.6875,-0.453125 -2.148438,0.1875 -4.484375,0.589844 -7.015625,1.203125 L 1.0625,-25.078125 C 6.570312,-26.847656 10.921875,-27 14.109375,-25.53125 c 2.082031,0.9375 3.132813,2.617188 3.15625,5.03125 z m 0,0"
           id="path3302" />
      </g>
    </g>
  </g>
  <g
     fill="#b52026"
     fill-opacity="1"
     id="g3308"
     transform="translate(-768.51172,-317.14453)">
    <g
       transform="translate(918.13448,579.44524)"
       id="g3307">
      <g
         id="g3306">
        <path
           d="m 2.875,-25.109375 c 1.269531,-1.914063 3.195312,-3.144531 5.78125,-3.6875 0.945312,-0.1875 1.941406,-0.28125 2.984375,-0.28125 3.945313,0 8.398437,1.417969 13.359375,4.25 L 24.078125,-21.5 c -4.84375,-2.570312 -8.980469,-3.859375 -12.40625,-3.859375 -0.804687,0 -1.558594,0.07422 -2.265625,0.21875 -1.730469,0.324219 -2.929688,1.101563 -3.59375,2.328125 -0.398438,0.742188 -0.59375,1.476562 -0.59375,2.203125 0,0.02344 0,0.03125 0,0.03125 V -20.5 h 2.015625 v 3.6875 H 5.25 V 0.109375 H 1.5625 V -16.8125 H -0.421875 V -20.5 h 1.875 c 0,-1.582031 0.472656,-3.117188 1.421875,-4.609375 z m 0,0"
           id="path3305" />
      </g>
    </g>
  </g>
  <g
     fill="#b52026"
     fill-opacity="1"
     id="g3311"
     transform="translate(-768.51172,-317.14453)">
    <g
       transform="translate(924.97846,579.44524)"
       id="g3310">
      <g
         id="g3309">
        <path
           d="m 20.46875,-16.8125 h -15.25 V -3.625 c 5.007812,0.167969 8.304688,-1.285156 9.890625,-4.359375 0.613281,-1.25 0.566406,-2.097656 -0.140625,-2.546875 -0.636719,-0.382812 -1.5,-0.46875 -2.59375,-0.25 -1.210938,0.261719 -2.234375,1.027344 -3.078125,2.296875 l -2.3125,-3.078125 c 1.488281,-1.632812 3.203125,-2.601562 5.140625,-2.90625 1.84375,-0.28125 3.453125,-0.0078 4.828125,0.8125 1.082031,0.667969 1.789063,1.601562 2.125,2.796875 C 19.460938,-9.429688 19.226562,-7.914062 18.375,-6.3125 16.175781,-2.03125 11.773438,0.109375 5.171875,0.109375 4.398438,0.109375 3.726562,0.0703125 3.15625,0 l -1.625,-0.21875 V -16.8125 H -0.671875 V -20.5 H 14.9375 c 0,-0.07031 -0.121094,-0.367188 -0.359375,-0.890625 -0.40625,-0.726563 -1.292969,-1.304687 -2.65625,-1.734375 -3.011719,-0.46875 -6.84375,0.171875 -11.5,1.921875 V -24.6875 c 4.757813,-2.144531 8.921875,-2.804688 12.484375,-1.984375 2.488281,0.710937 4.15625,1.9375 5,3.6875 0.445312,0.992187 0.695312,1.820313 0.75,2.484375 h 1.8125 z m 0,0"
           id="path3308" />
      </g>
    </g>
  </g>
  <g
     fill="#b52026"
     fill-opacity="1"
     id="g3314"
     transform="translate(-768.51172,-317.14453)">
    <g
       transform="translate(944.87211,579.44524)"
       id="g3313">
      <g
         id="g3312">
        <path
           d="m 7.984375,-9.640625 c -1.636719,0 -3.03125,-0.519531 -4.1875,-1.5625 -1.1875,-1.0625 -1.78125,-2.363281 -1.78125,-3.90625 0,-1.507813 0.59375,-2.785156 1.78125,-3.828125 1.15625,-1.0625 2.550781,-1.59375 4.1875,-1.59375 1.625,0 3.03125,0.53125 4.21875,1.59375 1.15625,1.042969 1.734375,2.320312 1.734375,3.828125 0,1.542969 -0.578125,2.84375 -1.734375,3.90625 -1.1875,1.042969 -2.59375,1.5625 -4.21875,1.5625 z m 0,-7.484375 c -0.6875,0 -1.292969,0.234375 -1.8125,0.703125 -0.46875,0.449219 -0.703125,0.96875 -0.703125,1.5625 0,0.617187 0.234375,1.148437 0.703125,1.59375 0.519531,0.429687 1.125,0.640625 1.8125,0.640625 0.707031,0 1.3125,-0.210938 1.8125,-0.640625 0.46875,-0.445313 0.703125,-0.976563 0.703125,-1.59375 0,-0.59375 -0.234375,-1.113281 -0.703125,-1.5625 -0.5,-0.46875 -1.105469,-0.703125 -1.8125,-0.703125 z M 0.8125,-4.25 1.390625,-8.046875 C 3.722656,-8.023438 5.800781,-7.550781 7.625,-6.625 c 2.957031,1.492188 5.300781,3.746094 7.03125,6.765625 L 12.0625,2.65625 C 10.238281,-0.394531 8.039062,-2.488281 5.46875,-3.625 4.375,-4.070312 3.164062,-4.296875 1.84375,-4.296875 1.507812,-4.296875 1.164062,-4.28125 0.8125,-4.25 Z m 0,0"
           id="path3311" />
      </g>
    </g>
  </g>
  <g
     clip-path="url(#ff4b959943)"
     id="g3315"
     transform="translate(-768.51172,-317.14453)">
    <path
       fill="#d3d2d2"
       d="m 946.69141,385.8125 -62.63672,-17.81641 -2.77344,9.69532 h -1.62109 l 3.39453,-11.86719 64.13672,18.23437 -0.5,1.75391"
       fill-opacity="1"
       fill-rule="nonzero"
       id="path3314" />
  </g>
  <g
     clip-path="url(#d0da0897de)"
     id="g3316"
     transform="translate(-768.51172,-317.14453)">
    <path
       fill="#ffffff"
       d="m 922.98047,474.37891 -64.13281,-18.23829 25.20703,-88.14453 64.13281,18.24219 -25.20703,88.14063"
       fill-opacity="1"
       fill-rule="nonzero"
       id="path3315" />
  </g>
  <path
     fill="#42a3ab"
     d="m 141.5625,71.687499 -22.26172,-6.32812 1.60937,-5.63282 22.26172,6.32813 -1.60937,5.63281"
     fill-opacity="1"
     fill-rule="nonzero"
     id="path3316" />
  <path
     fill="#d3d2d2"
     d="m 140.67187,73.765629 -21.98828,-6.25391 -0.80469,2.81641 21.98438,6.2539 0.80859,-2.8164"
     fill-opacity="1"
     fill-rule="nonzero"
     id="path3317" />
  <path
     fill="#d3d2d2"
     d="m 138.97656,79.683589 -21.98437,-6.2539 -0.80469,2.8164 21.98437,6.25391 0.80469,-2.81641"
     fill-opacity="1"
     fill-rule="nonzero"
     id="path3318" />
  <path
     fill="#d3d2d2"
     d="m 137.58594,84.546879 -21.98829,-6.25391 -0.80468,2.82031 21.98828,6.25391 0.80469,-2.82031"
     fill-opacity="1"
     fill-rule="nonzero"
     id="path3319" />
  <path
     fill="#d3d2d2"
     d="m 135.86328,90.574219 -21.98438,-6.25391 -0.80859,2.81641 21.98828,6.25 0.80469,-2.8125"
     fill-opacity="1"
     fill-rule="nonzero"
     id="path3320" />
  <path
     fill="#d3d2d2"
     d="m 155.26172,125.57031 -49.1836,-13.98437 0.8086,-2.81641 49.17968,13.98438 -0.80468,2.8164"
     fill-opacity="1"
     fill-rule="nonzero"
     id="path3321" />
  <path
     fill="#d3d2d2"
     d="m 153.27344,132.51953 -49.1836,-13.98437 0.8086,-2.81641 49.17968,13.98438 -0.80468,2.8164"
     fill-opacity="1"
     fill-rule="nonzero"
     id="path3322" />
  <path
     fill="#f3d28b"
     d="m 114.78515,135.24219 -14.30859,-4.07031 3.07031,-10.73438 14.30469,4.07031 -3.06641,10.73438"
     fill-opacity="1"
     fill-rule="nonzero"
     id="path3323" />
  <path
     fill="#f3d28b"
     d="m 132.22265,140.19922 -14.30859,-4.07031 3.07031,-10.73047 14.30469,4.0664 -3.06641,10.73438"
     fill-opacity="1"
     fill-rule="nonzero"
     id="path3324" />
  <path
     fill="#f3d28b"
     d="m 149.66015,145.15625 -14.30468,-4.06641 3.0664,-10.73437 14.3086,4.06641 -3.07032,10.73437"
     fill-opacity="1"
     fill-rule="nonzero"
     id="path3325" />
  <path
     fill="#d3d2d2"
     d="m 160.66406,106.67969 -17.94531,-5.10156 0.80469,-2.816411 17.94531,5.101561 -0.80469,2.81641"
     fill-opacity="1"
     fill-rule="nonzero"
     id="path3326" />
  <path
     fill="#d3d2d2"
     d="m 159.23437,111.67188 -17.94531,-5.10157 0.80859,-2.82031 17.94141,5.10547 -0.80469,2.81641"
     fill-opacity="1"
     fill-rule="nonzero"
     id="path3327" />
  <path
     fill="#d3d2d2"
     d="m 157.80859,116.66406 -17.94531,-5.10547 0.80469,-2.8125 17.94531,5.10157 -0.80469,2.8164"
     fill-opacity="1"
     fill-rule="nonzero"
     id="path3328" />
  <path
     fill="#65bed9"
     d="m 136.875,110.71094 -28.2461,-8.03516 3.65625,-12.796871 28.2461,8.03125 -3.65625,12.800781"
     fill-opacity="1"
     fill-rule="nonzero"
     id="path3329" />
  <path
     fill="#65bed9"
     d="m 162.2539,101.12109 -20.9375,-5.953121 7.83985,-27.41016 20.93359,5.95313 -7.83594,27.410151"
     fill-opacity="1"
     fill-rule="nonzero"
     id="path3330" />
  <path
     fill="#29242c"
     d="m 162.21875,101.11328 1.08984,-3.808591 c -0.87109,-1.24219 -6.28125,-4.72266 -6.28125,-4.72266 l -7.10547,-2.02344 c 0,0 -5.58984,-0.0937 -7.42968,0.5 l -1.17579,4.10938 20.90235,5.945311"
     fill-opacity="1"
     fill-rule="nonzero"
     id="path3331" />
  <path
     fill="#ffffff"
     d="m 153.44922,98.617189 4.01562,-5.7461 -8.1289,-2.3125 0.76171,7.10938 3.35157,0.94922"
     fill-opacity="1"
     fill-rule="nonzero"
     id="path3332" />
  <path
     fill="#1b171b"
     d="m 153.08984,98.515629 0.60547,-5.26954 -1.20312,-0.34375 -2.27344,4.79688 2.87109,0.81641"
     fill-opacity="1"
     fill-rule="nonzero"
     id="path3333" />
  <path
     fill="#d5835c"
     d="m 149.96094,90.429689 c 0,0 1.8125,2.26562 3.08984,2.6289 1.27344,0.36329 4.01562,-0.60937 4.01562,-0.60937 l 0.34375,-2.33594 -6.46484,-1.83984 -0.98437,2.15625"
     fill-opacity="1"
     fill-rule="nonzero"
     id="path3334" />
  <path
     fill="#ffffff"
     d="m 149.82422,89.402339 -0.48828,1.15625 c 0,0 2.375,2.35938 3.64843,2.72266 1.27735,0.36328 4.48047,-0.41016 4.48047,-0.41016 l 0.12891,-1.11718 -4.46875,1.03906 -3.30078,-3.39063"
     fill-opacity="1"
     fill-rule="nonzero"
     id="path3335" />
  <path
     fill="#f9aa78"
     d="m 163.75,80.074219 c 0.78906,-2.75391 -0.73438,-6.43359 -4.95703,-7.63672 -4.22657,-1.19922 -7.46485,1.12891 -8.25391,3.87891 -0.0391,0.14453 -1.85547,7.74218 -1.52734,9.6914 0.32812,1.95313 2.375,5.125 4.38672,5.70703 2.20703,0.63672 5.33593,-0.80078 6.82812,-2.51562 1.49219,-1.71484 3.52344,-9.125 3.52344,-9.125"
     fill-opacity="1"
     fill-rule="nonzero"
     id="path3336" />
  <path
     fill="#f9aa78"
     d="m 150.51172,80.546879 c 0.0547,-0.66407 -0.37891,-1.42188 -1.25391,-1.47657 -0.875,-0.0508 -1.09375,0.71094 -1.14844,1.375 -0.004,0.0352 -0.082,1.84766 0.0508,2.27344 0.13672,0.42578 0.28907,1.20313 0.92188,1.17188 0.41797,-0.0195 0.83594,-0.63282 1.06641,-1.09766 0.23437,-0.46484 0.36328,-2.24609 0.36328,-2.24609"
     fill-opacity="1"
     fill-rule="nonzero"
     id="path3337" />
  <path
     fill="#f9aa78"
     d="m 161.80859,83.757809 c 0.30469,-0.58984 1.07031,-1.0039 1.84375,-0.59375 0.76953,0.41407 0.625,1.22657 0.32031,1.81641 -0.0156,0.0312 -0.90234,1.48047 -1.24609,1.90625 -0.28125,0.34766 -0.94141,0.92187 -1.46875,0.50391 -0.33203,-0.25782 -0.38281,-1.01954 -0.33203,-1.53516 0.0508,-0.51563 0.88281,-2.09766 0.88281,-2.09766"
     fill-opacity="1"
     fill-rule="nonzero"
     id="path3338" />
  <path
     fill="#261617"
     d="m 164.85937,79.296879 c 0.10938,-2.01172 -1.64453,-6.34375 -5.87109,-7.54688 -4.22656,-1.19922 -7.39844,0.82031 -8.63281,3.12109 -0.95313,1.77344 -1.19532,2.86719 -1.48828,4.24219 0.44531,-0.0625 0.72265,-0.0742 1.01562,0.14844 -0.16797,0.82031 -0.35937,1.78516 -0.51172,2.67187 0.125,0.39454 0.39063,0.36329 0.39063,0.36329 l 2.19531,-5.76172 c 0,0 7.52734,6.97265 10.76953,2.96875 0.47266,-0.58203 -1.17578,5.9375 -1.17578,5.9375 0,0 0.24219,0.39062 0.51953,-0.082 0.28906,-0.79297 0.44922,-1.4375 0.73828,-2.16016 0.17188,-0.41797 0.64453,-0.125 1.03906,0.0937 0.47657,-1.07813 0.90235,-1.98438 1.01172,-3.99609"
     fill-opacity="1"
     fill-rule="nonzero"
     id="path3339" />
  <path
     fill="#1b171b"
     d="m 152.04297,92.664059 c -0.17969,0.6211 0.14062,1.25782 0.71484,1.41797 0.57031,0.16406 1.17969,-0.21094 1.35938,-0.82812 0.17578,-0.625 -0.2461,-0.47657 -0.82032,-0.64063 -0.57031,-0.16406 -1.07812,-0.57422 -1.2539,0.0508"
     fill-opacity="1"
     fill-rule="nonzero"
     id="path3340" />
  <path
     fill="#cd8158"
     d="m 154.9375,86.523439 1.16015,-4.05078 0.0664,3.41406 -1.22656,0.63672"
     fill-opacity="1"
     fill-rule="nonzero"
     id="path3341" />
  <path
     fill="#cd8158"
     d="m 156.46094,88.949219 c 0,0 -0.28125,-0.0195 -0.65235,-0.0273 -0.5,-0.0156 -1.02344,-0.28125 -1.48828,-0.41407 -0.41016,-0.11328 -0.98828,-0.14843 -1.36328,-0.37109 -0.35547,-0.20313 -0.66016,-0.36328 -0.6875,-0.37891 0.0273,0.0156 0.38281,0.19922 0.75781,0.30469 0.39063,0.10938 0.75,0.008 1.36719,0.17969 0.61719,0.17578 0.90234,0.45312 1.28125,0.55859 0.38281,0.10938 0.78516,0.14844 0.78516,0.14844 m -4.19141,-1.19141 v 0"
     fill-opacity="1"
     fill-rule="nonzero"
     id="path3342" />
  <path
     fill="#261617"
     d="m 159.24219,84.847659 c -0.15235,0.35547 -0.5586,0.51172 -0.91016,0.36328 -0.35156,-0.15235 -0.51563,-0.5586 -0.36328,-0.91016 0.14844,-0.34765 0.55859,-0.50781 0.91015,-0.35937 0.35157,0.15234 0.51172,0.55859 0.36329,0.90625"
     fill-opacity="1"
     fill-rule="nonzero"
     id="path3343" />
  <path
     fill="#261617"
     d="m 159.0664,84.226559 c 0.46485,0.19922 0.85157,0.46094 1.10547,0.72657 -0.0664,-0.36719 -0.4414,-0.76954 -0.98828,-1.00391 -0.54297,-0.23438 -1.09765,-0.23047 -1.41015,-0.0273 0.37109,0.004 0.82812,0.10156 1.29296,0.30468"
     fill-opacity="1"
     fill-rule="nonzero"
     id="path3344" />
  <path
     fill="#261617"
     d="m 152.10937,82.843749 c -0.0391,0.37891 0.24219,0.71875 0.6211,0.75391 0.38281,0.0351 0.71875,-0.24219 0.75781,-0.6211 0.0352,-0.38281 -0.24219,-0.71875 -0.625,-0.7539 -0.37891,-0.0391 -0.71875,0.23828 -0.75391,0.62109"
     fill-opacity="1"
     fill-rule="nonzero"
     id="path3345" />
  <path
     fill="#261617"
     d="m 152.5625,82.378909 c -0.50391,-0.0469 -0.96875,-0.004 -1.32422,0.10937 0.23828,-0.28906 0.75781,-0.46094 1.35156,-0.40625 0.59375,0.0547 1.07422,0.32422 1.25,0.65235 -0.32422,-0.17188 -0.77344,-0.3086 -1.27734,-0.35547"
     fill-opacity="1"
     fill-rule="nonzero"
     id="path3346" />
  <path
     fill="#261617"
     d="m 160.36328,82.039059 c -0.53125,-0.32422 -1.24219,-0.47265 -1.32422,-0.42968 -0.0781,0.043 -0.34375,0.40234 -0.24609,0.48437 0.0976,0.082 0.49609,-0.0742 1.29297,0.32031 0.53515,0.26172 1.07812,0.9375 1.22656,1.21094 -0.0352,-0.49609 -0.28125,-1.17578 -0.94922,-1.58594"
     fill-opacity="1"
     fill-rule="nonzero"
     id="path3347" />
  <path
     fill="#261617"
     d="m 152.83594,79.898439 c 0.62109,0 1.30468,0.2539 1.35156,0.33203 0.043,0.0781 0.0781,0.52344 -0.0469,0.53906 -0.1289,0.0195 -0.38281,-0.32031 -1.26953,-0.41015 -0.58984,-0.0586 -1.41015,0.23437 -1.68359,0.38671 0.29297,-0.40625 0.85937,-0.85156 1.64844,-0.84765"
     fill-opacity="1"
     fill-rule="nonzero"
     id="path3348" />
  <path
     fill="#d3d2d2"
     d="M 78.84375,154.83594 H 54.7539 v -2.62891 h 23.61719 l 0.47266,2.62891"
     fill-opacity="1"
     fill-rule="nonzero"
     id="path3349" />
  <path
     fill="#d3d2d2"
     d="m 119.67969,83.425779 v -0.92187 l 1.76562,0.5 v 0.10547 l -1.76562,0.3164 m 1.76562,-3.46875 -1.76562,-0.5 v -2.21484 l 1.76562,0.5 v 2.21484 m 0,-5.25781 -1.76562,-0.50391 v -3.35547 l 1.76562,0.50391 v 3.35547 m 0,-6.40234 -1.76562,-0.5 v -2.32813 l 1.76562,0.5 v 2.32813 m -1.76562,-4.26954 v -0.84375 h 0.24218 l -0.24218,0.84375"
     fill-opacity="1"
     fill-rule="nonzero"
     id="path3350" />
  <path
     fill="#37858d"
     d="m 121.44531,65.968749 -1.76562,-0.5 v -1.44141 l 0.24218,-0.84375 h 1.52344 v 2.78516"
     fill-opacity="1"
     fill-rule="nonzero"
     id="path3351" />
  <path
     fill="#b0aeaf"
     d="m 121.44531,71.343749 -1.76562,-0.50391 v -3.04296 l 1.76562,0.5 v 3.04687"
     fill-opacity="1"
     fill-rule="nonzero"
     id="path3352" />
  <path
     fill="#b0aeaf"
     d="m 121.44531,77.742189 -1.76562,-0.5 v -3.04688 l 1.76562,0.50391 v 3.04297"
     fill-opacity="1"
     fill-rule="nonzero"
     id="path3353" />
  <path
     fill="#b0aeaf"
     d="m 121.44531,83.003909 -1.76562,-0.5 v -3.04688 l 1.76562,0.5 v 3.04688"
     fill-opacity="1"
     fill-rule="nonzero"
     id="path3354" />
  <g
     clip-path="url(#2ee62a6202)"
     id="g3355"
     transform="translate(-768.51172,-317.14453)">
    <path
       fill="#ffffff"
       d="m 821.5,469.35156 h 66.69141 V 377.69141 H 821.5 Z m 0,0"
       fill-opacity="1"
       fill-rule="nonzero"
       id="path3355" />
  </g>
  <path
     fill="#42a3ab"
     d="M 83.73828,73.472659 H 60.58984 v -5.85938 h 23.14844 v 5.85938"
     fill-opacity="1"
     fill-rule="nonzero"
     id="path3356" />
  <path
     fill="#d3d2d2"
     d="M 83.45312,75.710939 H 60.58984 v 2.92969 h 22.86328 v -2.92969"
     fill-opacity="1"
     fill-rule="nonzero"
     id="path3357" />
  <path
     fill="#d3d2d2"
     d="M 83.45312,81.863279 H 60.58984 v 2.92969 h 22.86328 v -2.92969"
     fill-opacity="1"
     fill-rule="nonzero"
     id="path3358" />
  <path
     fill="#d3d2d2"
     d="m 60.58984,89.851559 h 22.86328 v -2.92968 H 60.58984 Z m 0,0"
     fill-opacity="1"
     fill-rule="nonzero"
     id="path3359" />
  <path
     fill="#d3d2d2"
     d="m 60.58984,96.117189 h 22.86328 v -2.92969 H 60.58984 Z m 0,0"
     fill-opacity="1"
     fill-rule="nonzero"
     id="path3360" />
  <path
     fill="#d3d2d2"
     d="m 60.58984,121.53906 h 51.14453 v -2.92968 H 60.58984 Z m 0,0"
     fill-opacity="1"
     fill-rule="nonzero"
     id="path3361" />
  <path
     fill="#d3d2d2"
     d="m 60.58984,128.76563 h 51.14453 v -2.92969 H 60.58984 Z m 0,0"
     fill-opacity="1"
     fill-rule="nonzero"
     id="path3362" />
  <path
     fill="#f3d28b"
     d="m 60.58984,141.90625 h 14.875 v -11.16016 h -14.875 z m 0,0"
     fill-opacity="1"
     fill-rule="nonzero"
     id="path3363" />
  <path
     fill="#f3d28b"
     d="m 78.72265,141.90625 h 14.875 v -11.16016 h -14.875 z m 0,0"
     fill-opacity="1"
     fill-rule="nonzero"
     id="path3364" />
  <path
     fill="#f3d28b"
     d="m 96.85547,141.90625 h 14.8789 v -11.16016 h -14.8789 z m 0,0"
     fill-opacity="1"
     fill-rule="nonzero"
     id="path3365" />
  <path
     fill="#d3d2d2"
     d="m 93.07422,101.89844 h 18.66015 V 98.968749 H 93.07422 Z m 0,0"
     fill-opacity="1"
     fill-rule="nonzero"
     id="path3366" />
  <path
     fill="#d3d2d2"
     d="m 93.07422,107.08594 h 18.66015 v -2.92578 H 93.07422 Z m 0,0"
     fill-opacity="1"
     fill-rule="nonzero"
     id="path3367" />
  <path
     fill="#d3d2d2"
     d="m 93.07422,112.27734 h 18.66015 v -2.92968 H 93.07422 Z m 0,0"
     fill-opacity="1"
     fill-rule="nonzero"
     id="path3368" />
  <path
     fill="#65bed9"
     d="m 60.58984,112.27734 h 29.375 V 98.968749 h -29.375 z m 0,0"
     fill-opacity="1"
     fill-rule="nonzero"
     id="path3369" />
  <path
     fill="#f68722"
     d="m 89.96484,96.117189 h 21.76953 V 67.613279 H 89.96484 Z m 0,0"
     fill-opacity="1"
     fill-rule="nonzero"
     id="path3370" />
  <path
     fill="#23837f"
     d="m 90.46094,96.117189 h 20.77734 c 0,0 -0.41406,-6.82422 -1.09375,-7.58594 -0.68359,-0.76172 -6.1875,-2.43359 -6.1875,-2.43359 H 97.8164 c 0,0 -5.80078,1.54297 -6.17578,2.43359 -0.37109,0.89063 -1.17968,7.58594 -1.17968,7.58594"
     fill-opacity="1"
     fill-rule="nonzero"
     id="path3371" />
  <path
     fill="#7d412b"
     d="m 97.8164,85.984379 c 0,0 1.96485,1.39843 3.07032,1.39843 1.10156,0 3.07031,-1.39843 3.07031,-1.39843 l -0.26172,-1.94532 h -5.58594 l -0.29297,1.94532"
     fill-opacity="1"
     fill-rule="nonzero"
     id="path3372" />
  <path
     fill="#175452"
     d="m 97.6914,85.027339 -0.34375,1.20313 1.96485,2.32031 1.57422,-1.16797 1.93359,1.3711 1.55078,-2.52344 -0.1914,-1.20313 -3.29297,2.125 -3.19532,-2.125"
     fill-opacity="1"
     fill-rule="nonzero"
     id="path3373" />
  <path
     fill="#9e5439"
     d="m 106.46875,74.578129 c 0,-2.37891 -2.05469,-4.97266 -5.70703,-4.97266 -3.64844,0 -5.70313,2.59375 -5.70313,4.97266 0,0.125 0.28125,6.60546 0.98828,8.08984 0.71094,1.48437 3.07032,3.55469 4.8125,3.5625 1.90625,0.008 4.07813,-1.85547 4.87891,-3.5625 0.80078,-1.70703 0.73047,-8.08984 0.73047,-8.08984"
     fill-opacity="1"
     fill-rule="nonzero"
     id="path3374" />
  <path
     fill="#261617"
     d="m 95.61719,80.945309 c 0.12109,0.75 0.26562,1.375 0.42968,1.72266 0.71094,1.48437 3.07032,3.55469 4.8125,3.5625 1.90625,0.008 4.07813,-1.85547 4.87891,-3.5625 0.17969,-0.38281 0.31641,-1 0.41797,-1.72266 0,0 -0.53516,1.36719 -0.96875,1.76172 -0.4336,0.39063 -1.6211,1.30469 -2.28906,1.67188 -0.6836,0.3789 -2.82422,0.53125 -4.1211,-0.0781 -0.41797,-0.1914 -1.75,-1.07031 -2.07031,-1.58203 -0.3125,-0.51562 -1.08984,-1.77344 -1.08984,-1.77344"
     fill-opacity="1"
     fill-rule="nonzero"
     id="path3375" />
  <path
     fill="#9e5439"
     d="m 96,77.960939 c -0.10938,-0.54297 -0.62891,-1.04688 -1.33985,-0.89063 -0.71093,0.15235 -0.71093,0.81641 -0.60156,1.35547 0.004,0.0312 0.35547,1.5 0.5586,1.8086 0.20703,0.30859 0.5039,0.89453 1.0039,0.72656 0.32813,-0.10938 0.52344,-0.69531 0.60156,-1.1211 C 96.30075,79.414059 96,77.960939 96,77.960939"
     fill-opacity="1"
     fill-rule="nonzero"
     id="path3376" />
  <path
     fill="#9e5439"
     d="m 105.75781,77.960939 c 0.10938,-0.54297 0.62891,-1.04688 1.33984,-0.89063 0.70704,0.15235 0.77735,0.83203 0.67188,1.375 -0.008,0.0312 -0.38672,1.38672 -0.5625,1.8086 -0.14453,0.33984 -0.54297,0.94922 -1.05859,0.73437 -0.32032,-0.13281 -0.53516,-0.72265 -0.61329,-1.14844 -0.0781,-0.42578 0.22266,-1.8789 0.22266,-1.8789"
     fill-opacity="1"
     fill-rule="nonzero"
     id="path3377" />
  <path
     fill="#261617"
     d="m 104.36719,83.374999 c 0.30468,-0.0508 0.15625,0.22656 -0.13672,0.50391 -0.35938,0.33593 -0.9375,0.66797 -1.19141,0.41797 -0.004,-0.84375 -0.63281,-1.88672 -1.04297,-2.09766 -0.47656,-0.25 -2.02344,-0.31641 -2.55469,0.0859 -0.54687,0.41406 -0.80468,1.39453 -0.76562,2.13281 0.15234,0.45703 -1.69141,-0.83203 -1.03125,-0.83203 0.47266,0 1.08594,-1.40235 1.53906,-1.81641 0.60938,-0.55859 2.90625,-0.69922 3.38281,0.11328 0.33204,0.55469 1.1211,1.60157 1.80079,1.49219"
     fill-opacity="1"
     fill-rule="nonzero"
     id="path3378" />
  <path
     fill="#ae684b"
     d="m 95.90234,75.339839 c -0.0156,0 -0.0351,-0.004 -0.0547,-0.0195 -0.30468,-0.24218 -0.41406,-2.19531 0.71094,-3.61328 0.91016,-1.14062 2.34375,-1.58203 3.02344,-1.58203 0.16016,0 0.28125,0.0273 0.33984,0.0703 0.30469,0.24219 -1.41015,0.75391 -2.53515,2.16797 -1.05469,1.32813 -1.21875,2.97656 -1.48438,2.97656"
     fill-opacity="1"
     fill-rule="nonzero"
     id="path3379" />
  <path
     fill="#84402b"
     d="m 100.70312,80.921879 v -3.5 l 0.88672,2.71093 -0.88672,0.78907"
     fill-opacity="1"
     fill-rule="nonzero"
     id="path3380" />
  <path
     fill="#84402b"
     d="m 100.13281,83.179689 c -0.0977,0 -0.19531,-0.0117 -0.28125,-0.0352 -0.26562,-0.082 -0.48828,-0.14062 -0.52344,-0.14844 0.0391,0.008 0.29688,0.0703 0.55469,0.0703 0.28125,0 0.49609,-0.16797 0.9375,-0.16797 0.4375,0 0.67578,0.15625 0.94531,0.15625 0.27344,0 0.54688,-0.0586 0.54688,-0.0586 0,0 -0.19141,0.0469 -0.4336,0.1211 -0.12109,0.0391 -0.24609,0.0508 -0.375,0.0508 -0.23046,0 -0.47265,-0.0391 -0.68359,-0.0391 -0.20312,0 -0.45703,0.0508 -0.6875,0.0508 m -0.80469,-0.1836 c 0,0 -0.004,0 -0.004,0 0,0 0.004,0 0.004,0"
     fill-opacity="1"
     fill-rule="nonzero"
     id="path3381" />
  <path
     fill="#261617"
     d="m 103.92969,77.773439 c -0.043,0.3125 -0.33204,0.53515 -0.64454,0.49609 -0.3164,-0.043 -0.53906,-0.32812 -0.49609,-0.64453 0.0391,-0.3125 0.32813,-0.53516 0.64453,-0.49609 0.3125,0.043 0.53516,0.33203 0.4961,0.64453"
     fill-opacity="1"
     fill-rule="nonzero"
     id="path3382" />
  <path
     fill="#261617"
     d="m 103.64844,77.316409 c 0.41796,0.0508 0.78515,0.17578 1.05078,0.32812 -0.13672,-0.27734 -0.53125,-0.51562 -1.01953,-0.57812 -0.48829,-0.0625 -0.92969,0.0664 -1.13282,0.30078 0.29688,-0.082 0.6836,-0.10547 1.10157,-0.0508"
     fill-opacity="1"
     fill-rule="nonzero"
     id="path3383" />
  <path
     fill="#261617"
     d="m 97.77344,77.789059 c 0.0586,0.3125 0.35546,0.51953 0.66796,0.46094 0.3125,-0.0547 0.51954,-0.35547 0.46094,-0.66797 -0.0547,-0.30859 -0.35547,-0.51562 -0.66797,-0.46094 -0.3125,0.0586 -0.51953,0.35938 -0.46093,0.66797"
     fill-opacity="1"
     fill-rule="nonzero"
     id="path3384" />
  <path
     fill="#261617"
     d="m 98.02734,77.316409 c -0.41406,0.0781 -0.77344,0.21875 -1.03125,0.38672 0.1211,-0.28516 0.50391,-0.54297 0.98828,-0.62891 0.48438,-0.0898 0.92969,0.0117 1.14453,0.23828 -0.29687,-0.0664 -0.6875,-0.0703 -1.10156,0.004"
     fill-opacity="1"
     fill-rule="nonzero"
     id="path3385" />
  <path
     fill="#261617"
     d="m 104.18359,75.273439 c -0.49609,-0.14063 -1.10156,-0.0977 -1.15234,-0.043 -0.0547,0.0508 -0.1836,0.39844 -0.0898,0.44531 0.0977,0.043 0.37891,-0.17187 1.10938,-0.043 0.48437,0.0899 1.07422,0.50782 1.25391,0.69141 -0.14063,-0.39063 -0.48829,-0.875 -1.1211,-1.05078"
     fill-opacity="1"
     fill-rule="nonzero"
     id="path3386" />
  <path
     fill="#261617"
     d="m 97.67969,75.273439 c 0.49609,-0.14063 1.10156,-0.0977 1.15625,-0.043 0.0508,0.0508 0.18359,0.39844 0.0859,0.44531 -0.0976,0.043 -0.3789,-0.17187 -1.10547,-0.043 -0.48828,0.0899 -1.07812,0.50782 -1.25781,0.69141 0.14453,-0.39063 0.49219,-0.875 1.1211,-1.05078"
     fill-opacity="1"
     fill-rule="nonzero"
     id="path3387" />
  <g
     clip-path="url(#5a2868ba13)"
     id="g3388"
     transform="translate(-768.51172,-317.14453)">
    <path
       fill="#d3d2d2"
       d="m 852.42969,500.10547 -5.07422,-28.125 h 42.60156 v -6.9961 l 25.19141,7.16797 2.91797,16.1836 -65.63672,11.76953"
       fill-opacity="1"
       fill-rule="nonzero"
       id="path3388" />
  </g>
  <path
     fill="#d3d2d2"
     d="m 146.63672,155.00781 -25.19141,-7.16797 v -10.70703 l 10.77734,3.06641 3.06641,-10.73438 -13.84375,-3.9375 v -2.05859 l 20.55859,5.84766 0.39063,2.16797 -3.97266,-1.12891 -3.0664,10.73437 9.24609,2.62891 2.03516,11.28906 m -5.21094,-28.90234 -19.98047,-5.67969 v -4.47265 l 19.13281,5.4414 0.84766,4.71094 m -1.42969,-7.92188 -18.55078,-5.27734 v -6.58594 l 15.42969,4.39063 1.08984,-3.8125 2.03125,11.28515 m -3.8789,-21.527341 -14.67188,-4.17187 v -2.96875 l 13.61328,3.87109 0.28516,-1.00391 0.77344,4.27344 m -1.14454,-6.33594 -13.52734,-3.84765 v -3.36328 l 0.22266,-0.043 12.64843,3.59765 0.65625,3.65625 m -1.23828,-6.86718 -5.49609,-1.5625 4.77734,-0.85938 0.30078,0.0859 0.41797,2.33594"
     fill-opacity="1"
     fill-rule="nonzero"
     id="path3389" />
  <path
     fill="#b0aeaf"
     d="m 133.3164,81.117189 -0.30078,-0.0859 0.27344,-0.0469 0.0273,0.13281"
     fill-opacity="1"
     fill-rule="nonzero"
     id="path3390" />
  <path
     fill="#b0aeaf"
     d="m 134.3164,86.664059 -12.64843,-3.59765 6.57031,-1.17578 5.49609,1.5625 0.58203,3.21093"
     fill-opacity="1"
     fill-rule="nonzero"
     id="path3391" />
  <path
     fill="#b0aeaf"
     d="m 135.05859,93.386719 -13.61328,-3.87109 v -3.04297 l 13.52734,3.84765 0.3711,2.0625 -0.28516,1.00391"
     fill-opacity="1"
     fill-rule="nonzero"
     id="path3392" />
  <path
     fill="#b0aeaf"
     d="m 140.57812,121.39453 -19.13281,-5.4414 v -3.04688 l 18.55078,5.27734 0.58203,3.21094"
     fill-opacity="1"
     fill-rule="nonzero"
     id="path3393" />
  <path
     fill="#b0aeaf"
     d="m 142.0039,129.31641 -20.55859,-5.84766 v -3.04297 l 19.98047,5.67969 0.57812,3.21094"
     fill-opacity="1"
     fill-rule="nonzero"
     id="path3394" />
  <path
     fill="#c8ad72"
     d="m 132.22265,140.19922 -10.77734,-3.06641 v -11.60547 l 13.84375,3.9375 -3.06641,10.73438"
     fill-opacity="1"
     fill-rule="nonzero"
     id="path3395" />
  <path
     fill="#c8ad72"
     d="m 144.60156,143.71875 -9.24609,-2.62891 3.0664,-10.73437 3.97266,1.12891 2.20703,12.23437"
     fill-opacity="1"
     fill-rule="nonzero"
     id="path3396" />
  <path
     fill="#549cb3"
     d="m 136.875,110.71094 -15.42969,-4.39063 V 92.484379 l 14.67188,4.17187 1.84765,10.242191 -1.08984,3.8125"
     fill-opacity="1"
     fill-rule="nonzero"
     id="path3397" />
  <path
     fill="#b0aeaf"
     d="M 121.44531,154.83594 H 78.84375 l -0.47266,-2.62891 h 41.3086 v -4.86719 l 1.76562,0.5 v 6.9961"
     fill-opacity="1"
     fill-rule="nonzero"
     id="path3398" />
  <path
     fill="#b0aeaf"
     d="m 121.44531,147.83984 -1.76562,-0.5 v -10.70703 l 1.76562,0.5 v 10.70703 m -1.76562,-17.88281 v -6.98828 l 1.76562,0.5 v 2.05859 l -0.46094,-0.1289 -1.30468,4.55859 m 1.76562,-9.53125 -1.76562,-0.5039 v -4.47266 l 1.76562,0.50391 v 4.47265 m 0,-7.51953 -1.76562,-0.5 v -6.58594 l 1.76562,0.5 v 6.58594 m 0,-20.421871 -1.76562,-0.50391 v -2.96484 l 1.76562,0.5 v 2.96875 m 0,-6.01172 -1.76562,-0.50391 v -2.54297 l 1.76562,-0.3164 v 3.36328"
     fill-opacity="1"
     fill-rule="nonzero"
     id="path3399" />
  <path
     fill="#939192"
     d="m 121.44531,89.515629 -1.76562,-0.5 v -3.04688 l 1.76562,0.50391 v 3.04297"
     fill-opacity="1"
     fill-rule="nonzero"
     id="path3400" />
  <path
     fill="#939192"
     d="m 121.44531,115.95313 -1.76562,-0.50391 v -3.04297 l 1.76562,0.5 v 3.04688"
     fill-opacity="1"
     fill-rule="nonzero"
     id="path3401" />
  <path
     fill="#939192"
     d="m 121.44531,123.46875 -1.76562,-0.5 v -3.04687 l 1.76562,0.5039 v 3.04297"
     fill-opacity="1"
     fill-rule="nonzero"
     id="path3402" />
  <path
     fill="#a68f5e"
     d="m 121.44531,137.13281 -1.76562,-0.5 v -6.67578 l 1.30468,-4.55859 0.46094,0.1289 v 11.60547"
     fill-opacity="1"
     fill-rule="nonzero"
     id="path3403" />
  <path
     fill="#468195"
     d="m 121.44531,106.32031 -1.76562,-0.5 V 91.980469 l 1.76562,0.50391 v 13.835931"
     fill-opacity="1"
     fill-rule="nonzero"
     id="path3404" />
  <path
     fill="#d3d2d2"
     d="m 119.67969,152.20703 h -41.3086 l -2.90625,-16.10937 v -5.35157 H 74.5039 l -0.35937,-1.98046 h 37.58984 v -2.92969 H 73.61719 l -0.77735,-4.29688 h 38.89453 v -2.92968 H 72.3125 l -1.14063,-6.33204 H 89.96484 V 98.968749 H 68.76953 l -0.51172,-2.85156 h 15.19531 v -2.92969 H 67.73047 l -0.0781,-0.4375 22.3125,-3.99609 v 7.36328 h 21.76953 v -11.26953 l 7.94532,-1.42188 V 152.20703 M 96.8555,130.74609 v 11.16016 h 14.8789 V 130.74609 H 96.8555 m -18.13282,0 v 11.16016 h 14.875 v -11.16016 h -14.875 m 14.35157,-21.39843 v 2.92968 h 18.66015 v -2.92968 H 93.07425 m 0,-5.1875 v 2.92578 h 18.66015 v -2.92578 H 93.07425 m 0,-5.191411 v 2.929691 H 111.7344 V 98.968749 H 93.07425"
     fill-opacity="1"
     fill-rule="nonzero"
     id="path3405" />
  <path
     fill="#b0aeaf"
     d="M 83.45312,96.117189 H 68.25781 l -0.52734,-2.92969 h 15.72265 v 2.92969"
     fill-opacity="1"
     fill-rule="nonzero"
     id="path3406" />
  <path
     fill="#b0aeaf"
     d="M 111.73437,121.53906 H 72.83984 l -0.52734,-2.92968 h 39.42187 v 2.92968"
     fill-opacity="1"
     fill-rule="nonzero"
     id="path3407" />
  <path
     fill="#b0aeaf"
     d="M 111.73437,128.76563 H 74.14453 l -0.52734,-2.92969 h 38.11718 v 2.92969"
     fill-opacity="1"
     fill-rule="nonzero"
     id="path3408" />
  <path
     fill="#c8ad72"
     d="m 75.46484,136.09766 -0.96094,-5.35157 h 0.96094 v 5.35157"
     fill-opacity="1"
     fill-rule="nonzero"
     id="path3409" />
  <path
     fill="#c8ad72"
     d="m 78.72265,141.90625 h 14.875 v -11.16016 h -14.875 z m 0,0"
     fill-opacity="1"
     fill-rule="nonzero"
     id="path3410" />
  <path
     fill="#c8ad72"
     d="m 96.85547,141.90625 h 14.8789 v -11.16016 h -14.8789 z m 0,0"
     fill-opacity="1"
     fill-rule="nonzero"
     id="path3411" />
  <path
     fill="#b0aeaf"
     d="m 93.07422,101.89844 h 18.66015 V 98.968749 H 93.07422 Z m 0,0"
     fill-opacity="1"
     fill-rule="nonzero"
     id="path3412" />
  <path
     fill="#b0aeaf"
     d="m 93.07422,107.08594 h 18.66015 v -2.92578 H 93.07422 Z m 0,0"
     fill-opacity="1"
     fill-rule="nonzero"
     id="path3413" />
  <path
     fill="#b0aeaf"
     d="m 93.07422,112.27734 h 18.66015 v -2.92968 H 93.07422 Z m 0,0"
     fill-opacity="1"
     fill-rule="nonzero"
     id="path3414" />
  <path
     fill="#549cb3"
     d="M 89.96484,112.27734 H 71.17187 L 68.76953,98.968749 h 21.19531 v 13.308591"
     fill-opacity="1"
     fill-rule="nonzero"
     id="path3415" />
  <path
     fill="#cb6e1c"
     d="m 111.73437,96.117189 h -0.49609 c 0,0 -0.41406,-6.82422 -1.09375,-7.58594 -0.56641,-0.63281 -4.47656,-1.89844 -5.77344,-2.30469 l -0.008,-0.0547 7.37109,-1.32422 v 11.26953 m -21.27343,0 h -0.4961 v -7.36328 l 1.73047,-0.3125 c -0.0234,0.0312 -0.043,0.0586 -0.0547,0.0898 -0.37109,0.89063 -1.17968,7.58594 -1.17968,7.58594"
     fill-opacity="1"
     fill-rule="nonzero"
     id="path3416" />
  <path
     fill="#1d6c69"
     d="M 111.23828,96.117189 H 90.46094 c 0,0 0.80859,-6.69531 1.17968,-7.58594 0.0117,-0.0312 0.0312,-0.0586 0.0547,-0.0898 l 6.53125,-1.17188 1.08594,1.28125 1.57422,-1.16797 1.93359,1.3711 1.55078,-2.52344 v -0.004 c 1.29688,0.40625 5.20703,1.67188 5.77344,2.30469 0.67969,0.76172 1.09375,7.58594 1.09375,7.58594"
     fill-opacity="1"
     fill-rule="nonzero"
     id="path3417" />
  <path
     fill="#6a3624"
     d="m 100.88672,87.152339 -0.42578,-0.28125 1.19921,-0.21484 -0.77343,0.49609"
     fill-opacity="1"
     fill-rule="nonzero"
     id="path3418" />
  <path
     fill="#134746"
     d="m 102.82031,88.753909 -1.93359,-1.3711 -1.57422,1.16797 -1.08594,-1.28125 2.23438,-0.39844 0.42578,0.28125 0.77343,-0.49609 2.70313,-0.48437 0.008,0.0547 v 0.004 l -1.55078,2.52344"
     fill-opacity="1"
     fill-rule="nonzero"
     id="path3419" />
  <g
     clip-path="url(#85a79afaa9)"
     id="g3420"
     transform="translate(-768.51172,-317.14453)">
    <path
       fill="#ffffff"
       d="m 919.76953,488.99609 -65.64062,11.76953 -16.26563,-90.21093 65.64063,-11.76953 16.26562,90.21093"
       fill-opacity="1"
       fill-rule="nonzero"
       id="path3420" />
  </g>
  <path
     fill="#42a3ab"
     d="m 101.91015,100.69922 -22.78515,4.08594 -1.03516,-5.765631 22.78125,-4.08203 1.03906,5.761721"
     fill-opacity="1"
     fill-rule="nonzero"
     id="path3421" />
  <path
     fill="#d3d2d2"
     d="m 102.02734,102.95313 -22.5,4.03515 0.51563,2.88281 22.5039,-4.03125 -0.51953,-2.88671"
     fill-opacity="1"
     fill-rule="nonzero"
     id="path3422" />
  <path
     fill="#d3d2d2"
     d="m 103.12109,109.01172 -22.5039,4.03516 0.51953,2.88281 22.5039,-4.03516 -0.51953,-2.88281"
     fill-opacity="1"
     fill-rule="nonzero"
     id="path3423" />
  <path
     fill="#d3d2d2"
     d="m 104.01953,113.99219 -22.50391,4.03515 0.51953,2.88282 22.5,-4.03516 -0.51562,-2.88281"
     fill-opacity="1"
     fill-rule="nonzero"
     id="path3424" />
  <path
     fill="#d3d2d2"
     d="m 105.1289,120.15625 -22.5,4.03516 0.51563,2.88281 22.50781,-4.03516 -0.52344,-2.88281"
     fill-opacity="1"
     fill-rule="nonzero"
     id="path3425" />
  <path
     fill="#d3d2d2"
     d="m 137.99219,143.07031 -50.33204,9.02344 -0.52343,-2.88281 50.33593,-9.02344 0.51954,2.88281"
     fill-opacity="1"
     fill-rule="nonzero"
     id="path3426" />
  <path
     fill="#d3d2d2"
     d="m 139.27734,150.18359 -50.33594,9.02735 -0.51953,-2.88281 50.33203,-9.02735 0.52344,2.88281"
     fill-opacity="1"
     fill-rule="nonzero"
     id="path3427" />
  <path
     fill="#f3d28b"
     d="m 105.91406,169.51563 -14.64062,2.625 -1.98047,-10.98438 14.64062,-2.625 1.98047,10.98438"
     fill-opacity="1"
     fill-rule="nonzero"
     id="path3428" />
  <path
     fill="#f3d28b"
     d="m 123.76172,166.31641 -14.64063,2.625 -1.98047,-10.98438 14.64063,-2.625 1.98047,10.98438"
     fill-opacity="1"
     fill-rule="nonzero"
     id="path3429" />
  <path
     fill="#f3d28b"
     d="m 141.60937,163.11719 -14.64062,2.625 -1.98047,-10.98438 14.64062,-2.625 1.98047,10.98438"
     fill-opacity="1"
     fill-rule="nonzero"
     id="path3430" />
  <path
     fill="#d3d2d2"
     d="m 134.50781,123.73828 -18.36719,3.29297 -0.51953,-2.88281 18.36719,-3.29297 0.51953,2.88281"
     fill-opacity="1"
     fill-rule="nonzero"
     id="path3431" />
  <path
     fill="#d3d2d2"
     d="m 135.42969,128.84766 -18.36719,3.29297 -0.51953,-2.88282 18.36718,-3.29297 0.51954,2.88282"
     fill-opacity="1"
     fill-rule="nonzero"
     id="path3432" />
  <path
     fill="#d3d2d2"
     d="m 136.35156,133.95703 -18.36719,3.29297 -0.51953,-2.88281 18.36328,-3.29297 0.52344,2.88281"
     fill-opacity="1"
     fill-rule="nonzero"
     id="path3433" />
  <path
     fill="#65bed9"
     d="m 114.92187,137.79688 -28.90625,5.18359 -2.36328,-13.09766 28.91016,-5.18359 2.35937,13.09766"
     fill-opacity="1"
     fill-rule="nonzero"
     id="path3434" />
  <path
     fill="#7486a1"
     d="m 133.48047,118.05078 -21.42578,3.83985 -5.0586,-28.054691 21.42578,-3.83985 5.0586,28.054691"
     fill-opacity="1"
     fill-rule="nonzero"
     id="path3435" />
  <path
     fill="#261617"
     d="m 125.23828,97.132809 c -0.42969,-2.38281 -3.27734,-4.55859 -7.50781,-3.80078 -4.22657,0.75781 -6.14063,3.78906 -5.70703,6.17188 0.0195,0.125 1.21484,5.468751 2.47265,7.144531 1.46094,1.94531 4.10156,3.03515 6.1211,2.68359 2.20703,-0.39062 4.22265,-2.01953 5.10156,-4.69531 0.73437,-2.22656 -0.48047,-7.503911 -0.48047,-7.503911"
     fill-opacity="1"
     fill-rule="nonzero"
     id="path3436" />
  <path
     fill="#b42026"
     d="m 113.26562,121.58203 18.97657,-3.40625 c 0,0 -0.92969,-6.18359 -2.46875,-7.41015 -1.53516,-1.22657 -4.21094,-0.32422 -5.84375,-1.39844 -1.63282,-1.07422 -4.98438,-0.46875 -6.15625,1.10547 -1.17188,1.57422 -3.51954,1.84765 -4.69532,3.28906 -1.17578,1.4375 0.1875,7.82031 0.1875,7.82031"
     fill-opacity="1"
     fill-rule="nonzero"
     id="path3437" />
  <path
     fill="#d5835c"
     d="m 117.77344,110.47266 c 0.14453,0.5664 2.46484,2.39062 3.57031,2.19531 1.10937,-0.19922 2.40625,-2.69922 2.58594,-3.30078 -1.00782,-0.6836 -0.64454,-2.08594 -0.64454,-2.08594 l -5.60156,1.00391 c 0,0 0.75781,1.41015 0.0899,2.1875"
     fill-opacity="1"
     fill-rule="nonzero"
     id="path3438" />
  <path
     fill="#f9aa78"
     d="m 124.10156,97.339839 c -0.43359,-2.38671 -2.87109,-4.63671 -6.37109,-4.00781 -3.5,0.62891 -5,3.58203 -4.57032,5.96875 0.0234,0.125 1.32813,5.812501 2.27735,7.179691 0.94922,1.36719 3.72265,3.80078 5.39453,3.50781 1.82812,-0.32031 3.4375,-3.32422 3.89453,-5.17578 0.45703,-1.84766 -0.625,-7.472661 -0.625,-7.472661"
     fill-opacity="1"
     fill-rule="nonzero"
     id="path3439" />
  <path
     fill="#f9aa78"
     d="m 114.72656,103.15234 c -0.20312,-0.52343 -0.81641,-0.9375 -1.5,-0.65234 -0.68359,0.28125 -0.56641,0.94531 -0.35937,1.46875 0.008,0.0273 0.625,1.4375 0.88671,1.71094 0.26172,0.26953 0.66797,0.80469 1.13672,0.54687 0.3125,-0.16797 0.40235,-0.79297 0.40235,-1.23047 0.004,-0.4375 -0.56641,-1.84375 -0.56641,-1.84375"
     fill-opacity="1"
     fill-rule="nonzero"
     id="path3440" />
  <path
     fill="#f9aa78"
     d="m 124.29687,101.4375 c 0.0117,-0.5625 0.4375,-1.16406 1.17969,-1.13672 0.74219,0.0274 0.86328,0.69141 0.85156,1.25391 0,0.0312 -0.0859,1.5664 -0.23437,1.91015 -0.14844,0.34766 -0.34375,0.98829 -0.875,0.91016 -0.35156,-0.0508 -0.65235,-0.60156 -0.8086,-1.01172 -0.15234,-0.41406 -0.11328,-1.92578 -0.11328,-1.92578"
     fill-opacity="1"
     fill-rule="nonzero"
     id="path3441" />
  <path
     fill="#261617"
     d="m 124.88281,95.726559 c -0.5,-1.25 -2.01172,-2.82812 -3.15625,-2.40625 -1.15234,-1.11328 -2.62891,-1.16406 -4.15625,-0.89062 -3.66016,0.65625 -5.26562,3.67578 -5.34375,5.88281 -0.0625,1.703131 0.30469,3.351561 0.59375,4.507811 0.19922,-0.26562 0.51563,-0.37109 0.82422,-0.42578 0.17969,0.6836 0.55859,2.69141 1.66016,3.51563 -0.55469,-1.1875 0.0625,-2.16016 -0.22657,-3.3125 0.21875,-0.14844 1.39844,-0.1875 2.4336,-1.01172 1.22265,-0.97266 2.0664,-2.375001 2.17968,-2.449221 -0.1914,1.070311 -1.9375,2.671871 -1.79296,2.605471 1.25,-0.5625 2.99609,-2.503911 3.35937,-4.144531 0.91406,2.593751 2.62109,2.890621 2.62109,2.890621 0,0 0.88672,1.52344 0.88282,2.67969 0.42968,-0.55078 0.0625,-2.05469 0.27343,-2.68359 0.0547,-0.16016 0.44141,-0.1836 0.70704,-0.14063 -0.0391,-0.996091 -0.22266,-3.035161 -0.85938,-4.617191"
     fill-opacity="1"
     fill-rule="nonzero"
     id="path3442" />
  <path
     fill="#b42026"
     d="m 124.18359,102.05078 c -0.0586,0.63672 -0.42969,0.95703 -0.93359,1.08203 -1.14844,0.28125 -1.97266,0.16797 -2.41797,-0.21875 -0.45313,-0.39453 -0.29297,-1.13672 -0.29297,-1.13672 0,0 0.0781,-0.35156 0.45313,-0.5 0.72265,-0.28515 1.9375,-0.4414 2.39453,-0.42968 0.5,0.0117 0.60547,0.17187 0.69531,0.38281 0.0781,0.18359 0.14062,0.44922 0.10156,0.82031 z m -5.84375,1.30078 c -0.27344,0.50782 -0.99609,0.89453 -2.14844,1.02735 -0.50781,0.0586 -0.95703,-0.11328 -1.23437,-0.67578 -0.16016,-0.32813 -0.19531,-0.59766 -0.1875,-0.79297 0.0156,-0.22657 0.0547,-0.40625 0.51172,-0.58985 0.41797,-0.16406 1.58984,-0.4375 2.35156,-0.42187 0.39844,0.008 0.58594,0.30859 0.58594,0.30859 0,0 0.40625,0.625 0.12109,1.14453 z m 6.3125,-2.41797 c -0.12109,-0.28515 -0.26172,-0.49218 -0.92969,-0.51171 -0.60937,-0.0117 -2.23437,0.1914 -3.19531,0.57421 -0.17969,0.0703 -0.30859,0.17969 -0.40234,0.28516 -0.1211,-0.0703 -0.42578,-0.19922 -0.84375,-0.125 -0.47656,0.0859 -0.71875,0.36328 -0.78125,0.44531 -0.12891,-0.0781 -0.29688,-0.14843 -0.51172,-0.15234 -1.03516,-0.0234 -2.62891,0.34766 -3.19531,0.57422 -0.6211,0.24609 -0.67969,0.49219 -0.69141,0.80078 -0.0156,0.26562 0.0312,0.63281 0.25,1.07812 0.375,0.76563 0.98828,0.9961 1.67969,0.91797 1.5664,-0.17968 2.54687,-0.70703 2.92187,-1.39453 0.25782,-0.47656 0.0977,-1.01562 -0.0391,-1.3164 0.0937,-0.11329 0.27734,-0.28516 0.5625,-0.33594 0.17188,-0.0312 0.3125,-0.004 0.42188,0.0351 -0.0352,0.29297 -0.0508,0.96875 0.41406,1.3711 0.58984,0.51953 1.69531,0.66797 3.22656,0.29687 0.67578,-0.16797 1.16797,-0.60156 1.25,-1.44922 0.0508,-0.49218 -0.0312,-0.85156 -0.13672,-1.09375"
     fill-opacity="1"
     fill-rule="nonzero"
     id="path3443" />
  <path
     fill="#b42026"
     d="m 121.8164,106.19922 c 0,0 -0.22265,1.26562 -1.36718,1.47656 -1.0586,0.19531 -1.80469,-0.89453 -1.80469,-0.89453 0,0 0.33594,-0.0781 0.69141,-0.26172 0.30078,-0.15625 0.59765,-0.22265 0.88671,-0.12109 0.37891,-0.27735 0.71485,-0.21094 1.04297,-0.1836 0.25782,0.0234 0.55078,-0.0156 0.55078,-0.0156"
     fill-opacity="1"
     fill-rule="nonzero"
     id="path3444" />
  <path
     fill="#ffffff"
     d="m 121.78125,106.23047 c 0,0 -0.26563,0.80078 -1.41406,1.00391 -1.0586,0.1914 -1.65625,-0.45313 -1.65625,-0.45313 0,0 0.92968,-0.10156 1.5625,-0.0781 0.71484,-0.26954 1.50781,-0.47266 1.50781,-0.47266"
     fill-opacity="1"
     fill-rule="nonzero"
     id="path3445" />
  <path
     fill="#d5835c"
     d="m 120.82031,104.65625 -0.74609,0.94922 -0.63282,-3.50781 z m 0,0"
     fill-opacity="1"
     fill-rule="nonzero"
     id="path3446" />
  <path
     fill="#261617"
     d="m 122.73828,101.82422 c 0.0586,0.32031 -0.15234,0.625 -0.47266,0.67969 -0.3164,0.0586 -0.625,-0.15235 -0.67968,-0.47266 -0.0586,-0.31641 0.15234,-0.62109 0.47265,-0.67969 0.32031,-0.0547 0.625,0.15625 0.67969,0.47266"
     fill-opacity="1"
     fill-rule="nonzero"
     id="path3447" />
  <path
     fill="#261617"
     d="m 122.32422,101.46484 c 0.42187,-0.0742 0.8164,-0.0703 1.12109,0 -0.21875,-0.23046 -0.67187,-0.33984 -1.16797,-0.25 -0.49219,0.0899 -0.88281,0.35157 -1.0039,0.64063 0.25781,-0.17188 0.6289,-0.3125 1.05078,-0.39063"
     fill-opacity="1"
     fill-rule="nonzero"
     id="path3448" />
  <path
     fill="#261617"
     d="m 116.54297,102.9375 c 0.0586,0.31641 0.36328,0.52734 0.67968,0.47266 0.32032,-0.0586 0.53125,-0.36328 0.47266,-0.67969 -0.0547,-0.32031 -0.36328,-0.52734 -0.67969,-0.47266 -0.32031,0.0586 -0.53125,0.35938 -0.47265,0.67969"
     fill-opacity="1"
     fill-rule="nonzero"
     id="path3449" />
  <path
     fill="#261617"
     d="m 116.80469,102.45703 c -0.42188,0.0742 -0.78907,0.21875 -1.05079,0.38672 0.125,-0.28906 0.51172,-0.54687 1.00782,-0.64062 0.49609,-0.0859 0.94922,0.0234 1.16797,0.25 -0.30469,-0.0664 -0.69922,-0.0742 -1.125,0.004"
     fill-opacity="1"
     fill-rule="nonzero"
     id="path3450" />
  <path
     fill="#261617"
     d="m 122.3125,99.406249 c -0.52344,-0.0508 -1.1211,0.10547 -1.16797,0.16406 -0.043,0.0625 -0.10938,0.437501 -0.008,0.460941 0.10547,0.0273 0.34765,-0.238281 1.10547,-0.238281 0.5,0 1.17187,0.312501 1.38281,0.468751 -0.21094,-0.367191 -0.65235,-0.789061 -1.3125,-0.855471"
     fill-opacity="1"
     fill-rule="nonzero"
     id="path3451" />
  <path
     fill="#261617"
     d="m 115.78906,100.57813 c 0.47266,-0.23438 1.08594,-0.29688 1.14844,-0.25 0.0625,0.043 0.25781,0.36718 0.16797,0.42578 -0.0859,0.0625 -0.41016,-0.10157 -1.11719,0.16015 -0.47266,0.17578 -0.98438,0.70313 -1.13281,0.92188 0.0742,-0.41797 0.33203,-0.96875 0.93359,-1.25781"
     fill-opacity="1"
     fill-rule="nonzero"
     id="path3452" />
</svg>
