<?xml version="1.0" encoding="UTF-8" standalone="no"?>
<svg
   width="310.03125"
   zoomAndPan="magnify"
   viewBox="0 0 232.52344 277.84765"
   height="370.46353"
   preserveAspectRatio="xMidYMid"
   version="1.0"
   id="svg3945"
   sodipodi:docname="Sheba Enterprise.svg"
   xmlns:inkscape="http://www.inkscape.org/namespaces/inkscape"
   xmlns:sodipodi="http://sodipodi.sourceforge.net/DTD/sodipodi-0.dtd"
   xmlns="http://www.w3.org/2000/svg"
   xmlns:svg="http://www.w3.org/2000/svg">
  <sodipodi:namedview
     id="namedview3945"
     pagecolor="#ffffff"
     bordercolor="#000000"
     borderopacity="0.25"
     inkscape:showpageshadow="2"
     inkscape:pageopacity="0.0"
     inkscape:pagecheckerboard="0"
     inkscape:deskcolor="#d1d1d1"
     inkscape:export-bgcolor="#00000000" />
  <defs
     id="defs2384">
    <clipPath
       id="416e8662ce">
      <path
         d="m 1005.2891,409.52734 h 232.5234 v 185.46485 h -232.5234 z m 0,0"
         clip-rule="nonzero"
         id="path1299" />
    </clipPath>
    <clipPath
       id="df8b7ad577">
      <path
         d="m 1024.0313,409.52734 h 195.0429 c 4.9688,0 9.7344,1.97657 13.25,5.48828 3.5156,3.51563 5.4883,8.28516 5.4883,13.25391 V 576.25 c 0,4.97266 -1.9727,9.73828 -5.4883,13.25391 -3.5156,3.51562 -8.2812,5.48828 -13.25,5.48828 h -195.0429 c -4.9688,0 -9.7383,-1.97266 -13.2501,-5.48828 -3.5156,-3.51563 -5.4921,-8.28125 -5.4921,-13.25391 V 428.26953 c 0,-4.96875 1.9765,-9.73828 5.4921,-13.25391 3.5118,-3.51171 8.2813,-5.48828 13.2501,-5.48828 z m 0,0"
         clip-rule="nonzero"
         id="path1300" />
    </clipPath>
    <clipPath
       id="0500a51e62">
      <path
         d="m 1005.2891,317.14453 h 232.5234 v 232.52344 h -232.5234 z m 0,0"
         clip-rule="nonzero"
         id="path1301" />
    </clipPath>
    <clipPath
       id="3ff3cb0826">
      <path
         d="m 1024.0313,317.14453 h 195.0429 c 4.9688,0 9.7344,1.97656 13.25,5.48828 3.5156,3.51563 5.4883,8.28516 5.4883,13.25391 v 195.03906 c 0,4.97266 -1.9727,9.73828 -5.4883,13.25391 -3.5156,3.51562 -8.2812,5.48828 -13.25,5.48828 h -195.0429 c -4.9688,0 -9.7383,-1.97266 -13.2501,-5.48828 -3.5156,-3.51563 -5.4921,-8.28125 -5.4921,-13.25391 V 335.88672 c 0,-4.96875 1.9765,-9.73828 5.4921,-13.25391 3.5118,-3.51172 8.2813,-5.48828 13.2501,-5.48828 z m 0,0"
         clip-rule="nonzero"
         id="path1302" />
    </clipPath>
    <linearGradient
       x1="3.8124901e-05"
       gradientTransform="matrix(0.908298,0,0,0.908298,1005.2901,317.14492)"
       y1="3.8124901e-05"
       x2="256"
       gradientUnits="userSpaceOnUse"
       y2="256"
       id="180026fd1c">
      <stop
         stop-opacity="1"
         stop-color="rgb(81.599426%, 81.599426%, 81.599426%)"
         offset="0"
         id="stop1302" />
      <stop
         stop-opacity="1"
         stop-color="rgb(81.742859%, 81.742859%, 81.742859%)"
         offset="0.015625"
         id="stop1303" />
      <stop
         stop-opacity="1"
         stop-color="rgb(82.029724%, 82.029724%, 82.029724%)"
         offset="0.03125"
         id="stop1304" />
      <stop
         stop-opacity="1"
         stop-color="rgb(82.318115%, 82.318115%, 82.318115%)"
         offset="0.046875"
         id="stop1305" />
      <stop
         stop-opacity="1"
         stop-color="rgb(82.60498%, 82.60498%, 82.60498%)"
         offset="0.0625"
         id="stop1306" />
      <stop
         stop-opacity="1"
         stop-color="rgb(82.893372%, 82.893372%, 82.893372%)"
         offset="0.078125"
         id="stop1307" />
      <stop
         stop-opacity="1"
         stop-color="rgb(83.180237%, 83.180237%, 83.180237%)"
         offset="0.09375"
         id="stop1308" />
      <stop
         stop-opacity="1"
         stop-color="rgb(83.467102%, 83.467102%, 83.467102%)"
         offset="0.109375"
         id="stop1309" />
      <stop
         stop-opacity="1"
         stop-color="rgb(83.755493%, 83.755493%, 83.755493%)"
         offset="0.125"
         id="stop1310" />
      <stop
         stop-opacity="1"
         stop-color="rgb(84.042358%, 84.042358%, 84.042358%)"
         offset="0.140625"
         id="stop1311" />
      <stop
         stop-opacity="1"
         stop-color="rgb(84.33075%, 84.33075%, 84.33075%)"
         offset="0.15625"
         id="stop1312" />
      <stop
         stop-opacity="1"
         stop-color="rgb(84.617615%, 84.617615%, 84.617615%)"
         offset="0.171875"
         id="stop1313" />
      <stop
         stop-opacity="1"
         stop-color="rgb(84.90448%, 84.90448%, 84.90448%)"
         offset="0.1875"
         id="stop1314" />
      <stop
         stop-opacity="1"
         stop-color="rgb(85.192871%, 85.192871%, 85.192871%)"
         offset="0.203125"
         id="stop1315" />
      <stop
         stop-opacity="1"
         stop-color="rgb(85.479736%, 85.479736%, 85.479736%)"
         offset="0.21875"
         id="stop1316" />
      <stop
         stop-opacity="1"
         stop-color="rgb(85.768127%, 85.768127%, 85.768127%)"
         offset="0.234375"
         id="stop1317" />
      <stop
         stop-opacity="1"
         stop-color="rgb(86.054993%, 86.054993%, 86.054993%)"
         offset="0.25"
         id="stop1318" />
      <stop
         stop-opacity="1"
         stop-color="rgb(86.343384%, 86.343384%, 86.343384%)"
         offset="0.265625"
         id="stop1319" />
      <stop
         stop-opacity="1"
         stop-color="rgb(86.630249%, 86.630249%, 86.630249%)"
         offset="0.28125"
         id="stop1320" />
      <stop
         stop-opacity="1"
         stop-color="rgb(86.917114%, 86.917114%, 86.917114%)"
         offset="0.296875"
         id="stop1321" />
      <stop
         stop-opacity="1"
         stop-color="rgb(87.205505%, 87.205505%, 87.205505%)"
         offset="0.3125"
         id="stop1322" />
      <stop
         stop-opacity="1"
         stop-color="rgb(87.492371%, 87.492371%, 87.492371%)"
         offset="0.328125"
         id="stop1323" />
      <stop
         stop-opacity="1"
         stop-color="rgb(87.780762%, 87.780762%, 87.780762%)"
         offset="0.34375"
         id="stop1324" />
      <stop
         stop-opacity="1"
         stop-color="rgb(88.067627%, 88.067627%, 88.067627%)"
         offset="0.359375"
         id="stop1325" />
      <stop
         stop-opacity="1"
         stop-color="rgb(88.354492%, 88.354492%, 88.354492%)"
         offset="0.375"
         id="stop1326" />
      <stop
         stop-opacity="1"
         stop-color="rgb(88.642883%, 88.642883%, 88.642883%)"
         offset="0.390625"
         id="stop1327" />
      <stop
         stop-opacity="1"
         stop-color="rgb(88.929749%, 88.929749%, 88.929749%)"
         offset="0.40625"
         id="stop1328" />
      <stop
         stop-opacity="1"
         stop-color="rgb(89.21814%, 89.21814%, 89.21814%)"
         offset="0.421875"
         id="stop1329" />
      <stop
         stop-opacity="1"
         stop-color="rgb(89.505005%, 89.505005%, 89.505005%)"
         offset="0.4375"
         id="stop1330" />
      <stop
         stop-opacity="1"
         stop-color="rgb(89.793396%, 89.793396%, 89.793396%)"
         offset="0.453125"
         id="stop1331" />
      <stop
         stop-opacity="1"
         stop-color="rgb(90.080261%, 90.080261%, 90.080261%)"
         offset="0.46875"
         id="stop1332" />
      <stop
         stop-opacity="1"
         stop-color="rgb(90.367126%, 90.367126%, 90.367126%)"
         offset="0.484375"
         id="stop1333" />
      <stop
         stop-opacity="1"
         stop-color="rgb(90.655518%, 90.655518%, 90.655518%)"
         offset="0.5"
         id="stop1334" />
      <stop
         stop-opacity="1"
         stop-color="rgb(90.79895%, 90.79895%, 90.79895%)"
         offset="0.5"
         id="stop1335" />
      <stop
         stop-opacity="1"
         stop-color="rgb(90.942383%, 90.942383%, 90.942383%)"
         offset="0.515625"
         id="stop1336" />
      <stop
         stop-opacity="1"
         stop-color="rgb(91.230774%, 91.230774%, 91.230774%)"
         offset="0.53125"
         id="stop1337" />
      <stop
         stop-opacity="1"
         stop-color="rgb(91.517639%, 91.517639%, 91.517639%)"
         offset="0.546875"
         id="stop1338" />
      <stop
         stop-opacity="1"
         stop-color="rgb(91.804504%, 91.804504%, 91.804504%)"
         offset="0.5625"
         id="stop1339" />
      <stop
         stop-opacity="1"
         stop-color="rgb(92.092896%, 92.092896%, 92.092896%)"
         offset="0.578125"
         id="stop1340" />
      <stop
         stop-opacity="1"
         stop-color="rgb(92.379761%, 92.379761%, 92.379761%)"
         offset="0.59375"
         id="stop1341" />
      <stop
         stop-opacity="1"
         stop-color="rgb(92.668152%, 92.668152%, 92.668152%)"
         offset="0.609375"
         id="stop1342" />
      <stop
         stop-opacity="1"
         stop-color="rgb(92.955017%, 92.955017%, 92.955017%)"
         offset="0.625"
         id="stop1343" />
      <stop
         stop-opacity="1"
         stop-color="rgb(93.243408%, 93.243408%, 93.243408%)"
         offset="0.640625"
         id="stop1344" />
      <stop
         stop-opacity="1"
         stop-color="rgb(93.530273%, 93.530273%, 93.530273%)"
         offset="0.65625"
         id="stop1345" />
      <stop
         stop-opacity="1"
         stop-color="rgb(93.817139%, 93.817139%, 93.817139%)"
         offset="0.671875"
         id="stop1346" />
      <stop
         stop-opacity="1"
         stop-color="rgb(94.10553%, 94.10553%, 94.10553%)"
         offset="0.6875"
         id="stop1347" />
      <stop
         stop-opacity="1"
         stop-color="rgb(94.392395%, 94.392395%, 94.392395%)"
         offset="0.703125"
         id="stop1348" />
      <stop
         stop-opacity="1"
         stop-color="rgb(94.680786%, 94.680786%, 94.680786%)"
         offset="0.71875"
         id="stop1349" />
      <stop
         stop-opacity="1"
         stop-color="rgb(94.967651%, 94.967651%, 94.967651%)"
         offset="0.734375"
         id="stop1350" />
      <stop
         stop-opacity="1"
         stop-color="rgb(95.254517%, 95.254517%, 95.254517%)"
         offset="0.75"
         id="stop1351" />
      <stop
         stop-opacity="1"
         stop-color="rgb(95.542908%, 95.542908%, 95.542908%)"
         offset="0.765625"
         id="stop1352" />
      <stop
         stop-opacity="1"
         stop-color="rgb(95.829773%, 95.829773%, 95.829773%)"
         offset="0.78125"
         id="stop1353" />
      <stop
         stop-opacity="1"
         stop-color="rgb(96.118164%, 96.118164%, 96.118164%)"
         offset="0.796875"
         id="stop1354" />
      <stop
         stop-opacity="1"
         stop-color="rgb(96.405029%, 96.405029%, 96.405029%)"
         offset="0.8125"
         id="stop1355" />
      <stop
         stop-opacity="1"
         stop-color="rgb(96.69342%, 96.69342%, 96.69342%)"
         offset="0.828125"
         id="stop1356" />
      <stop
         stop-opacity="1"
         stop-color="rgb(96.980286%, 96.980286%, 96.980286%)"
         offset="0.84375"
         id="stop1357" />
      <stop
         stop-opacity="1"
         stop-color="rgb(97.267151%, 97.267151%, 97.267151%)"
         offset="0.859375"
         id="stop1358" />
      <stop
         stop-opacity="1"
         stop-color="rgb(97.555542%, 97.555542%, 97.555542%)"
         offset="0.875"
         id="stop1359" />
      <stop
         stop-opacity="1"
         stop-color="rgb(97.842407%, 97.842407%, 97.842407%)"
         offset="0.890625"
         id="stop1360" />
      <stop
         stop-opacity="1"
         stop-color="rgb(98.130798%, 98.130798%, 98.130798%)"
         offset="0.90625"
         id="stop1361" />
      <stop
         stop-opacity="1"
         stop-color="rgb(98.417664%, 98.417664%, 98.417664%)"
         offset="0.921875"
         id="stop1362" />
      <stop
         stop-opacity="1"
         stop-color="rgb(98.704529%, 98.704529%, 98.704529%)"
         offset="0.9375"
         id="stop1363" />
      <stop
         stop-opacity="1"
         stop-color="rgb(98.99292%, 98.99292%, 98.99292%)"
         offset="0.953125"
         id="stop1364" />
      <stop
         stop-opacity="1"
         stop-color="rgb(99.279785%, 99.279785%, 99.279785%)"
         offset="0.96875"
         id="stop1365" />
      <stop
         stop-opacity="1"
         stop-color="rgb(99.568176%, 99.568176%, 99.568176%)"
         offset="0.984375"
         id="stop1366" />
      <stop
         stop-opacity="1"
         stop-color="rgb(99.855042%, 99.855042%, 99.855042%)"
         offset="1"
         id="stop1367" />
    </linearGradient>
    <clipPath
       id="c1149e6890">
      <path
         d="m 1005.2891,317.14453 h 232.4023 v 232.40234 h -232.4023 z m 0,0"
         clip-rule="nonzero"
         id="path1367" />
    </clipPath>
    <clipPath
       id="4516c5385d">
      <path
         d="m 1024.0234,317.14453 h 194.9375 c 4.9688,0 9.7305,1.97266 13.2461,5.48828 3.5118,3.51172 5.4844,8.27735 5.4844,13.2461 v 194.9375 c 0,4.96484 -1.9726,9.73046 -5.4844,13.24609 -3.5156,3.51172 -8.2773,5.48437 -13.2461,5.48437 h -194.9375 c -4.9687,0 -9.7343,-1.97265 -13.2461,-5.48437 -3.5156,-3.51563 -5.4882,-8.28125 -5.4882,-13.24609 v -194.9375 c 0,-4.96875 1.9726,-9.73438 5.4882,-13.2461 3.5118,-3.51562 8.2774,-5.48828 13.2461,-5.48828 z m 0,0"
         clip-rule="nonzero"
         id="path1368" />
    </clipPath>
    <clipPath
       id="aecf88bca8">
      <path
         d="M 1066.5781,457 H 1098 v 31.63672 h -31.4219 z m 0,0"
         clip-rule="nonzero"
         id="path1369" />
    </clipPath>
    <clipPath
       id="20922ebdd1">
      <path
         d="m 1145,457 h 31.7813 v 31.63672 H 1145 Z m 0,0"
         clip-rule="nonzero"
         id="path1370" />
    </clipPath>
    <clipPath
       id="c97ddbbdc6">
      <path
         d="m 1145,378.43359 h 31.7813 V 410 H 1145 Z m 0,0"
         clip-rule="nonzero"
         id="path1371" />
    </clipPath>
    <clipPath
       id="573fac9ea5">
      <path
         d="M 1066.5781,378.43359 H 1098 V 410 h -31.4219 z m 0,0"
         clip-rule="nonzero"
         id="path1372" />
    </clipPath>
  </defs>
  <g
     clip-path="url(#416e8662ce)"
     id="g3226"
     transform="translate(-1005.289,-317.14453)">
    <g
       clip-path="url(#df8b7ad577)"
       id="g3225">
      <path
         fill="#ffffff"
         d="m 1005.2891,409.52734 h 232.5234 v 185.46485 h -232.5234 z m 0,0"
         fill-opacity="1"
         fill-rule="nonzero"
         id="path3224" />
    </g>
  </g>
  <g
     clip-path="url(#0500a51e62)"
     id="g3228"
     transform="translate(-1005.289,-317.14453)">
    <g
       clip-path="url(#3ff3cb0826)"
       id="g3227">
      <path
         fill="url(#180026fd1c)"
         d="m 1005.2891,317.14453 v 232.52344 h 232.5234 V 317.14453 Z m 0,0"
         fill-rule="nonzero"
         id="path3226"
         style="fill:url(#180026fd1c)" />
    </g>
  </g>
  <g
     clip-path="url(#c1149e6890)"
     id="g3230"
     transform="translate(-1005.289,-317.14453)">
    <g
       clip-path="url(#4516c5385d)"
       id="g3229">
      <path
         stroke-linecap="butt"
         transform="matrix(0.749307,0,0,0.749307,1005.2901,317.14503)"
         fill="none"
         stroke-linejoin="miter"
         d="M 25.000919,-6.62476e-4 H 285.15807 c 6.63112,0 12.98596,2.632641476 17.67779,7.324478476 4.68663,4.686624 7.31927,11.04667 7.31927,17.677799 V 285.15876 c 0,6.62592 -2.63264,12.98596 -7.31927,17.6778 -4.69183,4.68662 -11.04667,7.31927 -17.67779,7.31927 H 25.000919 c -6.631129,0 -12.991175,-2.63265 -17.677799,-7.31927 -4.691837,-4.69184 -7.32447877,-11.05188 -7.32447877,-17.6778 V 25.001615 C -0.00135877,18.370486 2.631283,12.01044 7.32312,7.323816 12.009744,2.631979 18.36979,-6.62476e-4 25.000919,-6.62476e-4 Z m 0,0"
         stroke="#ffffff"
         stroke-width="30"
         stroke-opacity="1"
         stroke-miterlimit="4"
         id="path3228" />
    </g>
  </g>
  <g
     fill="#336666"
     fill-opacity="1"
     id="g3233"
     transform="translate(-1005.289,-317.14453)">
    <g
       transform="translate(1027.3101,579.44524)"
       id="g3232">
      <g
         id="g3231">
        <path
           d="M 22.515625,-16.8125 H 12.84375 v 5.75 c 2.101562,-0.332031 4.65625,-1.382812 7.65625,-3.15625 0.1875,0.65625 0.304688,1.226562 0.359375,1.703125 0.707031,4.179687 -0.01563,7.449219 -2.171875,9.8125 -1.605469,1.898437 -3.859375,2.851563 -6.765625,2.875 h -0.07813 c -3.3125,0 -6.007812,-1.320313 -8.078125,-3.96875 -1.5625,-1.769531 -2.617187,-4.429687 -3.15625,-7.984375 l 3.46875,-1.5625 c 0.257813,2.585938 0.828125,4.679688 1.703125,6.28125 1.394531,2.367188 3.414062,3.546875 6.0625,3.546875 H 11.875 c 1.78125,0 3.109375,-0.519531 3.984375,-1.5625 1.007813,-0.988281 1.515625,-2.125 1.515625,-3.40625 -1.71875,0.835937 -3.835938,1.289063 -6.34375,1.359375 l -1.875,0.0625 v -9.75 H -0.421875 V -20.5 h 22.9375 z m 0,0"
           id="path3230" />
      </g>
    </g>
  </g>
  <g
     fill="#336666"
     fill-opacity="1"
     id="g3236"
     transform="translate(-1005.289,-317.14453)">
    <g
       transform="translate(1049.1896,579.44524)"
       id="g3235">
      <g
         id="g3234">
        <path
           d="m 12.515625,-6.203125 v -6.25 c -2.011719,0.449219 -3.984375,1.40625 -5.921875,2.875 2.507812,0.730469 4.484375,1.855469 5.921875,3.375 z M 19.125,-7.09375 c 0.507812,0.6875 1.015625,0.890625 1.515625,0.609375 0.257813,-0.257813 0.414063,-0.617187 0.46875,-1.078125 0.207031,-0.726562 -0.04297,-1.660156 -0.75,-2.796875 -0.710937,-1.132813 -2.09375,-1.898437 -4.15625,-2.296875 V 0.140625 H 12.5625 C 12.414062,-0.753906 11.8125,-1.78125 10.75,-2.9375 8.625,-5.019531 5.726562,-6.265625 2.0625,-6.671875 l -1.359375,-3.21875 c 1.164063,-1.1875 2.726563,-2.375 4.6875,-3.5625 1.957031,-1.195313 4.332031,-2.1875 7.125,-2.96875 V -16.8125 H -0.3125 V -20.5 h 25.984375 v 3.6875 h -9.46875 v 0.359375 c 2.363281,0.261719 4.28125,0.996094 5.75,2.203125 1.46875,1.199219 2.398437,2.589844 2.796875,4.171875 0.363281,1.324219 0.34375,2.664063 -0.0625,4.015625 -0.523438,1.324219 -1.3125,2.292969 -2.375,2.90625 -0.96875,0.542969 -1.976562,0.671875 -3.015625,0.390625 -0.761719,-0.207031 -1.617187,-0.679687 -2.5625,-1.421875 z m 0,0"
           id="path3233" />
      </g>
    </g>
  </g>
  <g
     fill="#336666"
     fill-opacity="1"
     id="g3239"
     transform="translate(-1005.289,-317.14453)">
    <g
       transform="translate(1072.6668,579.9772)"
       id="g3238">
      <g
         id="g3237">
        <path
           d="m -11.484375,5.359375 c 0.773437,-0.261719 1.21875,-0.875 1.34375,-1.84375 0.02344,-0.261719 0.03125,-0.382813 0.03125,-0.359375 0.117187,0.019531 0.04297,0.03125 -0.21875,0.03125 -0.351563,0 -0.679687,0.035156 -0.984375,0.109375 -1.1875,0.257813 -1.863281,0.648437 -2.03125,1.171875 -0.0625,0.332031 0.05859,0.628906 0.359375,0.890625 0.3125,0.226563 0.8125,0.226563 1.5,0 z M -6.875,0.5 c 0.75,0.164062 1.527344,0.492188 2.328125,0.984375 C -2.628906,2.742188 -1.125,4.601562 -0.03125,7.0625 l -2.875,1.8125 c -1.0625,-2.0625 -2.269531,-3.449219 -3.625,-4.15625 -0.488281,1.894531 -1.691406,3.148438 -3.609375,3.765625 -1.9375,0.582031 -3.695313,0.390625 -5.28125,-0.578125 -1.445313,-1.179688 -1.9375,-2.59375 -1.46875,-4.25 0.480469,-1.84375 2.070313,-3.054688 4.765625,-3.625 0.730469,-0.1132812 1.234375,-0.171875 1.515625,-0.171875 0,0 -0.01953,-0.414063 -0.0625,-1.25 l 2.046875,-0.875 c 0.90625,1.011719 1.492188,1.933594 1.75,2.765625 z m 0,0"
           id="path3236" />
      </g>
    </g>
  </g>
  <g
     fill="#336666"
     fill-opacity="1"
     id="g3242"
     transform="translate(-1005.289,-317.14453)">
    <g
       transform="translate(1074.5088,579.44524)"
       id="g3241">
      <g
         id="g3240">
        <path
           d="m -0.28125,-20.5 h 10.390625 v 3.6875 h -1.78125 c -2.03125,2.367188 -3.273437,4.765625 -3.71875,7.203125 -0.09375,0.59375 -0.140625,1.136719 -0.140625,1.625 0,1.679687 0.484375,2.945313 1.453125,3.796875 0.46875,0.449219 1.238281,0.671875 2.3125,0.671875 0.539063,0 1.15625,-0.054687 1.84375,-0.171875 L 9.1875,0.140625 c 0,0 -0.011719,0 -0.03125,0 H 9.015625 c -0.03125,0 -0.046875,0 -0.046875,0 -0.023438,0 -0.03125,0 -0.03125,0 h -0.25 c 0,0 -0.011719,0 -0.03125,0 H 8.578125 c 0,0 -0.011719,0 -0.03125,0 h -0.0625 c 0,0 -0.015625,0 -0.046875,0 H 8.40625 c 0,0 -0.011719,0 -0.03125,0 H 7.765625 c -1.730469,0 -3.183594,-0.519531 -4.359375,-1.5625 -1.75,-1.5625 -2.625,-3.710937 -2.625,-6.453125 0,-0.726562 0.054688,-1.492188 0.171875,-2.296875 C 1.429688,-12.847656 2.320312,-15.0625 3.625,-16.8125 h -3.90625 z m 0,0"
           id="path3239" />
      </g>
    </g>
  </g>
  <g
     fill="#336666"
     fill-opacity="1"
     id="g3245"
     transform="translate(-1005.289,-317.14453)">
    <g
       transform="translate(1084.1896,579.44524)"
       id="g3244">
      <g
         id="g3243">
        <path
           d="M 15.109375,-9.796875 V -16.8125 H 8.15625 c 1.488281,1.230469 2.304688,2.601562 2.453125,4.109375 1.882813,0.386719 3.382813,1.355469 4.5,2.90625 z m -8.828125,3.9375 c 1.0625,0.21875 2.347656,-0.0625 3.859375,-0.84375 l 0.28125,3.90625 C 8.742188,-2.117188 7.148438,-1.90625 5.640625,-2.15625 3.628906,-2.519531 2.257812,-3.503906 1.53125,-5.109375 c -0.742188,-1.65625 -0.65625,-3.238281 0.25,-4.75 1.0625,-1.800781 2.757812,-2.816406 5.09375,-3.046875 0,-0.5 -0.382812,-1.050781 -1.140625,-1.65625 -0.75,-0.601562 -2.476563,-0.84375 -5.171875,-0.71875 L 0.890625,-16.8125 H -0.28125 V -20.5 h 20.8125 v 3.6875 H 18.796875 V 0.140625 h -3.6875 v -2.375 c -0.242187,-1.4375 -0.761719,-2.785156 -1.5625,-4.046875 C 12.128906,-8.476562 10.144531,-9.457031 7.59375,-9.21875 6.238281,-9.101562 5.375,-8.703125 5,-8.015625 4.738281,-7.566406 4.71875,-7.101562 4.9375,-6.625 c 0.15625,0.398438 0.601562,0.652344 1.34375,0.765625 z m 0,0"
           id="path3242" />
      </g>
    </g>
  </g>
  <g
     fill="#336666"
     fill-opacity="1"
     id="g3248"
     transform="translate(-1005.289,-317.14453)">
    <g
       transform="translate(1104.5797,579.44524)"
       id="g3247">
      <g
         id="g3246">
        <path
           d="M -0.21875,-16.8125 V -20.5 h 13.0625 v 3.6875 z m 6.390625,2.234375 c 2.53125,0.148437 4.789063,0.949219 6.78125,2.40625 V -7.3125 c -1.917969,-2.363281 -4.4375,-3.578125 -7.5625,-3.640625 -0.949219,0.04297 -1.480469,0.15625 -1.59375,0.34375 0,0 0,0.01563 0,0.04687 v 0.03125 c 0,0.04297 0.00781,0.08984 0.03125,0.140625 0.6875,0.5625 2.046875,0.945313 4.078125,1.140625 L 6.25,-5.609375 C 3.425781,-6.148438 1.566406,-7.09375 0.671875,-8.4375 0.242188,-9.175781 0.03125,-9.898438 0.03125,-10.609375 c 0,-0.632813 0.191406,-1.257813 0.578125,-1.875 0.820313,-1.394531 2.628906,-2.09375 5.421875,-2.09375 0,0 0.00781,0 0.03125,0 0,0 0.00781,0 0.03125,0 h 0.046875 c 0.019531,0 0.03125,0 0.03125,0 z m 0,0"
           id="path3245" />
      </g>
    </g>
  </g>
  <g
     fill="#336666"
     fill-opacity="1"
     id="g3251"
     transform="translate(-1005.289,-317.14453)">
    <g
       transform="translate(1115.679,579.44524)"
       id="g3250">
      <g
         id="g3249">
        <path
           d="m 20.46875,-16.8125 h -15.25 V -3.625 c 5.007812,0.167969 8.304688,-1.285156 9.890625,-4.359375 0.613281,-1.25 0.566406,-2.097656 -0.140625,-2.546875 -0.636719,-0.382812 -1.5,-0.46875 -2.59375,-0.25 -1.210938,0.261719 -2.234375,1.027344 -3.078125,2.296875 l -2.3125,-3.078125 c 1.488281,-1.632812 3.203125,-2.601562 5.140625,-2.90625 1.84375,-0.28125 3.453125,-0.0078 4.828125,0.8125 1.082031,0.667969 1.789063,1.601562 2.125,2.796875 C 19.460938,-9.429688 19.226562,-7.914062 18.375,-6.3125 16.175781,-2.03125 11.773438,0.109375 5.171875,0.109375 4.398438,0.109375 3.726562,0.0703125 3.15625,0 l -1.625,-0.21875 V -16.8125 H -0.671875 V -20.5 H 14.9375 c 0,-0.07031 -0.121094,-0.367188 -0.359375,-0.890625 -0.40625,-0.726563 -1.292969,-1.304687 -2.65625,-1.734375 -3.011719,-0.46875 -6.84375,0.171875 -11.5,1.921875 V -24.6875 c 4.757813,-2.144531 8.921875,-2.804688 12.484375,-1.984375 2.488281,0.710937 4.15625,1.9375 5,3.6875 0.445312,0.992187 0.695312,1.820313 0.75,2.484375 h 1.8125 z m 0,0"
           id="path3248" />
      </g>
    </g>
  </g>
  <g
     fill="#336666"
     fill-opacity="1"
     id="g3257"
     transform="translate(-1005.289,-317.14453)">
    <g
       transform="translate(1143.3741,579.44524)"
       id="g3256">
      <g
         id="g3255">
        <path
           d="m 23.484375,-12.453125 c -2.011719,0.449219 -3.984375,1.40625 -5.921875,2.875 2.5,0.761719 4.472656,1.851563 5.921875,3.265625 z M 9.890625,-16.8125 c 0.351563,0.335938 0.613281,0.640625 0.78125,0.921875 1.519531,-0.257813 2.832031,0.414063 3.9375,2.015625 0.425781,-1.082031 0.40625,-2.0625 -0.0625,-2.9375 z m 8.515625,0.03125 c 0.09375,0.523438 0.09375,1.257812 0,2.203125 1.507812,-0.707031 3.203125,-1.320313 5.078125,-1.84375 V -16.8125 Z M -0.84375,-20.5 h 37.625 v 3.71875 l -9.609375,-0.03125 v 0.25 c 2.238281,0.261719 4.128906,1.027344 5.671875,2.296875 1.507812,1.261719 2.421875,2.636719 2.734375,4.125 0.238281,1.398437 0.15625,2.765625 -0.25,4.109375 -0.523437,1.324219 -1.3125,2.28125 -2.375,2.875 -0.96875,0.542969 -1.964844,0.671875 -2.984375,0.390625 -0.75,-0.1875 -1.507812,-0.660156 -2.265625,-1.421875 l 2.15625,-3.015625 c 0.445313,0.78125 0.921875,1.023437 1.421875,0.71875 0.257812,-0.257813 0.425781,-0.617187 0.5,-1.078125 C 31.96875,-8.289062 31.707031,-9.222656 31,-10.359375 30.289062,-11.472656 29.015625,-12.226562 27.171875,-12.625 V 0.171875 h -3.65625 c -0.148437,-0.914063 -0.75,-1.953125 -1.8125,-3.109375 -2.125,-2.082031 -5.023437,-3.328125 -8.6875,-3.734375 l -1.34375,-3.21875 c 0.300781,-0.3125 0.65625,-0.632813 1.0625,-0.96875 -0.6875,-0.914063 -1.304687,-1.382813 -1.84375,-1.40625 -0.28125,-0.03125 -0.554687,0.01563 -0.8125,0.140625 -0.335937,0.304688 -0.679687,0.632812 -1.03125,0.984375 C 6.921875,-9.035156 5.03125,-8.019531 3.375,-8.09375 2.28125,-8.1875 1.070312,-8.8125 -0.25,-9.96875 l 1.671875,-3.515625 c 1.0625,1.117187 1.796875,1.683594 2.203125,1.703125 0.707031,0.05469 1.628906,-0.582031 2.765625,-1.90625 0.226563,-0.238281 0.460937,-0.441406 0.703125,-0.609375 -0.3125,-0.851563 -1.070312,-1.347656 -2.265625,-1.484375 -1.75,-0.05078 -3.289063,0.08984 -4.609375,0.421875 L 0.5,-16.8125 h -1.34375 z m 0,0"
           id="path3254" />
      </g>
    </g>
  </g>
  <g
     fill="#336666"
     fill-opacity="1"
     id="g3260"
     transform="translate(-1005.289,-317.14453)">
    <g
       transform="translate(1179.7217,579.44524)"
       id="g3259">
      <g
         id="g3258">
        <path
           d="M 9.15625,-16.8125 H 5.953125 c -0.898437,1.230469 -1.34375,2.554688 -1.34375,3.96875 0,0.07422 0,0.148438 0,0.21875 0.050781,0.824219 0.609375,2.007812 1.671875,3.546875 C 7.507812,-7.253906 8.125,-5.726562 8.125,-4.5 c 0,0.074219 0,0.15625 0,0.25 -0.242188,3.023438 -2.179688,5.039062 -5.8125,6.0625 l -1.609375,-3.625 c 2.394531,-0.59375 3.625,-1.503906 3.6875,-2.734375 0,-0.019531 0,-0.039063 0,-0.0625 0,-0.425781 -0.402344,-1.21875 -1.203125,-2.375 -1.460938,-2.125 -2.214844,-3.945313 -2.265625,-5.46875 0,-0.1875 0,-0.375 0,-0.5625 0,-1.582031 0.257813,-2.847656 0.78125,-3.796875 H -0.5 V -20.5 h 9.65625 z m 0,0"
           id="path3257" />
      </g>
    </g>
  </g>
  <g
     fill="#336666"
     fill-opacity="1"
     id="g3263"
     transform="translate(-1005.289,-317.14453)">
    <g
       transform="translate(1188.3742,579.44524)"
       id="g3262">
      <g
         id="g3261">
        <path
           d="m -0.53125,-20.5 h 8.328125 v 3.6875 H 5.5 V 0.140625 H 1.78125 V -16.8125 h -2.3125 z m 0,0"
           id="path3260" />
      </g>
    </g>
  </g>
  <g
     fill="#336666"
     fill-opacity="1"
     id="g3266"
     transform="translate(-1005.289,-317.14453)">
    <g
       transform="translate(1195.6437,579.44524)"
       id="g3265">
      <g
         id="g3264">
        <path
           d="m 15.140625,-11.203125 -0.28125,-1.5 V -16.8125 H -0.46875 V -20.5 H 20.5 v 3.6875 H 18.578125 V 0.140625 h -3.71875 V -3.375 c -0.09375,-1.269531 -0.449219,-2.546875 -1.0625,-3.828125 C 12.617188,-9.515625 10.773438,-10.863281 8.265625,-11.25 6.460938,-11.53125 5.207031,-11.046875 4.5,-9.796875 4.03125,-8.867188 4.066406,-8.0625 4.609375,-7.375 5.242188,-6.644531 7.019531,-6.523438 9.9375,-7.015625 l -0.75,3.71875 c -3.449219,0.636719 -5.90625,0.058594 -7.375,-1.734375 -0.78125,-0.875 -1.183594,-1.953125 -1.203125,-3.234375 -0.074219,-1.175781 0.132813,-2.285156 0.625,-3.328125 1.59375,-2.75 4.125,-3.863281 7.59375,-3.34375 2.269531,0.355469 4.375,1.601562 6.3125,3.734375 z m 0,0"
           id="path3263" />
      </g>
    </g>
  </g>
  <g
     clip-path="url(#aecf88bca8)"
     id="g3267"
     transform="translate(-1005.289,-317.14453)">
    <path
       fill="#d50060"
       d="m 1096.0664,488.63672 h -18.5117 c -6.0274,0 -10.9766,-4.94922 -10.9766,-10.76172 v -18.72656 c 0,-0.85938 0.8633,-1.50782 1.7227,-1.50782 h 6.0273 c 1.0742,0 1.7227,0.64844 1.7227,1.50782 v 18.51172 c 0,0.85937 0.6445,1.72265 1.5039,1.72265 h 18.5117 c 0.8594,0 1.7227,0.64453 1.7227,1.50391 v 6.02734 c -0.2149,0.86328 -1.0782,1.72266 -1.7227,1.72266 z m -26.2578,-27.76563 V 477.875 c 0,4.08984 3.4414,7.53516 7.7461,7.53516 h 16.7891 v -2.80079 h -16.7891 c -2.582,0 -4.7344,-2.15234 -4.7344,-4.73437 v -17.00391 z m 0,0"
       fill-opacity="1"
       fill-rule="evenodd"
       id="path3266" />
  </g>
  <g
     clip-path="url(#20922ebdd1)"
     id="g3268"
     transform="translate(-1005.289,-317.14453)">
    <path
       fill="#d50060"
       d="m 1166.0195,488.63672 h -18.7265 c -0.8594,0 -1.5039,-0.85938 -1.5039,-1.72266 v -6.02734 c 0,-0.85938 0.6445,-1.50391 1.5039,-1.50391 h 18.5117 c 0.8594,0 1.7226,-0.86328 1.7226,-1.72265 v -18.51172 c 0,-0.85938 0.6446,-1.50782 1.5079,-1.50782 h 6.0234 c 0.8633,0 1.7227,0.64844 1.7227,1.50782 v 18.51172 c 0,6.02734 -4.9493,10.97656 -10.7618,10.97656 z m -17.0039,-3.22656 h 17.0039 c 4.0899,0 7.5352,-3.44532 7.5352,-7.53516 v -17.00391 h -2.8008 V 477.875 c 0,2.58203 -2.1523,4.73437 -4.7344,4.73437 h -17.0039 z m 0,0"
       fill-opacity="1"
       fill-rule="evenodd"
       id="path3267" />
  </g>
  <g
     clip-path="url(#c97ddbbdc6)"
     id="g3269"
     transform="translate(-1005.289,-317.14453)">
    <path
       fill="#d50060"
       d="m 1175.2773,409.42969 h -6.2421 c -0.8633,0 -1.5079,-0.86328 -1.5079,-1.72266 v -18.29687 c 0,-0.85938 -0.6445,-1.72266 -1.5078,-1.72266 h -18.7265 c -0.8594,0 -1.5039,-0.64453 -1.5039,-1.50391 v -6.02734 c 0,-0.86328 0.6445,-1.72266 1.5039,-1.72266 h 18.5117 c 6.0273,0 10.7617,4.94922 10.7617,10.97657 v 18.51171 c 0.2149,0.64454 -0.6445,1.50782 -1.2891,1.50782 z m -4.5234,-3.23047 h 2.8008 v -16.78906 c 0,-4.30469 -3.4453,-7.7461 -7.5352,-7.7461 h -17.0039 v 3.01172 h 17.0039 c 2.5821,0 4.7344,2.15234 4.7344,4.73438 z m 0,0"
       fill-opacity="1"
       fill-rule="evenodd"
       id="path3268" />
  </g>
  <g
     clip-path="url(#573fac9ea5)"
     id="g3270"
     transform="translate(-1005.289,-317.14453)">
    <path
       fill="#d50060"
       d="m 1074.3281,409.42969 h -6.0273 c -0.8594,0 -1.7227,-0.86328 -1.7227,-1.72266 v -18.29687 c 0,-6.02735 4.9492,-10.97657 10.9766,-10.97657 h 18.5117 c 0.8594,0 1.5078,0.85938 1.5078,1.72266 v 6.02734 c 0,1.07422 -0.6484,1.71875 -1.5078,1.71875 h -18.5117 c -0.8594,0 -1.7188,0.64844 -1.7188,1.50782 v 18.51171 c 0,0.64454 -0.6484,1.50782 -1.5078,1.50782 z m -4.5195,-3.23047 h 3.0117 v -16.78906 c 0,-2.58204 2.1524,-4.73438 4.7344,-4.73438 h 16.7891 v -3.01172 h -16.7891 c -4.3047,0 -7.7461,3.44141 -7.7461,7.7461 z m 0,0"
       fill-opacity="1"
       fill-rule="evenodd"
       id="path3269" />
  </g>
  <path
     fill="#336666"
     d="M 144.5899,155.13281 H 88.195397 c -0.4297,0 -0.8633,-0.21484 -1.0781,-0.42968 -0.2149,-0.42969 -0.4297,-0.85938 -0.4297,-1.07422 V 93.574219 c 0,0 0,-0.21484 0,-0.21484 0,-0.42969 0.2148,-0.64454 0.4297,-0.85938 0,0 0,0 0,-0.21484 L 101.1094,78.292969 c 0,0 0,0 0.2149,-0.21484 0.2148,-0.21485 0.6445,-0.21485 0.8594,-0.21485 0,0 0.2187,0 0.2187,0 h 42.1875 c 1.0742,0 1.7188,0.64453 1.7188,1.50781 v 74.257821 c 0,0.64453 -0.8594,1.5039 -1.7188,1.5039 z M 89.703197,151.90625 H 143.0821 V 80.874999 h -39.1758 v 12.48438 c 0,0.86328 -0.8594,1.72265 -1.7226,1.72265 H 89.917997 Z m 2.3672,-60.054691 h 8.609403 v -8.60937 z m 0,0"
     fill-opacity="1"
     fill-rule="evenodd"
     id="path3270" />
  <path
     fill="#336666"
     d="m 130.8126,103.47656 h -28.6289 c -0.8594,0 -1.7188,-0.64453 -1.7188,-1.50781 0,-1.07422 0.8594,-1.72266 1.7188,-1.72266 h 28.6289 c 0.8593,0 1.5078,0.64844 1.5078,1.72266 0,0.86328 -0.6485,1.50781 -1.5078,1.50781 z m 0,0"
     fill-opacity="1"
     fill-rule="evenodd"
     id="path3271" />
  <path
     fill="#336666"
     d="m 130.8126,117.25 h -28.6289 c -0.8594,0 -1.7188,-0.85937 -1.7188,-1.71875 0,-0.86328 0.8594,-1.50781 1.7188,-1.50781 h 28.6289 c 0.8593,0 1.5078,0.64453 1.5078,1.50781 0,0.85938 -0.6485,1.71875 -1.5078,1.71875 z m 0,0"
     fill-opacity="1"
     fill-rule="evenodd"
     id="path3272" />
  <path
     fill="#336666"
     d="m 130.8126,131.02734 h -28.6289 c -0.8594,0 -1.7188,-0.85937 -1.7188,-1.72265 0,-0.85938 0.8594,-1.50781 1.7188,-1.50781 h 28.6289 c 0.8593,0 1.5078,0.64843 1.5078,1.50781 0,0.86328 -0.6485,1.72265 -1.5078,1.72265 z m 0,0"
     fill-opacity="1"
     fill-rule="evenodd"
     id="path3273" />
  <path
     fill="#336666"
     d="m 130.8126,144.58594 h -28.6289 c -0.8594,0 -1.7188,-0.64453 -1.7188,-1.50391 0,-0.86328 0.8594,-1.72265 1.7188,-1.72265 h 28.6289 c 0.8593,0 1.5078,0.85937 1.5078,1.72265 0,0.85938 -0.6485,1.50391 -1.5078,1.50391 z m 0,0"
     fill-opacity="1"
     fill-rule="evenodd"
     id="path3274" />
  <path
     fill="#336666"
     d="M 162.8829,124.35547 H 69.898497 c -0.8594,0 -1.5078,-0.64453 -1.5078,-1.50781 0,-0.85938 0.6484,-1.72266 1.5078,-1.72266 H 162.8829 c 0.8633,0 1.7226,0.86328 1.7226,1.72266 0,0.86328 -0.8593,1.50781 -1.7226,1.50781 z m 0,0"
     fill-opacity="1"
     fill-rule="evenodd"
     id="path3275" />
</svg>
